%TF.GenerationSoftware,KiCad,Pcbnew,7.0.10-7.0.10~ubuntu22.04.1*%
%TF.CreationDate,2024-02-01T11:01:03+07:00*%
%TF.ProjectId,BFMC,42464d43-2e6b-4696-9361-645f70636258,rev?*%
%TF.SameCoordinates,Original*%
%TF.FileFunction,Soldermask,Top*%
%TF.FilePolarity,Negative*%
%FSLAX46Y46*%
G04 Gerber Fmt 4.6, Leading zero omitted, Abs format (unit mm)*
G04 Created by KiCad (PCBNEW 7.0.10-7.0.10~ubuntu22.04.1) date 2024-02-01 11:01:03*
%MOMM*%
%LPD*%
G01*
G04 APERTURE LIST*
G04 Aperture macros list*
%AMRoundRect*
0 Rectangle with rounded corners*
0 $1 Rounding radius*
0 $2 $3 $4 $5 $6 $7 $8 $9 X,Y pos of 4 corners*
0 Add a 4 corners polygon primitive as box body*
4,1,4,$2,$3,$4,$5,$6,$7,$8,$9,$2,$3,0*
0 Add four circle primitives for the rounded corners*
1,1,$1+$1,$2,$3*
1,1,$1+$1,$4,$5*
1,1,$1+$1,$6,$7*
1,1,$1+$1,$8,$9*
0 Add four rect primitives between the rounded corners*
20,1,$1+$1,$2,$3,$4,$5,0*
20,1,$1+$1,$4,$5,$6,$7,0*
20,1,$1+$1,$6,$7,$8,$9,0*
20,1,$1+$1,$8,$9,$2,$3,0*%
G04 Aperture macros list end*
%ADD10C,2.000000*%
%ADD11RoundRect,0.262900X-0.262900X0.275400X-0.262900X-0.275400X0.262900X-0.275400X0.262900X0.275400X0*%
%ADD12RoundRect,0.050800X1.350000X-1.350000X1.350000X1.350000X-1.350000X1.350000X-1.350000X-1.350000X0*%
%ADD13C,2.801600*%
%ADD14C,3.101600*%
%ADD15RoundRect,0.102000X0.765000X-0.765000X0.765000X0.765000X-0.765000X0.765000X-0.765000X-0.765000X0*%
%ADD16C,1.734000*%
%ADD17RoundRect,0.050800X-0.850000X-0.850000X0.850000X-0.850000X0.850000X0.850000X-0.850000X0.850000X0*%
%ADD18O,1.801600X1.801600*%
%ADD19RoundRect,0.267826X0.495474X0.657974X-0.495474X0.657974X-0.495474X-0.657974X0.495474X-0.657974X0*%
%ADD20RoundRect,0.262900X0.262900X-0.275400X0.262900X0.275400X-0.262900X0.275400X-0.262900X-0.275400X0*%
%ADD21RoundRect,0.102000X-0.762000X-0.762000X0.762000X-0.762000X0.762000X0.762000X-0.762000X0.762000X0*%
%ADD22C,1.728000*%
%ADD23C,6.404000*%
%ADD24RoundRect,0.050800X-1.300000X1.300000X-1.300000X-1.300000X1.300000X-1.300000X1.300000X1.300000X0*%
%ADD25C,2.701600*%
%ADD26RoundRect,0.050800X1.000000X-1.000000X1.000000X1.000000X-1.000000X1.000000X-1.000000X-1.000000X0*%
%ADD27C,2.101600*%
G04 APERTURE END LIST*
D10*
X74000000Y-51000000D02*
X104000000Y-51000000D01*
X104000000Y-56000000D01*
X74000000Y-56000000D01*
X74000000Y-51000000D01*
X142000000Y-57000000D02*
X147000000Y-57000000D01*
X147000000Y-97000000D01*
X142000000Y-97000000D01*
X142000000Y-57000000D01*
D11*
%TO.C,R2*%
X143724300Y-108360200D03*
X143724300Y-110185200D03*
%TD*%
D12*
%TO.C,J18*%
X51587400Y-141097000D03*
D13*
X51587400Y-137597000D03*
X51587400Y-134097000D03*
X51587400Y-130597000D03*
X51587400Y-127097000D03*
X51587400Y-123597000D03*
X51587400Y-120097000D03*
X51587400Y-116597000D03*
X51587400Y-113097000D03*
%TD*%
D11*
%TO.C,R1*%
X143724300Y-112193700D03*
X143724300Y-114018700D03*
%TD*%
D14*
%TO.C,U1*%
X87111600Y-138455400D03*
X139181600Y-105435400D03*
X88381600Y-90195400D03*
D15*
X90921600Y-146075400D03*
D16*
X90921600Y-143535400D03*
X93461600Y-146075400D03*
X93461600Y-143535400D03*
X96001600Y-146075400D03*
X96001600Y-143535400D03*
X98541600Y-146075400D03*
X98541600Y-143535400D03*
X101081600Y-146075400D03*
X101081600Y-143535400D03*
X103621600Y-146075400D03*
X103621600Y-143535400D03*
X106161600Y-146075400D03*
X106161600Y-143535400D03*
X108701600Y-146075400D03*
X108701600Y-143535400D03*
X111241600Y-146075400D03*
X111241600Y-143535400D03*
X113781600Y-146075400D03*
X113781600Y-143535400D03*
X116321600Y-146075400D03*
X116321600Y-143535400D03*
X118861600Y-146075400D03*
X118861600Y-143535400D03*
X121401600Y-146075400D03*
X121401600Y-143535400D03*
X123941600Y-146075400D03*
X123941600Y-143535400D03*
X126481600Y-146075400D03*
X126481600Y-143535400D03*
X129021600Y-146075400D03*
X129021600Y-143535400D03*
X131561600Y-146075400D03*
X131561600Y-143535400D03*
X134101600Y-146075400D03*
X134101600Y-143535400D03*
X136641600Y-146075400D03*
X136641600Y-143535400D03*
D15*
X90921600Y-85115400D03*
D16*
X90921600Y-82575400D03*
X93461600Y-85115400D03*
X93461600Y-82575400D03*
X96001600Y-85115400D03*
X96001600Y-82575400D03*
X98541600Y-85115400D03*
X98541600Y-82575400D03*
X101081600Y-85115400D03*
X101081600Y-82575400D03*
X103621600Y-85115400D03*
X103621600Y-82575400D03*
X106161600Y-85115400D03*
X106161600Y-82575400D03*
X108701600Y-85115400D03*
X108701600Y-82575400D03*
X111241600Y-85115400D03*
X111241600Y-82575400D03*
X113781600Y-85115400D03*
X113781600Y-82575400D03*
X116321600Y-85115400D03*
X116321600Y-82575400D03*
X118861600Y-85115400D03*
X118861600Y-82575400D03*
X121401600Y-85115400D03*
X121401600Y-82575400D03*
X123941600Y-85115400D03*
X123941600Y-82575400D03*
X126481600Y-85115400D03*
X126481600Y-82575400D03*
X129021600Y-85115400D03*
X129021600Y-82575400D03*
X131561600Y-85115400D03*
X131561600Y-82575400D03*
X134101600Y-85115400D03*
X134101600Y-82575400D03*
X136641600Y-85115400D03*
X136641600Y-82575400D03*
%TD*%
D17*
%TO.C,J6*%
X66929000Y-42113200D03*
D18*
X66929000Y-44653200D03*
X66929000Y-47193200D03*
%TD*%
D19*
%TO.C,5V*%
X146699300Y-116408200D03*
X143724300Y-116408200D03*
%TD*%
D17*
%TO.C,J5*%
X66929000Y-33426400D03*
D18*
X66929000Y-35966400D03*
X66929000Y-38506400D03*
%TD*%
D19*
%TO.C,BLDC*%
X146699300Y-127787400D03*
X143724300Y-127787400D03*
%TD*%
%TO.C,12V*%
X146699300Y-122097800D03*
X143724300Y-122097800D03*
%TD*%
D20*
%TO.C,R4*%
X143724300Y-132103500D03*
X143724300Y-130278500D03*
%TD*%
D21*
%TO.C,U2*%
X67633400Y-24634600D03*
D22*
X67633400Y-22094600D03*
X70173400Y-24634600D03*
X70173400Y-22094600D03*
X72713400Y-24634600D03*
X72713400Y-22094600D03*
X75253400Y-24634600D03*
X75253400Y-22094600D03*
X77793400Y-24634600D03*
X77793400Y-22094600D03*
X80333400Y-24634600D03*
X80333400Y-22094600D03*
X82873400Y-24634600D03*
X82873400Y-22094600D03*
X85413400Y-24634600D03*
X85413400Y-22094600D03*
X87953400Y-24634600D03*
X87953400Y-22094600D03*
X90493400Y-24634600D03*
X90493400Y-22094600D03*
X93033400Y-24634600D03*
X93033400Y-22094600D03*
X95573400Y-24634600D03*
X95573400Y-22094600D03*
X98113400Y-24634600D03*
X98113400Y-22094600D03*
X100653400Y-24634600D03*
X100653400Y-22094600D03*
X103193400Y-24634600D03*
X103193400Y-22094600D03*
X105733400Y-24634600D03*
X105733400Y-22094600D03*
X108273400Y-24634600D03*
X108273400Y-22094600D03*
X110813400Y-24634600D03*
X110813400Y-22094600D03*
X113353400Y-24634600D03*
X113353400Y-22094600D03*
X115893400Y-24634600D03*
X115893400Y-22094600D03*
X121993400Y-30757600D03*
X121993400Y-28217600D03*
X119453400Y-30757600D03*
X119453400Y-28217600D03*
D23*
X62763400Y-23364600D03*
X120763400Y-23364600D03*
X120763400Y-72364600D03*
X62763400Y-72364600D03*
%TD*%
D24*
%TO.C,J2*%
X140980200Y-35966400D03*
D25*
X140980200Y-41046400D03*
%TD*%
D26*
%TO.C,BZ1*%
X111506000Y-137591800D03*
D27*
X111506000Y-129991800D03*
%TD*%
M02*
