%TF.GenerationSoftware,KiCad,Pcbnew,7.0.10-7.0.10~ubuntu22.04.1*%
%TF.CreationDate,2024-02-01T23:34:03+07:00*%
%TF.ProjectId,BFMC,42464d43-2e6b-4696-9361-645f70636258,rev?*%
%TF.SameCoordinates,Original*%
%TF.FileFunction,Drillmap*%
%TF.FilePolarity,Positive*%
%FSLAX45Y45*%
G04 Gerber Fmt 4.5, Leading zero omitted, Abs format (unit mm)*
G04 Created by KiCad (PCBNEW 7.0.10-7.0.10~ubuntu22.04.1) date 2024-02-01 23:34:03*
%MOMM*%
%LPD*%
G01*
G04 APERTURE LIST*
%ADD10C,0.100000*%
%ADD11C,0.101600*%
%ADD12C,0.200000*%
%ADD13C,0.102000*%
%ADD14C,0.140000*%
%ADD15C,0.275000*%
G04 APERTURE END LIST*
D10*
X14300000Y-5800000D02*
X14600000Y-5800000D01*
X14600000Y-9600000D01*
X14300000Y-9600000D01*
X14300000Y-5800000D01*
D11*
X4325620Y-1402820D02*
X14800000Y-1402820D01*
X14800000Y-15168880D01*
X4325620Y-15168880D01*
X4325620Y-1402820D01*
D10*
X7500000Y-5200000D02*
X10300000Y-5200000D01*
X10300000Y-5500000D01*
X7500000Y-5500000D01*
X7500000Y-5200000D01*
D12*
D10*
X4552000Y-1504000D02*
X4592000Y-1544000D01*
X4592000Y-1504000D02*
X4552000Y-1544000D01*
X4552000Y-1758000D02*
X4592000Y-1798000D01*
X4592000Y-1758000D02*
X4552000Y-1798000D01*
X4552000Y-2012000D02*
X4592000Y-2052000D01*
X4592000Y-2012000D02*
X4552000Y-2052000D01*
X4552000Y-2266000D02*
X4592000Y-2306000D01*
X4592000Y-2266000D02*
X4552000Y-2306000D01*
X4552000Y-2520000D02*
X4592000Y-2560000D01*
X4592000Y-2520000D02*
X4552000Y-2560000D01*
X4552000Y-2774000D02*
X4592000Y-2814000D01*
X4592000Y-2774000D02*
X4552000Y-2814000D01*
X4552000Y-3028000D02*
X4592000Y-3068000D01*
X4592000Y-3028000D02*
X4552000Y-3068000D01*
X4552000Y-3536000D02*
X4592000Y-3576000D01*
X4592000Y-3536000D02*
X4552000Y-3576000D01*
X4552000Y-3790000D02*
X4592000Y-3830000D01*
X4592000Y-3790000D02*
X4552000Y-3830000D01*
X4552000Y-4044000D02*
X4592000Y-4084000D01*
X4592000Y-4044000D02*
X4552000Y-4084000D01*
X4552000Y-4298000D02*
X4592000Y-4338000D01*
X4592000Y-4298000D02*
X4552000Y-4338000D01*
X4552000Y-5314000D02*
X4592000Y-5354000D01*
X4592000Y-5314000D02*
X4552000Y-5354000D01*
X4552000Y-5568000D02*
X4592000Y-5608000D01*
X4592000Y-5568000D02*
X4552000Y-5608000D01*
X4552000Y-5822000D02*
X4592000Y-5862000D01*
X4592000Y-5822000D02*
X4552000Y-5862000D01*
X4552000Y-6076000D02*
X4592000Y-6116000D01*
X4592000Y-6076000D02*
X4552000Y-6116000D01*
X4552000Y-6838000D02*
X4592000Y-6878000D01*
X4592000Y-6838000D02*
X4552000Y-6878000D01*
X4552000Y-7092000D02*
X4592000Y-7132000D01*
X4592000Y-7092000D02*
X4552000Y-7132000D01*
X4552000Y-7346000D02*
X4592000Y-7386000D01*
X4592000Y-7346000D02*
X4552000Y-7386000D01*
X4552000Y-7600000D02*
X4592000Y-7640000D01*
X4592000Y-7600000D02*
X4552000Y-7640000D01*
X4552000Y-7854000D02*
X4592000Y-7894000D01*
X4592000Y-7854000D02*
X4552000Y-7894000D01*
X4552000Y-8616000D02*
X4592000Y-8656000D01*
X4592000Y-8616000D02*
X4552000Y-8656000D01*
X4552000Y-8870000D02*
X4592000Y-8910000D01*
X4592000Y-8870000D02*
X4552000Y-8910000D01*
X4552000Y-9124000D02*
X4592000Y-9164000D01*
X4592000Y-9124000D02*
X4552000Y-9164000D01*
X4552000Y-9378000D02*
X4592000Y-9418000D01*
X4592000Y-9378000D02*
X4552000Y-9418000D01*
X4552000Y-10394000D02*
X4592000Y-10434000D01*
X4592000Y-10394000D02*
X4552000Y-10434000D01*
X4552000Y-10648000D02*
X4592000Y-10688000D01*
X4592000Y-10648000D02*
X4552000Y-10688000D01*
X4806000Y-1504000D02*
X4846000Y-1544000D01*
X4846000Y-1504000D02*
X4806000Y-1544000D01*
X4806000Y-1758000D02*
X4846000Y-1798000D01*
X4846000Y-1758000D02*
X4806000Y-1798000D01*
X4806000Y-2012000D02*
X4846000Y-2052000D01*
X4846000Y-2012000D02*
X4806000Y-2052000D01*
X4806000Y-2266000D02*
X4846000Y-2306000D01*
X4846000Y-2266000D02*
X4806000Y-2306000D01*
X4806000Y-9886000D02*
X4846000Y-9926000D01*
X4846000Y-9886000D02*
X4806000Y-9926000D01*
X4806000Y-10140000D02*
X4846000Y-10180000D01*
X4846000Y-10140000D02*
X4806000Y-10180000D01*
X4806000Y-10394000D02*
X4846000Y-10434000D01*
X4846000Y-10394000D02*
X4806000Y-10434000D01*
X4806000Y-10648000D02*
X4846000Y-10688000D01*
X4846000Y-10648000D02*
X4806000Y-10688000D01*
X4894900Y-2507300D02*
X4934900Y-2547300D01*
X4934900Y-2507300D02*
X4894900Y-2547300D01*
X5060000Y-1504000D02*
X5100000Y-1544000D01*
X5100000Y-1504000D02*
X5060000Y-1544000D01*
X5060000Y-1758000D02*
X5100000Y-1798000D01*
X5100000Y-1758000D02*
X5060000Y-1798000D01*
X5060000Y-2012000D02*
X5100000Y-2052000D01*
X5100000Y-2012000D02*
X5060000Y-2052000D01*
X5060000Y-3028000D02*
X5100000Y-3068000D01*
X5100000Y-3028000D02*
X5060000Y-3068000D01*
X5060000Y-6330000D02*
X5100000Y-6370000D01*
X5100000Y-6330000D02*
X5060000Y-6370000D01*
X5060000Y-7854000D02*
X5100000Y-7894000D01*
X5100000Y-7854000D02*
X5060000Y-7894000D01*
X5060000Y-8108000D02*
X5100000Y-8148000D01*
X5100000Y-8108000D02*
X5060000Y-8148000D01*
X5060000Y-10140000D02*
X5100000Y-10180000D01*
X5100000Y-10140000D02*
X5060000Y-10180000D01*
X5060000Y-14458000D02*
X5100000Y-14498000D01*
X5100000Y-14458000D02*
X5060000Y-14498000D01*
X5060000Y-14712000D02*
X5100000Y-14752000D01*
X5100000Y-14712000D02*
X5060000Y-14752000D01*
X5314000Y-1504000D02*
X5354000Y-1544000D01*
X5354000Y-1504000D02*
X5314000Y-1544000D01*
X5314000Y-1758000D02*
X5354000Y-1798000D01*
X5354000Y-1758000D02*
X5314000Y-1798000D01*
X5314000Y-2266000D02*
X5354000Y-2306000D01*
X5354000Y-2266000D02*
X5314000Y-2306000D01*
X5314000Y-2520000D02*
X5354000Y-2560000D01*
X5354000Y-2520000D02*
X5314000Y-2560000D01*
X5314000Y-3028000D02*
X5354000Y-3068000D01*
X5354000Y-3028000D02*
X5314000Y-3068000D01*
X5314000Y-6330000D02*
X5354000Y-6370000D01*
X5354000Y-6330000D02*
X5314000Y-6370000D01*
X5314000Y-8108000D02*
X5354000Y-8148000D01*
X5354000Y-8108000D02*
X5314000Y-8148000D01*
X5314000Y-10140000D02*
X5354000Y-10180000D01*
X5354000Y-10140000D02*
X5314000Y-10180000D01*
X5314000Y-14712000D02*
X5354000Y-14752000D01*
X5354000Y-14712000D02*
X5314000Y-14752000D01*
X5441000Y-14204000D02*
X5481000Y-14244000D01*
X5481000Y-14204000D02*
X5441000Y-14244000D01*
X5568000Y-1504000D02*
X5608000Y-1544000D01*
X5608000Y-1504000D02*
X5568000Y-1544000D01*
X5568000Y-1758000D02*
X5608000Y-1798000D01*
X5608000Y-1758000D02*
X5568000Y-1798000D01*
X5568000Y-2266000D02*
X5608000Y-2306000D01*
X5608000Y-2266000D02*
X5568000Y-2306000D01*
X5568000Y-2520000D02*
X5608000Y-2560000D01*
X5608000Y-2520000D02*
X5568000Y-2560000D01*
X5568000Y-10140000D02*
X5608000Y-10180000D01*
X5608000Y-10140000D02*
X5568000Y-10180000D01*
X5568000Y-11156000D02*
X5608000Y-11196000D01*
X5608000Y-11156000D02*
X5568000Y-11196000D01*
X5568000Y-11410000D02*
X5608000Y-11450000D01*
X5608000Y-11410000D02*
X5568000Y-11450000D01*
X5568000Y-11664000D02*
X5608000Y-11704000D01*
X5608000Y-11664000D02*
X5568000Y-11704000D01*
X5568000Y-12172000D02*
X5608000Y-12212000D01*
X5608000Y-12172000D02*
X5568000Y-12212000D01*
X5728020Y-6213160D02*
X5768020Y-6253160D01*
X5768020Y-6213160D02*
X5728020Y-6253160D01*
X5730560Y-7904800D02*
X5770560Y-7944800D01*
X5770560Y-7904800D02*
X5730560Y-7944800D01*
X5822000Y-1504000D02*
X5862000Y-1544000D01*
X5862000Y-1504000D02*
X5822000Y-1544000D01*
X5822000Y-1758000D02*
X5862000Y-1798000D01*
X5862000Y-1758000D02*
X5822000Y-1798000D01*
X5822000Y-7346000D02*
X5862000Y-7386000D01*
X5862000Y-7346000D02*
X5822000Y-7386000D01*
X5822000Y-9124000D02*
X5862000Y-9164000D01*
X5862000Y-9124000D02*
X5822000Y-9164000D01*
X5822000Y-9378000D02*
X5862000Y-9418000D01*
X5862000Y-9378000D02*
X5822000Y-9418000D01*
X5822000Y-10140000D02*
X5862000Y-10180000D01*
X5862000Y-10140000D02*
X5822000Y-10180000D01*
X5822000Y-11156000D02*
X5862000Y-11196000D01*
X5862000Y-11156000D02*
X5822000Y-11196000D01*
X5822000Y-11410000D02*
X5862000Y-11450000D01*
X5862000Y-11410000D02*
X5822000Y-11450000D01*
X5822000Y-11664000D02*
X5862000Y-11704000D01*
X5862000Y-11664000D02*
X5822000Y-11704000D01*
X5822000Y-12172000D02*
X5862000Y-12212000D01*
X5862000Y-12172000D02*
X5822000Y-12212000D01*
X5822000Y-13442000D02*
X5862000Y-13482000D01*
X5862000Y-13442000D02*
X5822000Y-13482000D01*
X5822000Y-13696000D02*
X5862000Y-13736000D01*
X5862000Y-13696000D02*
X5822000Y-13736000D01*
X5822000Y-13950000D02*
X5862000Y-13990000D01*
X5862000Y-13950000D02*
X5822000Y-13990000D01*
X5822000Y-14204000D02*
X5862000Y-14244000D01*
X5862000Y-14204000D02*
X5822000Y-14244000D01*
X5921060Y-3563940D02*
X5961060Y-3603940D01*
X5961060Y-3563940D02*
X5921060Y-3603940D01*
X5949000Y-14712000D02*
X5989000Y-14752000D01*
X5989000Y-14712000D02*
X5949000Y-14752000D01*
X5966780Y-4849180D02*
X6006780Y-4889180D01*
X6006780Y-4849180D02*
X5966780Y-4889180D01*
X6076000Y-1504000D02*
X6116000Y-1544000D01*
X6116000Y-1504000D02*
X6076000Y-1544000D01*
X6076000Y-1758000D02*
X6116000Y-1798000D01*
X6116000Y-1758000D02*
X6076000Y-1798000D01*
X6076000Y-5060000D02*
X6116000Y-5100000D01*
X6116000Y-5060000D02*
X6076000Y-5100000D01*
X6076000Y-5314000D02*
X6116000Y-5354000D01*
X6116000Y-5314000D02*
X6076000Y-5354000D01*
X6076000Y-5568000D02*
X6116000Y-5608000D01*
X6116000Y-5568000D02*
X6076000Y-5608000D01*
X6076000Y-8108000D02*
X6116000Y-8148000D01*
X6116000Y-8108000D02*
X6076000Y-8148000D01*
X6076000Y-8870000D02*
X6116000Y-8910000D01*
X6116000Y-8870000D02*
X6076000Y-8910000D01*
X6076000Y-9124000D02*
X6116000Y-9164000D01*
X6116000Y-9124000D02*
X6076000Y-9164000D01*
X6076000Y-9378000D02*
X6116000Y-9418000D01*
X6116000Y-9378000D02*
X6076000Y-9418000D01*
X6076000Y-10140000D02*
X6116000Y-10180000D01*
X6116000Y-10140000D02*
X6076000Y-10180000D01*
X6076000Y-11156000D02*
X6116000Y-11196000D01*
X6116000Y-11156000D02*
X6076000Y-11196000D01*
X6076000Y-11410000D02*
X6116000Y-11450000D01*
X6116000Y-11410000D02*
X6076000Y-11450000D01*
X6076000Y-11664000D02*
X6116000Y-11704000D01*
X6116000Y-11664000D02*
X6076000Y-11704000D01*
X6076000Y-12172000D02*
X6116000Y-12212000D01*
X6116000Y-12172000D02*
X6076000Y-12212000D01*
X6076000Y-13442000D02*
X6116000Y-13482000D01*
X6116000Y-13442000D02*
X6076000Y-13482000D01*
X6076000Y-13696000D02*
X6116000Y-13736000D01*
X6116000Y-13696000D02*
X6076000Y-13736000D01*
X6076000Y-13950000D02*
X6116000Y-13990000D01*
X6116000Y-13950000D02*
X6076000Y-13990000D01*
X6076000Y-14204000D02*
X6116000Y-14244000D01*
X6116000Y-14204000D02*
X6076000Y-14244000D01*
X6076000Y-14458000D02*
X6116000Y-14498000D01*
X6116000Y-14458000D02*
X6076000Y-14498000D01*
X6330000Y-1504000D02*
X6370000Y-1544000D01*
X6370000Y-1504000D02*
X6330000Y-1544000D01*
X6330000Y-1758000D02*
X6370000Y-1798000D01*
X6370000Y-1758000D02*
X6330000Y-1798000D01*
X6330000Y-5060000D02*
X6370000Y-5100000D01*
X6370000Y-5060000D02*
X6330000Y-5100000D01*
X6330000Y-5314000D02*
X6370000Y-5354000D01*
X6370000Y-5314000D02*
X6330000Y-5354000D01*
X6330000Y-5568000D02*
X6370000Y-5608000D01*
X6370000Y-5568000D02*
X6330000Y-5608000D01*
X6330000Y-5822000D02*
X6370000Y-5862000D01*
X6370000Y-5822000D02*
X6330000Y-5862000D01*
X6330000Y-8616000D02*
X6370000Y-8656000D01*
X6370000Y-8616000D02*
X6330000Y-8656000D01*
X6330000Y-8870000D02*
X6370000Y-8910000D01*
X6370000Y-8870000D02*
X6330000Y-8910000D01*
X6330000Y-9124000D02*
X6370000Y-9164000D01*
X6370000Y-9124000D02*
X6330000Y-9164000D01*
X6330000Y-9378000D02*
X6370000Y-9418000D01*
X6370000Y-9378000D02*
X6330000Y-9418000D01*
X6330000Y-10140000D02*
X6370000Y-10180000D01*
X6370000Y-10140000D02*
X6330000Y-10180000D01*
X6330000Y-10394000D02*
X6370000Y-10434000D01*
X6370000Y-10394000D02*
X6330000Y-10434000D01*
X6330000Y-10648000D02*
X6370000Y-10688000D01*
X6370000Y-10648000D02*
X6330000Y-10688000D01*
X6330000Y-10902000D02*
X6370000Y-10942000D01*
X6370000Y-10902000D02*
X6330000Y-10942000D01*
X6330000Y-11156000D02*
X6370000Y-11196000D01*
X6370000Y-11156000D02*
X6330000Y-11196000D01*
X6330000Y-11410000D02*
X6370000Y-11450000D01*
X6370000Y-11410000D02*
X6330000Y-11450000D01*
X6330000Y-11664000D02*
X6370000Y-11704000D01*
X6370000Y-11664000D02*
X6330000Y-11704000D01*
X6330000Y-12172000D02*
X6370000Y-12212000D01*
X6370000Y-12172000D02*
X6330000Y-12212000D01*
X6330000Y-13442000D02*
X6370000Y-13482000D01*
X6370000Y-13442000D02*
X6330000Y-13482000D01*
X6330000Y-13696000D02*
X6370000Y-13736000D01*
X6370000Y-13696000D02*
X6330000Y-13736000D01*
X6330000Y-13950000D02*
X6370000Y-13990000D01*
X6370000Y-13950000D02*
X6330000Y-13990000D01*
X6330000Y-14458000D02*
X6370000Y-14498000D01*
X6370000Y-14458000D02*
X6330000Y-14498000D01*
X6330000Y-14712000D02*
X6370000Y-14752000D01*
X6370000Y-14712000D02*
X6330000Y-14752000D01*
X6584000Y-5060000D02*
X6624000Y-5100000D01*
X6624000Y-5060000D02*
X6584000Y-5100000D01*
X6584000Y-5314000D02*
X6624000Y-5354000D01*
X6624000Y-5314000D02*
X6584000Y-5354000D01*
X6584000Y-5568000D02*
X6624000Y-5608000D01*
X6624000Y-5568000D02*
X6584000Y-5608000D01*
X6584000Y-5822000D02*
X6624000Y-5862000D01*
X6624000Y-5822000D02*
X6584000Y-5862000D01*
X6584000Y-6584000D02*
X6624000Y-6624000D01*
X6624000Y-6584000D02*
X6584000Y-6624000D01*
X6584000Y-6838000D02*
X6624000Y-6878000D01*
X6624000Y-6838000D02*
X6584000Y-6878000D01*
X6584000Y-8362000D02*
X6624000Y-8402000D01*
X6624000Y-8362000D02*
X6584000Y-8402000D01*
X6584000Y-8616000D02*
X6624000Y-8656000D01*
X6624000Y-8616000D02*
X6584000Y-8656000D01*
X6584000Y-8870000D02*
X6624000Y-8910000D01*
X6624000Y-8870000D02*
X6584000Y-8910000D01*
X6584000Y-9124000D02*
X6624000Y-9164000D01*
X6624000Y-9124000D02*
X6584000Y-9164000D01*
X6584000Y-9378000D02*
X6624000Y-9418000D01*
X6624000Y-9378000D02*
X6584000Y-9418000D01*
X6584000Y-10140000D02*
X6624000Y-10180000D01*
X6624000Y-10140000D02*
X6584000Y-10180000D01*
X6584000Y-10394000D02*
X6624000Y-10434000D01*
X6624000Y-10394000D02*
X6584000Y-10434000D01*
X6584000Y-10648000D02*
X6624000Y-10688000D01*
X6624000Y-10648000D02*
X6584000Y-10688000D01*
X6584000Y-10902000D02*
X6624000Y-10942000D01*
X6624000Y-10902000D02*
X6584000Y-10942000D01*
X6584000Y-11156000D02*
X6624000Y-11196000D01*
X6624000Y-11156000D02*
X6584000Y-11196000D01*
X6584000Y-11410000D02*
X6624000Y-11450000D01*
X6624000Y-11410000D02*
X6584000Y-11450000D01*
X6584000Y-11664000D02*
X6624000Y-11704000D01*
X6624000Y-11664000D02*
X6584000Y-11704000D01*
X6584000Y-12172000D02*
X6624000Y-12212000D01*
X6624000Y-12172000D02*
X6584000Y-12212000D01*
X6584000Y-14458000D02*
X6624000Y-14498000D01*
X6624000Y-14458000D02*
X6584000Y-14498000D01*
X6584000Y-14712000D02*
X6624000Y-14752000D01*
X6624000Y-14712000D02*
X6584000Y-14752000D01*
X6838000Y-2774000D02*
X6878000Y-2814000D01*
X6878000Y-2774000D02*
X6838000Y-2814000D01*
X6838000Y-5822000D02*
X6878000Y-5862000D01*
X6878000Y-5822000D02*
X6838000Y-5862000D01*
X6838000Y-6330000D02*
X6878000Y-6370000D01*
X6878000Y-6330000D02*
X6838000Y-6370000D01*
X6838000Y-6584000D02*
X6878000Y-6624000D01*
X6878000Y-6584000D02*
X6838000Y-6624000D01*
X6838000Y-6838000D02*
X6878000Y-6878000D01*
X6878000Y-6838000D02*
X6838000Y-6878000D01*
X6838000Y-7092000D02*
X6878000Y-7132000D01*
X6878000Y-7092000D02*
X6838000Y-7132000D01*
X6838000Y-7346000D02*
X6878000Y-7386000D01*
X6878000Y-7346000D02*
X6838000Y-7386000D01*
X6838000Y-8108000D02*
X6878000Y-8148000D01*
X6878000Y-8108000D02*
X6838000Y-8148000D01*
X6838000Y-8362000D02*
X6878000Y-8402000D01*
X6878000Y-8362000D02*
X6838000Y-8402000D01*
X6838000Y-8616000D02*
X6878000Y-8656000D01*
X6878000Y-8616000D02*
X6838000Y-8656000D01*
X6838000Y-8870000D02*
X6878000Y-8910000D01*
X6878000Y-8870000D02*
X6838000Y-8910000D01*
X6838000Y-9124000D02*
X6878000Y-9164000D01*
X6878000Y-9124000D02*
X6838000Y-9164000D01*
X6838000Y-9378000D02*
X6878000Y-9418000D01*
X6878000Y-9378000D02*
X6838000Y-9418000D01*
X6838000Y-10140000D02*
X6878000Y-10180000D01*
X6878000Y-10140000D02*
X6838000Y-10180000D01*
X6838000Y-10394000D02*
X6878000Y-10434000D01*
X6878000Y-10394000D02*
X6838000Y-10434000D01*
X6838000Y-10648000D02*
X6878000Y-10688000D01*
X6878000Y-10648000D02*
X6838000Y-10688000D01*
X6838000Y-10902000D02*
X6878000Y-10942000D01*
X6878000Y-10902000D02*
X6838000Y-10942000D01*
X6838000Y-11156000D02*
X6878000Y-11196000D01*
X6878000Y-11156000D02*
X6838000Y-11196000D01*
X6838000Y-11410000D02*
X6878000Y-11450000D01*
X6878000Y-11410000D02*
X6838000Y-11450000D01*
X6838000Y-11664000D02*
X6878000Y-11704000D01*
X6878000Y-11664000D02*
X6838000Y-11704000D01*
X6838000Y-12172000D02*
X6878000Y-12212000D01*
X6878000Y-12172000D02*
X6838000Y-12212000D01*
X6838000Y-14458000D02*
X6878000Y-14498000D01*
X6878000Y-14458000D02*
X6838000Y-14498000D01*
X6838000Y-14712000D02*
X6878000Y-14752000D01*
X6878000Y-14712000D02*
X6838000Y-14752000D01*
X7092000Y-2774000D02*
X7132000Y-2814000D01*
X7132000Y-2774000D02*
X7092000Y-2814000D01*
X7092000Y-3282000D02*
X7132000Y-3322000D01*
X7132000Y-3282000D02*
X7092000Y-3322000D01*
X7092000Y-3536000D02*
X7132000Y-3576000D01*
X7132000Y-3536000D02*
X7092000Y-3576000D01*
X7092000Y-3790000D02*
X7132000Y-3830000D01*
X7132000Y-3790000D02*
X7092000Y-3830000D01*
X7092000Y-4298000D02*
X7132000Y-4338000D01*
X7132000Y-4298000D02*
X7092000Y-4338000D01*
X7092000Y-4552000D02*
X7132000Y-4592000D01*
X7132000Y-4552000D02*
X7092000Y-4592000D01*
X7092000Y-6330000D02*
X7132000Y-6370000D01*
X7132000Y-6330000D02*
X7092000Y-6370000D01*
X7092000Y-6584000D02*
X7132000Y-6624000D01*
X7132000Y-6584000D02*
X7092000Y-6624000D01*
X7092000Y-6838000D02*
X7132000Y-6878000D01*
X7132000Y-6838000D02*
X7092000Y-6878000D01*
X7092000Y-7092000D02*
X7132000Y-7132000D01*
X7132000Y-7092000D02*
X7092000Y-7132000D01*
X7092000Y-8108000D02*
X7132000Y-8148000D01*
X7132000Y-8108000D02*
X7092000Y-8148000D01*
X7092000Y-8362000D02*
X7132000Y-8402000D01*
X7132000Y-8362000D02*
X7092000Y-8402000D01*
X7092000Y-8616000D02*
X7132000Y-8656000D01*
X7132000Y-8616000D02*
X7092000Y-8656000D01*
X7092000Y-8870000D02*
X7132000Y-8910000D01*
X7132000Y-8870000D02*
X7092000Y-8910000D01*
X7092000Y-9124000D02*
X7132000Y-9164000D01*
X7132000Y-9124000D02*
X7092000Y-9164000D01*
X7092000Y-9378000D02*
X7132000Y-9418000D01*
X7132000Y-9378000D02*
X7092000Y-9418000D01*
X7092000Y-10140000D02*
X7132000Y-10180000D01*
X7132000Y-10140000D02*
X7092000Y-10180000D01*
X7092000Y-10394000D02*
X7132000Y-10434000D01*
X7132000Y-10394000D02*
X7092000Y-10434000D01*
X7092000Y-10648000D02*
X7132000Y-10688000D01*
X7132000Y-10648000D02*
X7092000Y-10688000D01*
X7092000Y-10902000D02*
X7132000Y-10942000D01*
X7132000Y-10902000D02*
X7092000Y-10942000D01*
X7092000Y-11156000D02*
X7132000Y-11196000D01*
X7132000Y-11156000D02*
X7092000Y-11196000D01*
X7092000Y-11410000D02*
X7132000Y-11450000D01*
X7132000Y-11410000D02*
X7092000Y-11450000D01*
X7092000Y-12172000D02*
X7132000Y-12212000D01*
X7132000Y-12172000D02*
X7092000Y-12212000D01*
X7092000Y-13442000D02*
X7132000Y-13482000D01*
X7132000Y-13442000D02*
X7092000Y-13482000D01*
X7092000Y-13696000D02*
X7132000Y-13736000D01*
X7132000Y-13696000D02*
X7092000Y-13736000D01*
X7092000Y-13950000D02*
X7132000Y-13990000D01*
X7132000Y-13950000D02*
X7092000Y-13990000D01*
X7092000Y-14204000D02*
X7132000Y-14244000D01*
X7132000Y-14204000D02*
X7092000Y-14244000D01*
X7092000Y-14458000D02*
X7132000Y-14498000D01*
X7132000Y-14458000D02*
X7092000Y-14498000D01*
X7092000Y-14712000D02*
X7132000Y-14752000D01*
X7132000Y-14712000D02*
X7092000Y-14752000D01*
X7346000Y-2774000D02*
X7386000Y-2814000D01*
X7386000Y-2774000D02*
X7346000Y-2814000D01*
X7346000Y-3282000D02*
X7386000Y-3322000D01*
X7386000Y-3282000D02*
X7346000Y-3322000D01*
X7346000Y-3536000D02*
X7386000Y-3576000D01*
X7386000Y-3536000D02*
X7346000Y-3576000D01*
X7346000Y-3790000D02*
X7386000Y-3830000D01*
X7386000Y-3790000D02*
X7346000Y-3830000D01*
X7346000Y-4298000D02*
X7386000Y-4338000D01*
X7386000Y-4298000D02*
X7346000Y-4338000D01*
X7346000Y-4552000D02*
X7386000Y-4592000D01*
X7386000Y-4552000D02*
X7346000Y-4592000D01*
X7346000Y-6330000D02*
X7386000Y-6370000D01*
X7386000Y-6330000D02*
X7346000Y-6370000D01*
X7346000Y-6584000D02*
X7386000Y-6624000D01*
X7386000Y-6584000D02*
X7346000Y-6624000D01*
X7346000Y-6838000D02*
X7386000Y-6878000D01*
X7386000Y-6838000D02*
X7346000Y-6878000D01*
X7346000Y-7600000D02*
X7386000Y-7640000D01*
X7386000Y-7600000D02*
X7346000Y-7640000D01*
X7346000Y-8108000D02*
X7386000Y-8148000D01*
X7386000Y-8108000D02*
X7346000Y-8148000D01*
X7346000Y-8362000D02*
X7386000Y-8402000D01*
X7386000Y-8362000D02*
X7346000Y-8402000D01*
X7346000Y-8616000D02*
X7386000Y-8656000D01*
X7386000Y-8616000D02*
X7346000Y-8656000D01*
X7346000Y-8870000D02*
X7386000Y-8910000D01*
X7386000Y-8870000D02*
X7346000Y-8910000D01*
X7346000Y-9124000D02*
X7386000Y-9164000D01*
X7386000Y-9124000D02*
X7346000Y-9164000D01*
X7346000Y-9378000D02*
X7386000Y-9418000D01*
X7386000Y-9378000D02*
X7346000Y-9418000D01*
X7346000Y-10140000D02*
X7386000Y-10180000D01*
X7386000Y-10140000D02*
X7346000Y-10180000D01*
X7346000Y-10394000D02*
X7386000Y-10434000D01*
X7386000Y-10394000D02*
X7346000Y-10434000D01*
X7346000Y-10648000D02*
X7386000Y-10688000D01*
X7386000Y-10648000D02*
X7346000Y-10688000D01*
X7346000Y-10902000D02*
X7386000Y-10942000D01*
X7386000Y-10902000D02*
X7346000Y-10942000D01*
X7346000Y-11156000D02*
X7386000Y-11196000D01*
X7386000Y-11156000D02*
X7346000Y-11196000D01*
X7346000Y-11410000D02*
X7386000Y-11450000D01*
X7386000Y-11410000D02*
X7346000Y-11450000D01*
X7346000Y-12172000D02*
X7386000Y-12212000D01*
X7386000Y-12172000D02*
X7346000Y-12212000D01*
X7346000Y-14712000D02*
X7386000Y-14752000D01*
X7386000Y-14712000D02*
X7346000Y-14752000D01*
X7600000Y-2774000D02*
X7640000Y-2814000D01*
X7640000Y-2774000D02*
X7600000Y-2814000D01*
X7600000Y-3282000D02*
X7640000Y-3322000D01*
X7640000Y-3282000D02*
X7600000Y-3322000D01*
X7600000Y-3536000D02*
X7640000Y-3576000D01*
X7640000Y-3536000D02*
X7600000Y-3576000D01*
X7600000Y-3790000D02*
X7640000Y-3830000D01*
X7640000Y-3790000D02*
X7600000Y-3830000D01*
X7600000Y-4298000D02*
X7640000Y-4338000D01*
X7640000Y-4298000D02*
X7600000Y-4338000D01*
X7600000Y-4552000D02*
X7640000Y-4592000D01*
X7640000Y-4552000D02*
X7600000Y-4592000D01*
X7600000Y-6330000D02*
X7640000Y-6370000D01*
X7640000Y-6330000D02*
X7600000Y-6370000D01*
X7600000Y-6584000D02*
X7640000Y-6624000D01*
X7640000Y-6584000D02*
X7600000Y-6624000D01*
X7600000Y-10140000D02*
X7640000Y-10180000D01*
X7640000Y-10140000D02*
X7600000Y-10180000D01*
X7600000Y-10394000D02*
X7640000Y-10434000D01*
X7640000Y-10394000D02*
X7600000Y-10434000D01*
X7600000Y-10648000D02*
X7640000Y-10688000D01*
X7640000Y-10648000D02*
X7600000Y-10688000D01*
X7600000Y-11664000D02*
X7640000Y-11704000D01*
X7640000Y-11664000D02*
X7600000Y-11704000D01*
X7600000Y-12172000D02*
X7640000Y-12212000D01*
X7640000Y-12172000D02*
X7600000Y-12212000D01*
X7600000Y-13188000D02*
X7640000Y-13228000D01*
X7640000Y-13188000D02*
X7600000Y-13228000D01*
X7600000Y-13442000D02*
X7640000Y-13482000D01*
X7640000Y-13442000D02*
X7600000Y-13482000D01*
X7600000Y-13696000D02*
X7640000Y-13736000D01*
X7640000Y-13696000D02*
X7600000Y-13736000D01*
X7600000Y-13950000D02*
X7640000Y-13990000D01*
X7640000Y-13950000D02*
X7600000Y-13990000D01*
X7600000Y-14204000D02*
X7640000Y-14244000D01*
X7640000Y-14204000D02*
X7600000Y-14244000D01*
X7617780Y-10985820D02*
X7657780Y-11025820D01*
X7657780Y-10985820D02*
X7617780Y-11025820D01*
X7854000Y-2774000D02*
X7894000Y-2814000D01*
X7894000Y-2774000D02*
X7854000Y-2814000D01*
X7854000Y-3282000D02*
X7894000Y-3322000D01*
X7894000Y-3282000D02*
X7854000Y-3322000D01*
X7854000Y-3536000D02*
X7894000Y-3576000D01*
X7894000Y-3536000D02*
X7854000Y-3576000D01*
X7854000Y-3790000D02*
X7894000Y-3830000D01*
X7894000Y-3790000D02*
X7854000Y-3830000D01*
X7854000Y-4298000D02*
X7894000Y-4338000D01*
X7894000Y-4298000D02*
X7854000Y-4338000D01*
X7854000Y-4552000D02*
X7894000Y-4592000D01*
X7894000Y-4552000D02*
X7854000Y-4592000D01*
X7854000Y-6330000D02*
X7894000Y-6370000D01*
X7894000Y-6330000D02*
X7854000Y-6370000D01*
X7854000Y-7727000D02*
X7894000Y-7767000D01*
X7894000Y-7727000D02*
X7854000Y-7767000D01*
X7854000Y-8362000D02*
X7894000Y-8402000D01*
X7894000Y-8362000D02*
X7854000Y-8402000D01*
X7854000Y-8743000D02*
X7894000Y-8783000D01*
X7894000Y-8743000D02*
X7854000Y-8783000D01*
X7854000Y-10140000D02*
X7894000Y-10180000D01*
X7894000Y-10140000D02*
X7854000Y-10180000D01*
X7854000Y-10394000D02*
X7894000Y-10434000D01*
X7894000Y-10394000D02*
X7854000Y-10434000D01*
X7854000Y-10648000D02*
X7894000Y-10688000D01*
X7894000Y-10648000D02*
X7854000Y-10688000D01*
X7981000Y-7473000D02*
X8021000Y-7513000D01*
X8021000Y-7473000D02*
X7981000Y-7513000D01*
X8057200Y-3985580D02*
X8097200Y-4025580D01*
X8097200Y-3985580D02*
X8057200Y-4025580D01*
X8108000Y-2774000D02*
X8148000Y-2814000D01*
X8148000Y-2774000D02*
X8108000Y-2814000D01*
X8108000Y-3282000D02*
X8148000Y-3322000D01*
X8148000Y-3282000D02*
X8108000Y-3322000D01*
X8108000Y-3536000D02*
X8148000Y-3576000D01*
X8148000Y-3536000D02*
X8108000Y-3576000D01*
X8108000Y-4298000D02*
X8148000Y-4338000D01*
X8148000Y-4298000D02*
X8108000Y-4338000D01*
X8108000Y-4552000D02*
X8148000Y-4592000D01*
X8148000Y-4552000D02*
X8108000Y-4592000D01*
X8108000Y-8108000D02*
X8148000Y-8148000D01*
X8148000Y-8108000D02*
X8108000Y-8148000D01*
X8108000Y-8362000D02*
X8148000Y-8402000D01*
X8148000Y-8362000D02*
X8108000Y-8402000D01*
X8108000Y-8616000D02*
X8148000Y-8656000D01*
X8148000Y-8616000D02*
X8108000Y-8656000D01*
X8108000Y-8870000D02*
X8148000Y-8910000D01*
X8148000Y-8870000D02*
X8108000Y-8910000D01*
X8108000Y-9124000D02*
X8148000Y-9164000D01*
X8148000Y-9124000D02*
X8108000Y-9164000D01*
X8108000Y-11156000D02*
X8148000Y-11196000D01*
X8148000Y-11156000D02*
X8108000Y-11196000D01*
X8108000Y-12680000D02*
X8148000Y-12720000D01*
X8148000Y-12680000D02*
X8108000Y-12720000D01*
X8108000Y-12807000D02*
X8148000Y-12847000D01*
X8148000Y-12807000D02*
X8108000Y-12847000D01*
X8108000Y-12934000D02*
X8148000Y-12974000D01*
X8148000Y-12934000D02*
X8108000Y-12974000D01*
X8108000Y-13061000D02*
X8148000Y-13101000D01*
X8148000Y-13061000D02*
X8108000Y-13101000D01*
X8108000Y-13188000D02*
X8148000Y-13228000D01*
X8148000Y-13188000D02*
X8108000Y-13228000D01*
X8194360Y-13632500D02*
X8234360Y-13672500D01*
X8234360Y-13632500D02*
X8194360Y-13672500D01*
X8235000Y-12680000D02*
X8275000Y-12720000D01*
X8275000Y-12680000D02*
X8235000Y-12720000D01*
X8235000Y-12807000D02*
X8275000Y-12847000D01*
X8275000Y-12807000D02*
X8235000Y-12847000D01*
X8235000Y-12934000D02*
X8275000Y-12974000D01*
X8275000Y-12934000D02*
X8235000Y-12974000D01*
X8235000Y-13061000D02*
X8275000Y-13101000D01*
X8275000Y-13061000D02*
X8235000Y-13101000D01*
X8235000Y-13188000D02*
X8275000Y-13228000D01*
X8275000Y-13188000D02*
X8235000Y-13228000D01*
X8240080Y-6840540D02*
X8280080Y-6880540D01*
X8280080Y-6840540D02*
X8240080Y-6880540D01*
X8318820Y-11316020D02*
X8358820Y-11356020D01*
X8358820Y-11316020D02*
X8318820Y-11356020D01*
X8362000Y-2774000D02*
X8402000Y-2814000D01*
X8402000Y-2774000D02*
X8362000Y-2814000D01*
X8362000Y-3282000D02*
X8402000Y-3322000D01*
X8402000Y-3282000D02*
X8362000Y-3322000D01*
X8362000Y-3536000D02*
X8402000Y-3576000D01*
X8402000Y-3536000D02*
X8362000Y-3576000D01*
X8362000Y-4044000D02*
X8402000Y-4084000D01*
X8402000Y-4044000D02*
X8362000Y-4084000D01*
X8362000Y-4298000D02*
X8402000Y-4338000D01*
X8402000Y-4298000D02*
X8362000Y-4338000D01*
X8362000Y-4552000D02*
X8402000Y-4592000D01*
X8402000Y-4552000D02*
X8362000Y-4592000D01*
X8362000Y-8108000D02*
X8402000Y-8148000D01*
X8402000Y-8108000D02*
X8362000Y-8148000D01*
X8362000Y-8362000D02*
X8402000Y-8402000D01*
X8402000Y-8362000D02*
X8362000Y-8402000D01*
X8362000Y-8616000D02*
X8402000Y-8656000D01*
X8402000Y-8616000D02*
X8362000Y-8656000D01*
X8362000Y-8870000D02*
X8402000Y-8910000D01*
X8402000Y-8870000D02*
X8362000Y-8910000D01*
X8362000Y-9124000D02*
X8402000Y-9164000D01*
X8402000Y-9124000D02*
X8362000Y-9164000D01*
X8362000Y-10394000D02*
X8402000Y-10434000D01*
X8402000Y-10394000D02*
X8362000Y-10434000D01*
X8362000Y-10648000D02*
X8402000Y-10688000D01*
X8402000Y-10648000D02*
X8362000Y-10688000D01*
X8362000Y-11664000D02*
X8402000Y-11704000D01*
X8402000Y-11664000D02*
X8362000Y-11704000D01*
X8362000Y-12680000D02*
X8402000Y-12720000D01*
X8402000Y-12680000D02*
X8362000Y-12720000D01*
X8362000Y-12807000D02*
X8402000Y-12847000D01*
X8402000Y-12807000D02*
X8362000Y-12847000D01*
X8362000Y-12934000D02*
X8402000Y-12974000D01*
X8402000Y-12934000D02*
X8362000Y-12974000D01*
X8362000Y-13061000D02*
X8402000Y-13101000D01*
X8402000Y-13061000D02*
X8362000Y-13101000D01*
X8362000Y-13188000D02*
X8402000Y-13228000D01*
X8402000Y-13188000D02*
X8362000Y-13228000D01*
X8362000Y-13950000D02*
X8402000Y-13990000D01*
X8402000Y-13950000D02*
X8362000Y-13990000D01*
X8362000Y-14204000D02*
X8402000Y-14244000D01*
X8402000Y-14204000D02*
X8362000Y-14244000D01*
X8435660Y-6347780D02*
X8475660Y-6387780D01*
X8475660Y-6347780D02*
X8435660Y-6387780D01*
X8616000Y-3282000D02*
X8656000Y-3322000D01*
X8656000Y-3282000D02*
X8616000Y-3322000D01*
X8616000Y-3536000D02*
X8656000Y-3576000D01*
X8656000Y-3536000D02*
X8616000Y-3576000D01*
X8616000Y-8108000D02*
X8656000Y-8148000D01*
X8656000Y-8108000D02*
X8616000Y-8148000D01*
X8616000Y-8362000D02*
X8656000Y-8402000D01*
X8656000Y-8362000D02*
X8616000Y-8402000D01*
X8616000Y-8616000D02*
X8656000Y-8656000D01*
X8656000Y-8616000D02*
X8616000Y-8656000D01*
X8616000Y-8870000D02*
X8656000Y-8910000D01*
X8656000Y-8870000D02*
X8616000Y-8910000D01*
X8616000Y-10140000D02*
X8656000Y-10180000D01*
X8656000Y-10140000D02*
X8616000Y-10180000D01*
X8616000Y-10394000D02*
X8656000Y-10434000D01*
X8656000Y-10394000D02*
X8616000Y-10434000D01*
X8616000Y-11664000D02*
X8656000Y-11704000D01*
X8656000Y-11664000D02*
X8616000Y-11704000D01*
X8616000Y-13188000D02*
X8656000Y-13228000D01*
X8656000Y-13188000D02*
X8616000Y-13228000D01*
X8616000Y-14204000D02*
X8656000Y-14244000D01*
X8656000Y-14204000D02*
X8616000Y-14244000D01*
X8720140Y-4846640D02*
X8760140Y-4886640D01*
X8760140Y-4846640D02*
X8720140Y-4886640D01*
X8816660Y-6350320D02*
X8856660Y-6390320D01*
X8856660Y-6350320D02*
X8816660Y-6390320D01*
X8834440Y-6977700D02*
X8874440Y-7017700D01*
X8874440Y-6977700D02*
X8834440Y-7017700D01*
X8870000Y-3282000D02*
X8910000Y-3322000D01*
X8910000Y-3282000D02*
X8870000Y-3322000D01*
X8870000Y-3536000D02*
X8910000Y-3576000D01*
X8910000Y-3536000D02*
X8870000Y-3576000D01*
X8870000Y-4044000D02*
X8910000Y-4084000D01*
X8910000Y-4044000D02*
X8870000Y-4084000D01*
X8870000Y-4298000D02*
X8910000Y-4338000D01*
X8910000Y-4298000D02*
X8870000Y-4338000D01*
X8870000Y-4552000D02*
X8910000Y-4592000D01*
X8910000Y-4552000D02*
X8870000Y-4592000D01*
X8870000Y-4806000D02*
X8910000Y-4846000D01*
X8910000Y-4806000D02*
X8870000Y-4846000D01*
X8870000Y-8108000D02*
X8910000Y-8148000D01*
X8910000Y-8108000D02*
X8870000Y-8148000D01*
X8870000Y-8362000D02*
X8910000Y-8402000D01*
X8910000Y-8362000D02*
X8870000Y-8402000D01*
X8870000Y-8616000D02*
X8910000Y-8656000D01*
X8910000Y-8616000D02*
X8870000Y-8656000D01*
X8870000Y-10140000D02*
X8910000Y-10180000D01*
X8910000Y-10140000D02*
X8870000Y-10180000D01*
X8870000Y-10648000D02*
X8910000Y-10688000D01*
X8910000Y-10648000D02*
X8870000Y-10688000D01*
X8870000Y-11156000D02*
X8910000Y-11196000D01*
X8910000Y-11156000D02*
X8870000Y-11196000D01*
X8870000Y-11664000D02*
X8910000Y-11704000D01*
X8910000Y-11664000D02*
X8870000Y-11704000D01*
X8870000Y-14204000D02*
X8910000Y-14244000D01*
X8910000Y-14204000D02*
X8870000Y-14244000D01*
X9124000Y-3028000D02*
X9164000Y-3068000D01*
X9164000Y-3028000D02*
X9124000Y-3068000D01*
X9124000Y-4044000D02*
X9164000Y-4084000D01*
X9164000Y-4044000D02*
X9124000Y-4084000D01*
X9124000Y-4298000D02*
X9164000Y-4338000D01*
X9164000Y-4298000D02*
X9124000Y-4338000D01*
X9124000Y-4552000D02*
X9164000Y-4592000D01*
X9164000Y-4552000D02*
X9124000Y-4592000D01*
X9124000Y-4806000D02*
X9164000Y-4846000D01*
X9164000Y-4806000D02*
X9124000Y-4846000D01*
X9124000Y-8870000D02*
X9164000Y-8910000D01*
X9164000Y-8870000D02*
X9124000Y-8910000D01*
X9124000Y-9124000D02*
X9164000Y-9164000D01*
X9164000Y-9124000D02*
X9124000Y-9164000D01*
X9124000Y-10394000D02*
X9164000Y-10434000D01*
X9164000Y-10394000D02*
X9124000Y-10434000D01*
X9124000Y-10648000D02*
X9164000Y-10688000D01*
X9164000Y-10648000D02*
X9124000Y-10688000D01*
X9124000Y-11156000D02*
X9164000Y-11196000D01*
X9164000Y-11156000D02*
X9124000Y-11196000D01*
X9378000Y-2774000D02*
X9418000Y-2814000D01*
X9418000Y-2774000D02*
X9378000Y-2814000D01*
X9378000Y-3028000D02*
X9418000Y-3068000D01*
X9418000Y-3028000D02*
X9378000Y-3068000D01*
X9378000Y-3282000D02*
X9418000Y-3322000D01*
X9418000Y-3282000D02*
X9378000Y-3322000D01*
X9378000Y-3536000D02*
X9418000Y-3576000D01*
X9418000Y-3536000D02*
X9378000Y-3576000D01*
X9378000Y-6584000D02*
X9418000Y-6624000D01*
X9418000Y-6584000D02*
X9378000Y-6624000D01*
X9378000Y-7092000D02*
X9418000Y-7132000D01*
X9418000Y-7092000D02*
X9378000Y-7132000D01*
X9378000Y-7346000D02*
X9418000Y-7386000D01*
X9418000Y-7346000D02*
X9378000Y-7386000D01*
X9378000Y-7600000D02*
X9418000Y-7640000D01*
X9418000Y-7600000D02*
X9378000Y-7640000D01*
X9378000Y-10140000D02*
X9418000Y-10180000D01*
X9418000Y-10140000D02*
X9378000Y-10180000D01*
X9378000Y-10394000D02*
X9418000Y-10434000D01*
X9418000Y-10394000D02*
X9378000Y-10434000D01*
X9378000Y-10648000D02*
X9418000Y-10688000D01*
X9418000Y-10648000D02*
X9378000Y-10688000D01*
X9378000Y-11156000D02*
X9418000Y-11196000D01*
X9418000Y-11156000D02*
X9378000Y-11196000D01*
X9378000Y-12172000D02*
X9418000Y-12212000D01*
X9418000Y-12172000D02*
X9378000Y-12212000D01*
X9378000Y-13950000D02*
X9418000Y-13990000D01*
X9418000Y-13950000D02*
X9378000Y-13990000D01*
X9454200Y-8864920D02*
X9494200Y-8904920D01*
X9494200Y-8864920D02*
X9454200Y-8904920D01*
X9563420Y-10985820D02*
X9603420Y-11025820D01*
X9603420Y-10985820D02*
X9563420Y-11025820D01*
X9583740Y-11321100D02*
X9623740Y-11361100D01*
X9623740Y-11321100D02*
X9583740Y-11361100D01*
X9632000Y-2774000D02*
X9672000Y-2814000D01*
X9672000Y-2774000D02*
X9632000Y-2814000D01*
X9632000Y-3028000D02*
X9672000Y-3068000D01*
X9672000Y-3028000D02*
X9632000Y-3068000D01*
X9632000Y-3282000D02*
X9672000Y-3322000D01*
X9672000Y-3282000D02*
X9632000Y-3322000D01*
X9632000Y-3536000D02*
X9672000Y-3576000D01*
X9672000Y-3536000D02*
X9632000Y-3576000D01*
X9632000Y-9314500D02*
X9672000Y-9354500D01*
X9672000Y-9314500D02*
X9632000Y-9354500D01*
X9632000Y-10140000D02*
X9672000Y-10180000D01*
X9672000Y-10140000D02*
X9632000Y-10180000D01*
X9632000Y-10394000D02*
X9672000Y-10434000D01*
X9672000Y-10394000D02*
X9632000Y-10434000D01*
X9632000Y-10648000D02*
X9672000Y-10688000D01*
X9672000Y-10648000D02*
X9632000Y-10688000D01*
X9632000Y-11156000D02*
X9672000Y-11196000D01*
X9672000Y-11156000D02*
X9632000Y-11196000D01*
X9632000Y-12172000D02*
X9672000Y-12212000D01*
X9672000Y-12172000D02*
X9632000Y-12212000D01*
X9886000Y-2774000D02*
X9926000Y-2814000D01*
X9926000Y-2774000D02*
X9886000Y-2814000D01*
X9886000Y-3028000D02*
X9926000Y-3068000D01*
X9926000Y-3028000D02*
X9886000Y-3068000D01*
X9886000Y-4044000D02*
X9926000Y-4084000D01*
X9926000Y-4044000D02*
X9886000Y-4084000D01*
X9886000Y-4298000D02*
X9926000Y-4338000D01*
X9926000Y-4298000D02*
X9886000Y-4338000D01*
X9886000Y-4552000D02*
X9926000Y-4592000D01*
X9926000Y-4552000D02*
X9886000Y-4592000D01*
X9886000Y-6584000D02*
X9926000Y-6624000D01*
X9926000Y-6584000D02*
X9886000Y-6624000D01*
X9886000Y-7092000D02*
X9926000Y-7132000D01*
X9926000Y-7092000D02*
X9886000Y-7132000D01*
X9886000Y-7346000D02*
X9926000Y-7386000D01*
X9926000Y-7346000D02*
X9886000Y-7386000D01*
X9886000Y-7600000D02*
X9926000Y-7640000D01*
X9926000Y-7600000D02*
X9886000Y-7640000D01*
X9886000Y-9314500D02*
X9926000Y-9354500D01*
X9926000Y-9314500D02*
X9886000Y-9354500D01*
X9886000Y-9568500D02*
X9926000Y-9608500D01*
X9926000Y-9568500D02*
X9886000Y-9608500D01*
X9886000Y-10140000D02*
X9926000Y-10180000D01*
X9926000Y-10140000D02*
X9886000Y-10180000D01*
X10076500Y-8870000D02*
X10116500Y-8910000D01*
X10116500Y-8870000D02*
X10076500Y-8910000D01*
X10140000Y-2774000D02*
X10180000Y-2814000D01*
X10180000Y-2774000D02*
X10140000Y-2814000D01*
X10140000Y-3028000D02*
X10180000Y-3068000D01*
X10180000Y-3028000D02*
X10140000Y-3068000D01*
X10140000Y-4044000D02*
X10180000Y-4084000D01*
X10180000Y-4044000D02*
X10140000Y-4084000D01*
X10140000Y-4298000D02*
X10180000Y-4338000D01*
X10180000Y-4298000D02*
X10140000Y-4338000D01*
X10140000Y-4552000D02*
X10180000Y-4592000D01*
X10180000Y-4552000D02*
X10140000Y-4592000D01*
X10140000Y-6584000D02*
X10180000Y-6624000D01*
X10180000Y-6584000D02*
X10140000Y-6624000D01*
X10140000Y-7092000D02*
X10180000Y-7132000D01*
X10180000Y-7092000D02*
X10140000Y-7132000D01*
X10140000Y-7346000D02*
X10180000Y-7386000D01*
X10180000Y-7346000D02*
X10140000Y-7386000D01*
X10140000Y-7600000D02*
X10180000Y-7640000D01*
X10180000Y-7600000D02*
X10140000Y-7640000D01*
X10140000Y-10648000D02*
X10180000Y-10688000D01*
X10180000Y-10648000D02*
X10140000Y-10688000D01*
X10140000Y-10902000D02*
X10180000Y-10942000D01*
X10180000Y-10902000D02*
X10140000Y-10942000D01*
X10140000Y-11156000D02*
X10180000Y-11196000D01*
X10180000Y-11156000D02*
X10140000Y-11196000D01*
X10140000Y-11410000D02*
X10180000Y-11450000D01*
X10180000Y-11410000D02*
X10140000Y-11450000D01*
X10140000Y-11664000D02*
X10180000Y-11704000D01*
X10180000Y-11664000D02*
X10140000Y-11704000D01*
X10140000Y-12172000D02*
X10180000Y-12212000D01*
X10180000Y-12172000D02*
X10140000Y-12212000D01*
X10236520Y-10127300D02*
X10276520Y-10167300D01*
X10276520Y-10127300D02*
X10236520Y-10167300D01*
X10239060Y-9639620D02*
X10279060Y-9679620D01*
X10279060Y-9639620D02*
X10239060Y-9679620D01*
X10267000Y-8933500D02*
X10307000Y-8973500D01*
X10307000Y-8933500D02*
X10267000Y-8973500D01*
X10394000Y-2774000D02*
X10434000Y-2814000D01*
X10434000Y-2774000D02*
X10394000Y-2814000D01*
X10394000Y-3028000D02*
X10434000Y-3068000D01*
X10434000Y-3028000D02*
X10394000Y-3068000D01*
X10394000Y-10140000D02*
X10434000Y-10180000D01*
X10434000Y-10140000D02*
X10394000Y-10180000D01*
X10394000Y-10648000D02*
X10434000Y-10688000D01*
X10434000Y-10648000D02*
X10394000Y-10688000D01*
X10394000Y-10902000D02*
X10434000Y-10942000D01*
X10434000Y-10902000D02*
X10394000Y-10942000D01*
X10394000Y-11156000D02*
X10434000Y-11196000D01*
X10434000Y-11156000D02*
X10394000Y-11196000D01*
X10394000Y-11410000D02*
X10434000Y-11450000D01*
X10434000Y-11410000D02*
X10394000Y-11450000D01*
X10394000Y-11664000D02*
X10434000Y-11704000D01*
X10434000Y-11664000D02*
X10394000Y-11704000D01*
X10394000Y-12172000D02*
X10434000Y-12212000D01*
X10434000Y-12172000D02*
X10394000Y-12212000D01*
X10521000Y-6584000D02*
X10561000Y-6624000D01*
X10561000Y-6584000D02*
X10521000Y-6624000D01*
X10521000Y-7092000D02*
X10561000Y-7132000D01*
X10561000Y-7092000D02*
X10521000Y-7132000D01*
X10521000Y-7346000D02*
X10561000Y-7386000D01*
X10561000Y-7346000D02*
X10521000Y-7386000D01*
X10521000Y-7600000D02*
X10561000Y-7640000D01*
X10561000Y-7600000D02*
X10521000Y-7640000D01*
X10648000Y-2774000D02*
X10688000Y-2814000D01*
X10688000Y-2774000D02*
X10648000Y-2814000D01*
X10648000Y-3028000D02*
X10688000Y-3068000D01*
X10688000Y-3028000D02*
X10648000Y-3068000D01*
X10648000Y-3282000D02*
X10688000Y-3322000D01*
X10688000Y-3282000D02*
X10648000Y-3322000D01*
X10648000Y-3536000D02*
X10688000Y-3576000D01*
X10688000Y-3536000D02*
X10648000Y-3576000D01*
X10648000Y-10140000D02*
X10688000Y-10180000D01*
X10688000Y-10140000D02*
X10648000Y-10180000D01*
X10648000Y-10648000D02*
X10688000Y-10688000D01*
X10688000Y-10648000D02*
X10648000Y-10688000D01*
X10648000Y-10902000D02*
X10688000Y-10942000D01*
X10688000Y-10902000D02*
X10648000Y-10942000D01*
X10648000Y-11156000D02*
X10688000Y-11196000D01*
X10688000Y-11156000D02*
X10648000Y-11196000D01*
X10648000Y-11410000D02*
X10688000Y-11450000D01*
X10688000Y-11410000D02*
X10648000Y-11450000D01*
X10648000Y-11664000D02*
X10688000Y-11704000D01*
X10688000Y-11664000D02*
X10648000Y-11704000D01*
X10648000Y-12172000D02*
X10688000Y-12212000D01*
X10688000Y-12172000D02*
X10648000Y-12212000D01*
X10747060Y-9800330D02*
X10787060Y-9840330D01*
X10787060Y-9800330D02*
X10747060Y-9840330D01*
X10775000Y-6584000D02*
X10815000Y-6624000D01*
X10815000Y-6584000D02*
X10775000Y-6624000D01*
X10775000Y-7092000D02*
X10815000Y-7132000D01*
X10815000Y-7092000D02*
X10775000Y-7132000D01*
X10775000Y-7346000D02*
X10815000Y-7386000D01*
X10815000Y-7346000D02*
X10775000Y-7386000D01*
X10775000Y-7600000D02*
X10815000Y-7640000D01*
X10815000Y-7600000D02*
X10775000Y-7640000D01*
X10775000Y-8679500D02*
X10815000Y-8719500D01*
X10815000Y-8679500D02*
X10775000Y-8719500D01*
X10775000Y-12553000D02*
X10815000Y-12593000D01*
X10815000Y-12553000D02*
X10775000Y-12593000D01*
X10775000Y-12680000D02*
X10815000Y-12720000D01*
X10815000Y-12680000D02*
X10775000Y-12720000D01*
X10808020Y-5479100D02*
X10848020Y-5519100D01*
X10848020Y-5479100D02*
X10808020Y-5519100D01*
X10902000Y-2774000D02*
X10942000Y-2814000D01*
X10942000Y-2774000D02*
X10902000Y-2814000D01*
X10902000Y-3028000D02*
X10942000Y-3068000D01*
X10942000Y-3028000D02*
X10902000Y-3068000D01*
X10902000Y-3282000D02*
X10942000Y-3322000D01*
X10942000Y-3282000D02*
X10902000Y-3322000D01*
X10902000Y-3536000D02*
X10942000Y-3576000D01*
X10942000Y-3536000D02*
X10902000Y-3576000D01*
X10902000Y-5060000D02*
X10942000Y-5100000D01*
X10942000Y-5060000D02*
X10902000Y-5100000D01*
X10902000Y-10140000D02*
X10942000Y-10180000D01*
X10942000Y-10140000D02*
X10902000Y-10180000D01*
X10902000Y-10648000D02*
X10942000Y-10688000D01*
X10942000Y-10648000D02*
X10902000Y-10688000D01*
X10902000Y-10902000D02*
X10942000Y-10942000D01*
X10942000Y-10902000D02*
X10902000Y-10942000D01*
X10902000Y-11156000D02*
X10942000Y-11196000D01*
X10942000Y-11156000D02*
X10902000Y-11196000D01*
X10902000Y-11410000D02*
X10942000Y-11450000D01*
X10942000Y-11410000D02*
X10902000Y-11450000D01*
X10902000Y-11664000D02*
X10942000Y-11704000D01*
X10942000Y-11664000D02*
X10902000Y-11704000D01*
X10902000Y-12172000D02*
X10942000Y-12212000D01*
X10942000Y-12172000D02*
X10902000Y-12212000D01*
X11029000Y-12553000D02*
X11069000Y-12593000D01*
X11069000Y-12553000D02*
X11029000Y-12593000D01*
X11029000Y-12680000D02*
X11069000Y-12720000D01*
X11069000Y-12680000D02*
X11029000Y-12720000D01*
X11122980Y-8801420D02*
X11162980Y-8841420D01*
X11162980Y-8801420D02*
X11122980Y-8841420D01*
X11156000Y-4044000D02*
X11196000Y-4084000D01*
X11196000Y-4044000D02*
X11156000Y-4084000D01*
X11156000Y-4298000D02*
X11196000Y-4338000D01*
X11196000Y-4298000D02*
X11156000Y-4338000D01*
X11156000Y-4552000D02*
X11196000Y-4592000D01*
X11196000Y-4552000D02*
X11156000Y-4592000D01*
X11156000Y-5060000D02*
X11196000Y-5100000D01*
X11196000Y-5060000D02*
X11156000Y-5100000D01*
X11156000Y-7092000D02*
X11196000Y-7132000D01*
X11196000Y-7092000D02*
X11156000Y-7132000D01*
X11156000Y-7346000D02*
X11196000Y-7386000D01*
X11196000Y-7346000D02*
X11156000Y-7386000D01*
X11156000Y-7600000D02*
X11196000Y-7640000D01*
X11196000Y-7600000D02*
X11156000Y-7640000D01*
X11156000Y-10140000D02*
X11196000Y-10180000D01*
X11196000Y-10140000D02*
X11156000Y-10180000D01*
X11156000Y-11410000D02*
X11196000Y-11450000D01*
X11196000Y-11410000D02*
X11156000Y-11450000D01*
X11156000Y-11664000D02*
X11196000Y-11704000D01*
X11196000Y-11664000D02*
X11156000Y-11704000D01*
X11156000Y-12172000D02*
X11196000Y-12212000D01*
X11196000Y-12172000D02*
X11156000Y-12212000D01*
X11265220Y-5166680D02*
X11305220Y-5206680D01*
X11305220Y-5166680D02*
X11265220Y-5206680D01*
X11283000Y-10775000D02*
X11323000Y-10815000D01*
X11323000Y-10775000D02*
X11283000Y-10815000D01*
X11283000Y-10902000D02*
X11323000Y-10942000D01*
X11323000Y-10902000D02*
X11283000Y-10942000D01*
X11283000Y-11029000D02*
X11323000Y-11069000D01*
X11323000Y-11029000D02*
X11283000Y-11069000D01*
X11283000Y-11156000D02*
X11323000Y-11196000D01*
X11323000Y-11156000D02*
X11283000Y-11196000D01*
X11283000Y-12553000D02*
X11323000Y-12593000D01*
X11323000Y-12553000D02*
X11283000Y-12593000D01*
X11283000Y-12680000D02*
X11323000Y-12720000D01*
X11323000Y-12680000D02*
X11283000Y-12720000D01*
X11410000Y-5060000D02*
X11450000Y-5100000D01*
X11450000Y-5060000D02*
X11410000Y-5100000D01*
X11410000Y-6330000D02*
X11450000Y-6370000D01*
X11450000Y-6330000D02*
X11410000Y-6370000D01*
X11410000Y-6584000D02*
X11450000Y-6624000D01*
X11450000Y-6584000D02*
X11410000Y-6624000D01*
X11410000Y-6838000D02*
X11450000Y-6878000D01*
X11450000Y-6838000D02*
X11410000Y-6878000D01*
X11410000Y-7092000D02*
X11450000Y-7132000D01*
X11450000Y-7092000D02*
X11410000Y-7132000D01*
X11410000Y-7346000D02*
X11450000Y-7386000D01*
X11450000Y-7346000D02*
X11410000Y-7386000D01*
X11410000Y-7600000D02*
X11450000Y-7640000D01*
X11450000Y-7600000D02*
X11410000Y-7640000D01*
X11410000Y-8997000D02*
X11450000Y-9037000D01*
X11450000Y-8997000D02*
X11410000Y-9037000D01*
X11410000Y-9124000D02*
X11450000Y-9164000D01*
X11450000Y-9124000D02*
X11410000Y-9164000D01*
X11410000Y-9251000D02*
X11450000Y-9291000D01*
X11450000Y-9251000D02*
X11410000Y-9291000D01*
X11410000Y-9378000D02*
X11450000Y-9418000D01*
X11450000Y-9378000D02*
X11410000Y-9418000D01*
X11410000Y-10775000D02*
X11450000Y-10815000D01*
X11450000Y-10775000D02*
X11410000Y-10815000D01*
X11410000Y-10902000D02*
X11450000Y-10942000D01*
X11450000Y-10902000D02*
X11410000Y-10942000D01*
X11410000Y-11029000D02*
X11450000Y-11069000D01*
X11450000Y-11029000D02*
X11410000Y-11069000D01*
X11410000Y-11156000D02*
X11450000Y-11196000D01*
X11450000Y-11156000D02*
X11410000Y-11196000D01*
X11537000Y-8997000D02*
X11577000Y-9037000D01*
X11577000Y-8997000D02*
X11537000Y-9037000D01*
X11537000Y-9124000D02*
X11577000Y-9164000D01*
X11577000Y-9124000D02*
X11537000Y-9164000D01*
X11537000Y-9251000D02*
X11577000Y-9291000D01*
X11577000Y-9251000D02*
X11537000Y-9291000D01*
X11537000Y-9378000D02*
X11577000Y-9418000D01*
X11577000Y-9378000D02*
X11537000Y-9418000D01*
X11537000Y-10775000D02*
X11577000Y-10815000D01*
X11577000Y-10775000D02*
X11537000Y-10815000D01*
X11537000Y-10902000D02*
X11577000Y-10942000D01*
X11577000Y-10902000D02*
X11537000Y-10942000D01*
X11537000Y-11029000D02*
X11577000Y-11069000D01*
X11577000Y-11029000D02*
X11537000Y-11069000D01*
X11537000Y-11156000D02*
X11577000Y-11196000D01*
X11577000Y-11156000D02*
X11537000Y-11196000D01*
X11537000Y-12553000D02*
X11577000Y-12593000D01*
X11577000Y-12553000D02*
X11537000Y-12593000D01*
X11537000Y-12680000D02*
X11577000Y-12720000D01*
X11577000Y-12680000D02*
X11537000Y-12720000D01*
X11664000Y-3282000D02*
X11704000Y-3322000D01*
X11704000Y-3282000D02*
X11664000Y-3322000D01*
X11664000Y-3536000D02*
X11704000Y-3576000D01*
X11704000Y-3536000D02*
X11664000Y-3576000D01*
X11664000Y-3790000D02*
X11704000Y-3830000D01*
X11704000Y-3790000D02*
X11664000Y-3830000D01*
X11664000Y-4044000D02*
X11704000Y-4084000D01*
X11704000Y-4044000D02*
X11664000Y-4084000D01*
X11664000Y-4298000D02*
X11704000Y-4338000D01*
X11704000Y-4298000D02*
X11664000Y-4338000D01*
X11664000Y-8743000D02*
X11704000Y-8783000D01*
X11704000Y-8743000D02*
X11664000Y-8783000D01*
X11664000Y-8997000D02*
X11704000Y-9037000D01*
X11704000Y-8997000D02*
X11664000Y-9037000D01*
X11664000Y-9124000D02*
X11704000Y-9164000D01*
X11704000Y-9124000D02*
X11664000Y-9164000D01*
X11664000Y-9251000D02*
X11704000Y-9291000D01*
X11704000Y-9251000D02*
X11664000Y-9291000D01*
X11664000Y-9378000D02*
X11704000Y-9418000D01*
X11704000Y-9378000D02*
X11664000Y-9418000D01*
X11664000Y-9532940D02*
X11704000Y-9572940D01*
X11704000Y-9532940D02*
X11664000Y-9572940D01*
X11664000Y-9759000D02*
X11704000Y-9799000D01*
X11704000Y-9759000D02*
X11664000Y-9799000D01*
X11664000Y-10140000D02*
X11704000Y-10180000D01*
X11704000Y-10140000D02*
X11664000Y-10180000D01*
X11664000Y-10775000D02*
X11704000Y-10815000D01*
X11704000Y-10775000D02*
X11664000Y-10815000D01*
X11664000Y-10902000D02*
X11704000Y-10942000D01*
X11704000Y-10902000D02*
X11664000Y-10942000D01*
X11664000Y-11029000D02*
X11704000Y-11069000D01*
X11704000Y-11029000D02*
X11664000Y-11069000D01*
X11664000Y-11156000D02*
X11704000Y-11196000D01*
X11704000Y-11156000D02*
X11664000Y-11196000D01*
X11664000Y-11410000D02*
X11704000Y-11450000D01*
X11704000Y-11410000D02*
X11664000Y-11450000D01*
X11664000Y-11664000D02*
X11704000Y-11704000D01*
X11704000Y-11664000D02*
X11664000Y-11704000D01*
X11664000Y-12172000D02*
X11704000Y-12212000D01*
X11704000Y-12172000D02*
X11664000Y-12212000D01*
X11791000Y-8997000D02*
X11831000Y-9037000D01*
X11831000Y-8997000D02*
X11791000Y-9037000D01*
X11791000Y-9124000D02*
X11831000Y-9164000D01*
X11831000Y-9124000D02*
X11791000Y-9164000D01*
X11791000Y-9251000D02*
X11831000Y-9291000D01*
X11831000Y-9251000D02*
X11791000Y-9291000D01*
X11791000Y-9378000D02*
X11831000Y-9418000D01*
X11831000Y-9378000D02*
X11791000Y-9418000D01*
X11910380Y-9639620D02*
X11950380Y-9679620D01*
X11950380Y-9639620D02*
X11910380Y-9679620D01*
X11910380Y-10127300D02*
X11950380Y-10167300D01*
X11950380Y-10127300D02*
X11910380Y-10167300D01*
X11918000Y-3282000D02*
X11958000Y-3322000D01*
X11958000Y-3282000D02*
X11918000Y-3322000D01*
X11918000Y-3536000D02*
X11958000Y-3576000D01*
X11958000Y-3536000D02*
X11918000Y-3576000D01*
X11918000Y-3790000D02*
X11958000Y-3830000D01*
X11958000Y-3790000D02*
X11918000Y-3830000D01*
X11918000Y-4044000D02*
X11958000Y-4084000D01*
X11958000Y-4044000D02*
X11918000Y-4084000D01*
X11918000Y-4298000D02*
X11958000Y-4338000D01*
X11958000Y-4298000D02*
X11918000Y-4338000D01*
X11918000Y-5060000D02*
X11958000Y-5100000D01*
X11958000Y-5060000D02*
X11918000Y-5100000D01*
X11918000Y-5314000D02*
X11958000Y-5354000D01*
X11958000Y-5314000D02*
X11918000Y-5354000D01*
X11918000Y-5568000D02*
X11958000Y-5608000D01*
X11958000Y-5568000D02*
X11918000Y-5608000D01*
X11918000Y-5822000D02*
X11958000Y-5862000D01*
X11958000Y-5822000D02*
X11918000Y-5862000D01*
X11918000Y-6076000D02*
X11958000Y-6116000D01*
X11958000Y-6076000D02*
X11918000Y-6116000D01*
X11918000Y-8743000D02*
X11958000Y-8783000D01*
X11958000Y-8743000D02*
X11918000Y-8783000D01*
X11918000Y-10648000D02*
X11958000Y-10688000D01*
X11958000Y-10648000D02*
X11918000Y-10688000D01*
X11918000Y-10902000D02*
X11958000Y-10942000D01*
X11958000Y-10902000D02*
X11918000Y-10942000D01*
X11918000Y-11156000D02*
X11958000Y-11196000D01*
X11958000Y-11156000D02*
X11918000Y-11196000D01*
X11918000Y-11410000D02*
X11958000Y-11450000D01*
X11958000Y-11410000D02*
X11918000Y-11450000D01*
X11918000Y-12426000D02*
X11958000Y-12466000D01*
X11958000Y-12426000D02*
X11918000Y-12466000D01*
X11918000Y-12680000D02*
X11958000Y-12720000D01*
X11958000Y-12680000D02*
X11918000Y-12720000D01*
X12172000Y-3282000D02*
X12212000Y-3322000D01*
X12212000Y-3282000D02*
X12172000Y-3322000D01*
X12172000Y-3536000D02*
X12212000Y-3576000D01*
X12212000Y-3536000D02*
X12172000Y-3576000D01*
X12172000Y-3790000D02*
X12212000Y-3830000D01*
X12212000Y-3790000D02*
X12172000Y-3830000D01*
X12172000Y-4044000D02*
X12212000Y-4084000D01*
X12212000Y-4044000D02*
X12172000Y-4084000D01*
X12172000Y-4298000D02*
X12212000Y-4338000D01*
X12212000Y-4298000D02*
X12172000Y-4338000D01*
X12172000Y-5060000D02*
X12212000Y-5100000D01*
X12212000Y-5060000D02*
X12172000Y-5100000D01*
X12172000Y-5314000D02*
X12212000Y-5354000D01*
X12212000Y-5314000D02*
X12172000Y-5354000D01*
X12172000Y-5568000D02*
X12212000Y-5608000D01*
X12212000Y-5568000D02*
X12172000Y-5608000D01*
X12172000Y-5822000D02*
X12212000Y-5862000D01*
X12212000Y-5822000D02*
X12172000Y-5862000D01*
X12172000Y-6076000D02*
X12212000Y-6116000D01*
X12212000Y-6076000D02*
X12172000Y-6116000D01*
X12172000Y-11918000D02*
X12212000Y-11958000D01*
X12212000Y-11918000D02*
X12172000Y-11958000D01*
X12172000Y-12426000D02*
X12212000Y-12466000D01*
X12212000Y-12426000D02*
X12172000Y-12466000D01*
X12172000Y-12680000D02*
X12212000Y-12720000D01*
X12212000Y-12680000D02*
X12172000Y-12720000D01*
X12172000Y-12934000D02*
X12212000Y-12974000D01*
X12212000Y-12934000D02*
X12172000Y-12974000D01*
X12347260Y-7594920D02*
X12387260Y-7634920D01*
X12387260Y-7594920D02*
X12347260Y-7634920D01*
X12426000Y-1504000D02*
X12466000Y-1544000D01*
X12466000Y-1504000D02*
X12426000Y-1544000D01*
X12426000Y-3282000D02*
X12466000Y-3322000D01*
X12466000Y-3282000D02*
X12426000Y-3322000D01*
X12426000Y-3536000D02*
X12466000Y-3576000D01*
X12466000Y-3536000D02*
X12426000Y-3576000D01*
X12426000Y-3790000D02*
X12466000Y-3830000D01*
X12466000Y-3790000D02*
X12426000Y-3830000D01*
X12426000Y-4044000D02*
X12466000Y-4084000D01*
X12466000Y-4044000D02*
X12426000Y-4084000D01*
X12426000Y-5060000D02*
X12466000Y-5100000D01*
X12466000Y-5060000D02*
X12426000Y-5100000D01*
X12426000Y-5314000D02*
X12466000Y-5354000D01*
X12466000Y-5314000D02*
X12426000Y-5354000D01*
X12426000Y-6330000D02*
X12466000Y-6370000D01*
X12466000Y-6330000D02*
X12426000Y-6370000D01*
X12426000Y-12426000D02*
X12466000Y-12466000D01*
X12466000Y-12426000D02*
X12426000Y-12466000D01*
X12426000Y-12680000D02*
X12466000Y-12720000D01*
X12466000Y-12680000D02*
X12426000Y-12720000D01*
X12426000Y-12934000D02*
X12466000Y-12974000D01*
X12466000Y-12934000D02*
X12426000Y-12974000D01*
X12553000Y-8743000D02*
X12593000Y-8783000D01*
X12593000Y-8743000D02*
X12553000Y-8783000D01*
X12680000Y-1504000D02*
X12720000Y-1544000D01*
X12720000Y-1504000D02*
X12680000Y-1544000D01*
X12680000Y-1758000D02*
X12720000Y-1798000D01*
X12720000Y-1758000D02*
X12680000Y-1798000D01*
X12680000Y-3282000D02*
X12720000Y-3322000D01*
X12720000Y-3282000D02*
X12680000Y-3322000D01*
X12680000Y-3536000D02*
X12720000Y-3576000D01*
X12720000Y-3536000D02*
X12680000Y-3576000D01*
X12680000Y-3790000D02*
X12720000Y-3830000D01*
X12720000Y-3790000D02*
X12680000Y-3830000D01*
X12680000Y-4044000D02*
X12720000Y-4084000D01*
X12720000Y-4044000D02*
X12680000Y-4084000D01*
X12680000Y-5060000D02*
X12720000Y-5100000D01*
X12720000Y-5060000D02*
X12680000Y-5100000D01*
X12680000Y-5314000D02*
X12720000Y-5354000D01*
X12720000Y-5314000D02*
X12680000Y-5354000D01*
X12680000Y-6330000D02*
X12720000Y-6370000D01*
X12720000Y-6330000D02*
X12680000Y-6370000D01*
X12680000Y-6584000D02*
X12720000Y-6624000D01*
X12720000Y-6584000D02*
X12680000Y-6624000D01*
X12680000Y-10140000D02*
X12720000Y-10180000D01*
X12720000Y-10140000D02*
X12680000Y-10180000D01*
X12680000Y-10648000D02*
X12720000Y-10688000D01*
X12720000Y-10648000D02*
X12680000Y-10688000D01*
X12680000Y-10902000D02*
X12720000Y-10942000D01*
X12720000Y-10902000D02*
X12680000Y-10942000D01*
X12680000Y-11156000D02*
X12720000Y-11196000D01*
X12720000Y-11156000D02*
X12680000Y-11196000D01*
X12680000Y-11410000D02*
X12720000Y-11450000D01*
X12720000Y-11410000D02*
X12680000Y-11450000D01*
X12680000Y-11664000D02*
X12720000Y-11704000D01*
X12720000Y-11664000D02*
X12680000Y-11704000D01*
X12680000Y-11918000D02*
X12720000Y-11958000D01*
X12720000Y-11918000D02*
X12680000Y-11958000D01*
X12680000Y-12172000D02*
X12720000Y-12212000D01*
X12720000Y-12172000D02*
X12680000Y-12212000D01*
X12680000Y-12426000D02*
X12720000Y-12466000D01*
X12720000Y-12426000D02*
X12680000Y-12466000D01*
X12934000Y-1504000D02*
X12974000Y-1544000D01*
X12974000Y-1504000D02*
X12934000Y-1544000D01*
X12934000Y-1758000D02*
X12974000Y-1798000D01*
X12974000Y-1758000D02*
X12934000Y-1798000D01*
X12934000Y-2012000D02*
X12974000Y-2052000D01*
X12974000Y-2012000D02*
X12934000Y-2052000D01*
X12934000Y-2520000D02*
X12974000Y-2560000D01*
X12974000Y-2520000D02*
X12934000Y-2560000D01*
X12934000Y-2774000D02*
X12974000Y-2814000D01*
X12974000Y-2774000D02*
X12934000Y-2814000D01*
X12934000Y-4806000D02*
X12974000Y-4846000D01*
X12974000Y-4806000D02*
X12934000Y-4846000D01*
X12934000Y-5060000D02*
X12974000Y-5100000D01*
X12974000Y-5060000D02*
X12934000Y-5100000D01*
X12934000Y-6584000D02*
X12974000Y-6624000D01*
X12974000Y-6584000D02*
X12934000Y-6624000D01*
X12934000Y-6838000D02*
X12974000Y-6878000D01*
X12974000Y-6838000D02*
X12934000Y-6878000D01*
X12934000Y-9886000D02*
X12974000Y-9926000D01*
X12974000Y-9886000D02*
X12934000Y-9926000D01*
X12934000Y-10140000D02*
X12974000Y-10180000D01*
X12974000Y-10140000D02*
X12934000Y-10180000D01*
X13020360Y-10521000D02*
X13060360Y-10561000D01*
X13060360Y-10521000D02*
X13020360Y-10561000D01*
X13020360Y-13919520D02*
X13060360Y-13959520D01*
X13060360Y-13919520D02*
X13020360Y-13959520D01*
X13116880Y-2286320D02*
X13156880Y-2326320D01*
X13156880Y-2286320D02*
X13116880Y-2326320D01*
X13188000Y-1504000D02*
X13228000Y-1544000D01*
X13228000Y-1504000D02*
X13188000Y-1544000D01*
X13188000Y-1758000D02*
X13228000Y-1798000D01*
X13228000Y-1758000D02*
X13188000Y-1798000D01*
X13188000Y-2012000D02*
X13228000Y-2052000D01*
X13228000Y-2012000D02*
X13188000Y-2052000D01*
X13188000Y-2774000D02*
X13228000Y-2814000D01*
X13228000Y-2774000D02*
X13188000Y-2814000D01*
X13188000Y-3282000D02*
X13228000Y-3322000D01*
X13228000Y-3282000D02*
X13188000Y-3322000D01*
X13188000Y-5822000D02*
X13228000Y-5862000D01*
X13228000Y-5822000D02*
X13188000Y-5862000D01*
X13188000Y-7346000D02*
X13228000Y-7386000D01*
X13228000Y-7346000D02*
X13188000Y-7386000D01*
X13188000Y-7600000D02*
X13228000Y-7640000D01*
X13228000Y-7600000D02*
X13188000Y-7640000D01*
X13188000Y-9378000D02*
X13228000Y-9418000D01*
X13228000Y-9378000D02*
X13188000Y-9418000D01*
X13188000Y-9632000D02*
X13228000Y-9672000D01*
X13228000Y-9632000D02*
X13188000Y-9672000D01*
X13188000Y-10140000D02*
X13228000Y-10180000D01*
X13228000Y-10140000D02*
X13188000Y-10180000D01*
X13188000Y-12426000D02*
X13228000Y-12466000D01*
X13228000Y-12426000D02*
X13188000Y-12466000D01*
X13188000Y-12680000D02*
X13228000Y-12720000D01*
X13228000Y-12680000D02*
X13188000Y-12720000D01*
X13188000Y-12934000D02*
X13228000Y-12974000D01*
X13228000Y-12934000D02*
X13188000Y-12974000D01*
X13442000Y-1504000D02*
X13482000Y-1544000D01*
X13482000Y-1504000D02*
X13442000Y-1544000D01*
X13442000Y-1758000D02*
X13482000Y-1798000D01*
X13482000Y-1758000D02*
X13442000Y-1798000D01*
X13442000Y-2012000D02*
X13482000Y-2052000D01*
X13482000Y-2012000D02*
X13442000Y-2052000D01*
X13442000Y-2266000D02*
X13482000Y-2306000D01*
X13482000Y-2266000D02*
X13442000Y-2306000D01*
X13442000Y-2774000D02*
X13482000Y-2814000D01*
X13482000Y-2774000D02*
X13442000Y-2814000D01*
X13442000Y-3282000D02*
X13482000Y-3322000D01*
X13482000Y-3282000D02*
X13442000Y-3322000D01*
X13442000Y-3536000D02*
X13482000Y-3576000D01*
X13482000Y-3536000D02*
X13442000Y-3576000D01*
X13442000Y-4044000D02*
X13482000Y-4084000D01*
X13482000Y-4044000D02*
X13442000Y-4084000D01*
X13442000Y-4298000D02*
X13482000Y-4338000D01*
X13482000Y-4298000D02*
X13442000Y-4338000D01*
X13442000Y-4552000D02*
X13482000Y-4592000D01*
X13482000Y-4552000D02*
X13442000Y-4592000D01*
X13442000Y-4806000D02*
X13482000Y-4846000D01*
X13482000Y-4806000D02*
X13442000Y-4846000D01*
X13442000Y-5822000D02*
X13482000Y-5862000D01*
X13482000Y-5822000D02*
X13442000Y-5862000D01*
X13442000Y-7346000D02*
X13482000Y-7386000D01*
X13482000Y-7346000D02*
X13442000Y-7386000D01*
X13442000Y-7600000D02*
X13482000Y-7640000D01*
X13482000Y-7600000D02*
X13442000Y-7640000D01*
X13442000Y-12426000D02*
X13482000Y-12466000D01*
X13482000Y-12426000D02*
X13442000Y-12466000D01*
X13442000Y-12680000D02*
X13482000Y-12720000D01*
X13482000Y-12680000D02*
X13442000Y-12720000D01*
X13442000Y-12934000D02*
X13482000Y-12974000D01*
X13482000Y-12934000D02*
X13442000Y-12974000D01*
X13569000Y-8743000D02*
X13609000Y-8783000D01*
X13609000Y-8743000D02*
X13569000Y-8783000D01*
X13569000Y-9124000D02*
X13609000Y-9164000D01*
X13609000Y-9124000D02*
X13569000Y-9164000D01*
X13569000Y-9378000D02*
X13609000Y-9418000D01*
X13609000Y-9378000D02*
X13569000Y-9418000D01*
X13569000Y-9632000D02*
X13609000Y-9672000D01*
X13609000Y-9632000D02*
X13569000Y-9672000D01*
X13696000Y-1504000D02*
X13736000Y-1544000D01*
X13736000Y-1504000D02*
X13696000Y-1544000D01*
X13696000Y-1758000D02*
X13736000Y-1798000D01*
X13736000Y-1758000D02*
X13696000Y-1798000D01*
X13696000Y-2012000D02*
X13736000Y-2052000D01*
X13736000Y-2012000D02*
X13696000Y-2052000D01*
X13696000Y-2266000D02*
X13736000Y-2306000D01*
X13736000Y-2266000D02*
X13696000Y-2306000D01*
X13696000Y-2774000D02*
X13736000Y-2814000D01*
X13736000Y-2774000D02*
X13696000Y-2814000D01*
X13696000Y-3282000D02*
X13736000Y-3322000D01*
X13736000Y-3282000D02*
X13696000Y-3322000D01*
X13696000Y-3536000D02*
X13736000Y-3576000D01*
X13736000Y-3536000D02*
X13696000Y-3576000D01*
X13696000Y-4044000D02*
X13736000Y-4084000D01*
X13736000Y-4044000D02*
X13696000Y-4084000D01*
X13696000Y-4298000D02*
X13736000Y-4338000D01*
X13736000Y-4298000D02*
X13696000Y-4338000D01*
X13696000Y-5822000D02*
X13736000Y-5862000D01*
X13736000Y-5822000D02*
X13696000Y-5862000D01*
X13696000Y-6076000D02*
X13736000Y-6116000D01*
X13736000Y-6076000D02*
X13696000Y-6116000D01*
X13696000Y-6330000D02*
X13736000Y-6370000D01*
X13736000Y-6330000D02*
X13696000Y-6370000D01*
X13696000Y-6584000D02*
X13736000Y-6624000D01*
X13736000Y-6584000D02*
X13696000Y-6624000D01*
X13696000Y-6838000D02*
X13736000Y-6878000D01*
X13736000Y-6838000D02*
X13696000Y-6878000D01*
X13696000Y-12680000D02*
X13736000Y-12720000D01*
X13736000Y-12680000D02*
X13696000Y-12720000D01*
X13696000Y-12934000D02*
X13736000Y-12974000D01*
X13736000Y-12934000D02*
X13696000Y-12974000D01*
X13703620Y-12263440D02*
X13743620Y-12303440D01*
X13743620Y-12263440D02*
X13703620Y-12303440D01*
X13777280Y-13472480D02*
X13817280Y-13512480D01*
X13817280Y-13472480D02*
X13777280Y-13512480D01*
X13823000Y-4552000D02*
X13863000Y-4592000D01*
X13863000Y-4552000D02*
X13823000Y-4592000D01*
X13823000Y-4806000D02*
X13863000Y-4846000D01*
X13863000Y-4806000D02*
X13823000Y-4846000D01*
X13950000Y-1504000D02*
X13990000Y-1544000D01*
X13990000Y-1504000D02*
X13950000Y-1544000D01*
X13950000Y-1758000D02*
X13990000Y-1798000D01*
X13990000Y-1758000D02*
X13950000Y-1798000D01*
X13950000Y-2012000D02*
X13990000Y-2052000D01*
X13990000Y-2012000D02*
X13950000Y-2052000D01*
X13950000Y-2266000D02*
X13990000Y-2306000D01*
X13990000Y-2266000D02*
X13950000Y-2306000D01*
X13950000Y-2520000D02*
X13990000Y-2560000D01*
X13990000Y-2520000D02*
X13950000Y-2560000D01*
X13950000Y-2774000D02*
X13990000Y-2814000D01*
X13990000Y-2774000D02*
X13950000Y-2814000D01*
X13950000Y-3282000D02*
X13990000Y-3322000D01*
X13990000Y-3282000D02*
X13950000Y-3322000D01*
X13950000Y-4298000D02*
X13990000Y-4338000D01*
X13990000Y-4298000D02*
X13950000Y-4338000D01*
X13950000Y-11410000D02*
X13990000Y-11450000D01*
X13990000Y-11410000D02*
X13950000Y-11450000D01*
X13950000Y-11664000D02*
X13990000Y-11704000D01*
X13990000Y-11664000D02*
X13950000Y-11704000D01*
X13950000Y-11918000D02*
X13990000Y-11958000D01*
X13990000Y-11918000D02*
X13950000Y-11958000D01*
X13950000Y-12172000D02*
X13990000Y-12212000D01*
X13990000Y-12172000D02*
X13950000Y-12212000D01*
X13950000Y-12934000D02*
X13990000Y-12974000D01*
X13990000Y-12934000D02*
X13950000Y-12974000D01*
X13950000Y-14966000D02*
X13990000Y-15006000D01*
X13990000Y-14966000D02*
X13950000Y-15006000D01*
X13957620Y-12512360D02*
X13997620Y-12552360D01*
X13997620Y-12512360D02*
X13957620Y-12552360D01*
X14077000Y-4552000D02*
X14117000Y-4592000D01*
X14117000Y-4552000D02*
X14077000Y-4592000D01*
X14077000Y-4806000D02*
X14117000Y-4846000D01*
X14117000Y-4806000D02*
X14077000Y-4846000D01*
X14077000Y-5060000D02*
X14117000Y-5100000D01*
X14117000Y-5060000D02*
X14077000Y-5100000D01*
X14120180Y-13581700D02*
X14160180Y-13621700D01*
X14160180Y-13581700D02*
X14120180Y-13621700D01*
X14122720Y-13200700D02*
X14162720Y-13240700D01*
X14162720Y-13200700D02*
X14122720Y-13240700D01*
X14204000Y-1504000D02*
X14244000Y-1544000D01*
X14244000Y-1504000D02*
X14204000Y-1544000D01*
X14204000Y-1758000D02*
X14244000Y-1798000D01*
X14244000Y-1758000D02*
X14204000Y-1798000D01*
X14204000Y-2012000D02*
X14244000Y-2052000D01*
X14244000Y-2012000D02*
X14204000Y-2052000D01*
X14204000Y-2266000D02*
X14244000Y-2306000D01*
X14244000Y-2266000D02*
X14204000Y-2306000D01*
X14204000Y-2520000D02*
X14244000Y-2560000D01*
X14244000Y-2520000D02*
X14204000Y-2560000D01*
X14204000Y-2774000D02*
X14244000Y-2814000D01*
X14244000Y-2774000D02*
X14204000Y-2814000D01*
X14204000Y-3282000D02*
X14244000Y-3322000D01*
X14244000Y-3282000D02*
X14204000Y-3322000D01*
X14204000Y-4298000D02*
X14244000Y-4338000D01*
X14244000Y-4298000D02*
X14204000Y-4338000D01*
X14204000Y-9886000D02*
X14244000Y-9926000D01*
X14244000Y-9886000D02*
X14204000Y-9926000D01*
X14204000Y-10140000D02*
X14244000Y-10180000D01*
X14244000Y-10140000D02*
X14204000Y-10180000D01*
X14204000Y-10394000D02*
X14244000Y-10434000D01*
X14244000Y-10394000D02*
X14204000Y-10434000D01*
X14204000Y-10648000D02*
X14244000Y-10688000D01*
X14244000Y-10648000D02*
X14204000Y-10688000D01*
X14204000Y-12426000D02*
X14244000Y-12466000D01*
X14244000Y-12426000D02*
X14204000Y-12466000D01*
X14204000Y-14712000D02*
X14244000Y-14752000D01*
X14244000Y-14712000D02*
X14204000Y-14752000D01*
X14204000Y-14966000D02*
X14244000Y-15006000D01*
X14244000Y-14966000D02*
X14204000Y-15006000D01*
X14331000Y-4552000D02*
X14371000Y-4592000D01*
X14371000Y-4552000D02*
X14331000Y-4592000D01*
X14331000Y-4806000D02*
X14371000Y-4846000D01*
X14371000Y-4806000D02*
X14331000Y-4846000D01*
X14331000Y-5060000D02*
X14371000Y-5100000D01*
X14371000Y-5060000D02*
X14331000Y-5100000D01*
X14458000Y-1504000D02*
X14498000Y-1544000D01*
X14498000Y-1504000D02*
X14458000Y-1544000D01*
X14458000Y-1758000D02*
X14498000Y-1798000D01*
X14498000Y-1758000D02*
X14458000Y-1798000D01*
X14458000Y-2012000D02*
X14498000Y-2052000D01*
X14498000Y-2012000D02*
X14458000Y-2052000D01*
X14458000Y-2266000D02*
X14498000Y-2306000D01*
X14498000Y-2266000D02*
X14458000Y-2306000D01*
X14458000Y-2520000D02*
X14498000Y-2560000D01*
X14498000Y-2520000D02*
X14458000Y-2560000D01*
X14458000Y-2774000D02*
X14498000Y-2814000D01*
X14498000Y-2774000D02*
X14458000Y-2814000D01*
X14458000Y-3028000D02*
X14498000Y-3068000D01*
X14498000Y-3028000D02*
X14458000Y-3068000D01*
X14458000Y-3282000D02*
X14498000Y-3322000D01*
X14498000Y-3282000D02*
X14458000Y-3322000D01*
X14458000Y-3536000D02*
X14498000Y-3576000D01*
X14498000Y-3536000D02*
X14458000Y-3576000D01*
X14458000Y-3790000D02*
X14498000Y-3830000D01*
X14498000Y-3790000D02*
X14458000Y-3830000D01*
X14458000Y-4044000D02*
X14498000Y-4084000D01*
X14498000Y-4044000D02*
X14458000Y-4084000D01*
X14458000Y-4298000D02*
X14498000Y-4338000D01*
X14498000Y-4298000D02*
X14458000Y-4338000D01*
X14458000Y-4552000D02*
X14498000Y-4592000D01*
X14498000Y-4552000D02*
X14458000Y-4592000D01*
X14458000Y-4806000D02*
X14498000Y-4846000D01*
X14498000Y-4806000D02*
X14458000Y-4846000D01*
X14458000Y-5060000D02*
X14498000Y-5100000D01*
X14498000Y-5060000D02*
X14458000Y-5100000D01*
X14458000Y-5314000D02*
X14498000Y-5354000D01*
X14498000Y-5314000D02*
X14458000Y-5354000D01*
X14458000Y-9886000D02*
X14498000Y-9926000D01*
X14498000Y-9886000D02*
X14458000Y-9926000D01*
X14458000Y-10140000D02*
X14498000Y-10180000D01*
X14498000Y-10140000D02*
X14458000Y-10180000D01*
X14458000Y-10394000D02*
X14498000Y-10434000D01*
X14498000Y-10394000D02*
X14458000Y-10434000D01*
X14458000Y-10648000D02*
X14498000Y-10688000D01*
X14498000Y-10648000D02*
X14458000Y-10688000D01*
X14458000Y-12426000D02*
X14498000Y-12466000D01*
X14498000Y-12426000D02*
X14458000Y-12466000D01*
X14458000Y-13950000D02*
X14498000Y-13990000D01*
X14498000Y-13950000D02*
X14458000Y-13990000D01*
X14458000Y-14204000D02*
X14498000Y-14244000D01*
X14498000Y-14204000D02*
X14458000Y-14244000D01*
X14458000Y-14458000D02*
X14498000Y-14498000D01*
X14498000Y-14458000D02*
X14458000Y-14498000D01*
X14458000Y-14712000D02*
X14498000Y-14752000D01*
X14498000Y-14712000D02*
X14458000Y-14752000D01*
X14458000Y-14966000D02*
X14498000Y-15006000D01*
X14498000Y-14966000D02*
X14458000Y-15006000D01*
X14572300Y-11199180D02*
X14612300Y-11239180D01*
X14612300Y-11199180D02*
X14572300Y-11239180D01*
X14712000Y-1504000D02*
X14752000Y-1544000D01*
X14752000Y-1504000D02*
X14712000Y-1544000D01*
X14712000Y-1758000D02*
X14752000Y-1798000D01*
X14752000Y-1758000D02*
X14712000Y-1798000D01*
X14712000Y-2012000D02*
X14752000Y-2052000D01*
X14752000Y-2012000D02*
X14712000Y-2052000D01*
X6742900Y-3342640D02*
G75*
G03*
X6642900Y-3342640I-50000J0D01*
G01*
X6642900Y-3342640D02*
G75*
G03*
X6742900Y-3342640I50000J0D01*
G01*
X6742900Y-3596640D02*
G75*
G03*
X6642900Y-3596640I-50000J0D01*
G01*
X6642900Y-3596640D02*
G75*
G03*
X6742900Y-3596640I50000J0D01*
G01*
X6742900Y-3850640D02*
G75*
G03*
X6642900Y-3850640I-50000J0D01*
G01*
X6642900Y-3850640D02*
G75*
G03*
X6742900Y-3850640I50000J0D01*
G01*
X6742900Y-4211320D02*
G75*
G03*
X6642900Y-4211320I-50000J0D01*
G01*
X6642900Y-4211320D02*
G75*
G03*
X6742900Y-4211320I50000J0D01*
G01*
X6742900Y-4465320D02*
G75*
G03*
X6642900Y-4465320I-50000J0D01*
G01*
X6642900Y-4465320D02*
G75*
G03*
X6742900Y-4465320I50000J0D01*
G01*
X6742900Y-4719320D02*
G75*
G03*
X6642900Y-4719320I-50000J0D01*
G01*
X6642900Y-4719320D02*
G75*
G03*
X6742900Y-4719320I50000J0D01*
G01*
X11200600Y-12999180D02*
G75*
G03*
X11100600Y-12999180I-50000J0D01*
G01*
X11100600Y-12999180D02*
G75*
G03*
X11200600Y-12999180I50000J0D01*
G01*
X11200600Y-13759180D02*
G75*
G03*
X11100600Y-13759180I-50000J0D01*
G01*
X11100600Y-13759180D02*
G75*
G03*
X11200600Y-13759180I50000J0D01*
G01*
D11*
X6763340Y-2158660D02*
X6763340Y-2260260D01*
X6712540Y-2209460D02*
X6814140Y-2209460D01*
X6763340Y-2412660D02*
X6763340Y-2514260D01*
X6712540Y-2463460D02*
X6814140Y-2463460D01*
X7017340Y-2158660D02*
X7017340Y-2260260D01*
X6966540Y-2209460D02*
X7068140Y-2209460D01*
X7017340Y-2412660D02*
X7017340Y-2514260D01*
X6966540Y-2463460D02*
X7068140Y-2463460D01*
X7271340Y-2158660D02*
X7271340Y-2260260D01*
X7220540Y-2209460D02*
X7322140Y-2209460D01*
X7271340Y-2412660D02*
X7271340Y-2514260D01*
X7220540Y-2463460D02*
X7322140Y-2463460D01*
X7525340Y-2158660D02*
X7525340Y-2260260D01*
X7474540Y-2209460D02*
X7576140Y-2209460D01*
X7525340Y-2412660D02*
X7525340Y-2514260D01*
X7474540Y-2463460D02*
X7576140Y-2463460D01*
X7779340Y-2158660D02*
X7779340Y-2260260D01*
X7728540Y-2209460D02*
X7830140Y-2209460D01*
X7779340Y-2412660D02*
X7779340Y-2514260D01*
X7728540Y-2463460D02*
X7830140Y-2463460D01*
X8033340Y-2158660D02*
X8033340Y-2260260D01*
X7982540Y-2209460D02*
X8084140Y-2209460D01*
X8033340Y-2412660D02*
X8033340Y-2514260D01*
X7982540Y-2463460D02*
X8084140Y-2463460D01*
X8287340Y-2158660D02*
X8287340Y-2260260D01*
X8236540Y-2209460D02*
X8338140Y-2209460D01*
X8287340Y-2412660D02*
X8287340Y-2514260D01*
X8236540Y-2463460D02*
X8338140Y-2463460D01*
X8541340Y-2158660D02*
X8541340Y-2260260D01*
X8490540Y-2209460D02*
X8592140Y-2209460D01*
X8541340Y-2412660D02*
X8541340Y-2514260D01*
X8490540Y-2463460D02*
X8592140Y-2463460D01*
X8795340Y-2158660D02*
X8795340Y-2260260D01*
X8744540Y-2209460D02*
X8846140Y-2209460D01*
X8795340Y-2412660D02*
X8795340Y-2514260D01*
X8744540Y-2463460D02*
X8846140Y-2463460D01*
X9049340Y-2158660D02*
X9049340Y-2260260D01*
X8998540Y-2209460D02*
X9100140Y-2209460D01*
X9049340Y-2412660D02*
X9049340Y-2514260D01*
X8998540Y-2463460D02*
X9100140Y-2463460D01*
X9303340Y-2158660D02*
X9303340Y-2260260D01*
X9252540Y-2209460D02*
X9354140Y-2209460D01*
X9303340Y-2412660D02*
X9303340Y-2514260D01*
X9252540Y-2463460D02*
X9354140Y-2463460D01*
X9557340Y-2158660D02*
X9557340Y-2260260D01*
X9506540Y-2209460D02*
X9608140Y-2209460D01*
X9557340Y-2412660D02*
X9557340Y-2514260D01*
X9506540Y-2463460D02*
X9608140Y-2463460D01*
X9811340Y-2158660D02*
X9811340Y-2260260D01*
X9760540Y-2209460D02*
X9862140Y-2209460D01*
X9811340Y-2412660D02*
X9811340Y-2514260D01*
X9760540Y-2463460D02*
X9862140Y-2463460D01*
X10065340Y-2158660D02*
X10065340Y-2260260D01*
X10014540Y-2209460D02*
X10116140Y-2209460D01*
X10065340Y-2412660D02*
X10065340Y-2514260D01*
X10014540Y-2463460D02*
X10116140Y-2463460D01*
X10319340Y-2158660D02*
X10319340Y-2260260D01*
X10268540Y-2209460D02*
X10370140Y-2209460D01*
X10319340Y-2412660D02*
X10319340Y-2514260D01*
X10268540Y-2463460D02*
X10370140Y-2463460D01*
X10573340Y-2158660D02*
X10573340Y-2260260D01*
X10522540Y-2209460D02*
X10624140Y-2209460D01*
X10573340Y-2412660D02*
X10573340Y-2514260D01*
X10522540Y-2463460D02*
X10624140Y-2463460D01*
X10827340Y-2158660D02*
X10827340Y-2260260D01*
X10776540Y-2209460D02*
X10878140Y-2209460D01*
X10827340Y-2412660D02*
X10827340Y-2514260D01*
X10776540Y-2463460D02*
X10878140Y-2463460D01*
X11081340Y-2158660D02*
X11081340Y-2260260D01*
X11030540Y-2209460D02*
X11132140Y-2209460D01*
X11081340Y-2412660D02*
X11081340Y-2514260D01*
X11030540Y-2463460D02*
X11132140Y-2463460D01*
X11335340Y-2158660D02*
X11335340Y-2260260D01*
X11284540Y-2209460D02*
X11386140Y-2209460D01*
X11335340Y-2412660D02*
X11335340Y-2514260D01*
X11284540Y-2463460D02*
X11386140Y-2463460D01*
X11589340Y-2158660D02*
X11589340Y-2260260D01*
X11538540Y-2209460D02*
X11640140Y-2209460D01*
X11589340Y-2412660D02*
X11589340Y-2514260D01*
X11538540Y-2463460D02*
X11640140Y-2463460D01*
X11945340Y-2770960D02*
X11945340Y-2872560D01*
X11894540Y-2821760D02*
X11996140Y-2821760D01*
X11945340Y-3024960D02*
X11945340Y-3126560D01*
X11894540Y-3075760D02*
X11996140Y-3075760D01*
X12199340Y-2770960D02*
X12199340Y-2872560D01*
X12148540Y-2821760D02*
X12250140Y-2821760D01*
X12199340Y-3024960D02*
X12199340Y-3126560D01*
X12148540Y-3075760D02*
X12250140Y-3075760D01*
D13*
X9128223Y-8293603D02*
X9128223Y-8221477D01*
X9056097Y-8221477D01*
X9056097Y-8293603D01*
X9128223Y-8293603D01*
X9128223Y-8547603D02*
X9128223Y-8475477D01*
X9056097Y-8475477D01*
X9056097Y-8547603D01*
X9128223Y-8547603D01*
X9128223Y-14389603D02*
X9128223Y-14317477D01*
X9056097Y-14317477D01*
X9056097Y-14389603D01*
X9128223Y-14389603D01*
X9128223Y-14643603D02*
X9128223Y-14571477D01*
X9056097Y-14571477D01*
X9056097Y-14643603D01*
X9128223Y-14643603D01*
X9382223Y-8293603D02*
X9382223Y-8221477D01*
X9310097Y-8221477D01*
X9310097Y-8293603D01*
X9382223Y-8293603D01*
X9382223Y-8547603D02*
X9382223Y-8475477D01*
X9310097Y-8475477D01*
X9310097Y-8547603D01*
X9382223Y-8547603D01*
X9382223Y-14389603D02*
X9382223Y-14317477D01*
X9310097Y-14317477D01*
X9310097Y-14389603D01*
X9382223Y-14389603D01*
X9382223Y-14643603D02*
X9382223Y-14571477D01*
X9310097Y-14571477D01*
X9310097Y-14643603D01*
X9382223Y-14643603D01*
X9636223Y-8293603D02*
X9636223Y-8221477D01*
X9564097Y-8221477D01*
X9564097Y-8293603D01*
X9636223Y-8293603D01*
X9636223Y-8547603D02*
X9636223Y-8475477D01*
X9564097Y-8475477D01*
X9564097Y-8547603D01*
X9636223Y-8547603D01*
X9636223Y-14389603D02*
X9636223Y-14317477D01*
X9564097Y-14317477D01*
X9564097Y-14389603D01*
X9636223Y-14389603D01*
X9636223Y-14643603D02*
X9636223Y-14571477D01*
X9564097Y-14571477D01*
X9564097Y-14643603D01*
X9636223Y-14643603D01*
X9890223Y-8293603D02*
X9890223Y-8221477D01*
X9818097Y-8221477D01*
X9818097Y-8293603D01*
X9890223Y-8293603D01*
X9890223Y-8547603D02*
X9890223Y-8475477D01*
X9818097Y-8475477D01*
X9818097Y-8547603D01*
X9890223Y-8547603D01*
X9890223Y-14389603D02*
X9890223Y-14317477D01*
X9818097Y-14317477D01*
X9818097Y-14389603D01*
X9890223Y-14389603D01*
X9890223Y-14643603D02*
X9890223Y-14571477D01*
X9818097Y-14571477D01*
X9818097Y-14643603D01*
X9890223Y-14643603D01*
X10144223Y-8293603D02*
X10144223Y-8221477D01*
X10072097Y-8221477D01*
X10072097Y-8293603D01*
X10144223Y-8293603D01*
X10144223Y-8547603D02*
X10144223Y-8475477D01*
X10072097Y-8475477D01*
X10072097Y-8547603D01*
X10144223Y-8547603D01*
X10144223Y-14389603D02*
X10144223Y-14317477D01*
X10072097Y-14317477D01*
X10072097Y-14389603D01*
X10144223Y-14389603D01*
X10144223Y-14643603D02*
X10144223Y-14571477D01*
X10072097Y-14571477D01*
X10072097Y-14643603D01*
X10144223Y-14643603D01*
X10398223Y-8293603D02*
X10398223Y-8221477D01*
X10326097Y-8221477D01*
X10326097Y-8293603D01*
X10398223Y-8293603D01*
X10398223Y-8547603D02*
X10398223Y-8475477D01*
X10326097Y-8475477D01*
X10326097Y-8547603D01*
X10398223Y-8547603D01*
X10398223Y-14389603D02*
X10398223Y-14317477D01*
X10326097Y-14317477D01*
X10326097Y-14389603D01*
X10398223Y-14389603D01*
X10398223Y-14643603D02*
X10398223Y-14571477D01*
X10326097Y-14571477D01*
X10326097Y-14643603D01*
X10398223Y-14643603D01*
X10652223Y-8293603D02*
X10652223Y-8221477D01*
X10580097Y-8221477D01*
X10580097Y-8293603D01*
X10652223Y-8293603D01*
X10652223Y-8547603D02*
X10652223Y-8475477D01*
X10580097Y-8475477D01*
X10580097Y-8547603D01*
X10652223Y-8547603D01*
X10652223Y-14389603D02*
X10652223Y-14317477D01*
X10580097Y-14317477D01*
X10580097Y-14389603D01*
X10652223Y-14389603D01*
X10652223Y-14643603D02*
X10652223Y-14571477D01*
X10580097Y-14571477D01*
X10580097Y-14643603D01*
X10652223Y-14643603D01*
X10906223Y-8293603D02*
X10906223Y-8221477D01*
X10834097Y-8221477D01*
X10834097Y-8293603D01*
X10906223Y-8293603D01*
X10906223Y-8547603D02*
X10906223Y-8475477D01*
X10834097Y-8475477D01*
X10834097Y-8547603D01*
X10906223Y-8547603D01*
X10906223Y-14389603D02*
X10906223Y-14317477D01*
X10834097Y-14317477D01*
X10834097Y-14389603D01*
X10906223Y-14389603D01*
X10906223Y-14643603D02*
X10906223Y-14571477D01*
X10834097Y-14571477D01*
X10834097Y-14643603D01*
X10906223Y-14643603D01*
X11160223Y-8293603D02*
X11160223Y-8221477D01*
X11088097Y-8221477D01*
X11088097Y-8293603D01*
X11160223Y-8293603D01*
X11160223Y-8547603D02*
X11160223Y-8475477D01*
X11088097Y-8475477D01*
X11088097Y-8547603D01*
X11160223Y-8547603D01*
X11160223Y-14389603D02*
X11160223Y-14317477D01*
X11088097Y-14317477D01*
X11088097Y-14389603D01*
X11160223Y-14389603D01*
X11160223Y-14643603D02*
X11160223Y-14571477D01*
X11088097Y-14571477D01*
X11088097Y-14643603D01*
X11160223Y-14643603D01*
X11414223Y-8293603D02*
X11414223Y-8221477D01*
X11342097Y-8221477D01*
X11342097Y-8293603D01*
X11414223Y-8293603D01*
X11414223Y-8547603D02*
X11414223Y-8475477D01*
X11342097Y-8475477D01*
X11342097Y-8547603D01*
X11414223Y-8547603D01*
X11414223Y-14389603D02*
X11414223Y-14317477D01*
X11342097Y-14317477D01*
X11342097Y-14389603D01*
X11414223Y-14389603D01*
X11414223Y-14643603D02*
X11414223Y-14571477D01*
X11342097Y-14571477D01*
X11342097Y-14643603D01*
X11414223Y-14643603D01*
X11668223Y-8293603D02*
X11668223Y-8221477D01*
X11596097Y-8221477D01*
X11596097Y-8293603D01*
X11668223Y-8293603D01*
X11668223Y-8547603D02*
X11668223Y-8475477D01*
X11596097Y-8475477D01*
X11596097Y-8547603D01*
X11668223Y-8547603D01*
X11668223Y-14389603D02*
X11668223Y-14317477D01*
X11596097Y-14317477D01*
X11596097Y-14389603D01*
X11668223Y-14389603D01*
X11668223Y-14643603D02*
X11668223Y-14571477D01*
X11596097Y-14571477D01*
X11596097Y-14643603D01*
X11668223Y-14643603D01*
X11922223Y-8293603D02*
X11922223Y-8221477D01*
X11850097Y-8221477D01*
X11850097Y-8293603D01*
X11922223Y-8293603D01*
X11922223Y-8547603D02*
X11922223Y-8475477D01*
X11850097Y-8475477D01*
X11850097Y-8547603D01*
X11922223Y-8547603D01*
X11922223Y-14389603D02*
X11922223Y-14317477D01*
X11850097Y-14317477D01*
X11850097Y-14389603D01*
X11922223Y-14389603D01*
X11922223Y-14643603D02*
X11922223Y-14571477D01*
X11850097Y-14571477D01*
X11850097Y-14643603D01*
X11922223Y-14643603D01*
X12176223Y-8293603D02*
X12176223Y-8221477D01*
X12104097Y-8221477D01*
X12104097Y-8293603D01*
X12176223Y-8293603D01*
X12176223Y-8547603D02*
X12176223Y-8475477D01*
X12104097Y-8475477D01*
X12104097Y-8547603D01*
X12176223Y-8547603D01*
X12176223Y-14389603D02*
X12176223Y-14317477D01*
X12104097Y-14317477D01*
X12104097Y-14389603D01*
X12176223Y-14389603D01*
X12176223Y-14643603D02*
X12176223Y-14571477D01*
X12104097Y-14571477D01*
X12104097Y-14643603D01*
X12176223Y-14643603D01*
X12430223Y-8293603D02*
X12430223Y-8221477D01*
X12358097Y-8221477D01*
X12358097Y-8293603D01*
X12430223Y-8293603D01*
X12430223Y-8547603D02*
X12430223Y-8475477D01*
X12358097Y-8475477D01*
X12358097Y-8547603D01*
X12430223Y-8547603D01*
X12430223Y-14389603D02*
X12430223Y-14317477D01*
X12358097Y-14317477D01*
X12358097Y-14389603D01*
X12430223Y-14389603D01*
X12430223Y-14643603D02*
X12430223Y-14571477D01*
X12358097Y-14571477D01*
X12358097Y-14643603D01*
X12430223Y-14643603D01*
X12684223Y-8293603D02*
X12684223Y-8221477D01*
X12612097Y-8221477D01*
X12612097Y-8293603D01*
X12684223Y-8293603D01*
X12684223Y-8547603D02*
X12684223Y-8475477D01*
X12612097Y-8475477D01*
X12612097Y-8547603D01*
X12684223Y-8547603D01*
X12684223Y-14389603D02*
X12684223Y-14317477D01*
X12612097Y-14317477D01*
X12612097Y-14389603D01*
X12684223Y-14389603D01*
X12684223Y-14643603D02*
X12684223Y-14571477D01*
X12612097Y-14571477D01*
X12612097Y-14643603D01*
X12684223Y-14643603D01*
X12938223Y-8293603D02*
X12938223Y-8221477D01*
X12866097Y-8221477D01*
X12866097Y-8293603D01*
X12938223Y-8293603D01*
X12938223Y-8547603D02*
X12938223Y-8475477D01*
X12866097Y-8475477D01*
X12866097Y-8547603D01*
X12938223Y-8547603D01*
X12938223Y-14389603D02*
X12938223Y-14317477D01*
X12866097Y-14317477D01*
X12866097Y-14389603D01*
X12938223Y-14389603D01*
X12938223Y-14643603D02*
X12938223Y-14571477D01*
X12866097Y-14571477D01*
X12866097Y-14643603D01*
X12938223Y-14643603D01*
X13192223Y-8293603D02*
X13192223Y-8221477D01*
X13120097Y-8221477D01*
X13120097Y-8293603D01*
X13192223Y-8293603D01*
X13192223Y-8547603D02*
X13192223Y-8475477D01*
X13120097Y-8475477D01*
X13120097Y-8547603D01*
X13192223Y-8547603D01*
X13192223Y-14389603D02*
X13192223Y-14317477D01*
X13120097Y-14317477D01*
X13120097Y-14389603D01*
X13192223Y-14389603D01*
X13192223Y-14643603D02*
X13192223Y-14571477D01*
X13120097Y-14571477D01*
X13120097Y-14643603D01*
X13192223Y-14643603D01*
X13446223Y-8293603D02*
X13446223Y-8221477D01*
X13374097Y-8221477D01*
X13374097Y-8293603D01*
X13446223Y-8293603D01*
X13446223Y-8547603D02*
X13446223Y-8475477D01*
X13374097Y-8475477D01*
X13374097Y-8547603D01*
X13446223Y-8547603D01*
X13446223Y-14389603D02*
X13446223Y-14317477D01*
X13374097Y-14317477D01*
X13374097Y-14389603D01*
X13446223Y-14389603D01*
X13446223Y-14643603D02*
X13446223Y-14571477D01*
X13374097Y-14571477D01*
X13374097Y-14643603D01*
X13446223Y-14643603D01*
X13700223Y-8293603D02*
X13700223Y-8221477D01*
X13628097Y-8221477D01*
X13628097Y-8293603D01*
X13700223Y-8293603D01*
X13700223Y-8547603D02*
X13700223Y-8475477D01*
X13628097Y-8475477D01*
X13628097Y-8547603D01*
X13700223Y-8547603D01*
X13700223Y-14389603D02*
X13700223Y-14317477D01*
X13628097Y-14317477D01*
X13628097Y-14389603D01*
X13700223Y-14389603D01*
X13700223Y-14643603D02*
X13700223Y-14571477D01*
X13628097Y-14571477D01*
X13628097Y-14643603D01*
X13700223Y-14643603D01*
D14*
X14098020Y-3666640D02*
X14168020Y-3596640D01*
X14098020Y-3526640D01*
X14028020Y-3596640D01*
X14098020Y-3666640D01*
X14098020Y-4174640D02*
X14168020Y-4104640D01*
X14098020Y-4034640D01*
X14028020Y-4104640D01*
X14098020Y-4174640D01*
D12*
X5058740Y-11209700D02*
X5258740Y-11409700D01*
X5258740Y-11209700D02*
X5058740Y-11409700D01*
X5258740Y-11309700D02*
G75*
G03*
X5058740Y-11309700I-100000J0D01*
G01*
X5058740Y-11309700D02*
G75*
G03*
X5258740Y-11309700I100000J0D01*
G01*
X5058740Y-11559700D02*
X5258740Y-11759700D01*
X5258740Y-11559700D02*
X5058740Y-11759700D01*
X5258740Y-11659700D02*
G75*
G03*
X5058740Y-11659700I-100000J0D01*
G01*
X5058740Y-11659700D02*
G75*
G03*
X5258740Y-11659700I100000J0D01*
G01*
X5058740Y-11909700D02*
X5258740Y-12109700D01*
X5258740Y-11909700D02*
X5058740Y-12109700D01*
X5258740Y-12009700D02*
G75*
G03*
X5058740Y-12009700I-100000J0D01*
G01*
X5058740Y-12009700D02*
G75*
G03*
X5258740Y-12009700I100000J0D01*
G01*
X5058740Y-12259700D02*
X5258740Y-12459700D01*
X5258740Y-12259700D02*
X5058740Y-12459700D01*
X5258740Y-12359700D02*
G75*
G03*
X5058740Y-12359700I-100000J0D01*
G01*
X5058740Y-12359700D02*
G75*
G03*
X5258740Y-12359700I100000J0D01*
G01*
X5058740Y-12609700D02*
X5258740Y-12809700D01*
X5258740Y-12609700D02*
X5058740Y-12809700D01*
X5258740Y-12709700D02*
G75*
G03*
X5058740Y-12709700I-100000J0D01*
G01*
X5058740Y-12709700D02*
G75*
G03*
X5258740Y-12709700I100000J0D01*
G01*
X5058740Y-12959700D02*
X5258740Y-13159700D01*
X5258740Y-12959700D02*
X5058740Y-13159700D01*
X5258740Y-13059700D02*
G75*
G03*
X5058740Y-13059700I-100000J0D01*
G01*
X5058740Y-13059700D02*
G75*
G03*
X5258740Y-13059700I100000J0D01*
G01*
X5058740Y-13309700D02*
X5258740Y-13509700D01*
X5258740Y-13309700D02*
X5058740Y-13509700D01*
X5258740Y-13409700D02*
G75*
G03*
X5058740Y-13409700I-100000J0D01*
G01*
X5058740Y-13409700D02*
G75*
G03*
X5258740Y-13409700I100000J0D01*
G01*
X5058740Y-13659700D02*
X5258740Y-13859700D01*
X5258740Y-13659700D02*
X5058740Y-13859700D01*
X5258740Y-13759700D02*
G75*
G03*
X5058740Y-13759700I-100000J0D01*
G01*
X5058740Y-13759700D02*
G75*
G03*
X5258740Y-13759700I100000J0D01*
G01*
X5058740Y-14009700D02*
X5258740Y-14209700D01*
X5258740Y-14009700D02*
X5058740Y-14209700D01*
X5258740Y-14109700D02*
G75*
G03*
X5058740Y-14109700I-100000J0D01*
G01*
X5058740Y-14109700D02*
G75*
G03*
X5258740Y-14109700I100000J0D01*
G01*
D15*
X6138840Y-2198960D02*
X6413840Y-2473960D01*
X6413840Y-2198960D02*
X6138840Y-2473960D01*
X6276340Y-2198960D02*
X6276340Y-2473960D01*
X6138840Y-2336460D02*
X6413840Y-2336460D01*
X6138840Y-7098960D02*
X6413840Y-7373960D01*
X6413840Y-7098960D02*
X6138840Y-7373960D01*
X6276340Y-7098960D02*
X6276340Y-7373960D01*
X6138840Y-7236460D02*
X6413840Y-7236460D01*
X11938840Y-2198960D02*
X12213840Y-2473960D01*
X12213840Y-2198960D02*
X11938840Y-2473960D01*
X12076340Y-2198960D02*
X12076340Y-2473960D01*
X11938840Y-2336460D02*
X12213840Y-2336460D01*
X11938840Y-7098960D02*
X12213840Y-7373960D01*
X12213840Y-7098960D02*
X11938840Y-7373960D01*
X12076340Y-7098960D02*
X12076340Y-7373960D01*
X11938840Y-7236460D02*
X12213840Y-7236460D01*
D12*
X4581317Y-15485444D02*
X4581317Y-15285444D01*
X4581317Y-15285444D02*
X4628936Y-15285444D01*
X4628936Y-15285444D02*
X4657507Y-15294968D01*
X4657507Y-15294968D02*
X4676555Y-15314015D01*
X4676555Y-15314015D02*
X4686079Y-15333063D01*
X4686079Y-15333063D02*
X4695603Y-15371158D01*
X4695603Y-15371158D02*
X4695603Y-15399729D01*
X4695603Y-15399729D02*
X4686079Y-15437825D01*
X4686079Y-15437825D02*
X4676555Y-15456872D01*
X4676555Y-15456872D02*
X4657507Y-15475920D01*
X4657507Y-15475920D02*
X4628936Y-15485444D01*
X4628936Y-15485444D02*
X4581317Y-15485444D01*
X4781317Y-15485444D02*
X4781317Y-15352110D01*
X4781317Y-15390206D02*
X4790841Y-15371158D01*
X4790841Y-15371158D02*
X4800364Y-15361634D01*
X4800364Y-15361634D02*
X4819412Y-15352110D01*
X4819412Y-15352110D02*
X4838460Y-15352110D01*
X4905126Y-15485444D02*
X4905126Y-15352110D01*
X4905126Y-15285444D02*
X4895603Y-15294968D01*
X4895603Y-15294968D02*
X4905126Y-15304491D01*
X4905126Y-15304491D02*
X4914650Y-15294968D01*
X4914650Y-15294968D02*
X4905126Y-15285444D01*
X4905126Y-15285444D02*
X4905126Y-15304491D01*
X5028936Y-15485444D02*
X5009888Y-15475920D01*
X5009888Y-15475920D02*
X5000364Y-15456872D01*
X5000364Y-15456872D02*
X5000364Y-15285444D01*
X5133698Y-15485444D02*
X5114650Y-15475920D01*
X5114650Y-15475920D02*
X5105126Y-15456872D01*
X5105126Y-15456872D02*
X5105126Y-15285444D01*
X5362269Y-15485444D02*
X5362269Y-15285444D01*
X5362269Y-15285444D02*
X5428936Y-15428301D01*
X5428936Y-15428301D02*
X5495603Y-15285444D01*
X5495603Y-15285444D02*
X5495603Y-15485444D01*
X5676555Y-15485444D02*
X5676555Y-15380682D01*
X5676555Y-15380682D02*
X5667031Y-15361634D01*
X5667031Y-15361634D02*
X5647983Y-15352110D01*
X5647983Y-15352110D02*
X5609888Y-15352110D01*
X5609888Y-15352110D02*
X5590841Y-15361634D01*
X5676555Y-15475920D02*
X5657507Y-15485444D01*
X5657507Y-15485444D02*
X5609888Y-15485444D01*
X5609888Y-15485444D02*
X5590841Y-15475920D01*
X5590841Y-15475920D02*
X5581317Y-15456872D01*
X5581317Y-15456872D02*
X5581317Y-15437825D01*
X5581317Y-15437825D02*
X5590841Y-15418777D01*
X5590841Y-15418777D02*
X5609888Y-15409253D01*
X5609888Y-15409253D02*
X5657507Y-15409253D01*
X5657507Y-15409253D02*
X5676555Y-15399729D01*
X5771793Y-15352110D02*
X5771793Y-15552110D01*
X5771793Y-15361634D02*
X5790841Y-15352110D01*
X5790841Y-15352110D02*
X5828936Y-15352110D01*
X5828936Y-15352110D02*
X5847983Y-15361634D01*
X5847983Y-15361634D02*
X5857507Y-15371158D01*
X5857507Y-15371158D02*
X5867031Y-15390206D01*
X5867031Y-15390206D02*
X5867031Y-15447348D01*
X5867031Y-15447348D02*
X5857507Y-15466396D01*
X5857507Y-15466396D02*
X5847983Y-15475920D01*
X5847983Y-15475920D02*
X5828936Y-15485444D01*
X5828936Y-15485444D02*
X5790841Y-15485444D01*
X5790841Y-15485444D02*
X5771793Y-15475920D01*
X5952745Y-15466396D02*
X5962269Y-15475920D01*
X5962269Y-15475920D02*
X5952745Y-15485444D01*
X5952745Y-15485444D02*
X5943222Y-15475920D01*
X5943222Y-15475920D02*
X5952745Y-15466396D01*
X5952745Y-15466396D02*
X5952745Y-15485444D01*
X5952745Y-15361634D02*
X5962269Y-15371158D01*
X5962269Y-15371158D02*
X5952745Y-15380682D01*
X5952745Y-15380682D02*
X5943222Y-15371158D01*
X5943222Y-15371158D02*
X5952745Y-15361634D01*
X5952745Y-15361634D02*
X5952745Y-15380682D01*
D10*
X4280540Y-15793960D02*
X4320540Y-15833960D01*
X4320540Y-15793960D02*
X4280540Y-15833960D01*
D12*
X4619412Y-15705444D02*
X4638460Y-15705444D01*
X4638460Y-15705444D02*
X4657507Y-15714968D01*
X4657507Y-15714968D02*
X4667031Y-15724491D01*
X4667031Y-15724491D02*
X4676555Y-15743539D01*
X4676555Y-15743539D02*
X4686079Y-15781634D01*
X4686079Y-15781634D02*
X4686079Y-15829253D01*
X4686079Y-15829253D02*
X4676555Y-15867348D01*
X4676555Y-15867348D02*
X4667031Y-15886396D01*
X4667031Y-15886396D02*
X4657507Y-15895920D01*
X4657507Y-15895920D02*
X4638460Y-15905444D01*
X4638460Y-15905444D02*
X4619412Y-15905444D01*
X4619412Y-15905444D02*
X4600364Y-15895920D01*
X4600364Y-15895920D02*
X4590841Y-15886396D01*
X4590841Y-15886396D02*
X4581317Y-15867348D01*
X4581317Y-15867348D02*
X4571793Y-15829253D01*
X4571793Y-15829253D02*
X4571793Y-15781634D01*
X4571793Y-15781634D02*
X4581317Y-15743539D01*
X4581317Y-15743539D02*
X4590841Y-15724491D01*
X4590841Y-15724491D02*
X4600364Y-15714968D01*
X4600364Y-15714968D02*
X4619412Y-15705444D01*
X4771793Y-15886396D02*
X4781317Y-15895920D01*
X4781317Y-15895920D02*
X4771793Y-15905444D01*
X4771793Y-15905444D02*
X4762269Y-15895920D01*
X4762269Y-15895920D02*
X4771793Y-15886396D01*
X4771793Y-15886396D02*
X4771793Y-15905444D01*
X4952745Y-15772110D02*
X4952745Y-15905444D01*
X4905126Y-15695920D02*
X4857507Y-15838777D01*
X4857507Y-15838777D02*
X4981317Y-15838777D01*
X5095603Y-15705444D02*
X5114650Y-15705444D01*
X5114650Y-15705444D02*
X5133698Y-15714968D01*
X5133698Y-15714968D02*
X5143222Y-15724491D01*
X5143222Y-15724491D02*
X5152745Y-15743539D01*
X5152745Y-15743539D02*
X5162269Y-15781634D01*
X5162269Y-15781634D02*
X5162269Y-15829253D01*
X5162269Y-15829253D02*
X5152745Y-15867348D01*
X5152745Y-15867348D02*
X5143222Y-15886396D01*
X5143222Y-15886396D02*
X5133698Y-15895920D01*
X5133698Y-15895920D02*
X5114650Y-15905444D01*
X5114650Y-15905444D02*
X5095603Y-15905444D01*
X5095603Y-15905444D02*
X5076555Y-15895920D01*
X5076555Y-15895920D02*
X5067031Y-15886396D01*
X5067031Y-15886396D02*
X5057507Y-15867348D01*
X5057507Y-15867348D02*
X5047984Y-15829253D01*
X5047984Y-15829253D02*
X5047984Y-15781634D01*
X5047984Y-15781634D02*
X5057507Y-15743539D01*
X5057507Y-15743539D02*
X5067031Y-15724491D01*
X5067031Y-15724491D02*
X5076555Y-15714968D01*
X5076555Y-15714968D02*
X5095603Y-15705444D01*
X5286079Y-15705444D02*
X5305126Y-15705444D01*
X5305126Y-15705444D02*
X5324174Y-15714968D01*
X5324174Y-15714968D02*
X5333698Y-15724491D01*
X5333698Y-15724491D02*
X5343222Y-15743539D01*
X5343222Y-15743539D02*
X5352745Y-15781634D01*
X5352745Y-15781634D02*
X5352745Y-15829253D01*
X5352745Y-15829253D02*
X5343222Y-15867348D01*
X5343222Y-15867348D02*
X5333698Y-15886396D01*
X5333698Y-15886396D02*
X5324174Y-15895920D01*
X5324174Y-15895920D02*
X5305126Y-15905444D01*
X5305126Y-15905444D02*
X5286079Y-15905444D01*
X5286079Y-15905444D02*
X5267031Y-15895920D01*
X5267031Y-15895920D02*
X5257507Y-15886396D01*
X5257507Y-15886396D02*
X5247984Y-15867348D01*
X5247984Y-15867348D02*
X5238460Y-15829253D01*
X5238460Y-15829253D02*
X5238460Y-15781634D01*
X5238460Y-15781634D02*
X5247984Y-15743539D01*
X5247984Y-15743539D02*
X5257507Y-15724491D01*
X5257507Y-15724491D02*
X5267031Y-15714968D01*
X5267031Y-15714968D02*
X5286079Y-15705444D01*
X5438460Y-15905444D02*
X5438460Y-15772110D01*
X5438460Y-15791158D02*
X5447984Y-15781634D01*
X5447984Y-15781634D02*
X5467031Y-15772110D01*
X5467031Y-15772110D02*
X5495603Y-15772110D01*
X5495603Y-15772110D02*
X5514650Y-15781634D01*
X5514650Y-15781634D02*
X5524174Y-15800682D01*
X5524174Y-15800682D02*
X5524174Y-15905444D01*
X5524174Y-15800682D02*
X5533698Y-15781634D01*
X5533698Y-15781634D02*
X5552745Y-15772110D01*
X5552745Y-15772110D02*
X5581317Y-15772110D01*
X5581317Y-15772110D02*
X5600364Y-15781634D01*
X5600364Y-15781634D02*
X5609888Y-15800682D01*
X5609888Y-15800682D02*
X5609888Y-15905444D01*
X5705126Y-15905444D02*
X5705126Y-15772110D01*
X5705126Y-15791158D02*
X5714650Y-15781634D01*
X5714650Y-15781634D02*
X5733698Y-15772110D01*
X5733698Y-15772110D02*
X5762269Y-15772110D01*
X5762269Y-15772110D02*
X5781317Y-15781634D01*
X5781317Y-15781634D02*
X5790841Y-15800682D01*
X5790841Y-15800682D02*
X5790841Y-15905444D01*
X5790841Y-15800682D02*
X5800364Y-15781634D01*
X5800364Y-15781634D02*
X5819412Y-15772110D01*
X5819412Y-15772110D02*
X5847983Y-15772110D01*
X5847983Y-15772110D02*
X5867031Y-15781634D01*
X5867031Y-15781634D02*
X5876555Y-15800682D01*
X5876555Y-15800682D02*
X5876555Y-15905444D01*
X6267031Y-15695920D02*
X6095603Y-15953063D01*
X6524174Y-15705444D02*
X6543222Y-15705444D01*
X6543222Y-15705444D02*
X6562269Y-15714968D01*
X6562269Y-15714968D02*
X6571793Y-15724491D01*
X6571793Y-15724491D02*
X6581317Y-15743539D01*
X6581317Y-15743539D02*
X6590841Y-15781634D01*
X6590841Y-15781634D02*
X6590841Y-15829253D01*
X6590841Y-15829253D02*
X6581317Y-15867348D01*
X6581317Y-15867348D02*
X6571793Y-15886396D01*
X6571793Y-15886396D02*
X6562269Y-15895920D01*
X6562269Y-15895920D02*
X6543222Y-15905444D01*
X6543222Y-15905444D02*
X6524174Y-15905444D01*
X6524174Y-15905444D02*
X6505126Y-15895920D01*
X6505126Y-15895920D02*
X6495603Y-15886396D01*
X6495603Y-15886396D02*
X6486079Y-15867348D01*
X6486079Y-15867348D02*
X6476555Y-15829253D01*
X6476555Y-15829253D02*
X6476555Y-15781634D01*
X6476555Y-15781634D02*
X6486079Y-15743539D01*
X6486079Y-15743539D02*
X6495603Y-15724491D01*
X6495603Y-15724491D02*
X6505126Y-15714968D01*
X6505126Y-15714968D02*
X6524174Y-15705444D01*
X6676555Y-15886396D02*
X6686079Y-15895920D01*
X6686079Y-15895920D02*
X6676555Y-15905444D01*
X6676555Y-15905444D02*
X6667031Y-15895920D01*
X6667031Y-15895920D02*
X6676555Y-15886396D01*
X6676555Y-15886396D02*
X6676555Y-15905444D01*
X6809888Y-15705444D02*
X6828936Y-15705444D01*
X6828936Y-15705444D02*
X6847984Y-15714968D01*
X6847984Y-15714968D02*
X6857507Y-15724491D01*
X6857507Y-15724491D02*
X6867031Y-15743539D01*
X6867031Y-15743539D02*
X6876555Y-15781634D01*
X6876555Y-15781634D02*
X6876555Y-15829253D01*
X6876555Y-15829253D02*
X6867031Y-15867348D01*
X6867031Y-15867348D02*
X6857507Y-15886396D01*
X6857507Y-15886396D02*
X6847984Y-15895920D01*
X6847984Y-15895920D02*
X6828936Y-15905444D01*
X6828936Y-15905444D02*
X6809888Y-15905444D01*
X6809888Y-15905444D02*
X6790841Y-15895920D01*
X6790841Y-15895920D02*
X6781317Y-15886396D01*
X6781317Y-15886396D02*
X6771793Y-15867348D01*
X6771793Y-15867348D02*
X6762269Y-15829253D01*
X6762269Y-15829253D02*
X6762269Y-15781634D01*
X6762269Y-15781634D02*
X6771793Y-15743539D01*
X6771793Y-15743539D02*
X6781317Y-15724491D01*
X6781317Y-15724491D02*
X6790841Y-15714968D01*
X6790841Y-15714968D02*
X6809888Y-15705444D01*
X7067031Y-15905444D02*
X6952746Y-15905444D01*
X7009888Y-15905444D02*
X7009888Y-15705444D01*
X7009888Y-15705444D02*
X6990841Y-15734015D01*
X6990841Y-15734015D02*
X6971793Y-15753063D01*
X6971793Y-15753063D02*
X6952746Y-15762587D01*
X7247984Y-15705444D02*
X7152746Y-15705444D01*
X7152746Y-15705444D02*
X7143222Y-15800682D01*
X7143222Y-15800682D02*
X7152746Y-15791158D01*
X7152746Y-15791158D02*
X7171793Y-15781634D01*
X7171793Y-15781634D02*
X7219412Y-15781634D01*
X7219412Y-15781634D02*
X7238460Y-15791158D01*
X7238460Y-15791158D02*
X7247984Y-15800682D01*
X7247984Y-15800682D02*
X7257507Y-15819729D01*
X7257507Y-15819729D02*
X7257507Y-15867348D01*
X7257507Y-15867348D02*
X7247984Y-15886396D01*
X7247984Y-15886396D02*
X7238460Y-15895920D01*
X7238460Y-15895920D02*
X7219412Y-15905444D01*
X7219412Y-15905444D02*
X7171793Y-15905444D01*
X7171793Y-15905444D02*
X7152746Y-15895920D01*
X7152746Y-15895920D02*
X7143222Y-15886396D01*
X7324174Y-15705444D02*
X7457507Y-15705444D01*
X7457507Y-15705444D02*
X7371793Y-15905444D01*
X7524174Y-15705444D02*
X7524174Y-15743539D01*
X7600365Y-15705444D02*
X7600365Y-15743539D01*
X7895603Y-15981634D02*
X7886079Y-15972110D01*
X7886079Y-15972110D02*
X7867031Y-15943539D01*
X7867031Y-15943539D02*
X7857508Y-15924491D01*
X7857508Y-15924491D02*
X7847984Y-15895920D01*
X7847984Y-15895920D02*
X7838460Y-15848301D01*
X7838460Y-15848301D02*
X7838460Y-15810206D01*
X7838460Y-15810206D02*
X7847984Y-15762587D01*
X7847984Y-15762587D02*
X7857508Y-15734015D01*
X7857508Y-15734015D02*
X7867031Y-15714968D01*
X7867031Y-15714968D02*
X7886079Y-15686396D01*
X7886079Y-15686396D02*
X7895603Y-15676872D01*
X7952746Y-15705444D02*
X8086079Y-15705444D01*
X8086079Y-15705444D02*
X8000365Y-15905444D01*
X8267031Y-15905444D02*
X8152746Y-15905444D01*
X8209888Y-15905444D02*
X8209888Y-15705444D01*
X8209888Y-15705444D02*
X8190841Y-15734015D01*
X8190841Y-15734015D02*
X8171793Y-15753063D01*
X8171793Y-15753063D02*
X8152746Y-15762587D01*
X8447984Y-15705444D02*
X8352746Y-15705444D01*
X8352746Y-15705444D02*
X8343222Y-15800682D01*
X8343222Y-15800682D02*
X8352746Y-15791158D01*
X8352746Y-15791158D02*
X8371793Y-15781634D01*
X8371793Y-15781634D02*
X8419412Y-15781634D01*
X8419412Y-15781634D02*
X8438460Y-15791158D01*
X8438460Y-15791158D02*
X8447984Y-15800682D01*
X8447984Y-15800682D02*
X8457508Y-15819729D01*
X8457508Y-15819729D02*
X8457508Y-15867348D01*
X8457508Y-15867348D02*
X8447984Y-15886396D01*
X8447984Y-15886396D02*
X8438460Y-15895920D01*
X8438460Y-15895920D02*
X8419412Y-15905444D01*
X8419412Y-15905444D02*
X8371793Y-15905444D01*
X8371793Y-15905444D02*
X8352746Y-15895920D01*
X8352746Y-15895920D02*
X8343222Y-15886396D01*
X8695603Y-15905444D02*
X8695603Y-15705444D01*
X8781317Y-15905444D02*
X8781317Y-15800682D01*
X8781317Y-15800682D02*
X8771793Y-15781634D01*
X8771793Y-15781634D02*
X8752746Y-15772110D01*
X8752746Y-15772110D02*
X8724174Y-15772110D01*
X8724174Y-15772110D02*
X8705127Y-15781634D01*
X8705127Y-15781634D02*
X8695603Y-15791158D01*
X8905127Y-15905444D02*
X8886079Y-15895920D01*
X8886079Y-15895920D02*
X8876555Y-15886396D01*
X8876555Y-15886396D02*
X8867032Y-15867348D01*
X8867032Y-15867348D02*
X8867032Y-15810206D01*
X8867032Y-15810206D02*
X8876555Y-15791158D01*
X8876555Y-15791158D02*
X8886079Y-15781634D01*
X8886079Y-15781634D02*
X8905127Y-15772110D01*
X8905127Y-15772110D02*
X8933698Y-15772110D01*
X8933698Y-15772110D02*
X8952746Y-15781634D01*
X8952746Y-15781634D02*
X8962270Y-15791158D01*
X8962270Y-15791158D02*
X8971793Y-15810206D01*
X8971793Y-15810206D02*
X8971793Y-15867348D01*
X8971793Y-15867348D02*
X8962270Y-15886396D01*
X8962270Y-15886396D02*
X8952746Y-15895920D01*
X8952746Y-15895920D02*
X8933698Y-15905444D01*
X8933698Y-15905444D02*
X8905127Y-15905444D01*
X9086079Y-15905444D02*
X9067032Y-15895920D01*
X9067032Y-15895920D02*
X9057508Y-15876872D01*
X9057508Y-15876872D02*
X9057508Y-15705444D01*
X9238460Y-15895920D02*
X9219413Y-15905444D01*
X9219413Y-15905444D02*
X9181317Y-15905444D01*
X9181317Y-15905444D02*
X9162270Y-15895920D01*
X9162270Y-15895920D02*
X9152746Y-15876872D01*
X9152746Y-15876872D02*
X9152746Y-15800682D01*
X9152746Y-15800682D02*
X9162270Y-15781634D01*
X9162270Y-15781634D02*
X9181317Y-15772110D01*
X9181317Y-15772110D02*
X9219413Y-15772110D01*
X9219413Y-15772110D02*
X9238460Y-15781634D01*
X9238460Y-15781634D02*
X9247984Y-15800682D01*
X9247984Y-15800682D02*
X9247984Y-15819729D01*
X9247984Y-15819729D02*
X9152746Y-15838777D01*
X9324174Y-15895920D02*
X9343222Y-15905444D01*
X9343222Y-15905444D02*
X9381317Y-15905444D01*
X9381317Y-15905444D02*
X9400365Y-15895920D01*
X9400365Y-15895920D02*
X9409889Y-15876872D01*
X9409889Y-15876872D02*
X9409889Y-15867348D01*
X9409889Y-15867348D02*
X9400365Y-15848301D01*
X9400365Y-15848301D02*
X9381317Y-15838777D01*
X9381317Y-15838777D02*
X9352746Y-15838777D01*
X9352746Y-15838777D02*
X9333698Y-15829253D01*
X9333698Y-15829253D02*
X9324174Y-15810206D01*
X9324174Y-15810206D02*
X9324174Y-15800682D01*
X9324174Y-15800682D02*
X9333698Y-15781634D01*
X9333698Y-15781634D02*
X9352746Y-15772110D01*
X9352746Y-15772110D02*
X9381317Y-15772110D01*
X9381317Y-15772110D02*
X9400365Y-15781634D01*
X9476555Y-15981634D02*
X9486079Y-15972110D01*
X9486079Y-15972110D02*
X9505127Y-15943539D01*
X9505127Y-15943539D02*
X9514651Y-15924491D01*
X9514651Y-15924491D02*
X9524174Y-15895920D01*
X9524174Y-15895920D02*
X9533698Y-15848301D01*
X9533698Y-15848301D02*
X9533698Y-15810206D01*
X9533698Y-15810206D02*
X9524174Y-15762587D01*
X9524174Y-15762587D02*
X9514651Y-15734015D01*
X9514651Y-15734015D02*
X9505127Y-15714968D01*
X9505127Y-15714968D02*
X9486079Y-15686396D01*
X9486079Y-15686396D02*
X9476555Y-15676872D01*
D10*
X4320540Y-16077960D02*
G75*
G03*
X4220540Y-16077960I-50000J0D01*
G01*
X4220540Y-16077960D02*
G75*
G03*
X4320540Y-16077960I50000J0D01*
G01*
D12*
X4686079Y-16169444D02*
X4571793Y-16169444D01*
X4628936Y-16169444D02*
X4628936Y-15969444D01*
X4628936Y-15969444D02*
X4609888Y-15998015D01*
X4609888Y-15998015D02*
X4590841Y-16017063D01*
X4590841Y-16017063D02*
X4571793Y-16026587D01*
X4771793Y-16150396D02*
X4781317Y-16159920D01*
X4781317Y-16159920D02*
X4771793Y-16169444D01*
X4771793Y-16169444D02*
X4762269Y-16159920D01*
X4762269Y-16159920D02*
X4771793Y-16150396D01*
X4771793Y-16150396D02*
X4771793Y-16169444D01*
X4905126Y-15969444D02*
X4924174Y-15969444D01*
X4924174Y-15969444D02*
X4943222Y-15978968D01*
X4943222Y-15978968D02*
X4952745Y-15988491D01*
X4952745Y-15988491D02*
X4962269Y-16007539D01*
X4962269Y-16007539D02*
X4971793Y-16045634D01*
X4971793Y-16045634D02*
X4971793Y-16093253D01*
X4971793Y-16093253D02*
X4962269Y-16131348D01*
X4962269Y-16131348D02*
X4952745Y-16150396D01*
X4952745Y-16150396D02*
X4943222Y-16159920D01*
X4943222Y-16159920D02*
X4924174Y-16169444D01*
X4924174Y-16169444D02*
X4905126Y-16169444D01*
X4905126Y-16169444D02*
X4886079Y-16159920D01*
X4886079Y-16159920D02*
X4876555Y-16150396D01*
X4876555Y-16150396D02*
X4867031Y-16131348D01*
X4867031Y-16131348D02*
X4857507Y-16093253D01*
X4857507Y-16093253D02*
X4857507Y-16045634D01*
X4857507Y-16045634D02*
X4867031Y-16007539D01*
X4867031Y-16007539D02*
X4876555Y-15988491D01*
X4876555Y-15988491D02*
X4886079Y-15978968D01*
X4886079Y-15978968D02*
X4905126Y-15969444D01*
X5095603Y-15969444D02*
X5114650Y-15969444D01*
X5114650Y-15969444D02*
X5133698Y-15978968D01*
X5133698Y-15978968D02*
X5143222Y-15988491D01*
X5143222Y-15988491D02*
X5152745Y-16007539D01*
X5152745Y-16007539D02*
X5162269Y-16045634D01*
X5162269Y-16045634D02*
X5162269Y-16093253D01*
X5162269Y-16093253D02*
X5152745Y-16131348D01*
X5152745Y-16131348D02*
X5143222Y-16150396D01*
X5143222Y-16150396D02*
X5133698Y-16159920D01*
X5133698Y-16159920D02*
X5114650Y-16169444D01*
X5114650Y-16169444D02*
X5095603Y-16169444D01*
X5095603Y-16169444D02*
X5076555Y-16159920D01*
X5076555Y-16159920D02*
X5067031Y-16150396D01*
X5067031Y-16150396D02*
X5057507Y-16131348D01*
X5057507Y-16131348D02*
X5047984Y-16093253D01*
X5047984Y-16093253D02*
X5047984Y-16045634D01*
X5047984Y-16045634D02*
X5057507Y-16007539D01*
X5057507Y-16007539D02*
X5067031Y-15988491D01*
X5067031Y-15988491D02*
X5076555Y-15978968D01*
X5076555Y-15978968D02*
X5095603Y-15969444D01*
X5286079Y-15969444D02*
X5305126Y-15969444D01*
X5305126Y-15969444D02*
X5324174Y-15978968D01*
X5324174Y-15978968D02*
X5333698Y-15988491D01*
X5333698Y-15988491D02*
X5343222Y-16007539D01*
X5343222Y-16007539D02*
X5352745Y-16045634D01*
X5352745Y-16045634D02*
X5352745Y-16093253D01*
X5352745Y-16093253D02*
X5343222Y-16131348D01*
X5343222Y-16131348D02*
X5333698Y-16150396D01*
X5333698Y-16150396D02*
X5324174Y-16159920D01*
X5324174Y-16159920D02*
X5305126Y-16169444D01*
X5305126Y-16169444D02*
X5286079Y-16169444D01*
X5286079Y-16169444D02*
X5267031Y-16159920D01*
X5267031Y-16159920D02*
X5257507Y-16150396D01*
X5257507Y-16150396D02*
X5247984Y-16131348D01*
X5247984Y-16131348D02*
X5238460Y-16093253D01*
X5238460Y-16093253D02*
X5238460Y-16045634D01*
X5238460Y-16045634D02*
X5247984Y-16007539D01*
X5247984Y-16007539D02*
X5257507Y-15988491D01*
X5257507Y-15988491D02*
X5267031Y-15978968D01*
X5267031Y-15978968D02*
X5286079Y-15969444D01*
X5438460Y-16169444D02*
X5438460Y-16036110D01*
X5438460Y-16055158D02*
X5447984Y-16045634D01*
X5447984Y-16045634D02*
X5467031Y-16036110D01*
X5467031Y-16036110D02*
X5495603Y-16036110D01*
X5495603Y-16036110D02*
X5514650Y-16045634D01*
X5514650Y-16045634D02*
X5524174Y-16064682D01*
X5524174Y-16064682D02*
X5524174Y-16169444D01*
X5524174Y-16064682D02*
X5533698Y-16045634D01*
X5533698Y-16045634D02*
X5552745Y-16036110D01*
X5552745Y-16036110D02*
X5581317Y-16036110D01*
X5581317Y-16036110D02*
X5600364Y-16045634D01*
X5600364Y-16045634D02*
X5609888Y-16064682D01*
X5609888Y-16064682D02*
X5609888Y-16169444D01*
X5705126Y-16169444D02*
X5705126Y-16036110D01*
X5705126Y-16055158D02*
X5714650Y-16045634D01*
X5714650Y-16045634D02*
X5733698Y-16036110D01*
X5733698Y-16036110D02*
X5762269Y-16036110D01*
X5762269Y-16036110D02*
X5781317Y-16045634D01*
X5781317Y-16045634D02*
X5790841Y-16064682D01*
X5790841Y-16064682D02*
X5790841Y-16169444D01*
X5790841Y-16064682D02*
X5800364Y-16045634D01*
X5800364Y-16045634D02*
X5819412Y-16036110D01*
X5819412Y-16036110D02*
X5847983Y-16036110D01*
X5847983Y-16036110D02*
X5867031Y-16045634D01*
X5867031Y-16045634D02*
X5876555Y-16064682D01*
X5876555Y-16064682D02*
X5876555Y-16169444D01*
X6267031Y-15959920D02*
X6095603Y-16217063D01*
X6524174Y-15969444D02*
X6543222Y-15969444D01*
X6543222Y-15969444D02*
X6562269Y-15978968D01*
X6562269Y-15978968D02*
X6571793Y-15988491D01*
X6571793Y-15988491D02*
X6581317Y-16007539D01*
X6581317Y-16007539D02*
X6590841Y-16045634D01*
X6590841Y-16045634D02*
X6590841Y-16093253D01*
X6590841Y-16093253D02*
X6581317Y-16131348D01*
X6581317Y-16131348D02*
X6571793Y-16150396D01*
X6571793Y-16150396D02*
X6562269Y-16159920D01*
X6562269Y-16159920D02*
X6543222Y-16169444D01*
X6543222Y-16169444D02*
X6524174Y-16169444D01*
X6524174Y-16169444D02*
X6505126Y-16159920D01*
X6505126Y-16159920D02*
X6495603Y-16150396D01*
X6495603Y-16150396D02*
X6486079Y-16131348D01*
X6486079Y-16131348D02*
X6476555Y-16093253D01*
X6476555Y-16093253D02*
X6476555Y-16045634D01*
X6476555Y-16045634D02*
X6486079Y-16007539D01*
X6486079Y-16007539D02*
X6495603Y-15988491D01*
X6495603Y-15988491D02*
X6505126Y-15978968D01*
X6505126Y-15978968D02*
X6524174Y-15969444D01*
X6676555Y-16150396D02*
X6686079Y-16159920D01*
X6686079Y-16159920D02*
X6676555Y-16169444D01*
X6676555Y-16169444D02*
X6667031Y-16159920D01*
X6667031Y-16159920D02*
X6676555Y-16150396D01*
X6676555Y-16150396D02*
X6676555Y-16169444D01*
X6809888Y-15969444D02*
X6828936Y-15969444D01*
X6828936Y-15969444D02*
X6847984Y-15978968D01*
X6847984Y-15978968D02*
X6857507Y-15988491D01*
X6857507Y-15988491D02*
X6867031Y-16007539D01*
X6867031Y-16007539D02*
X6876555Y-16045634D01*
X6876555Y-16045634D02*
X6876555Y-16093253D01*
X6876555Y-16093253D02*
X6867031Y-16131348D01*
X6867031Y-16131348D02*
X6857507Y-16150396D01*
X6857507Y-16150396D02*
X6847984Y-16159920D01*
X6847984Y-16159920D02*
X6828936Y-16169444D01*
X6828936Y-16169444D02*
X6809888Y-16169444D01*
X6809888Y-16169444D02*
X6790841Y-16159920D01*
X6790841Y-16159920D02*
X6781317Y-16150396D01*
X6781317Y-16150396D02*
X6771793Y-16131348D01*
X6771793Y-16131348D02*
X6762269Y-16093253D01*
X6762269Y-16093253D02*
X6762269Y-16045634D01*
X6762269Y-16045634D02*
X6771793Y-16007539D01*
X6771793Y-16007539D02*
X6781317Y-15988491D01*
X6781317Y-15988491D02*
X6790841Y-15978968D01*
X6790841Y-15978968D02*
X6809888Y-15969444D01*
X6943222Y-15969444D02*
X7067031Y-15969444D01*
X7067031Y-15969444D02*
X7000365Y-16045634D01*
X7000365Y-16045634D02*
X7028936Y-16045634D01*
X7028936Y-16045634D02*
X7047984Y-16055158D01*
X7047984Y-16055158D02*
X7057507Y-16064682D01*
X7057507Y-16064682D02*
X7067031Y-16083729D01*
X7067031Y-16083729D02*
X7067031Y-16131348D01*
X7067031Y-16131348D02*
X7057507Y-16150396D01*
X7057507Y-16150396D02*
X7047984Y-16159920D01*
X7047984Y-16159920D02*
X7028936Y-16169444D01*
X7028936Y-16169444D02*
X6971793Y-16169444D01*
X6971793Y-16169444D02*
X6952746Y-16159920D01*
X6952746Y-16159920D02*
X6943222Y-16150396D01*
X7162269Y-16169444D02*
X7200365Y-16169444D01*
X7200365Y-16169444D02*
X7219412Y-16159920D01*
X7219412Y-16159920D02*
X7228936Y-16150396D01*
X7228936Y-16150396D02*
X7247984Y-16121825D01*
X7247984Y-16121825D02*
X7257507Y-16083729D01*
X7257507Y-16083729D02*
X7257507Y-16007539D01*
X7257507Y-16007539D02*
X7247984Y-15988491D01*
X7247984Y-15988491D02*
X7238460Y-15978968D01*
X7238460Y-15978968D02*
X7219412Y-15969444D01*
X7219412Y-15969444D02*
X7181317Y-15969444D01*
X7181317Y-15969444D02*
X7162269Y-15978968D01*
X7162269Y-15978968D02*
X7152746Y-15988491D01*
X7152746Y-15988491D02*
X7143222Y-16007539D01*
X7143222Y-16007539D02*
X7143222Y-16055158D01*
X7143222Y-16055158D02*
X7152746Y-16074206D01*
X7152746Y-16074206D02*
X7162269Y-16083729D01*
X7162269Y-16083729D02*
X7181317Y-16093253D01*
X7181317Y-16093253D02*
X7219412Y-16093253D01*
X7219412Y-16093253D02*
X7238460Y-16083729D01*
X7238460Y-16083729D02*
X7247984Y-16074206D01*
X7247984Y-16074206D02*
X7257507Y-16055158D01*
X7428936Y-16036110D02*
X7428936Y-16169444D01*
X7381317Y-15959920D02*
X7333698Y-16102777D01*
X7333698Y-16102777D02*
X7457507Y-16102777D01*
X7524174Y-15969444D02*
X7524174Y-16007539D01*
X7600365Y-15969444D02*
X7600365Y-16007539D01*
X7895603Y-16245634D02*
X7886079Y-16236110D01*
X7886079Y-16236110D02*
X7867031Y-16207539D01*
X7867031Y-16207539D02*
X7857508Y-16188491D01*
X7857508Y-16188491D02*
X7847984Y-16159920D01*
X7847984Y-16159920D02*
X7838460Y-16112301D01*
X7838460Y-16112301D02*
X7838460Y-16074206D01*
X7838460Y-16074206D02*
X7847984Y-16026587D01*
X7847984Y-16026587D02*
X7857508Y-15998015D01*
X7857508Y-15998015D02*
X7867031Y-15978968D01*
X7867031Y-15978968D02*
X7886079Y-15950396D01*
X7886079Y-15950396D02*
X7895603Y-15940872D01*
X8000365Y-16055158D02*
X7981317Y-16045634D01*
X7981317Y-16045634D02*
X7971793Y-16036110D01*
X7971793Y-16036110D02*
X7962269Y-16017063D01*
X7962269Y-16017063D02*
X7962269Y-16007539D01*
X7962269Y-16007539D02*
X7971793Y-15988491D01*
X7971793Y-15988491D02*
X7981317Y-15978968D01*
X7981317Y-15978968D02*
X8000365Y-15969444D01*
X8000365Y-15969444D02*
X8038460Y-15969444D01*
X8038460Y-15969444D02*
X8057508Y-15978968D01*
X8057508Y-15978968D02*
X8067031Y-15988491D01*
X8067031Y-15988491D02*
X8076555Y-16007539D01*
X8076555Y-16007539D02*
X8076555Y-16017063D01*
X8076555Y-16017063D02*
X8067031Y-16036110D01*
X8067031Y-16036110D02*
X8057508Y-16045634D01*
X8057508Y-16045634D02*
X8038460Y-16055158D01*
X8038460Y-16055158D02*
X8000365Y-16055158D01*
X8000365Y-16055158D02*
X7981317Y-16064682D01*
X7981317Y-16064682D02*
X7971793Y-16074206D01*
X7971793Y-16074206D02*
X7962269Y-16093253D01*
X7962269Y-16093253D02*
X7962269Y-16131348D01*
X7962269Y-16131348D02*
X7971793Y-16150396D01*
X7971793Y-16150396D02*
X7981317Y-16159920D01*
X7981317Y-16159920D02*
X8000365Y-16169444D01*
X8000365Y-16169444D02*
X8038460Y-16169444D01*
X8038460Y-16169444D02*
X8057508Y-16159920D01*
X8057508Y-16159920D02*
X8067031Y-16150396D01*
X8067031Y-16150396D02*
X8076555Y-16131348D01*
X8076555Y-16131348D02*
X8076555Y-16093253D01*
X8076555Y-16093253D02*
X8067031Y-16074206D01*
X8067031Y-16074206D02*
X8057508Y-16064682D01*
X8057508Y-16064682D02*
X8038460Y-16055158D01*
X8314650Y-16169444D02*
X8314650Y-15969444D01*
X8400365Y-16169444D02*
X8400365Y-16064682D01*
X8400365Y-16064682D02*
X8390841Y-16045634D01*
X8390841Y-16045634D02*
X8371793Y-16036110D01*
X8371793Y-16036110D02*
X8343222Y-16036110D01*
X8343222Y-16036110D02*
X8324174Y-16045634D01*
X8324174Y-16045634D02*
X8314650Y-16055158D01*
X8524174Y-16169444D02*
X8505127Y-16159920D01*
X8505127Y-16159920D02*
X8495603Y-16150396D01*
X8495603Y-16150396D02*
X8486079Y-16131348D01*
X8486079Y-16131348D02*
X8486079Y-16074206D01*
X8486079Y-16074206D02*
X8495603Y-16055158D01*
X8495603Y-16055158D02*
X8505127Y-16045634D01*
X8505127Y-16045634D02*
X8524174Y-16036110D01*
X8524174Y-16036110D02*
X8552746Y-16036110D01*
X8552746Y-16036110D02*
X8571793Y-16045634D01*
X8571793Y-16045634D02*
X8581317Y-16055158D01*
X8581317Y-16055158D02*
X8590841Y-16074206D01*
X8590841Y-16074206D02*
X8590841Y-16131348D01*
X8590841Y-16131348D02*
X8581317Y-16150396D01*
X8581317Y-16150396D02*
X8571793Y-16159920D01*
X8571793Y-16159920D02*
X8552746Y-16169444D01*
X8552746Y-16169444D02*
X8524174Y-16169444D01*
X8705127Y-16169444D02*
X8686079Y-16159920D01*
X8686079Y-16159920D02*
X8676555Y-16140872D01*
X8676555Y-16140872D02*
X8676555Y-15969444D01*
X8857508Y-16159920D02*
X8838460Y-16169444D01*
X8838460Y-16169444D02*
X8800365Y-16169444D01*
X8800365Y-16169444D02*
X8781317Y-16159920D01*
X8781317Y-16159920D02*
X8771793Y-16140872D01*
X8771793Y-16140872D02*
X8771793Y-16064682D01*
X8771793Y-16064682D02*
X8781317Y-16045634D01*
X8781317Y-16045634D02*
X8800365Y-16036110D01*
X8800365Y-16036110D02*
X8838460Y-16036110D01*
X8838460Y-16036110D02*
X8857508Y-16045634D01*
X8857508Y-16045634D02*
X8867032Y-16064682D01*
X8867032Y-16064682D02*
X8867032Y-16083729D01*
X8867032Y-16083729D02*
X8771793Y-16102777D01*
X8943222Y-16159920D02*
X8962270Y-16169444D01*
X8962270Y-16169444D02*
X9000365Y-16169444D01*
X9000365Y-16169444D02*
X9019413Y-16159920D01*
X9019413Y-16159920D02*
X9028936Y-16140872D01*
X9028936Y-16140872D02*
X9028936Y-16131348D01*
X9028936Y-16131348D02*
X9019413Y-16112301D01*
X9019413Y-16112301D02*
X9000365Y-16102777D01*
X9000365Y-16102777D02*
X8971793Y-16102777D01*
X8971793Y-16102777D02*
X8952746Y-16093253D01*
X8952746Y-16093253D02*
X8943222Y-16074206D01*
X8943222Y-16074206D02*
X8943222Y-16064682D01*
X8943222Y-16064682D02*
X8952746Y-16045634D01*
X8952746Y-16045634D02*
X8971793Y-16036110D01*
X8971793Y-16036110D02*
X9000365Y-16036110D01*
X9000365Y-16036110D02*
X9019413Y-16045634D01*
X9095603Y-16245634D02*
X9105127Y-16236110D01*
X9105127Y-16236110D02*
X9124174Y-16207539D01*
X9124174Y-16207539D02*
X9133698Y-16188491D01*
X9133698Y-16188491D02*
X9143222Y-16159920D01*
X9143222Y-16159920D02*
X9152746Y-16112301D01*
X9152746Y-16112301D02*
X9152746Y-16074206D01*
X9152746Y-16074206D02*
X9143222Y-16026587D01*
X9143222Y-16026587D02*
X9133698Y-15998015D01*
X9133698Y-15998015D02*
X9124174Y-15978968D01*
X9124174Y-15978968D02*
X9105127Y-15950396D01*
X9105127Y-15950396D02*
X9095603Y-15940872D01*
D11*
X4269740Y-16291160D02*
X4269740Y-16392760D01*
X4218940Y-16341960D02*
X4320540Y-16341960D01*
D12*
X4686079Y-16433444D02*
X4571793Y-16433444D01*
X4628936Y-16433444D02*
X4628936Y-16233444D01*
X4628936Y-16233444D02*
X4609888Y-16262015D01*
X4609888Y-16262015D02*
X4590841Y-16281063D01*
X4590841Y-16281063D02*
X4571793Y-16290587D01*
X4771793Y-16414396D02*
X4781317Y-16423920D01*
X4781317Y-16423920D02*
X4771793Y-16433444D01*
X4771793Y-16433444D02*
X4762269Y-16423920D01*
X4762269Y-16423920D02*
X4771793Y-16414396D01*
X4771793Y-16414396D02*
X4771793Y-16433444D01*
X4905126Y-16233444D02*
X4924174Y-16233444D01*
X4924174Y-16233444D02*
X4943222Y-16242968D01*
X4943222Y-16242968D02*
X4952745Y-16252491D01*
X4952745Y-16252491D02*
X4962269Y-16271539D01*
X4962269Y-16271539D02*
X4971793Y-16309634D01*
X4971793Y-16309634D02*
X4971793Y-16357253D01*
X4971793Y-16357253D02*
X4962269Y-16395348D01*
X4962269Y-16395348D02*
X4952745Y-16414396D01*
X4952745Y-16414396D02*
X4943222Y-16423920D01*
X4943222Y-16423920D02*
X4924174Y-16433444D01*
X4924174Y-16433444D02*
X4905126Y-16433444D01*
X4905126Y-16433444D02*
X4886079Y-16423920D01*
X4886079Y-16423920D02*
X4876555Y-16414396D01*
X4876555Y-16414396D02*
X4867031Y-16395348D01*
X4867031Y-16395348D02*
X4857507Y-16357253D01*
X4857507Y-16357253D02*
X4857507Y-16309634D01*
X4857507Y-16309634D02*
X4867031Y-16271539D01*
X4867031Y-16271539D02*
X4876555Y-16252491D01*
X4876555Y-16252491D02*
X4886079Y-16242968D01*
X4886079Y-16242968D02*
X4905126Y-16233444D01*
X5162269Y-16433444D02*
X5047984Y-16433444D01*
X5105126Y-16433444D02*
X5105126Y-16233444D01*
X5105126Y-16233444D02*
X5086079Y-16262015D01*
X5086079Y-16262015D02*
X5067031Y-16281063D01*
X5067031Y-16281063D02*
X5047984Y-16290587D01*
X5333698Y-16233444D02*
X5295603Y-16233444D01*
X5295603Y-16233444D02*
X5276555Y-16242968D01*
X5276555Y-16242968D02*
X5267031Y-16252491D01*
X5267031Y-16252491D02*
X5247984Y-16281063D01*
X5247984Y-16281063D02*
X5238460Y-16319158D01*
X5238460Y-16319158D02*
X5238460Y-16395348D01*
X5238460Y-16395348D02*
X5247984Y-16414396D01*
X5247984Y-16414396D02*
X5257507Y-16423920D01*
X5257507Y-16423920D02*
X5276555Y-16433444D01*
X5276555Y-16433444D02*
X5314650Y-16433444D01*
X5314650Y-16433444D02*
X5333698Y-16423920D01*
X5333698Y-16423920D02*
X5343222Y-16414396D01*
X5343222Y-16414396D02*
X5352745Y-16395348D01*
X5352745Y-16395348D02*
X5352745Y-16347729D01*
X5352745Y-16347729D02*
X5343222Y-16328682D01*
X5343222Y-16328682D02*
X5333698Y-16319158D01*
X5333698Y-16319158D02*
X5314650Y-16309634D01*
X5314650Y-16309634D02*
X5276555Y-16309634D01*
X5276555Y-16309634D02*
X5257507Y-16319158D01*
X5257507Y-16319158D02*
X5247984Y-16328682D01*
X5247984Y-16328682D02*
X5238460Y-16347729D01*
X5438460Y-16433444D02*
X5438460Y-16300110D01*
X5438460Y-16319158D02*
X5447984Y-16309634D01*
X5447984Y-16309634D02*
X5467031Y-16300110D01*
X5467031Y-16300110D02*
X5495603Y-16300110D01*
X5495603Y-16300110D02*
X5514650Y-16309634D01*
X5514650Y-16309634D02*
X5524174Y-16328682D01*
X5524174Y-16328682D02*
X5524174Y-16433444D01*
X5524174Y-16328682D02*
X5533698Y-16309634D01*
X5533698Y-16309634D02*
X5552745Y-16300110D01*
X5552745Y-16300110D02*
X5581317Y-16300110D01*
X5581317Y-16300110D02*
X5600364Y-16309634D01*
X5600364Y-16309634D02*
X5609888Y-16328682D01*
X5609888Y-16328682D02*
X5609888Y-16433444D01*
X5705126Y-16433444D02*
X5705126Y-16300110D01*
X5705126Y-16319158D02*
X5714650Y-16309634D01*
X5714650Y-16309634D02*
X5733698Y-16300110D01*
X5733698Y-16300110D02*
X5762269Y-16300110D01*
X5762269Y-16300110D02*
X5781317Y-16309634D01*
X5781317Y-16309634D02*
X5790841Y-16328682D01*
X5790841Y-16328682D02*
X5790841Y-16433444D01*
X5790841Y-16328682D02*
X5800364Y-16309634D01*
X5800364Y-16309634D02*
X5819412Y-16300110D01*
X5819412Y-16300110D02*
X5847983Y-16300110D01*
X5847983Y-16300110D02*
X5867031Y-16309634D01*
X5867031Y-16309634D02*
X5876555Y-16328682D01*
X5876555Y-16328682D02*
X5876555Y-16433444D01*
X6267031Y-16223920D02*
X6095603Y-16481063D01*
X6524174Y-16233444D02*
X6543222Y-16233444D01*
X6543222Y-16233444D02*
X6562269Y-16242968D01*
X6562269Y-16242968D02*
X6571793Y-16252491D01*
X6571793Y-16252491D02*
X6581317Y-16271539D01*
X6581317Y-16271539D02*
X6590841Y-16309634D01*
X6590841Y-16309634D02*
X6590841Y-16357253D01*
X6590841Y-16357253D02*
X6581317Y-16395348D01*
X6581317Y-16395348D02*
X6571793Y-16414396D01*
X6571793Y-16414396D02*
X6562269Y-16423920D01*
X6562269Y-16423920D02*
X6543222Y-16433444D01*
X6543222Y-16433444D02*
X6524174Y-16433444D01*
X6524174Y-16433444D02*
X6505126Y-16423920D01*
X6505126Y-16423920D02*
X6495603Y-16414396D01*
X6495603Y-16414396D02*
X6486079Y-16395348D01*
X6486079Y-16395348D02*
X6476555Y-16357253D01*
X6476555Y-16357253D02*
X6476555Y-16309634D01*
X6476555Y-16309634D02*
X6486079Y-16271539D01*
X6486079Y-16271539D02*
X6495603Y-16252491D01*
X6495603Y-16252491D02*
X6505126Y-16242968D01*
X6505126Y-16242968D02*
X6524174Y-16233444D01*
X6676555Y-16414396D02*
X6686079Y-16423920D01*
X6686079Y-16423920D02*
X6676555Y-16433444D01*
X6676555Y-16433444D02*
X6667031Y-16423920D01*
X6667031Y-16423920D02*
X6676555Y-16414396D01*
X6676555Y-16414396D02*
X6676555Y-16433444D01*
X6809888Y-16233444D02*
X6828936Y-16233444D01*
X6828936Y-16233444D02*
X6847984Y-16242968D01*
X6847984Y-16242968D02*
X6857507Y-16252491D01*
X6857507Y-16252491D02*
X6867031Y-16271539D01*
X6867031Y-16271539D02*
X6876555Y-16309634D01*
X6876555Y-16309634D02*
X6876555Y-16357253D01*
X6876555Y-16357253D02*
X6867031Y-16395348D01*
X6867031Y-16395348D02*
X6857507Y-16414396D01*
X6857507Y-16414396D02*
X6847984Y-16423920D01*
X6847984Y-16423920D02*
X6828936Y-16433444D01*
X6828936Y-16433444D02*
X6809888Y-16433444D01*
X6809888Y-16433444D02*
X6790841Y-16423920D01*
X6790841Y-16423920D02*
X6781317Y-16414396D01*
X6781317Y-16414396D02*
X6771793Y-16395348D01*
X6771793Y-16395348D02*
X6762269Y-16357253D01*
X6762269Y-16357253D02*
X6762269Y-16309634D01*
X6762269Y-16309634D02*
X6771793Y-16271539D01*
X6771793Y-16271539D02*
X6781317Y-16252491D01*
X6781317Y-16252491D02*
X6790841Y-16242968D01*
X6790841Y-16242968D02*
X6809888Y-16233444D01*
X7047984Y-16300110D02*
X7047984Y-16433444D01*
X7000365Y-16223920D02*
X6952746Y-16366777D01*
X6952746Y-16366777D02*
X7076555Y-16366777D01*
X7190841Y-16233444D02*
X7209888Y-16233444D01*
X7209888Y-16233444D02*
X7228936Y-16242968D01*
X7228936Y-16242968D02*
X7238460Y-16252491D01*
X7238460Y-16252491D02*
X7247984Y-16271539D01*
X7247984Y-16271539D02*
X7257507Y-16309634D01*
X7257507Y-16309634D02*
X7257507Y-16357253D01*
X7257507Y-16357253D02*
X7247984Y-16395348D01*
X7247984Y-16395348D02*
X7238460Y-16414396D01*
X7238460Y-16414396D02*
X7228936Y-16423920D01*
X7228936Y-16423920D02*
X7209888Y-16433444D01*
X7209888Y-16433444D02*
X7190841Y-16433444D01*
X7190841Y-16433444D02*
X7171793Y-16423920D01*
X7171793Y-16423920D02*
X7162269Y-16414396D01*
X7162269Y-16414396D02*
X7152746Y-16395348D01*
X7152746Y-16395348D02*
X7143222Y-16357253D01*
X7143222Y-16357253D02*
X7143222Y-16309634D01*
X7143222Y-16309634D02*
X7152746Y-16271539D01*
X7152746Y-16271539D02*
X7162269Y-16252491D01*
X7162269Y-16252491D02*
X7171793Y-16242968D01*
X7171793Y-16242968D02*
X7190841Y-16233444D01*
X7381317Y-16233444D02*
X7400365Y-16233444D01*
X7400365Y-16233444D02*
X7419412Y-16242968D01*
X7419412Y-16242968D02*
X7428936Y-16252491D01*
X7428936Y-16252491D02*
X7438460Y-16271539D01*
X7438460Y-16271539D02*
X7447984Y-16309634D01*
X7447984Y-16309634D02*
X7447984Y-16357253D01*
X7447984Y-16357253D02*
X7438460Y-16395348D01*
X7438460Y-16395348D02*
X7428936Y-16414396D01*
X7428936Y-16414396D02*
X7419412Y-16423920D01*
X7419412Y-16423920D02*
X7400365Y-16433444D01*
X7400365Y-16433444D02*
X7381317Y-16433444D01*
X7381317Y-16433444D02*
X7362269Y-16423920D01*
X7362269Y-16423920D02*
X7352746Y-16414396D01*
X7352746Y-16414396D02*
X7343222Y-16395348D01*
X7343222Y-16395348D02*
X7333698Y-16357253D01*
X7333698Y-16357253D02*
X7333698Y-16309634D01*
X7333698Y-16309634D02*
X7343222Y-16271539D01*
X7343222Y-16271539D02*
X7352746Y-16252491D01*
X7352746Y-16252491D02*
X7362269Y-16242968D01*
X7362269Y-16242968D02*
X7381317Y-16233444D01*
X7524174Y-16233444D02*
X7524174Y-16271539D01*
X7600365Y-16233444D02*
X7600365Y-16271539D01*
X7895603Y-16509634D02*
X7886079Y-16500110D01*
X7886079Y-16500110D02*
X7867031Y-16471539D01*
X7867031Y-16471539D02*
X7857508Y-16452491D01*
X7857508Y-16452491D02*
X7847984Y-16423920D01*
X7847984Y-16423920D02*
X7838460Y-16376301D01*
X7838460Y-16376301D02*
X7838460Y-16338206D01*
X7838460Y-16338206D02*
X7847984Y-16290587D01*
X7847984Y-16290587D02*
X7857508Y-16262015D01*
X7857508Y-16262015D02*
X7867031Y-16242968D01*
X7867031Y-16242968D02*
X7886079Y-16214396D01*
X7886079Y-16214396D02*
X7895603Y-16204872D01*
X8057508Y-16300110D02*
X8057508Y-16433444D01*
X8009888Y-16223920D02*
X7962269Y-16366777D01*
X7962269Y-16366777D02*
X8086079Y-16366777D01*
X8247984Y-16300110D02*
X8247984Y-16433444D01*
X8200365Y-16223920D02*
X8152746Y-16366777D01*
X8152746Y-16366777D02*
X8276555Y-16366777D01*
X8505127Y-16433444D02*
X8505127Y-16233444D01*
X8590841Y-16433444D02*
X8590841Y-16328682D01*
X8590841Y-16328682D02*
X8581317Y-16309634D01*
X8581317Y-16309634D02*
X8562270Y-16300110D01*
X8562270Y-16300110D02*
X8533698Y-16300110D01*
X8533698Y-16300110D02*
X8514651Y-16309634D01*
X8514651Y-16309634D02*
X8505127Y-16319158D01*
X8714651Y-16433444D02*
X8695603Y-16423920D01*
X8695603Y-16423920D02*
X8686079Y-16414396D01*
X8686079Y-16414396D02*
X8676555Y-16395348D01*
X8676555Y-16395348D02*
X8676555Y-16338206D01*
X8676555Y-16338206D02*
X8686079Y-16319158D01*
X8686079Y-16319158D02*
X8695603Y-16309634D01*
X8695603Y-16309634D02*
X8714651Y-16300110D01*
X8714651Y-16300110D02*
X8743222Y-16300110D01*
X8743222Y-16300110D02*
X8762270Y-16309634D01*
X8762270Y-16309634D02*
X8771793Y-16319158D01*
X8771793Y-16319158D02*
X8781317Y-16338206D01*
X8781317Y-16338206D02*
X8781317Y-16395348D01*
X8781317Y-16395348D02*
X8771793Y-16414396D01*
X8771793Y-16414396D02*
X8762270Y-16423920D01*
X8762270Y-16423920D02*
X8743222Y-16433444D01*
X8743222Y-16433444D02*
X8714651Y-16433444D01*
X8895603Y-16433444D02*
X8876555Y-16423920D01*
X8876555Y-16423920D02*
X8867032Y-16404872D01*
X8867032Y-16404872D02*
X8867032Y-16233444D01*
X9047984Y-16423920D02*
X9028936Y-16433444D01*
X9028936Y-16433444D02*
X8990841Y-16433444D01*
X8990841Y-16433444D02*
X8971793Y-16423920D01*
X8971793Y-16423920D02*
X8962270Y-16404872D01*
X8962270Y-16404872D02*
X8962270Y-16328682D01*
X8962270Y-16328682D02*
X8971793Y-16309634D01*
X8971793Y-16309634D02*
X8990841Y-16300110D01*
X8990841Y-16300110D02*
X9028936Y-16300110D01*
X9028936Y-16300110D02*
X9047984Y-16309634D01*
X9047984Y-16309634D02*
X9057508Y-16328682D01*
X9057508Y-16328682D02*
X9057508Y-16347729D01*
X9057508Y-16347729D02*
X8962270Y-16366777D01*
X9133698Y-16423920D02*
X9152746Y-16433444D01*
X9152746Y-16433444D02*
X9190841Y-16433444D01*
X9190841Y-16433444D02*
X9209889Y-16423920D01*
X9209889Y-16423920D02*
X9219413Y-16404872D01*
X9219413Y-16404872D02*
X9219413Y-16395348D01*
X9219413Y-16395348D02*
X9209889Y-16376301D01*
X9209889Y-16376301D02*
X9190841Y-16366777D01*
X9190841Y-16366777D02*
X9162270Y-16366777D01*
X9162270Y-16366777D02*
X9143222Y-16357253D01*
X9143222Y-16357253D02*
X9133698Y-16338206D01*
X9133698Y-16338206D02*
X9133698Y-16328682D01*
X9133698Y-16328682D02*
X9143222Y-16309634D01*
X9143222Y-16309634D02*
X9162270Y-16300110D01*
X9162270Y-16300110D02*
X9190841Y-16300110D01*
X9190841Y-16300110D02*
X9209889Y-16309634D01*
X9286079Y-16509634D02*
X9295603Y-16500110D01*
X9295603Y-16500110D02*
X9314651Y-16471539D01*
X9314651Y-16471539D02*
X9324174Y-16452491D01*
X9324174Y-16452491D02*
X9333698Y-16423920D01*
X9333698Y-16423920D02*
X9343222Y-16376301D01*
X9343222Y-16376301D02*
X9343222Y-16338206D01*
X9343222Y-16338206D02*
X9333698Y-16290587D01*
X9333698Y-16290587D02*
X9324174Y-16262015D01*
X9324174Y-16262015D02*
X9314651Y-16242968D01*
X9314651Y-16242968D02*
X9295603Y-16214396D01*
X9295603Y-16214396D02*
X9286079Y-16204872D01*
D13*
X4305603Y-16642023D02*
X4305603Y-16569897D01*
X4233477Y-16569897D01*
X4233477Y-16642023D01*
X4305603Y-16642023D01*
D12*
X4686079Y-16697444D02*
X4571793Y-16697444D01*
X4628936Y-16697444D02*
X4628936Y-16497444D01*
X4628936Y-16497444D02*
X4609888Y-16526015D01*
X4609888Y-16526015D02*
X4590841Y-16545063D01*
X4590841Y-16545063D02*
X4571793Y-16554587D01*
X4771793Y-16678396D02*
X4781317Y-16687920D01*
X4781317Y-16687920D02*
X4771793Y-16697444D01*
X4771793Y-16697444D02*
X4762269Y-16687920D01*
X4762269Y-16687920D02*
X4771793Y-16678396D01*
X4771793Y-16678396D02*
X4771793Y-16697444D01*
X4905126Y-16497444D02*
X4924174Y-16497444D01*
X4924174Y-16497444D02*
X4943222Y-16506968D01*
X4943222Y-16506968D02*
X4952745Y-16516491D01*
X4952745Y-16516491D02*
X4962269Y-16535539D01*
X4962269Y-16535539D02*
X4971793Y-16573634D01*
X4971793Y-16573634D02*
X4971793Y-16621253D01*
X4971793Y-16621253D02*
X4962269Y-16659348D01*
X4962269Y-16659348D02*
X4952745Y-16678396D01*
X4952745Y-16678396D02*
X4943222Y-16687920D01*
X4943222Y-16687920D02*
X4924174Y-16697444D01*
X4924174Y-16697444D02*
X4905126Y-16697444D01*
X4905126Y-16697444D02*
X4886079Y-16687920D01*
X4886079Y-16687920D02*
X4876555Y-16678396D01*
X4876555Y-16678396D02*
X4867031Y-16659348D01*
X4867031Y-16659348D02*
X4857507Y-16621253D01*
X4857507Y-16621253D02*
X4857507Y-16573634D01*
X4857507Y-16573634D02*
X4867031Y-16535539D01*
X4867031Y-16535539D02*
X4876555Y-16516491D01*
X4876555Y-16516491D02*
X4886079Y-16506968D01*
X4886079Y-16506968D02*
X4905126Y-16497444D01*
X5047984Y-16516491D02*
X5057507Y-16506968D01*
X5057507Y-16506968D02*
X5076555Y-16497444D01*
X5076555Y-16497444D02*
X5124174Y-16497444D01*
X5124174Y-16497444D02*
X5143222Y-16506968D01*
X5143222Y-16506968D02*
X5152745Y-16516491D01*
X5152745Y-16516491D02*
X5162269Y-16535539D01*
X5162269Y-16535539D02*
X5162269Y-16554587D01*
X5162269Y-16554587D02*
X5152745Y-16583158D01*
X5152745Y-16583158D02*
X5038460Y-16697444D01*
X5038460Y-16697444D02*
X5162269Y-16697444D01*
X5286079Y-16497444D02*
X5305126Y-16497444D01*
X5305126Y-16497444D02*
X5324174Y-16506968D01*
X5324174Y-16506968D02*
X5333698Y-16516491D01*
X5333698Y-16516491D02*
X5343222Y-16535539D01*
X5343222Y-16535539D02*
X5352745Y-16573634D01*
X5352745Y-16573634D02*
X5352745Y-16621253D01*
X5352745Y-16621253D02*
X5343222Y-16659348D01*
X5343222Y-16659348D02*
X5333698Y-16678396D01*
X5333698Y-16678396D02*
X5324174Y-16687920D01*
X5324174Y-16687920D02*
X5305126Y-16697444D01*
X5305126Y-16697444D02*
X5286079Y-16697444D01*
X5286079Y-16697444D02*
X5267031Y-16687920D01*
X5267031Y-16687920D02*
X5257507Y-16678396D01*
X5257507Y-16678396D02*
X5247984Y-16659348D01*
X5247984Y-16659348D02*
X5238460Y-16621253D01*
X5238460Y-16621253D02*
X5238460Y-16573634D01*
X5238460Y-16573634D02*
X5247984Y-16535539D01*
X5247984Y-16535539D02*
X5257507Y-16516491D01*
X5257507Y-16516491D02*
X5267031Y-16506968D01*
X5267031Y-16506968D02*
X5286079Y-16497444D01*
X5438460Y-16697444D02*
X5438460Y-16564110D01*
X5438460Y-16583158D02*
X5447984Y-16573634D01*
X5447984Y-16573634D02*
X5467031Y-16564110D01*
X5467031Y-16564110D02*
X5495603Y-16564110D01*
X5495603Y-16564110D02*
X5514650Y-16573634D01*
X5514650Y-16573634D02*
X5524174Y-16592682D01*
X5524174Y-16592682D02*
X5524174Y-16697444D01*
X5524174Y-16592682D02*
X5533698Y-16573634D01*
X5533698Y-16573634D02*
X5552745Y-16564110D01*
X5552745Y-16564110D02*
X5581317Y-16564110D01*
X5581317Y-16564110D02*
X5600364Y-16573634D01*
X5600364Y-16573634D02*
X5609888Y-16592682D01*
X5609888Y-16592682D02*
X5609888Y-16697444D01*
X5705126Y-16697444D02*
X5705126Y-16564110D01*
X5705126Y-16583158D02*
X5714650Y-16573634D01*
X5714650Y-16573634D02*
X5733698Y-16564110D01*
X5733698Y-16564110D02*
X5762269Y-16564110D01*
X5762269Y-16564110D02*
X5781317Y-16573634D01*
X5781317Y-16573634D02*
X5790841Y-16592682D01*
X5790841Y-16592682D02*
X5790841Y-16697444D01*
X5790841Y-16592682D02*
X5800364Y-16573634D01*
X5800364Y-16573634D02*
X5819412Y-16564110D01*
X5819412Y-16564110D02*
X5847983Y-16564110D01*
X5847983Y-16564110D02*
X5867031Y-16573634D01*
X5867031Y-16573634D02*
X5876555Y-16592682D01*
X5876555Y-16592682D02*
X5876555Y-16697444D01*
X6267031Y-16487920D02*
X6095603Y-16745063D01*
X6524174Y-16497444D02*
X6543222Y-16497444D01*
X6543222Y-16497444D02*
X6562269Y-16506968D01*
X6562269Y-16506968D02*
X6571793Y-16516491D01*
X6571793Y-16516491D02*
X6581317Y-16535539D01*
X6581317Y-16535539D02*
X6590841Y-16573634D01*
X6590841Y-16573634D02*
X6590841Y-16621253D01*
X6590841Y-16621253D02*
X6581317Y-16659348D01*
X6581317Y-16659348D02*
X6571793Y-16678396D01*
X6571793Y-16678396D02*
X6562269Y-16687920D01*
X6562269Y-16687920D02*
X6543222Y-16697444D01*
X6543222Y-16697444D02*
X6524174Y-16697444D01*
X6524174Y-16697444D02*
X6505126Y-16687920D01*
X6505126Y-16687920D02*
X6495603Y-16678396D01*
X6495603Y-16678396D02*
X6486079Y-16659348D01*
X6486079Y-16659348D02*
X6476555Y-16621253D01*
X6476555Y-16621253D02*
X6476555Y-16573634D01*
X6476555Y-16573634D02*
X6486079Y-16535539D01*
X6486079Y-16535539D02*
X6495603Y-16516491D01*
X6495603Y-16516491D02*
X6505126Y-16506968D01*
X6505126Y-16506968D02*
X6524174Y-16497444D01*
X6676555Y-16678396D02*
X6686079Y-16687920D01*
X6686079Y-16687920D02*
X6676555Y-16697444D01*
X6676555Y-16697444D02*
X6667031Y-16687920D01*
X6667031Y-16687920D02*
X6676555Y-16678396D01*
X6676555Y-16678396D02*
X6676555Y-16697444D01*
X6809888Y-16497444D02*
X6828936Y-16497444D01*
X6828936Y-16497444D02*
X6847984Y-16506968D01*
X6847984Y-16506968D02*
X6857507Y-16516491D01*
X6857507Y-16516491D02*
X6867031Y-16535539D01*
X6867031Y-16535539D02*
X6876555Y-16573634D01*
X6876555Y-16573634D02*
X6876555Y-16621253D01*
X6876555Y-16621253D02*
X6867031Y-16659348D01*
X6867031Y-16659348D02*
X6857507Y-16678396D01*
X6857507Y-16678396D02*
X6847984Y-16687920D01*
X6847984Y-16687920D02*
X6828936Y-16697444D01*
X6828936Y-16697444D02*
X6809888Y-16697444D01*
X6809888Y-16697444D02*
X6790841Y-16687920D01*
X6790841Y-16687920D02*
X6781317Y-16678396D01*
X6781317Y-16678396D02*
X6771793Y-16659348D01*
X6771793Y-16659348D02*
X6762269Y-16621253D01*
X6762269Y-16621253D02*
X6762269Y-16573634D01*
X6762269Y-16573634D02*
X6771793Y-16535539D01*
X6771793Y-16535539D02*
X6781317Y-16516491D01*
X6781317Y-16516491D02*
X6790841Y-16506968D01*
X6790841Y-16506968D02*
X6809888Y-16497444D01*
X7047984Y-16564110D02*
X7047984Y-16697444D01*
X7000365Y-16487920D02*
X6952746Y-16630777D01*
X6952746Y-16630777D02*
X7076555Y-16630777D01*
X7190841Y-16497444D02*
X7209888Y-16497444D01*
X7209888Y-16497444D02*
X7228936Y-16506968D01*
X7228936Y-16506968D02*
X7238460Y-16516491D01*
X7238460Y-16516491D02*
X7247984Y-16535539D01*
X7247984Y-16535539D02*
X7257507Y-16573634D01*
X7257507Y-16573634D02*
X7257507Y-16621253D01*
X7257507Y-16621253D02*
X7247984Y-16659348D01*
X7247984Y-16659348D02*
X7238460Y-16678396D01*
X7238460Y-16678396D02*
X7228936Y-16687920D01*
X7228936Y-16687920D02*
X7209888Y-16697444D01*
X7209888Y-16697444D02*
X7190841Y-16697444D01*
X7190841Y-16697444D02*
X7171793Y-16687920D01*
X7171793Y-16687920D02*
X7162269Y-16678396D01*
X7162269Y-16678396D02*
X7152746Y-16659348D01*
X7152746Y-16659348D02*
X7143222Y-16621253D01*
X7143222Y-16621253D02*
X7143222Y-16573634D01*
X7143222Y-16573634D02*
X7152746Y-16535539D01*
X7152746Y-16535539D02*
X7162269Y-16516491D01*
X7162269Y-16516491D02*
X7171793Y-16506968D01*
X7171793Y-16506968D02*
X7190841Y-16497444D01*
X7333698Y-16516491D02*
X7343222Y-16506968D01*
X7343222Y-16506968D02*
X7362269Y-16497444D01*
X7362269Y-16497444D02*
X7409888Y-16497444D01*
X7409888Y-16497444D02*
X7428936Y-16506968D01*
X7428936Y-16506968D02*
X7438460Y-16516491D01*
X7438460Y-16516491D02*
X7447984Y-16535539D01*
X7447984Y-16535539D02*
X7447984Y-16554587D01*
X7447984Y-16554587D02*
X7438460Y-16583158D01*
X7438460Y-16583158D02*
X7324174Y-16697444D01*
X7324174Y-16697444D02*
X7447984Y-16697444D01*
X7524174Y-16497444D02*
X7524174Y-16535539D01*
X7600365Y-16497444D02*
X7600365Y-16535539D01*
X7895603Y-16773634D02*
X7886079Y-16764110D01*
X7886079Y-16764110D02*
X7867031Y-16735539D01*
X7867031Y-16735539D02*
X7857508Y-16716491D01*
X7857508Y-16716491D02*
X7847984Y-16687920D01*
X7847984Y-16687920D02*
X7838460Y-16640301D01*
X7838460Y-16640301D02*
X7838460Y-16602206D01*
X7838460Y-16602206D02*
X7847984Y-16554587D01*
X7847984Y-16554587D02*
X7857508Y-16526015D01*
X7857508Y-16526015D02*
X7867031Y-16506968D01*
X7867031Y-16506968D02*
X7886079Y-16478396D01*
X7886079Y-16478396D02*
X7895603Y-16468872D01*
X7952746Y-16497444D02*
X8086079Y-16497444D01*
X8086079Y-16497444D02*
X8000365Y-16697444D01*
X8247984Y-16497444D02*
X8209888Y-16497444D01*
X8209888Y-16497444D02*
X8190841Y-16506968D01*
X8190841Y-16506968D02*
X8181317Y-16516491D01*
X8181317Y-16516491D02*
X8162269Y-16545063D01*
X8162269Y-16545063D02*
X8152746Y-16583158D01*
X8152746Y-16583158D02*
X8152746Y-16659348D01*
X8152746Y-16659348D02*
X8162269Y-16678396D01*
X8162269Y-16678396D02*
X8171793Y-16687920D01*
X8171793Y-16687920D02*
X8190841Y-16697444D01*
X8190841Y-16697444D02*
X8228936Y-16697444D01*
X8228936Y-16697444D02*
X8247984Y-16687920D01*
X8247984Y-16687920D02*
X8257508Y-16678396D01*
X8257508Y-16678396D02*
X8267031Y-16659348D01*
X8267031Y-16659348D02*
X8267031Y-16611729D01*
X8267031Y-16611729D02*
X8257508Y-16592682D01*
X8257508Y-16592682D02*
X8247984Y-16583158D01*
X8247984Y-16583158D02*
X8228936Y-16573634D01*
X8228936Y-16573634D02*
X8190841Y-16573634D01*
X8190841Y-16573634D02*
X8171793Y-16583158D01*
X8171793Y-16583158D02*
X8162269Y-16592682D01*
X8162269Y-16592682D02*
X8152746Y-16611729D01*
X8505127Y-16697444D02*
X8505127Y-16497444D01*
X8590841Y-16697444D02*
X8590841Y-16592682D01*
X8590841Y-16592682D02*
X8581317Y-16573634D01*
X8581317Y-16573634D02*
X8562270Y-16564110D01*
X8562270Y-16564110D02*
X8533698Y-16564110D01*
X8533698Y-16564110D02*
X8514651Y-16573634D01*
X8514651Y-16573634D02*
X8505127Y-16583158D01*
X8714651Y-16697444D02*
X8695603Y-16687920D01*
X8695603Y-16687920D02*
X8686079Y-16678396D01*
X8686079Y-16678396D02*
X8676555Y-16659348D01*
X8676555Y-16659348D02*
X8676555Y-16602206D01*
X8676555Y-16602206D02*
X8686079Y-16583158D01*
X8686079Y-16583158D02*
X8695603Y-16573634D01*
X8695603Y-16573634D02*
X8714651Y-16564110D01*
X8714651Y-16564110D02*
X8743222Y-16564110D01*
X8743222Y-16564110D02*
X8762270Y-16573634D01*
X8762270Y-16573634D02*
X8771793Y-16583158D01*
X8771793Y-16583158D02*
X8781317Y-16602206D01*
X8781317Y-16602206D02*
X8781317Y-16659348D01*
X8781317Y-16659348D02*
X8771793Y-16678396D01*
X8771793Y-16678396D02*
X8762270Y-16687920D01*
X8762270Y-16687920D02*
X8743222Y-16697444D01*
X8743222Y-16697444D02*
X8714651Y-16697444D01*
X8895603Y-16697444D02*
X8876555Y-16687920D01*
X8876555Y-16687920D02*
X8867032Y-16668872D01*
X8867032Y-16668872D02*
X8867032Y-16497444D01*
X9047984Y-16687920D02*
X9028936Y-16697444D01*
X9028936Y-16697444D02*
X8990841Y-16697444D01*
X8990841Y-16697444D02*
X8971793Y-16687920D01*
X8971793Y-16687920D02*
X8962270Y-16668872D01*
X8962270Y-16668872D02*
X8962270Y-16592682D01*
X8962270Y-16592682D02*
X8971793Y-16573634D01*
X8971793Y-16573634D02*
X8990841Y-16564110D01*
X8990841Y-16564110D02*
X9028936Y-16564110D01*
X9028936Y-16564110D02*
X9047984Y-16573634D01*
X9047984Y-16573634D02*
X9057508Y-16592682D01*
X9057508Y-16592682D02*
X9057508Y-16611729D01*
X9057508Y-16611729D02*
X8962270Y-16630777D01*
X9133698Y-16687920D02*
X9152746Y-16697444D01*
X9152746Y-16697444D02*
X9190841Y-16697444D01*
X9190841Y-16697444D02*
X9209889Y-16687920D01*
X9209889Y-16687920D02*
X9219413Y-16668872D01*
X9219413Y-16668872D02*
X9219413Y-16659348D01*
X9219413Y-16659348D02*
X9209889Y-16640301D01*
X9209889Y-16640301D02*
X9190841Y-16630777D01*
X9190841Y-16630777D02*
X9162270Y-16630777D01*
X9162270Y-16630777D02*
X9143222Y-16621253D01*
X9143222Y-16621253D02*
X9133698Y-16602206D01*
X9133698Y-16602206D02*
X9133698Y-16592682D01*
X9133698Y-16592682D02*
X9143222Y-16573634D01*
X9143222Y-16573634D02*
X9162270Y-16564110D01*
X9162270Y-16564110D02*
X9190841Y-16564110D01*
X9190841Y-16564110D02*
X9209889Y-16573634D01*
X9286079Y-16773634D02*
X9295603Y-16764110D01*
X9295603Y-16764110D02*
X9314651Y-16735539D01*
X9314651Y-16735539D02*
X9324174Y-16716491D01*
X9324174Y-16716491D02*
X9333698Y-16687920D01*
X9333698Y-16687920D02*
X9343222Y-16640301D01*
X9343222Y-16640301D02*
X9343222Y-16602206D01*
X9343222Y-16602206D02*
X9333698Y-16554587D01*
X9333698Y-16554587D02*
X9324174Y-16526015D01*
X9324174Y-16526015D02*
X9314651Y-16506968D01*
X9314651Y-16506968D02*
X9295603Y-16478396D01*
X9295603Y-16478396D02*
X9286079Y-16468872D01*
D14*
X4250540Y-16939960D02*
X4320540Y-16869960D01*
X4250540Y-16799960D01*
X4180540Y-16869960D01*
X4250540Y-16939960D01*
D12*
X4686079Y-16961444D02*
X4571793Y-16961444D01*
X4628936Y-16961444D02*
X4628936Y-16761444D01*
X4628936Y-16761444D02*
X4609888Y-16790015D01*
X4609888Y-16790015D02*
X4590841Y-16809063D01*
X4590841Y-16809063D02*
X4571793Y-16818587D01*
X4771793Y-16942396D02*
X4781317Y-16951920D01*
X4781317Y-16951920D02*
X4771793Y-16961444D01*
X4771793Y-16961444D02*
X4762269Y-16951920D01*
X4762269Y-16951920D02*
X4771793Y-16942396D01*
X4771793Y-16942396D02*
X4771793Y-16961444D01*
X4952745Y-16828110D02*
X4952745Y-16961444D01*
X4905126Y-16751920D02*
X4857507Y-16894777D01*
X4857507Y-16894777D02*
X4981317Y-16894777D01*
X5095603Y-16761444D02*
X5114650Y-16761444D01*
X5114650Y-16761444D02*
X5133698Y-16770968D01*
X5133698Y-16770968D02*
X5143222Y-16780491D01*
X5143222Y-16780491D02*
X5152745Y-16799539D01*
X5152745Y-16799539D02*
X5162269Y-16837634D01*
X5162269Y-16837634D02*
X5162269Y-16885253D01*
X5162269Y-16885253D02*
X5152745Y-16923349D01*
X5152745Y-16923349D02*
X5143222Y-16942396D01*
X5143222Y-16942396D02*
X5133698Y-16951920D01*
X5133698Y-16951920D02*
X5114650Y-16961444D01*
X5114650Y-16961444D02*
X5095603Y-16961444D01*
X5095603Y-16961444D02*
X5076555Y-16951920D01*
X5076555Y-16951920D02*
X5067031Y-16942396D01*
X5067031Y-16942396D02*
X5057507Y-16923349D01*
X5057507Y-16923349D02*
X5047984Y-16885253D01*
X5047984Y-16885253D02*
X5047984Y-16837634D01*
X5047984Y-16837634D02*
X5057507Y-16799539D01*
X5057507Y-16799539D02*
X5067031Y-16780491D01*
X5067031Y-16780491D02*
X5076555Y-16770968D01*
X5076555Y-16770968D02*
X5095603Y-16761444D01*
X5286079Y-16761444D02*
X5305126Y-16761444D01*
X5305126Y-16761444D02*
X5324174Y-16770968D01*
X5324174Y-16770968D02*
X5333698Y-16780491D01*
X5333698Y-16780491D02*
X5343222Y-16799539D01*
X5343222Y-16799539D02*
X5352745Y-16837634D01*
X5352745Y-16837634D02*
X5352745Y-16885253D01*
X5352745Y-16885253D02*
X5343222Y-16923349D01*
X5343222Y-16923349D02*
X5333698Y-16942396D01*
X5333698Y-16942396D02*
X5324174Y-16951920D01*
X5324174Y-16951920D02*
X5305126Y-16961444D01*
X5305126Y-16961444D02*
X5286079Y-16961444D01*
X5286079Y-16961444D02*
X5267031Y-16951920D01*
X5267031Y-16951920D02*
X5257507Y-16942396D01*
X5257507Y-16942396D02*
X5247984Y-16923349D01*
X5247984Y-16923349D02*
X5238460Y-16885253D01*
X5238460Y-16885253D02*
X5238460Y-16837634D01*
X5238460Y-16837634D02*
X5247984Y-16799539D01*
X5247984Y-16799539D02*
X5257507Y-16780491D01*
X5257507Y-16780491D02*
X5267031Y-16770968D01*
X5267031Y-16770968D02*
X5286079Y-16761444D01*
X5438460Y-16961444D02*
X5438460Y-16828110D01*
X5438460Y-16847158D02*
X5447984Y-16837634D01*
X5447984Y-16837634D02*
X5467031Y-16828110D01*
X5467031Y-16828110D02*
X5495603Y-16828110D01*
X5495603Y-16828110D02*
X5514650Y-16837634D01*
X5514650Y-16837634D02*
X5524174Y-16856682D01*
X5524174Y-16856682D02*
X5524174Y-16961444D01*
X5524174Y-16856682D02*
X5533698Y-16837634D01*
X5533698Y-16837634D02*
X5552745Y-16828110D01*
X5552745Y-16828110D02*
X5581317Y-16828110D01*
X5581317Y-16828110D02*
X5600364Y-16837634D01*
X5600364Y-16837634D02*
X5609888Y-16856682D01*
X5609888Y-16856682D02*
X5609888Y-16961444D01*
X5705126Y-16961444D02*
X5705126Y-16828110D01*
X5705126Y-16847158D02*
X5714650Y-16837634D01*
X5714650Y-16837634D02*
X5733698Y-16828110D01*
X5733698Y-16828110D02*
X5762269Y-16828110D01*
X5762269Y-16828110D02*
X5781317Y-16837634D01*
X5781317Y-16837634D02*
X5790841Y-16856682D01*
X5790841Y-16856682D02*
X5790841Y-16961444D01*
X5790841Y-16856682D02*
X5800364Y-16837634D01*
X5800364Y-16837634D02*
X5819412Y-16828110D01*
X5819412Y-16828110D02*
X5847983Y-16828110D01*
X5847983Y-16828110D02*
X5867031Y-16837634D01*
X5867031Y-16837634D02*
X5876555Y-16856682D01*
X5876555Y-16856682D02*
X5876555Y-16961444D01*
X6267031Y-16751920D02*
X6095603Y-17009063D01*
X6524174Y-16761444D02*
X6543222Y-16761444D01*
X6543222Y-16761444D02*
X6562269Y-16770968D01*
X6562269Y-16770968D02*
X6571793Y-16780491D01*
X6571793Y-16780491D02*
X6581317Y-16799539D01*
X6581317Y-16799539D02*
X6590841Y-16837634D01*
X6590841Y-16837634D02*
X6590841Y-16885253D01*
X6590841Y-16885253D02*
X6581317Y-16923349D01*
X6581317Y-16923349D02*
X6571793Y-16942396D01*
X6571793Y-16942396D02*
X6562269Y-16951920D01*
X6562269Y-16951920D02*
X6543222Y-16961444D01*
X6543222Y-16961444D02*
X6524174Y-16961444D01*
X6524174Y-16961444D02*
X6505126Y-16951920D01*
X6505126Y-16951920D02*
X6495603Y-16942396D01*
X6495603Y-16942396D02*
X6486079Y-16923349D01*
X6486079Y-16923349D02*
X6476555Y-16885253D01*
X6476555Y-16885253D02*
X6476555Y-16837634D01*
X6476555Y-16837634D02*
X6486079Y-16799539D01*
X6486079Y-16799539D02*
X6495603Y-16780491D01*
X6495603Y-16780491D02*
X6505126Y-16770968D01*
X6505126Y-16770968D02*
X6524174Y-16761444D01*
X6676555Y-16942396D02*
X6686079Y-16951920D01*
X6686079Y-16951920D02*
X6676555Y-16961444D01*
X6676555Y-16961444D02*
X6667031Y-16951920D01*
X6667031Y-16951920D02*
X6676555Y-16942396D01*
X6676555Y-16942396D02*
X6676555Y-16961444D01*
X6809888Y-16761444D02*
X6828936Y-16761444D01*
X6828936Y-16761444D02*
X6847984Y-16770968D01*
X6847984Y-16770968D02*
X6857507Y-16780491D01*
X6857507Y-16780491D02*
X6867031Y-16799539D01*
X6867031Y-16799539D02*
X6876555Y-16837634D01*
X6876555Y-16837634D02*
X6876555Y-16885253D01*
X6876555Y-16885253D02*
X6867031Y-16923349D01*
X6867031Y-16923349D02*
X6857507Y-16942396D01*
X6857507Y-16942396D02*
X6847984Y-16951920D01*
X6847984Y-16951920D02*
X6828936Y-16961444D01*
X6828936Y-16961444D02*
X6809888Y-16961444D01*
X6809888Y-16961444D02*
X6790841Y-16951920D01*
X6790841Y-16951920D02*
X6781317Y-16942396D01*
X6781317Y-16942396D02*
X6771793Y-16923349D01*
X6771793Y-16923349D02*
X6762269Y-16885253D01*
X6762269Y-16885253D02*
X6762269Y-16837634D01*
X6762269Y-16837634D02*
X6771793Y-16799539D01*
X6771793Y-16799539D02*
X6781317Y-16780491D01*
X6781317Y-16780491D02*
X6790841Y-16770968D01*
X6790841Y-16770968D02*
X6809888Y-16761444D01*
X7057507Y-16761444D02*
X6962269Y-16761444D01*
X6962269Y-16761444D02*
X6952746Y-16856682D01*
X6952746Y-16856682D02*
X6962269Y-16847158D01*
X6962269Y-16847158D02*
X6981317Y-16837634D01*
X6981317Y-16837634D02*
X7028936Y-16837634D01*
X7028936Y-16837634D02*
X7047984Y-16847158D01*
X7047984Y-16847158D02*
X7057507Y-16856682D01*
X7057507Y-16856682D02*
X7067031Y-16875730D01*
X7067031Y-16875730D02*
X7067031Y-16923349D01*
X7067031Y-16923349D02*
X7057507Y-16942396D01*
X7057507Y-16942396D02*
X7047984Y-16951920D01*
X7047984Y-16951920D02*
X7028936Y-16961444D01*
X7028936Y-16961444D02*
X6981317Y-16961444D01*
X6981317Y-16961444D02*
X6962269Y-16951920D01*
X6962269Y-16951920D02*
X6952746Y-16942396D01*
X7247984Y-16761444D02*
X7152746Y-16761444D01*
X7152746Y-16761444D02*
X7143222Y-16856682D01*
X7143222Y-16856682D02*
X7152746Y-16847158D01*
X7152746Y-16847158D02*
X7171793Y-16837634D01*
X7171793Y-16837634D02*
X7219412Y-16837634D01*
X7219412Y-16837634D02*
X7238460Y-16847158D01*
X7238460Y-16847158D02*
X7247984Y-16856682D01*
X7247984Y-16856682D02*
X7257507Y-16875730D01*
X7257507Y-16875730D02*
X7257507Y-16923349D01*
X7257507Y-16923349D02*
X7247984Y-16942396D01*
X7247984Y-16942396D02*
X7238460Y-16951920D01*
X7238460Y-16951920D02*
X7219412Y-16961444D01*
X7219412Y-16961444D02*
X7171793Y-16961444D01*
X7171793Y-16961444D02*
X7152746Y-16951920D01*
X7152746Y-16951920D02*
X7143222Y-16942396D01*
X7447984Y-16961444D02*
X7333698Y-16961444D01*
X7390841Y-16961444D02*
X7390841Y-16761444D01*
X7390841Y-16761444D02*
X7371793Y-16790015D01*
X7371793Y-16790015D02*
X7352746Y-16809063D01*
X7352746Y-16809063D02*
X7333698Y-16818587D01*
X7524174Y-16761444D02*
X7524174Y-16799539D01*
X7600365Y-16761444D02*
X7600365Y-16799539D01*
X7895603Y-17037634D02*
X7886079Y-17028110D01*
X7886079Y-17028110D02*
X7867031Y-16999539D01*
X7867031Y-16999539D02*
X7857508Y-16980491D01*
X7857508Y-16980491D02*
X7847984Y-16951920D01*
X7847984Y-16951920D02*
X7838460Y-16904301D01*
X7838460Y-16904301D02*
X7838460Y-16866206D01*
X7838460Y-16866206D02*
X7847984Y-16818587D01*
X7847984Y-16818587D02*
X7857508Y-16790015D01*
X7857508Y-16790015D02*
X7867031Y-16770968D01*
X7867031Y-16770968D02*
X7886079Y-16742396D01*
X7886079Y-16742396D02*
X7895603Y-16732872D01*
X7962269Y-16780491D02*
X7971793Y-16770968D01*
X7971793Y-16770968D02*
X7990841Y-16761444D01*
X7990841Y-16761444D02*
X8038460Y-16761444D01*
X8038460Y-16761444D02*
X8057508Y-16770968D01*
X8057508Y-16770968D02*
X8067031Y-16780491D01*
X8067031Y-16780491D02*
X8076555Y-16799539D01*
X8076555Y-16799539D02*
X8076555Y-16818587D01*
X8076555Y-16818587D02*
X8067031Y-16847158D01*
X8067031Y-16847158D02*
X7952746Y-16961444D01*
X7952746Y-16961444D02*
X8076555Y-16961444D01*
X8314650Y-16961444D02*
X8314650Y-16761444D01*
X8400365Y-16961444D02*
X8400365Y-16856682D01*
X8400365Y-16856682D02*
X8390841Y-16837634D01*
X8390841Y-16837634D02*
X8371793Y-16828110D01*
X8371793Y-16828110D02*
X8343222Y-16828110D01*
X8343222Y-16828110D02*
X8324174Y-16837634D01*
X8324174Y-16837634D02*
X8314650Y-16847158D01*
X8524174Y-16961444D02*
X8505127Y-16951920D01*
X8505127Y-16951920D02*
X8495603Y-16942396D01*
X8495603Y-16942396D02*
X8486079Y-16923349D01*
X8486079Y-16923349D02*
X8486079Y-16866206D01*
X8486079Y-16866206D02*
X8495603Y-16847158D01*
X8495603Y-16847158D02*
X8505127Y-16837634D01*
X8505127Y-16837634D02*
X8524174Y-16828110D01*
X8524174Y-16828110D02*
X8552746Y-16828110D01*
X8552746Y-16828110D02*
X8571793Y-16837634D01*
X8571793Y-16837634D02*
X8581317Y-16847158D01*
X8581317Y-16847158D02*
X8590841Y-16866206D01*
X8590841Y-16866206D02*
X8590841Y-16923349D01*
X8590841Y-16923349D02*
X8581317Y-16942396D01*
X8581317Y-16942396D02*
X8571793Y-16951920D01*
X8571793Y-16951920D02*
X8552746Y-16961444D01*
X8552746Y-16961444D02*
X8524174Y-16961444D01*
X8705127Y-16961444D02*
X8686079Y-16951920D01*
X8686079Y-16951920D02*
X8676555Y-16932872D01*
X8676555Y-16932872D02*
X8676555Y-16761444D01*
X8857508Y-16951920D02*
X8838460Y-16961444D01*
X8838460Y-16961444D02*
X8800365Y-16961444D01*
X8800365Y-16961444D02*
X8781317Y-16951920D01*
X8781317Y-16951920D02*
X8771793Y-16932872D01*
X8771793Y-16932872D02*
X8771793Y-16856682D01*
X8771793Y-16856682D02*
X8781317Y-16837634D01*
X8781317Y-16837634D02*
X8800365Y-16828110D01*
X8800365Y-16828110D02*
X8838460Y-16828110D01*
X8838460Y-16828110D02*
X8857508Y-16837634D01*
X8857508Y-16837634D02*
X8867032Y-16856682D01*
X8867032Y-16856682D02*
X8867032Y-16875730D01*
X8867032Y-16875730D02*
X8771793Y-16894777D01*
X8943222Y-16951920D02*
X8962270Y-16961444D01*
X8962270Y-16961444D02*
X9000365Y-16961444D01*
X9000365Y-16961444D02*
X9019413Y-16951920D01*
X9019413Y-16951920D02*
X9028936Y-16932872D01*
X9028936Y-16932872D02*
X9028936Y-16923349D01*
X9028936Y-16923349D02*
X9019413Y-16904301D01*
X9019413Y-16904301D02*
X9000365Y-16894777D01*
X9000365Y-16894777D02*
X8971793Y-16894777D01*
X8971793Y-16894777D02*
X8952746Y-16885253D01*
X8952746Y-16885253D02*
X8943222Y-16866206D01*
X8943222Y-16866206D02*
X8943222Y-16856682D01*
X8943222Y-16856682D02*
X8952746Y-16837634D01*
X8952746Y-16837634D02*
X8971793Y-16828110D01*
X8971793Y-16828110D02*
X9000365Y-16828110D01*
X9000365Y-16828110D02*
X9019413Y-16837634D01*
X9095603Y-17037634D02*
X9105127Y-17028110D01*
X9105127Y-17028110D02*
X9124174Y-16999539D01*
X9124174Y-16999539D02*
X9133698Y-16980491D01*
X9133698Y-16980491D02*
X9143222Y-16951920D01*
X9143222Y-16951920D02*
X9152746Y-16904301D01*
X9152746Y-16904301D02*
X9152746Y-16866206D01*
X9152746Y-16866206D02*
X9143222Y-16818587D01*
X9143222Y-16818587D02*
X9133698Y-16790015D01*
X9133698Y-16790015D02*
X9124174Y-16770968D01*
X9124174Y-16770968D02*
X9105127Y-16742396D01*
X9105127Y-16742396D02*
X9095603Y-16732872D01*
X4120540Y-17033960D02*
X4320540Y-17233960D01*
X4320540Y-17033960D02*
X4120540Y-17233960D01*
X4320540Y-17133960D02*
G75*
G03*
X4120540Y-17133960I-100000J0D01*
G01*
X4120540Y-17133960D02*
G75*
G03*
X4320540Y-17133960I100000J0D01*
G01*
X4571793Y-17044491D02*
X4581317Y-17034968D01*
X4581317Y-17034968D02*
X4600364Y-17025444D01*
X4600364Y-17025444D02*
X4647984Y-17025444D01*
X4647984Y-17025444D02*
X4667031Y-17034968D01*
X4667031Y-17034968D02*
X4676555Y-17044491D01*
X4676555Y-17044491D02*
X4686079Y-17063539D01*
X4686079Y-17063539D02*
X4686079Y-17082587D01*
X4686079Y-17082587D02*
X4676555Y-17111158D01*
X4676555Y-17111158D02*
X4562269Y-17225444D01*
X4562269Y-17225444D02*
X4686079Y-17225444D01*
X4771793Y-17206396D02*
X4781317Y-17215920D01*
X4781317Y-17215920D02*
X4771793Y-17225444D01*
X4771793Y-17225444D02*
X4762269Y-17215920D01*
X4762269Y-17215920D02*
X4771793Y-17206396D01*
X4771793Y-17206396D02*
X4771793Y-17225444D01*
X4905126Y-17025444D02*
X4924174Y-17025444D01*
X4924174Y-17025444D02*
X4943222Y-17034968D01*
X4943222Y-17034968D02*
X4952745Y-17044491D01*
X4952745Y-17044491D02*
X4962269Y-17063539D01*
X4962269Y-17063539D02*
X4971793Y-17101634D01*
X4971793Y-17101634D02*
X4971793Y-17149253D01*
X4971793Y-17149253D02*
X4962269Y-17187349D01*
X4962269Y-17187349D02*
X4952745Y-17206396D01*
X4952745Y-17206396D02*
X4943222Y-17215920D01*
X4943222Y-17215920D02*
X4924174Y-17225444D01*
X4924174Y-17225444D02*
X4905126Y-17225444D01*
X4905126Y-17225444D02*
X4886079Y-17215920D01*
X4886079Y-17215920D02*
X4876555Y-17206396D01*
X4876555Y-17206396D02*
X4867031Y-17187349D01*
X4867031Y-17187349D02*
X4857507Y-17149253D01*
X4857507Y-17149253D02*
X4857507Y-17101634D01*
X4857507Y-17101634D02*
X4867031Y-17063539D01*
X4867031Y-17063539D02*
X4876555Y-17044491D01*
X4876555Y-17044491D02*
X4886079Y-17034968D01*
X4886079Y-17034968D02*
X4905126Y-17025444D01*
X5095603Y-17025444D02*
X5114650Y-17025444D01*
X5114650Y-17025444D02*
X5133698Y-17034968D01*
X5133698Y-17034968D02*
X5143222Y-17044491D01*
X5143222Y-17044491D02*
X5152745Y-17063539D01*
X5152745Y-17063539D02*
X5162269Y-17101634D01*
X5162269Y-17101634D02*
X5162269Y-17149253D01*
X5162269Y-17149253D02*
X5152745Y-17187349D01*
X5152745Y-17187349D02*
X5143222Y-17206396D01*
X5143222Y-17206396D02*
X5133698Y-17215920D01*
X5133698Y-17215920D02*
X5114650Y-17225444D01*
X5114650Y-17225444D02*
X5095603Y-17225444D01*
X5095603Y-17225444D02*
X5076555Y-17215920D01*
X5076555Y-17215920D02*
X5067031Y-17206396D01*
X5067031Y-17206396D02*
X5057507Y-17187349D01*
X5057507Y-17187349D02*
X5047984Y-17149253D01*
X5047984Y-17149253D02*
X5047984Y-17101634D01*
X5047984Y-17101634D02*
X5057507Y-17063539D01*
X5057507Y-17063539D02*
X5067031Y-17044491D01*
X5067031Y-17044491D02*
X5076555Y-17034968D01*
X5076555Y-17034968D02*
X5095603Y-17025444D01*
X5286079Y-17025444D02*
X5305126Y-17025444D01*
X5305126Y-17025444D02*
X5324174Y-17034968D01*
X5324174Y-17034968D02*
X5333698Y-17044491D01*
X5333698Y-17044491D02*
X5343222Y-17063539D01*
X5343222Y-17063539D02*
X5352745Y-17101634D01*
X5352745Y-17101634D02*
X5352745Y-17149253D01*
X5352745Y-17149253D02*
X5343222Y-17187349D01*
X5343222Y-17187349D02*
X5333698Y-17206396D01*
X5333698Y-17206396D02*
X5324174Y-17215920D01*
X5324174Y-17215920D02*
X5305126Y-17225444D01*
X5305126Y-17225444D02*
X5286079Y-17225444D01*
X5286079Y-17225444D02*
X5267031Y-17215920D01*
X5267031Y-17215920D02*
X5257507Y-17206396D01*
X5257507Y-17206396D02*
X5247984Y-17187349D01*
X5247984Y-17187349D02*
X5238460Y-17149253D01*
X5238460Y-17149253D02*
X5238460Y-17101634D01*
X5238460Y-17101634D02*
X5247984Y-17063539D01*
X5247984Y-17063539D02*
X5257507Y-17044491D01*
X5257507Y-17044491D02*
X5267031Y-17034968D01*
X5267031Y-17034968D02*
X5286079Y-17025444D01*
X5438460Y-17225444D02*
X5438460Y-17092110D01*
X5438460Y-17111158D02*
X5447984Y-17101634D01*
X5447984Y-17101634D02*
X5467031Y-17092110D01*
X5467031Y-17092110D02*
X5495603Y-17092110D01*
X5495603Y-17092110D02*
X5514650Y-17101634D01*
X5514650Y-17101634D02*
X5524174Y-17120682D01*
X5524174Y-17120682D02*
X5524174Y-17225444D01*
X5524174Y-17120682D02*
X5533698Y-17101634D01*
X5533698Y-17101634D02*
X5552745Y-17092110D01*
X5552745Y-17092110D02*
X5581317Y-17092110D01*
X5581317Y-17092110D02*
X5600364Y-17101634D01*
X5600364Y-17101634D02*
X5609888Y-17120682D01*
X5609888Y-17120682D02*
X5609888Y-17225444D01*
X5705126Y-17225444D02*
X5705126Y-17092110D01*
X5705126Y-17111158D02*
X5714650Y-17101634D01*
X5714650Y-17101634D02*
X5733698Y-17092110D01*
X5733698Y-17092110D02*
X5762269Y-17092110D01*
X5762269Y-17092110D02*
X5781317Y-17101634D01*
X5781317Y-17101634D02*
X5790841Y-17120682D01*
X5790841Y-17120682D02*
X5790841Y-17225444D01*
X5790841Y-17120682D02*
X5800364Y-17101634D01*
X5800364Y-17101634D02*
X5819412Y-17092110D01*
X5819412Y-17092110D02*
X5847983Y-17092110D01*
X5847983Y-17092110D02*
X5867031Y-17101634D01*
X5867031Y-17101634D02*
X5876555Y-17120682D01*
X5876555Y-17120682D02*
X5876555Y-17225444D01*
X6267031Y-17015920D02*
X6095603Y-17273063D01*
X6524174Y-17025444D02*
X6543222Y-17025444D01*
X6543222Y-17025444D02*
X6562269Y-17034968D01*
X6562269Y-17034968D02*
X6571793Y-17044491D01*
X6571793Y-17044491D02*
X6581317Y-17063539D01*
X6581317Y-17063539D02*
X6590841Y-17101634D01*
X6590841Y-17101634D02*
X6590841Y-17149253D01*
X6590841Y-17149253D02*
X6581317Y-17187349D01*
X6581317Y-17187349D02*
X6571793Y-17206396D01*
X6571793Y-17206396D02*
X6562269Y-17215920D01*
X6562269Y-17215920D02*
X6543222Y-17225444D01*
X6543222Y-17225444D02*
X6524174Y-17225444D01*
X6524174Y-17225444D02*
X6505126Y-17215920D01*
X6505126Y-17215920D02*
X6495603Y-17206396D01*
X6495603Y-17206396D02*
X6486079Y-17187349D01*
X6486079Y-17187349D02*
X6476555Y-17149253D01*
X6476555Y-17149253D02*
X6476555Y-17101634D01*
X6476555Y-17101634D02*
X6486079Y-17063539D01*
X6486079Y-17063539D02*
X6495603Y-17044491D01*
X6495603Y-17044491D02*
X6505126Y-17034968D01*
X6505126Y-17034968D02*
X6524174Y-17025444D01*
X6676555Y-17206396D02*
X6686079Y-17215920D01*
X6686079Y-17215920D02*
X6676555Y-17225444D01*
X6676555Y-17225444D02*
X6667031Y-17215920D01*
X6667031Y-17215920D02*
X6676555Y-17206396D01*
X6676555Y-17206396D02*
X6676555Y-17225444D01*
X6809888Y-17025444D02*
X6828936Y-17025444D01*
X6828936Y-17025444D02*
X6847984Y-17034968D01*
X6847984Y-17034968D02*
X6857507Y-17044491D01*
X6857507Y-17044491D02*
X6867031Y-17063539D01*
X6867031Y-17063539D02*
X6876555Y-17101634D01*
X6876555Y-17101634D02*
X6876555Y-17149253D01*
X6876555Y-17149253D02*
X6867031Y-17187349D01*
X6867031Y-17187349D02*
X6857507Y-17206396D01*
X6857507Y-17206396D02*
X6847984Y-17215920D01*
X6847984Y-17215920D02*
X6828936Y-17225444D01*
X6828936Y-17225444D02*
X6809888Y-17225444D01*
X6809888Y-17225444D02*
X6790841Y-17215920D01*
X6790841Y-17215920D02*
X6781317Y-17206396D01*
X6781317Y-17206396D02*
X6771793Y-17187349D01*
X6771793Y-17187349D02*
X6762269Y-17149253D01*
X6762269Y-17149253D02*
X6762269Y-17101634D01*
X6762269Y-17101634D02*
X6771793Y-17063539D01*
X6771793Y-17063539D02*
X6781317Y-17044491D01*
X6781317Y-17044491D02*
X6790841Y-17034968D01*
X6790841Y-17034968D02*
X6809888Y-17025444D01*
X6943222Y-17025444D02*
X7076555Y-17025444D01*
X7076555Y-17025444D02*
X6990841Y-17225444D01*
X7181317Y-17111158D02*
X7162269Y-17101634D01*
X7162269Y-17101634D02*
X7152746Y-17092110D01*
X7152746Y-17092110D02*
X7143222Y-17073063D01*
X7143222Y-17073063D02*
X7143222Y-17063539D01*
X7143222Y-17063539D02*
X7152746Y-17044491D01*
X7152746Y-17044491D02*
X7162269Y-17034968D01*
X7162269Y-17034968D02*
X7181317Y-17025444D01*
X7181317Y-17025444D02*
X7219412Y-17025444D01*
X7219412Y-17025444D02*
X7238460Y-17034968D01*
X7238460Y-17034968D02*
X7247984Y-17044491D01*
X7247984Y-17044491D02*
X7257507Y-17063539D01*
X7257507Y-17063539D02*
X7257507Y-17073063D01*
X7257507Y-17073063D02*
X7247984Y-17092110D01*
X7247984Y-17092110D02*
X7238460Y-17101634D01*
X7238460Y-17101634D02*
X7219412Y-17111158D01*
X7219412Y-17111158D02*
X7181317Y-17111158D01*
X7181317Y-17111158D02*
X7162269Y-17120682D01*
X7162269Y-17120682D02*
X7152746Y-17130206D01*
X7152746Y-17130206D02*
X7143222Y-17149253D01*
X7143222Y-17149253D02*
X7143222Y-17187349D01*
X7143222Y-17187349D02*
X7152746Y-17206396D01*
X7152746Y-17206396D02*
X7162269Y-17215920D01*
X7162269Y-17215920D02*
X7181317Y-17225444D01*
X7181317Y-17225444D02*
X7219412Y-17225444D01*
X7219412Y-17225444D02*
X7238460Y-17215920D01*
X7238460Y-17215920D02*
X7247984Y-17206396D01*
X7247984Y-17206396D02*
X7257507Y-17187349D01*
X7257507Y-17187349D02*
X7257507Y-17149253D01*
X7257507Y-17149253D02*
X7247984Y-17130206D01*
X7247984Y-17130206D02*
X7238460Y-17120682D01*
X7238460Y-17120682D02*
X7219412Y-17111158D01*
X7324174Y-17025444D02*
X7457507Y-17025444D01*
X7457507Y-17025444D02*
X7371793Y-17225444D01*
X7524174Y-17025444D02*
X7524174Y-17063539D01*
X7600365Y-17025444D02*
X7600365Y-17063539D01*
X7895603Y-17301634D02*
X7886079Y-17292110D01*
X7886079Y-17292110D02*
X7867031Y-17263539D01*
X7867031Y-17263539D02*
X7857508Y-17244491D01*
X7857508Y-17244491D02*
X7847984Y-17215920D01*
X7847984Y-17215920D02*
X7838460Y-17168301D01*
X7838460Y-17168301D02*
X7838460Y-17130206D01*
X7838460Y-17130206D02*
X7847984Y-17082587D01*
X7847984Y-17082587D02*
X7857508Y-17054015D01*
X7857508Y-17054015D02*
X7867031Y-17034968D01*
X7867031Y-17034968D02*
X7886079Y-17006396D01*
X7886079Y-17006396D02*
X7895603Y-16996872D01*
X7981317Y-17225444D02*
X8019412Y-17225444D01*
X8019412Y-17225444D02*
X8038460Y-17215920D01*
X8038460Y-17215920D02*
X8047984Y-17206396D01*
X8047984Y-17206396D02*
X8067031Y-17177825D01*
X8067031Y-17177825D02*
X8076555Y-17139730D01*
X8076555Y-17139730D02*
X8076555Y-17063539D01*
X8076555Y-17063539D02*
X8067031Y-17044491D01*
X8067031Y-17044491D02*
X8057508Y-17034968D01*
X8057508Y-17034968D02*
X8038460Y-17025444D01*
X8038460Y-17025444D02*
X8000365Y-17025444D01*
X8000365Y-17025444D02*
X7981317Y-17034968D01*
X7981317Y-17034968D02*
X7971793Y-17044491D01*
X7971793Y-17044491D02*
X7962269Y-17063539D01*
X7962269Y-17063539D02*
X7962269Y-17111158D01*
X7962269Y-17111158D02*
X7971793Y-17130206D01*
X7971793Y-17130206D02*
X7981317Y-17139730D01*
X7981317Y-17139730D02*
X8000365Y-17149253D01*
X8000365Y-17149253D02*
X8038460Y-17149253D01*
X8038460Y-17149253D02*
X8057508Y-17139730D01*
X8057508Y-17139730D02*
X8067031Y-17130206D01*
X8067031Y-17130206D02*
X8076555Y-17111158D01*
X8314650Y-17225444D02*
X8314650Y-17025444D01*
X8400365Y-17225444D02*
X8400365Y-17120682D01*
X8400365Y-17120682D02*
X8390841Y-17101634D01*
X8390841Y-17101634D02*
X8371793Y-17092110D01*
X8371793Y-17092110D02*
X8343222Y-17092110D01*
X8343222Y-17092110D02*
X8324174Y-17101634D01*
X8324174Y-17101634D02*
X8314650Y-17111158D01*
X8524174Y-17225444D02*
X8505127Y-17215920D01*
X8505127Y-17215920D02*
X8495603Y-17206396D01*
X8495603Y-17206396D02*
X8486079Y-17187349D01*
X8486079Y-17187349D02*
X8486079Y-17130206D01*
X8486079Y-17130206D02*
X8495603Y-17111158D01*
X8495603Y-17111158D02*
X8505127Y-17101634D01*
X8505127Y-17101634D02*
X8524174Y-17092110D01*
X8524174Y-17092110D02*
X8552746Y-17092110D01*
X8552746Y-17092110D02*
X8571793Y-17101634D01*
X8571793Y-17101634D02*
X8581317Y-17111158D01*
X8581317Y-17111158D02*
X8590841Y-17130206D01*
X8590841Y-17130206D02*
X8590841Y-17187349D01*
X8590841Y-17187349D02*
X8581317Y-17206396D01*
X8581317Y-17206396D02*
X8571793Y-17215920D01*
X8571793Y-17215920D02*
X8552746Y-17225444D01*
X8552746Y-17225444D02*
X8524174Y-17225444D01*
X8705127Y-17225444D02*
X8686079Y-17215920D01*
X8686079Y-17215920D02*
X8676555Y-17196872D01*
X8676555Y-17196872D02*
X8676555Y-17025444D01*
X8857508Y-17215920D02*
X8838460Y-17225444D01*
X8838460Y-17225444D02*
X8800365Y-17225444D01*
X8800365Y-17225444D02*
X8781317Y-17215920D01*
X8781317Y-17215920D02*
X8771793Y-17196872D01*
X8771793Y-17196872D02*
X8771793Y-17120682D01*
X8771793Y-17120682D02*
X8781317Y-17101634D01*
X8781317Y-17101634D02*
X8800365Y-17092110D01*
X8800365Y-17092110D02*
X8838460Y-17092110D01*
X8838460Y-17092110D02*
X8857508Y-17101634D01*
X8857508Y-17101634D02*
X8867032Y-17120682D01*
X8867032Y-17120682D02*
X8867032Y-17139730D01*
X8867032Y-17139730D02*
X8771793Y-17158777D01*
X8943222Y-17215920D02*
X8962270Y-17225444D01*
X8962270Y-17225444D02*
X9000365Y-17225444D01*
X9000365Y-17225444D02*
X9019413Y-17215920D01*
X9019413Y-17215920D02*
X9028936Y-17196872D01*
X9028936Y-17196872D02*
X9028936Y-17187349D01*
X9028936Y-17187349D02*
X9019413Y-17168301D01*
X9019413Y-17168301D02*
X9000365Y-17158777D01*
X9000365Y-17158777D02*
X8971793Y-17158777D01*
X8971793Y-17158777D02*
X8952746Y-17149253D01*
X8952746Y-17149253D02*
X8943222Y-17130206D01*
X8943222Y-17130206D02*
X8943222Y-17120682D01*
X8943222Y-17120682D02*
X8952746Y-17101634D01*
X8952746Y-17101634D02*
X8971793Y-17092110D01*
X8971793Y-17092110D02*
X9000365Y-17092110D01*
X9000365Y-17092110D02*
X9019413Y-17101634D01*
X9095603Y-17301634D02*
X9105127Y-17292110D01*
X9105127Y-17292110D02*
X9124174Y-17263539D01*
X9124174Y-17263539D02*
X9133698Y-17244491D01*
X9133698Y-17244491D02*
X9143222Y-17215920D01*
X9143222Y-17215920D02*
X9152746Y-17168301D01*
X9152746Y-17168301D02*
X9152746Y-17130206D01*
X9152746Y-17130206D02*
X9143222Y-17082587D01*
X9143222Y-17082587D02*
X9133698Y-17054015D01*
X9133698Y-17054015D02*
X9124174Y-17034968D01*
X9124174Y-17034968D02*
X9105127Y-17006396D01*
X9105127Y-17006396D02*
X9095603Y-16996872D01*
X4120540Y-17353960D02*
X4320540Y-17553960D01*
X4320540Y-17353960D02*
X4120540Y-17553960D01*
X4220540Y-17353960D02*
X4220540Y-17553960D01*
X4120540Y-17453960D02*
X4320540Y-17453960D01*
X4571793Y-17364491D02*
X4581317Y-17354968D01*
X4581317Y-17354968D02*
X4600364Y-17345444D01*
X4600364Y-17345444D02*
X4647984Y-17345444D01*
X4647984Y-17345444D02*
X4667031Y-17354968D01*
X4667031Y-17354968D02*
X4676555Y-17364491D01*
X4676555Y-17364491D02*
X4686079Y-17383539D01*
X4686079Y-17383539D02*
X4686079Y-17402587D01*
X4686079Y-17402587D02*
X4676555Y-17431158D01*
X4676555Y-17431158D02*
X4562269Y-17545444D01*
X4562269Y-17545444D02*
X4686079Y-17545444D01*
X4771793Y-17526396D02*
X4781317Y-17535920D01*
X4781317Y-17535920D02*
X4771793Y-17545444D01*
X4771793Y-17545444D02*
X4762269Y-17535920D01*
X4762269Y-17535920D02*
X4771793Y-17526396D01*
X4771793Y-17526396D02*
X4771793Y-17545444D01*
X4847984Y-17345444D02*
X4981317Y-17345444D01*
X4981317Y-17345444D02*
X4895603Y-17545444D01*
X5152745Y-17345444D02*
X5057507Y-17345444D01*
X5057507Y-17345444D02*
X5047984Y-17440682D01*
X5047984Y-17440682D02*
X5057507Y-17431158D01*
X5057507Y-17431158D02*
X5076555Y-17421634D01*
X5076555Y-17421634D02*
X5124174Y-17421634D01*
X5124174Y-17421634D02*
X5143222Y-17431158D01*
X5143222Y-17431158D02*
X5152745Y-17440682D01*
X5152745Y-17440682D02*
X5162269Y-17459730D01*
X5162269Y-17459730D02*
X5162269Y-17507349D01*
X5162269Y-17507349D02*
X5152745Y-17526396D01*
X5152745Y-17526396D02*
X5143222Y-17535920D01*
X5143222Y-17535920D02*
X5124174Y-17545444D01*
X5124174Y-17545444D02*
X5076555Y-17545444D01*
X5076555Y-17545444D02*
X5057507Y-17535920D01*
X5057507Y-17535920D02*
X5047984Y-17526396D01*
X5286079Y-17345444D02*
X5305126Y-17345444D01*
X5305126Y-17345444D02*
X5324174Y-17354968D01*
X5324174Y-17354968D02*
X5333698Y-17364491D01*
X5333698Y-17364491D02*
X5343222Y-17383539D01*
X5343222Y-17383539D02*
X5352745Y-17421634D01*
X5352745Y-17421634D02*
X5352745Y-17469253D01*
X5352745Y-17469253D02*
X5343222Y-17507349D01*
X5343222Y-17507349D02*
X5333698Y-17526396D01*
X5333698Y-17526396D02*
X5324174Y-17535920D01*
X5324174Y-17535920D02*
X5305126Y-17545444D01*
X5305126Y-17545444D02*
X5286079Y-17545444D01*
X5286079Y-17545444D02*
X5267031Y-17535920D01*
X5267031Y-17535920D02*
X5257507Y-17526396D01*
X5257507Y-17526396D02*
X5247984Y-17507349D01*
X5247984Y-17507349D02*
X5238460Y-17469253D01*
X5238460Y-17469253D02*
X5238460Y-17421634D01*
X5238460Y-17421634D02*
X5247984Y-17383539D01*
X5247984Y-17383539D02*
X5257507Y-17364491D01*
X5257507Y-17364491D02*
X5267031Y-17354968D01*
X5267031Y-17354968D02*
X5286079Y-17345444D01*
X5438460Y-17545444D02*
X5438460Y-17412110D01*
X5438460Y-17431158D02*
X5447984Y-17421634D01*
X5447984Y-17421634D02*
X5467031Y-17412110D01*
X5467031Y-17412110D02*
X5495603Y-17412110D01*
X5495603Y-17412110D02*
X5514650Y-17421634D01*
X5514650Y-17421634D02*
X5524174Y-17440682D01*
X5524174Y-17440682D02*
X5524174Y-17545444D01*
X5524174Y-17440682D02*
X5533698Y-17421634D01*
X5533698Y-17421634D02*
X5552745Y-17412110D01*
X5552745Y-17412110D02*
X5581317Y-17412110D01*
X5581317Y-17412110D02*
X5600364Y-17421634D01*
X5600364Y-17421634D02*
X5609888Y-17440682D01*
X5609888Y-17440682D02*
X5609888Y-17545444D01*
X5705126Y-17545444D02*
X5705126Y-17412110D01*
X5705126Y-17431158D02*
X5714650Y-17421634D01*
X5714650Y-17421634D02*
X5733698Y-17412110D01*
X5733698Y-17412110D02*
X5762269Y-17412110D01*
X5762269Y-17412110D02*
X5781317Y-17421634D01*
X5781317Y-17421634D02*
X5790841Y-17440682D01*
X5790841Y-17440682D02*
X5790841Y-17545444D01*
X5790841Y-17440682D02*
X5800364Y-17421634D01*
X5800364Y-17421634D02*
X5819412Y-17412110D01*
X5819412Y-17412110D02*
X5847983Y-17412110D01*
X5847983Y-17412110D02*
X5867031Y-17421634D01*
X5867031Y-17421634D02*
X5876555Y-17440682D01*
X5876555Y-17440682D02*
X5876555Y-17545444D01*
X6267031Y-17335920D02*
X6095603Y-17593063D01*
X6524174Y-17345444D02*
X6543222Y-17345444D01*
X6543222Y-17345444D02*
X6562269Y-17354968D01*
X6562269Y-17354968D02*
X6571793Y-17364491D01*
X6571793Y-17364491D02*
X6581317Y-17383539D01*
X6581317Y-17383539D02*
X6590841Y-17421634D01*
X6590841Y-17421634D02*
X6590841Y-17469253D01*
X6590841Y-17469253D02*
X6581317Y-17507349D01*
X6581317Y-17507349D02*
X6571793Y-17526396D01*
X6571793Y-17526396D02*
X6562269Y-17535920D01*
X6562269Y-17535920D02*
X6543222Y-17545444D01*
X6543222Y-17545444D02*
X6524174Y-17545444D01*
X6524174Y-17545444D02*
X6505126Y-17535920D01*
X6505126Y-17535920D02*
X6495603Y-17526396D01*
X6495603Y-17526396D02*
X6486079Y-17507349D01*
X6486079Y-17507349D02*
X6476555Y-17469253D01*
X6476555Y-17469253D02*
X6476555Y-17421634D01*
X6476555Y-17421634D02*
X6486079Y-17383539D01*
X6486079Y-17383539D02*
X6495603Y-17364491D01*
X6495603Y-17364491D02*
X6505126Y-17354968D01*
X6505126Y-17354968D02*
X6524174Y-17345444D01*
X6676555Y-17526396D02*
X6686079Y-17535920D01*
X6686079Y-17535920D02*
X6676555Y-17545444D01*
X6676555Y-17545444D02*
X6667031Y-17535920D01*
X6667031Y-17535920D02*
X6676555Y-17526396D01*
X6676555Y-17526396D02*
X6676555Y-17545444D01*
X6876555Y-17545444D02*
X6762269Y-17545444D01*
X6819412Y-17545444D02*
X6819412Y-17345444D01*
X6819412Y-17345444D02*
X6800365Y-17374015D01*
X6800365Y-17374015D02*
X6781317Y-17393063D01*
X6781317Y-17393063D02*
X6762269Y-17402587D01*
X7000365Y-17345444D02*
X7019412Y-17345444D01*
X7019412Y-17345444D02*
X7038460Y-17354968D01*
X7038460Y-17354968D02*
X7047984Y-17364491D01*
X7047984Y-17364491D02*
X7057507Y-17383539D01*
X7057507Y-17383539D02*
X7067031Y-17421634D01*
X7067031Y-17421634D02*
X7067031Y-17469253D01*
X7067031Y-17469253D02*
X7057507Y-17507349D01*
X7057507Y-17507349D02*
X7047984Y-17526396D01*
X7047984Y-17526396D02*
X7038460Y-17535920D01*
X7038460Y-17535920D02*
X7019412Y-17545444D01*
X7019412Y-17545444D02*
X7000365Y-17545444D01*
X7000365Y-17545444D02*
X6981317Y-17535920D01*
X6981317Y-17535920D02*
X6971793Y-17526396D01*
X6971793Y-17526396D02*
X6962269Y-17507349D01*
X6962269Y-17507349D02*
X6952746Y-17469253D01*
X6952746Y-17469253D02*
X6952746Y-17421634D01*
X6952746Y-17421634D02*
X6962269Y-17383539D01*
X6962269Y-17383539D02*
X6971793Y-17364491D01*
X6971793Y-17364491D02*
X6981317Y-17354968D01*
X6981317Y-17354968D02*
X7000365Y-17345444D01*
X7181317Y-17431158D02*
X7162269Y-17421634D01*
X7162269Y-17421634D02*
X7152746Y-17412110D01*
X7152746Y-17412110D02*
X7143222Y-17393063D01*
X7143222Y-17393063D02*
X7143222Y-17383539D01*
X7143222Y-17383539D02*
X7152746Y-17364491D01*
X7152746Y-17364491D02*
X7162269Y-17354968D01*
X7162269Y-17354968D02*
X7181317Y-17345444D01*
X7181317Y-17345444D02*
X7219412Y-17345444D01*
X7219412Y-17345444D02*
X7238460Y-17354968D01*
X7238460Y-17354968D02*
X7247984Y-17364491D01*
X7247984Y-17364491D02*
X7257507Y-17383539D01*
X7257507Y-17383539D02*
X7257507Y-17393063D01*
X7257507Y-17393063D02*
X7247984Y-17412110D01*
X7247984Y-17412110D02*
X7238460Y-17421634D01*
X7238460Y-17421634D02*
X7219412Y-17431158D01*
X7219412Y-17431158D02*
X7181317Y-17431158D01*
X7181317Y-17431158D02*
X7162269Y-17440682D01*
X7162269Y-17440682D02*
X7152746Y-17450206D01*
X7152746Y-17450206D02*
X7143222Y-17469253D01*
X7143222Y-17469253D02*
X7143222Y-17507349D01*
X7143222Y-17507349D02*
X7152746Y-17526396D01*
X7152746Y-17526396D02*
X7162269Y-17535920D01*
X7162269Y-17535920D02*
X7181317Y-17545444D01*
X7181317Y-17545444D02*
X7219412Y-17545444D01*
X7219412Y-17545444D02*
X7238460Y-17535920D01*
X7238460Y-17535920D02*
X7247984Y-17526396D01*
X7247984Y-17526396D02*
X7257507Y-17507349D01*
X7257507Y-17507349D02*
X7257507Y-17469253D01*
X7257507Y-17469253D02*
X7247984Y-17450206D01*
X7247984Y-17450206D02*
X7238460Y-17440682D01*
X7238460Y-17440682D02*
X7219412Y-17431158D01*
X7324174Y-17345444D02*
X7447984Y-17345444D01*
X7447984Y-17345444D02*
X7381317Y-17421634D01*
X7381317Y-17421634D02*
X7409888Y-17421634D01*
X7409888Y-17421634D02*
X7428936Y-17431158D01*
X7428936Y-17431158D02*
X7438460Y-17440682D01*
X7438460Y-17440682D02*
X7447984Y-17459730D01*
X7447984Y-17459730D02*
X7447984Y-17507349D01*
X7447984Y-17507349D02*
X7438460Y-17526396D01*
X7438460Y-17526396D02*
X7428936Y-17535920D01*
X7428936Y-17535920D02*
X7409888Y-17545444D01*
X7409888Y-17545444D02*
X7352746Y-17545444D01*
X7352746Y-17545444D02*
X7333698Y-17535920D01*
X7333698Y-17535920D02*
X7324174Y-17526396D01*
X7524174Y-17345444D02*
X7524174Y-17383539D01*
X7600365Y-17345444D02*
X7600365Y-17383539D01*
X7895603Y-17621634D02*
X7886079Y-17612110D01*
X7886079Y-17612110D02*
X7867031Y-17583539D01*
X7867031Y-17583539D02*
X7857508Y-17564491D01*
X7857508Y-17564491D02*
X7847984Y-17535920D01*
X7847984Y-17535920D02*
X7838460Y-17488301D01*
X7838460Y-17488301D02*
X7838460Y-17450206D01*
X7838460Y-17450206D02*
X7847984Y-17402587D01*
X7847984Y-17402587D02*
X7857508Y-17374015D01*
X7857508Y-17374015D02*
X7867031Y-17354968D01*
X7867031Y-17354968D02*
X7886079Y-17326396D01*
X7886079Y-17326396D02*
X7895603Y-17316872D01*
X8057508Y-17412110D02*
X8057508Y-17545444D01*
X8009888Y-17335920D02*
X7962269Y-17478777D01*
X7962269Y-17478777D02*
X8086079Y-17478777D01*
X8314650Y-17545444D02*
X8314650Y-17345444D01*
X8400365Y-17545444D02*
X8400365Y-17440682D01*
X8400365Y-17440682D02*
X8390841Y-17421634D01*
X8390841Y-17421634D02*
X8371793Y-17412110D01*
X8371793Y-17412110D02*
X8343222Y-17412110D01*
X8343222Y-17412110D02*
X8324174Y-17421634D01*
X8324174Y-17421634D02*
X8314650Y-17431158D01*
X8524174Y-17545444D02*
X8505127Y-17535920D01*
X8505127Y-17535920D02*
X8495603Y-17526396D01*
X8495603Y-17526396D02*
X8486079Y-17507349D01*
X8486079Y-17507349D02*
X8486079Y-17450206D01*
X8486079Y-17450206D02*
X8495603Y-17431158D01*
X8495603Y-17431158D02*
X8505127Y-17421634D01*
X8505127Y-17421634D02*
X8524174Y-17412110D01*
X8524174Y-17412110D02*
X8552746Y-17412110D01*
X8552746Y-17412110D02*
X8571793Y-17421634D01*
X8571793Y-17421634D02*
X8581317Y-17431158D01*
X8581317Y-17431158D02*
X8590841Y-17450206D01*
X8590841Y-17450206D02*
X8590841Y-17507349D01*
X8590841Y-17507349D02*
X8581317Y-17526396D01*
X8581317Y-17526396D02*
X8571793Y-17535920D01*
X8571793Y-17535920D02*
X8552746Y-17545444D01*
X8552746Y-17545444D02*
X8524174Y-17545444D01*
X8705127Y-17545444D02*
X8686079Y-17535920D01*
X8686079Y-17535920D02*
X8676555Y-17516872D01*
X8676555Y-17516872D02*
X8676555Y-17345444D01*
X8857508Y-17535920D02*
X8838460Y-17545444D01*
X8838460Y-17545444D02*
X8800365Y-17545444D01*
X8800365Y-17545444D02*
X8781317Y-17535920D01*
X8781317Y-17535920D02*
X8771793Y-17516872D01*
X8771793Y-17516872D02*
X8771793Y-17440682D01*
X8771793Y-17440682D02*
X8781317Y-17421634D01*
X8781317Y-17421634D02*
X8800365Y-17412110D01*
X8800365Y-17412110D02*
X8838460Y-17412110D01*
X8838460Y-17412110D02*
X8857508Y-17421634D01*
X8857508Y-17421634D02*
X8867032Y-17440682D01*
X8867032Y-17440682D02*
X8867032Y-17459730D01*
X8867032Y-17459730D02*
X8771793Y-17478777D01*
X8943222Y-17535920D02*
X8962270Y-17545444D01*
X8962270Y-17545444D02*
X9000365Y-17545444D01*
X9000365Y-17545444D02*
X9019413Y-17535920D01*
X9019413Y-17535920D02*
X9028936Y-17516872D01*
X9028936Y-17516872D02*
X9028936Y-17507349D01*
X9028936Y-17507349D02*
X9019413Y-17488301D01*
X9019413Y-17488301D02*
X9000365Y-17478777D01*
X9000365Y-17478777D02*
X8971793Y-17478777D01*
X8971793Y-17478777D02*
X8952746Y-17469253D01*
X8952746Y-17469253D02*
X8943222Y-17450206D01*
X8943222Y-17450206D02*
X8943222Y-17440682D01*
X8943222Y-17440682D02*
X8952746Y-17421634D01*
X8952746Y-17421634D02*
X8971793Y-17412110D01*
X8971793Y-17412110D02*
X9000365Y-17412110D01*
X9000365Y-17412110D02*
X9019413Y-17421634D01*
X9095603Y-17621634D02*
X9105127Y-17612110D01*
X9105127Y-17612110D02*
X9124174Y-17583539D01*
X9124174Y-17583539D02*
X9133698Y-17564491D01*
X9133698Y-17564491D02*
X9143222Y-17535920D01*
X9143222Y-17535920D02*
X9152746Y-17488301D01*
X9152746Y-17488301D02*
X9152746Y-17450206D01*
X9152746Y-17450206D02*
X9143222Y-17402587D01*
X9143222Y-17402587D02*
X9133698Y-17374015D01*
X9133698Y-17374015D02*
X9124174Y-17354968D01*
X9124174Y-17354968D02*
X9105127Y-17326396D01*
X9105127Y-17326396D02*
X9095603Y-17316872D01*
M02*
