M48
; DRILL file {KiCad 7.0.10-7.0.10~ubuntu22.04.1} date Thứ năm, 01 Tháng 2 Năm 2024 11:00:57 +07
; FORMAT={-:-/ absolute / inch / decimal}
; #@! TF.CreationDate,2024-02-01T11:00:57+07:00
; #@! TF.GenerationSoftware,Kicad,Pcbnew,7.0.10-7.0.10~ubuntu22.04.1
; #@! TF.FileFunction,Plated,1,2,PTH
FMAT,2
INCH
; #@! TA.AperFunction,Plated,PTH,ViaDrill
T1C0.0157
; #@! TA.AperFunction,Plated,PTH,ComponentDrill
T2C0.0394
; #@! TA.AperFunction,Plated,PTH,ComponentDrill
T3C0.0400
; #@! TA.AperFunction,Plated,PTH,ComponentDrill
T4C0.0402
; #@! TA.AperFunction,Plated,PTH,ComponentDrill
T5C0.0551
; #@! TA.AperFunction,Plated,PTH,ComponentDrill
T6C0.0787
; #@! TA.AperFunction,Plated,PTH,ComponentDrill
T7C0.1083
%
G90
G05
T1
X1.8Y-0.6
X1.8Y-0.7
X1.8Y-0.8
X1.8Y-0.9
X1.8Y-1.0
X1.8Y-1.1
X1.8Y-1.2
X1.8Y-1.4
X1.8Y-1.5
X1.8Y-1.6
X1.8Y-1.7
X1.8Y-2.1
X1.8Y-2.2
X1.8Y-2.3
X1.8Y-2.4
X1.8Y-2.7
X1.8Y-2.8
X1.8Y-2.9
X1.8Y-3.0
X1.8Y-3.1
X1.8Y-3.4
X1.8Y-3.5
X1.8Y-3.6
X1.8Y-3.7
X1.8Y-4.1
X1.8Y-4.2
X1.9Y-0.6
X1.9Y-0.7
X1.9Y-0.8
X1.9Y-0.9
X1.9Y-3.9
X1.9Y-4.0
X1.9Y-4.1
X1.9Y-4.2
X1.935Y-0.995
X2.0Y-0.6
X2.0Y-0.7
X2.0Y-0.8
X2.0Y-1.2
X2.0Y-2.5
X2.0Y-3.1
X2.0Y-3.2
X2.0Y-4.0
X2.0Y-5.7
X2.0Y-5.8
X2.1Y-0.6
X2.1Y-0.7
X2.1Y-0.9
X2.1Y-1.0
X2.1Y-1.2
X2.1Y-2.5
X2.1Y-3.2
X2.1Y-4.0
X2.1Y-5.8
X2.15Y-5.6
X2.2Y-0.6
X2.2Y-0.7
X2.2Y-0.9
X2.2Y-1.0
X2.2Y-4.0
X2.2Y-4.4
X2.2Y-4.5
X2.2Y-4.6
X2.2Y-4.8
X2.263Y-2.454
X2.264Y-3.12
X2.3Y-0.6
X2.3Y-0.7
X2.3Y-2.9
X2.3Y-3.6
X2.3Y-3.7
X2.3Y-4.0
X2.3Y-4.4
X2.3Y-4.5
X2.3Y-4.6
X2.3Y-4.8
X2.3Y-5.3
X2.3Y-5.4
X2.3Y-5.5
X2.3Y-5.6
X2.339Y-1.411
X2.35Y-5.8
X2.357Y-1.917
X2.4Y-0.6
X2.4Y-0.7
X2.4Y-2.0
X2.4Y-2.1
X2.4Y-2.2
X2.4Y-3.2
X2.4Y-3.5
X2.4Y-3.6
X2.4Y-3.7
X2.4Y-4.0
X2.4Y-4.4
X2.4Y-4.5
X2.4Y-4.6
X2.4Y-4.8
X2.4Y-5.3
X2.4Y-5.4
X2.4Y-5.5
X2.4Y-5.6
X2.4Y-5.7
X2.5Y-0.6
X2.5Y-0.7
X2.5Y-2.0
X2.5Y-2.1
X2.5Y-2.2
X2.5Y-2.3
X2.5Y-3.4
X2.5Y-3.5
X2.5Y-3.6
X2.5Y-3.7
X2.5Y-4.0
X2.5Y-4.1
X2.5Y-4.2
X2.5Y-4.3
X2.5Y-4.4
X2.5Y-4.5
X2.5Y-4.6
X2.5Y-4.8
X2.5Y-5.3
X2.5Y-5.4
X2.5Y-5.5
X2.5Y-5.7
X2.5Y-5.8
X2.6Y-2.0
X2.6Y-2.1
X2.6Y-2.2
X2.6Y-2.3
X2.6Y-2.6
X2.6Y-2.7
X2.6Y-3.3
X2.6Y-3.4
X2.6Y-3.5
X2.6Y-3.6
X2.6Y-3.7
X2.6Y-4.0
X2.6Y-4.1
X2.6Y-4.2
X2.6Y-4.3
X2.6Y-4.4
X2.6Y-4.5
X2.6Y-4.6
X2.6Y-4.8
X2.6Y-5.7
X2.6Y-5.8
X2.7Y-1.1
X2.7Y-2.3
X2.7Y-2.5
X2.7Y-2.6
X2.7Y-2.7
X2.7Y-2.8
X2.7Y-2.9
X2.7Y-3.2
X2.7Y-3.3
X2.7Y-3.4
X2.7Y-3.5
X2.7Y-3.6
X2.7Y-3.7
X2.7Y-4.0
X2.7Y-4.1
X2.7Y-4.2
X2.7Y-4.3
X2.7Y-4.4
X2.7Y-4.5
X2.7Y-4.6
X2.7Y-4.8
X2.7Y-5.7
X2.7Y-5.8
X2.8Y-1.1
X2.8Y-1.3
X2.8Y-1.4
X2.8Y-1.5
X2.8Y-1.7
X2.8Y-1.8
X2.8Y-2.5
X2.8Y-2.6
X2.8Y-2.7
X2.8Y-2.8
X2.8Y-3.2
X2.8Y-3.3
X2.8Y-3.4
X2.8Y-3.5
X2.8Y-3.6
X2.8Y-3.7
X2.8Y-4.0
X2.8Y-4.1
X2.8Y-4.2
X2.8Y-4.3
X2.8Y-4.4
X2.8Y-4.5
X2.8Y-4.8
X2.8Y-5.3
X2.8Y-5.4
X2.8Y-5.5
X2.8Y-5.6
X2.8Y-5.7
X2.8Y-5.8
X2.9Y-1.1
X2.9Y-1.3
X2.9Y-1.4
X2.9Y-1.5
X2.9Y-1.7
X2.9Y-1.8
X2.9Y-2.5
X2.9Y-2.6
X2.9Y-2.7
X2.9Y-3.0
X2.9Y-3.2
X2.9Y-3.3
X2.9Y-3.4
X2.9Y-3.5
X2.9Y-3.6
X2.9Y-3.7
X2.9Y-4.0
X2.9Y-4.1
X2.9Y-4.2
X2.9Y-4.3
X2.9Y-4.4
X2.9Y-4.5
X2.9Y-4.8
X2.9Y-5.8
X3.0Y-1.1
X3.0Y-1.3
X3.0Y-1.4
X3.0Y-1.5
X3.0Y-1.7
X3.0Y-1.8
X3.0Y-2.5
X3.0Y-2.6
X3.0Y-4.0
X3.0Y-4.1
X3.0Y-4.2
X3.0Y-4.6
X3.0Y-4.8
X3.0Y-5.2
X3.0Y-5.3
X3.0Y-5.4
X3.0Y-5.5
X3.0Y-5.6
X3.007Y-4.333
X3.1Y-1.1
X3.1Y-1.3
X3.1Y-1.4
X3.1Y-1.5
X3.1Y-1.7
X3.1Y-1.8
X3.1Y-2.5
X3.1Y-3.05
X3.1Y-3.3
X3.1Y-3.45
X3.1Y-4.0
X3.1Y-4.1
X3.1Y-4.2
X3.15Y-2.95
X3.18Y-1.577
X3.2Y-1.1
X3.2Y-1.3
X3.2Y-1.4
X3.2Y-1.7
X3.2Y-1.8
X3.2Y-3.2
X3.2Y-3.3
X3.2Y-3.4
X3.2Y-3.5
X3.2Y-3.6
X3.2Y-4.4
X3.2Y-5.0
X3.2Y-5.05
X3.2Y-5.1
X3.2Y-5.15
X3.2Y-5.2
X3.234Y-5.375
X3.25Y-5.0
X3.25Y-5.05
X3.25Y-5.1
X3.25Y-5.15
X3.25Y-5.2
X3.252Y-2.701
X3.283Y-4.463
X3.3Y-1.1
X3.3Y-1.3
X3.3Y-1.4
X3.3Y-1.6
X3.3Y-1.7
X3.3Y-1.8
X3.3Y-3.2
X3.3Y-3.3
X3.3Y-3.4
X3.3Y-3.5
X3.3Y-3.6
X3.3Y-4.1
X3.3Y-4.2
X3.3Y-4.6
X3.3Y-5.0
X3.3Y-5.05
X3.3Y-5.1
X3.3Y-5.15
X3.3Y-5.2
X3.3Y-5.5
X3.3Y-5.6
X3.4Y-1.3
X3.4Y-1.4
X3.4Y-2.5
X3.4Y-3.2
X3.4Y-3.3
X3.4Y-3.4
X3.4Y-3.5
X3.4Y-4.0
X3.4Y-4.1
X3.4Y-4.6
X3.4Y-5.2
X3.4Y-5.6
X3.441Y-1.916
X3.5Y-1.3
X3.5Y-1.4
X3.5Y-1.6
X3.5Y-1.7
X3.5Y-1.8
X3.5Y-1.9
X3.5Y-3.2
X3.5Y-3.3
X3.5Y-3.4
X3.5Y-4.0
X3.5Y-4.2
X3.5Y-4.4
X3.5Y-4.6
X3.5Y-5.6
X3.6Y-1.2
X3.6Y-1.6
X3.6Y-1.7
X3.6Y-1.8
X3.6Y-1.9
X3.6Y-3.5
X3.6Y-3.6
X3.6Y-4.1
X3.6Y-4.2
X3.6Y-4.4
X3.7Y-1.1
X3.7Y-1.2
X3.7Y-1.3
X3.7Y-1.4
X3.7Y-2.6
X3.7Y-2.8
X3.7Y-2.9
X3.7Y-3.0
X3.7Y-4.0
X3.7Y-4.1
X3.7Y-4.2
X3.7Y-4.4
X3.7Y-4.8
X3.7Y-5.5
X3.73Y-3.498
X3.773Y-4.333
X3.781Y-4.465
X3.8Y-1.1
X3.8Y-1.2
X3.8Y-1.3
X3.8Y-1.4
X3.8Y-3.675
X3.8Y-4.0
X3.8Y-4.1
X3.8Y-4.2
X3.8Y-4.4
X3.8Y-4.8
X3.9Y-1.1
X3.9Y-1.2
X3.9Y-1.6
X3.9Y-1.7
X3.9Y-1.8
X3.9Y-2.6
X3.9Y-2.8
X3.9Y-2.9
X3.9Y-3.0
X3.9Y-3.675
X3.9Y-3.775
X3.9Y-4.0
X3.975Y-3.5
X4.0Y-1.1
X4.0Y-1.2
X4.0Y-1.6
X4.0Y-1.7
X4.0Y-1.8
X4.0Y-2.6
X4.0Y-2.8
X4.0Y-2.9
X4.0Y-3.0
X4.0Y-4.2
X4.0Y-4.3
X4.0Y-4.4
X4.0Y-4.5
X4.0Y-4.6
X4.0Y-4.8
X4.038Y-3.995
X4.039Y-3.803
X4.05Y-3.525
X4.1Y-1.1
X4.1Y-1.2
X4.1Y-4.0
X4.1Y-4.2
X4.1Y-4.3
X4.1Y-4.4
X4.1Y-4.5
X4.1Y-4.6
X4.1Y-4.8
X4.15Y-2.6
X4.15Y-2.8
X4.15Y-2.9
X4.15Y-3.0
X4.2Y-1.1
X4.2Y-1.2
X4.2Y-1.3
X4.2Y-1.4
X4.2Y-4.0
X4.2Y-4.2
X4.2Y-4.3
X4.2Y-4.4
X4.2Y-4.5
X4.2Y-4.6
X4.2Y-4.8
X4.239Y-3.8663
X4.25Y-2.6
X4.25Y-2.8
X4.25Y-2.9
X4.25Y-3.0
X4.25Y-3.425
X4.25Y-4.95
X4.25Y-5.0
X4.263Y-2.165
X4.3Y-1.1
X4.3Y-1.2
X4.3Y-1.3
X4.3Y-1.4
X4.3Y-2.0
X4.3Y-4.0
X4.3Y-4.2
X4.3Y-4.3
X4.3Y-4.4
X4.3Y-4.5
X4.3Y-4.6
X4.3Y-4.8
X4.35Y-4.95
X4.35Y-5.0
X4.387Y-3.473
X4.4Y-1.6
X4.4Y-1.7
X4.4Y-1.8
X4.4Y-2.0
X4.4Y-2.8
X4.4Y-2.9
X4.4Y-3.0
X4.4Y-4.0
X4.4Y-4.5
X4.4Y-4.6
X4.4Y-4.8
X4.443Y-2.042
X4.45Y-4.25
X4.45Y-4.3
X4.45Y-4.35
X4.45Y-4.4
X4.45Y-4.95
X4.45Y-5.0
X4.5Y-2.0
X4.5Y-2.5
X4.5Y-2.6
X4.5Y-2.7
X4.5Y-2.8
X4.5Y-2.9
X4.5Y-3.0
X4.5Y-3.55
X4.5Y-3.6
X4.5Y-3.65
X4.5Y-3.7
X4.5Y-4.25
X4.5Y-4.3
X4.5Y-4.35
X4.5Y-4.4
X4.55Y-3.55
X4.55Y-3.6
X4.55Y-3.65
X4.55Y-3.7
X4.55Y-4.25
X4.55Y-4.3
X4.55Y-4.35
X4.55Y-4.4
X4.55Y-4.95
X4.55Y-5.0
X4.6Y-1.3
X4.6Y-1.4
X4.6Y-1.5
X4.6Y-1.6
X4.6Y-1.7
X4.6Y-3.45
X4.6Y-3.55
X4.6Y-3.6
X4.6Y-3.65
X4.6Y-3.7
X4.6Y-3.761
X4.6Y-3.85
X4.6Y-4.0
X4.6Y-4.25
X4.6Y-4.3
X4.6Y-4.35
X4.6Y-4.4
X4.6Y-4.5
X4.6Y-4.6
X4.6Y-4.8
X4.65Y-3.55
X4.65Y-3.6
X4.65Y-3.65
X4.65Y-3.7
X4.697Y-3.803
X4.697Y-3.995
X4.7Y-1.3
X4.7Y-1.4
X4.7Y-1.5
X4.7Y-1.6
X4.7Y-1.7
X4.7Y-2.0
X4.7Y-2.1
X4.7Y-2.2
X4.7Y-2.3
X4.7Y-2.4
X4.7Y-3.45
X4.7Y-4.2
X4.7Y-4.3
X4.7Y-4.4
X4.7Y-4.5
X4.7Y-4.9
X4.7Y-5.0
X4.8Y-1.3
X4.8Y-1.4
X4.8Y-1.5
X4.8Y-1.6
X4.8Y-1.7
X4.8Y-2.0
X4.8Y-2.1
X4.8Y-2.2
X4.8Y-2.3
X4.8Y-2.4
X4.8Y-4.7
X4.8Y-4.9
X4.8Y-5.0
X4.8Y-5.1
X4.869Y-2.998
X4.9Y-0.6
X4.9Y-1.3
X4.9Y-1.4
X4.9Y-1.5
X4.9Y-1.6
X4.9Y-2.0
X4.9Y-2.1
X4.9Y-2.5
X4.9Y-4.9
X4.9Y-5.0
X4.9Y-5.1
X5.0Y-0.6
X5.0Y-0.7
X5.0Y-1.3
X5.0Y-1.4
X5.0Y-1.5
X5.0Y-1.6
X5.0Y-2.0
X5.0Y-2.1
X5.0Y-2.5
X5.0Y-2.6
X5.0Y-4.0
X5.0Y-4.2
X5.0Y-4.3
X5.0Y-4.4
X5.0Y-4.5
X5.0Y-4.6
X5.0Y-4.7
X5.0Y-4.8
X5.0Y-4.9
X5.1Y-0.6
X5.1Y-0.7
X5.1Y-0.8
X5.1Y-1.0
X5.1Y-1.1
X5.1Y-1.9
X5.1Y-2.0
X5.1Y-2.6
X5.1Y-2.7
X5.1Y-3.5
X5.1Y-3.6
X5.1Y-3.9
X5.1Y-4.0
X5.134Y-4.15
X5.134Y-5.488
X5.172Y-0.908
X5.2Y-0.6
X5.2Y-0.7
X5.2Y-0.8
X5.2Y-1.1
X5.2Y-1.3
X5.2Y-2.3
X5.2Y-2.9
X5.2Y-3.0
X5.2Y-3.5
X5.2Y-3.6
X5.2Y-3.7
X5.2Y-3.8
X5.2Y-4.0
X5.2Y-4.9
X5.2Y-5.0
X5.2Y-5.1
X5.3Y-0.6
X5.3Y-0.7
X5.3Y-0.8
X5.3Y-0.9
X5.3Y-1.1
X5.3Y-1.3
X5.3Y-1.4
X5.3Y-1.6
X5.3Y-1.7
X5.3Y-1.8
X5.3Y-1.9
X5.3Y-2.3
X5.3Y-2.9
X5.3Y-3.0
X5.3Y-4.9
X5.3Y-5.0
X5.3Y-5.1
X5.35Y-3.45
X5.35Y-3.6
X5.35Y-3.7
X5.35Y-3.8
X5.4Y-0.6
X5.4Y-0.7
X5.4Y-0.8
X5.4Y-0.9
X5.4Y-1.1
X5.4Y-1.3
X5.4Y-1.4
X5.4Y-1.6
X5.4Y-1.7
X5.4Y-2.3
X5.4Y-2.4
X5.4Y-2.5
X5.4Y-2.6
X5.4Y-2.7
X5.4Y-5.0
X5.4Y-5.1
X5.403Y-4.836
X5.432Y-5.312
X5.45Y-1.8
X5.45Y-1.9
X5.5Y-0.6
X5.5Y-0.7
X5.5Y-0.8
X5.5Y-0.9
X5.5Y-1.0
X5.5Y-1.1
X5.5Y-1.3
X5.5Y-1.7
X5.5Y-4.5
X5.5Y-4.6
X5.5Y-4.7
X5.5Y-4.8
X5.5Y-5.1
X5.5Y-5.9
X5.503Y-4.934
X5.55Y-1.8
X5.55Y-1.9
X5.55Y-2.0
X5.567Y-5.355
X5.568Y-5.205
X5.6Y-0.6
X5.6Y-0.7
X5.6Y-0.8
X5.6Y-0.9
X5.6Y-1.0
X5.6Y-1.1
X5.6Y-1.3
X5.6Y-1.7
X5.6Y-3.9
X5.6Y-4.0
X5.6Y-4.1
X5.6Y-4.2
X5.6Y-4.9
X5.6Y-5.8
X5.6Y-5.9
X5.65Y-1.8
X5.65Y-1.9
X5.65Y-2.0
X5.7Y-0.6
X5.7Y-0.7
X5.7Y-0.8
X5.7Y-0.9
X5.7Y-1.0
X5.7Y-1.1
X5.7Y-1.2
X5.7Y-1.3
X5.7Y-1.4
X5.7Y-1.5
X5.7Y-1.6
X5.7Y-1.7
X5.7Y-1.8
X5.7Y-1.9
X5.7Y-2.0
X5.7Y-2.1
X5.7Y-3.9
X5.7Y-4.0
X5.7Y-4.1
X5.7Y-4.2
X5.7Y-4.9
X5.7Y-5.5
X5.7Y-5.6
X5.7Y-5.7
X5.7Y-5.8
X5.7Y-5.9
X5.745Y-4.417
X5.8Y-0.6
X5.8Y-0.7
X5.8Y-0.8
T2
X2.635Y-1.316
X2.635Y-1.416
X2.635Y-1.516
X2.635Y-1.658
X2.635Y-1.758
X2.635Y-1.858
X4.39Y-5.1178
X4.39Y-5.417
T3
X2.6627Y-0.8699
X2.6627Y-0.9699
X2.7627Y-0.8699
X2.7627Y-0.9699
X2.8627Y-0.8699
X2.8627Y-0.9699
X2.9627Y-0.8699
X2.9627Y-0.9699
X3.0627Y-0.8699
X3.0627Y-0.9699
X3.1627Y-0.8699
X3.1627Y-0.9699
X3.2627Y-0.8699
X3.2627Y-0.9699
X3.3627Y-0.8699
X3.3627Y-0.9699
X3.4627Y-0.8699
X3.4627Y-0.9699
X3.5627Y-0.8699
X3.5627Y-0.9699
X3.6627Y-0.8699
X3.6627Y-0.9699
X3.7627Y-0.8699
X3.7627Y-0.9699
X3.8627Y-0.8699
X3.8627Y-0.9699
X3.9627Y-0.8699
X3.9627Y-0.9699
X4.0627Y-0.8699
X4.0627Y-0.9699
X4.1627Y-0.8699
X4.1627Y-0.9699
X4.2627Y-0.8699
X4.2627Y-0.9699
X4.3627Y-0.8699
X4.3627Y-0.9699
X4.4627Y-0.8699
X4.4627Y-0.9699
X4.5627Y-0.8699
X4.5627Y-0.9699
X4.7029Y-1.1109
X4.7029Y-1.2109
X4.8029Y-1.1109
X4.8029Y-1.2109
T4
X3.5796Y-3.251
X3.5796Y-3.351
X3.5796Y-5.651
X3.5796Y-5.751
X3.6796Y-3.251
X3.6796Y-3.351
X3.6796Y-5.651
X3.6796Y-5.751
X3.7796Y-3.251
X3.7796Y-3.351
X3.7796Y-5.651
X3.7796Y-5.751
X3.8796Y-3.251
X3.8796Y-3.351
X3.8796Y-5.651
X3.8796Y-5.751
X3.9796Y-3.251
X3.9796Y-3.351
X3.9796Y-5.651
X3.9796Y-5.751
X4.0796Y-3.251
X4.0796Y-3.351
X4.0796Y-5.651
X4.0796Y-5.751
X4.1796Y-3.251
X4.1796Y-3.351
X4.1796Y-5.651
X4.1796Y-5.751
X4.2796Y-3.251
X4.2796Y-3.351
X4.2796Y-5.651
X4.2796Y-5.751
X4.3796Y-3.251
X4.3796Y-3.351
X4.3796Y-5.651
X4.3796Y-5.751
X4.4796Y-3.251
X4.4796Y-3.351
X4.4796Y-5.651
X4.4796Y-5.751
X4.5796Y-3.251
X4.5796Y-3.351
X4.5796Y-5.651
X4.5796Y-5.751
X4.6796Y-3.251
X4.6796Y-3.351
X4.6796Y-5.651
X4.6796Y-5.751
X4.7796Y-3.251
X4.7796Y-3.351
X4.7796Y-5.651
X4.7796Y-5.751
X4.8796Y-3.251
X4.8796Y-3.351
X4.8796Y-5.651
X4.8796Y-5.751
X4.9796Y-3.251
X4.9796Y-3.351
X4.9796Y-5.651
X4.9796Y-5.751
X5.0796Y-3.251
X5.0796Y-3.351
X5.0796Y-5.651
X5.0796Y-5.751
X5.1796Y-3.251
X5.1796Y-3.351
X5.1796Y-5.651
X5.1796Y-5.751
X5.2796Y-3.251
X5.2796Y-3.351
X5.2796Y-5.651
X5.2796Y-5.751
X5.3796Y-3.251
X5.3796Y-3.351
X5.3796Y-5.651
X5.3796Y-5.751
T5
X5.5504Y-1.416
X5.5504Y-1.616
T6
X2.031Y-4.4526
X2.031Y-4.5904
X2.031Y-4.7282
X2.031Y-4.866
X2.031Y-5.0038
X2.031Y-5.1416
X2.031Y-5.2794
X2.031Y-5.4172
X2.031Y-5.555
T7
X2.471Y-0.9199
X2.471Y-2.849
X4.7545Y-0.9199
X4.7545Y-2.849
M30
