%TF.GenerationSoftware,KiCad,Pcbnew,7.0.10-7.0.10~ubuntu22.04.1*%
%TF.CreationDate,2024-02-01T11:00:58+07:00*%
%TF.ProjectId,BFMC,42464d43-2e6b-4696-9361-645f70636258,rev?*%
%TF.SameCoordinates,Original*%
%TF.FileFunction,Drillmap*%
%TF.FilePolarity,Positive*%
%FSLAX45Y45*%
G04 Gerber Fmt 4.5, Leading zero omitted, Abs format (unit mm)*
G04 Created by KiCad (PCBNEW 7.0.10-7.0.10~ubuntu22.04.1) date 2024-02-01 11:00:58*
%MOMM*%
%LPD*%
G01*
G04 APERTURE LIST*
%ADD10C,0.100000*%
%ADD11C,0.101600*%
%ADD12C,0.200000*%
%ADD13C,0.300000*%
G04 APERTURE END LIST*
D10*
X14300000Y-5800000D02*
X14600000Y-5800000D01*
X14600000Y-9600000D01*
X14300000Y-9600000D01*
X14300000Y-5800000D01*
D11*
X4325620Y-1402820D02*
X14800000Y-1402820D01*
X14800000Y-15168880D01*
X4325620Y-15168880D01*
X4325620Y-1402820D01*
D10*
X7500000Y-5200000D02*
X10300000Y-5200000D01*
X10300000Y-5500000D01*
X7500000Y-5500000D01*
X7500000Y-5200000D01*
D12*
D13*
X8561160Y-13695540D02*
X8861160Y-13995540D01*
X8861160Y-13695540D02*
X8561160Y-13995540D01*
X8688160Y-8869540D02*
X8988160Y-9169540D01*
X8988160Y-8869540D02*
X8688160Y-9169540D01*
X13768160Y-10393540D02*
X14068160Y-10693540D01*
X14068160Y-10393540D02*
X13768160Y-10693540D01*
D12*
X4581317Y-15485444D02*
X4581317Y-15285444D01*
X4581317Y-15285444D02*
X4628936Y-15285444D01*
X4628936Y-15285444D02*
X4657507Y-15294968D01*
X4657507Y-15294968D02*
X4676555Y-15314015D01*
X4676555Y-15314015D02*
X4686079Y-15333063D01*
X4686079Y-15333063D02*
X4695603Y-15371158D01*
X4695603Y-15371158D02*
X4695603Y-15399729D01*
X4695603Y-15399729D02*
X4686079Y-15437825D01*
X4686079Y-15437825D02*
X4676555Y-15456872D01*
X4676555Y-15456872D02*
X4657507Y-15475920D01*
X4657507Y-15475920D02*
X4628936Y-15485444D01*
X4628936Y-15485444D02*
X4581317Y-15485444D01*
X4781317Y-15485444D02*
X4781317Y-15352110D01*
X4781317Y-15390206D02*
X4790841Y-15371158D01*
X4790841Y-15371158D02*
X4800364Y-15361634D01*
X4800364Y-15361634D02*
X4819412Y-15352110D01*
X4819412Y-15352110D02*
X4838460Y-15352110D01*
X4905126Y-15485444D02*
X4905126Y-15352110D01*
X4905126Y-15285444D02*
X4895603Y-15294968D01*
X4895603Y-15294968D02*
X4905126Y-15304491D01*
X4905126Y-15304491D02*
X4914650Y-15294968D01*
X4914650Y-15294968D02*
X4905126Y-15285444D01*
X4905126Y-15285444D02*
X4905126Y-15304491D01*
X5028936Y-15485444D02*
X5009888Y-15475920D01*
X5009888Y-15475920D02*
X5000364Y-15456872D01*
X5000364Y-15456872D02*
X5000364Y-15285444D01*
X5133698Y-15485444D02*
X5114650Y-15475920D01*
X5114650Y-15475920D02*
X5105126Y-15456872D01*
X5105126Y-15456872D02*
X5105126Y-15285444D01*
X5362269Y-15485444D02*
X5362269Y-15285444D01*
X5362269Y-15285444D02*
X5428936Y-15428301D01*
X5428936Y-15428301D02*
X5495603Y-15285444D01*
X5495603Y-15285444D02*
X5495603Y-15485444D01*
X5676555Y-15485444D02*
X5676555Y-15380682D01*
X5676555Y-15380682D02*
X5667031Y-15361634D01*
X5667031Y-15361634D02*
X5647983Y-15352110D01*
X5647983Y-15352110D02*
X5609888Y-15352110D01*
X5609888Y-15352110D02*
X5590841Y-15361634D01*
X5676555Y-15475920D02*
X5657507Y-15485444D01*
X5657507Y-15485444D02*
X5609888Y-15485444D01*
X5609888Y-15485444D02*
X5590841Y-15475920D01*
X5590841Y-15475920D02*
X5581317Y-15456872D01*
X5581317Y-15456872D02*
X5581317Y-15437825D01*
X5581317Y-15437825D02*
X5590841Y-15418777D01*
X5590841Y-15418777D02*
X5609888Y-15409253D01*
X5609888Y-15409253D02*
X5657507Y-15409253D01*
X5657507Y-15409253D02*
X5676555Y-15399729D01*
X5771793Y-15352110D02*
X5771793Y-15552110D01*
X5771793Y-15361634D02*
X5790841Y-15352110D01*
X5790841Y-15352110D02*
X5828936Y-15352110D01*
X5828936Y-15352110D02*
X5847983Y-15361634D01*
X5847983Y-15361634D02*
X5857507Y-15371158D01*
X5857507Y-15371158D02*
X5867031Y-15390206D01*
X5867031Y-15390206D02*
X5867031Y-15447348D01*
X5867031Y-15447348D02*
X5857507Y-15466396D01*
X5857507Y-15466396D02*
X5847983Y-15475920D01*
X5847983Y-15475920D02*
X5828936Y-15485444D01*
X5828936Y-15485444D02*
X5790841Y-15485444D01*
X5790841Y-15485444D02*
X5771793Y-15475920D01*
X5952745Y-15466396D02*
X5962269Y-15475920D01*
X5962269Y-15475920D02*
X5952745Y-15485444D01*
X5952745Y-15485444D02*
X5943222Y-15475920D01*
X5943222Y-15475920D02*
X5952745Y-15466396D01*
X5952745Y-15466396D02*
X5952745Y-15485444D01*
X5952745Y-15361634D02*
X5962269Y-15371158D01*
X5962269Y-15371158D02*
X5952745Y-15380682D01*
X5952745Y-15380682D02*
X5943222Y-15371158D01*
X5943222Y-15371158D02*
X5952745Y-15361634D01*
X5952745Y-15361634D02*
X5952745Y-15380682D01*
X4120540Y-15713960D02*
X4320540Y-15913960D01*
X4320540Y-15713960D02*
X4120540Y-15913960D01*
X4562269Y-15705444D02*
X4686079Y-15705444D01*
X4686079Y-15705444D02*
X4619412Y-15781634D01*
X4619412Y-15781634D02*
X4647984Y-15781634D01*
X4647984Y-15781634D02*
X4667031Y-15791158D01*
X4667031Y-15791158D02*
X4676555Y-15800682D01*
X4676555Y-15800682D02*
X4686079Y-15819729D01*
X4686079Y-15819729D02*
X4686079Y-15867348D01*
X4686079Y-15867348D02*
X4676555Y-15886396D01*
X4676555Y-15886396D02*
X4667031Y-15895920D01*
X4667031Y-15895920D02*
X4647984Y-15905444D01*
X4647984Y-15905444D02*
X4590841Y-15905444D01*
X4590841Y-15905444D02*
X4571793Y-15895920D01*
X4571793Y-15895920D02*
X4562269Y-15886396D01*
X4771793Y-15886396D02*
X4781317Y-15895920D01*
X4781317Y-15895920D02*
X4771793Y-15905444D01*
X4771793Y-15905444D02*
X4762269Y-15895920D01*
X4762269Y-15895920D02*
X4771793Y-15886396D01*
X4771793Y-15886396D02*
X4771793Y-15905444D01*
X4905126Y-15705444D02*
X4924174Y-15705444D01*
X4924174Y-15705444D02*
X4943222Y-15714968D01*
X4943222Y-15714968D02*
X4952745Y-15724491D01*
X4952745Y-15724491D02*
X4962269Y-15743539D01*
X4962269Y-15743539D02*
X4971793Y-15781634D01*
X4971793Y-15781634D02*
X4971793Y-15829253D01*
X4971793Y-15829253D02*
X4962269Y-15867348D01*
X4962269Y-15867348D02*
X4952745Y-15886396D01*
X4952745Y-15886396D02*
X4943222Y-15895920D01*
X4943222Y-15895920D02*
X4924174Y-15905444D01*
X4924174Y-15905444D02*
X4905126Y-15905444D01*
X4905126Y-15905444D02*
X4886079Y-15895920D01*
X4886079Y-15895920D02*
X4876555Y-15886396D01*
X4876555Y-15886396D02*
X4867031Y-15867348D01*
X4867031Y-15867348D02*
X4857507Y-15829253D01*
X4857507Y-15829253D02*
X4857507Y-15781634D01*
X4857507Y-15781634D02*
X4867031Y-15743539D01*
X4867031Y-15743539D02*
X4876555Y-15724491D01*
X4876555Y-15724491D02*
X4886079Y-15714968D01*
X4886079Y-15714968D02*
X4905126Y-15705444D01*
X5095603Y-15705444D02*
X5114650Y-15705444D01*
X5114650Y-15705444D02*
X5133698Y-15714968D01*
X5133698Y-15714968D02*
X5143222Y-15724491D01*
X5143222Y-15724491D02*
X5152745Y-15743539D01*
X5152745Y-15743539D02*
X5162269Y-15781634D01*
X5162269Y-15781634D02*
X5162269Y-15829253D01*
X5162269Y-15829253D02*
X5152745Y-15867348D01*
X5152745Y-15867348D02*
X5143222Y-15886396D01*
X5143222Y-15886396D02*
X5133698Y-15895920D01*
X5133698Y-15895920D02*
X5114650Y-15905444D01*
X5114650Y-15905444D02*
X5095603Y-15905444D01*
X5095603Y-15905444D02*
X5076555Y-15895920D01*
X5076555Y-15895920D02*
X5067031Y-15886396D01*
X5067031Y-15886396D02*
X5057507Y-15867348D01*
X5057507Y-15867348D02*
X5047984Y-15829253D01*
X5047984Y-15829253D02*
X5047984Y-15781634D01*
X5047984Y-15781634D02*
X5057507Y-15743539D01*
X5057507Y-15743539D02*
X5067031Y-15724491D01*
X5067031Y-15724491D02*
X5076555Y-15714968D01*
X5076555Y-15714968D02*
X5095603Y-15705444D01*
X5286079Y-15705444D02*
X5305126Y-15705444D01*
X5305126Y-15705444D02*
X5324174Y-15714968D01*
X5324174Y-15714968D02*
X5333698Y-15724491D01*
X5333698Y-15724491D02*
X5343222Y-15743539D01*
X5343222Y-15743539D02*
X5352745Y-15781634D01*
X5352745Y-15781634D02*
X5352745Y-15829253D01*
X5352745Y-15829253D02*
X5343222Y-15867348D01*
X5343222Y-15867348D02*
X5333698Y-15886396D01*
X5333698Y-15886396D02*
X5324174Y-15895920D01*
X5324174Y-15895920D02*
X5305126Y-15905444D01*
X5305126Y-15905444D02*
X5286079Y-15905444D01*
X5286079Y-15905444D02*
X5267031Y-15895920D01*
X5267031Y-15895920D02*
X5257507Y-15886396D01*
X5257507Y-15886396D02*
X5247984Y-15867348D01*
X5247984Y-15867348D02*
X5238460Y-15829253D01*
X5238460Y-15829253D02*
X5238460Y-15781634D01*
X5238460Y-15781634D02*
X5247984Y-15743539D01*
X5247984Y-15743539D02*
X5257507Y-15724491D01*
X5257507Y-15724491D02*
X5267031Y-15714968D01*
X5267031Y-15714968D02*
X5286079Y-15705444D01*
X5438460Y-15905444D02*
X5438460Y-15772110D01*
X5438460Y-15791158D02*
X5447984Y-15781634D01*
X5447984Y-15781634D02*
X5467031Y-15772110D01*
X5467031Y-15772110D02*
X5495603Y-15772110D01*
X5495603Y-15772110D02*
X5514650Y-15781634D01*
X5514650Y-15781634D02*
X5524174Y-15800682D01*
X5524174Y-15800682D02*
X5524174Y-15905444D01*
X5524174Y-15800682D02*
X5533698Y-15781634D01*
X5533698Y-15781634D02*
X5552745Y-15772110D01*
X5552745Y-15772110D02*
X5581317Y-15772110D01*
X5581317Y-15772110D02*
X5600364Y-15781634D01*
X5600364Y-15781634D02*
X5609888Y-15800682D01*
X5609888Y-15800682D02*
X5609888Y-15905444D01*
X5705126Y-15905444D02*
X5705126Y-15772110D01*
X5705126Y-15791158D02*
X5714650Y-15781634D01*
X5714650Y-15781634D02*
X5733698Y-15772110D01*
X5733698Y-15772110D02*
X5762269Y-15772110D01*
X5762269Y-15772110D02*
X5781317Y-15781634D01*
X5781317Y-15781634D02*
X5790841Y-15800682D01*
X5790841Y-15800682D02*
X5790841Y-15905444D01*
X5790841Y-15800682D02*
X5800364Y-15781634D01*
X5800364Y-15781634D02*
X5819412Y-15772110D01*
X5819412Y-15772110D02*
X5847983Y-15772110D01*
X5847983Y-15772110D02*
X5867031Y-15781634D01*
X5867031Y-15781634D02*
X5876555Y-15800682D01*
X5876555Y-15800682D02*
X5876555Y-15905444D01*
X6267031Y-15695920D02*
X6095603Y-15953063D01*
X6524174Y-15705444D02*
X6543222Y-15705444D01*
X6543222Y-15705444D02*
X6562269Y-15714968D01*
X6562269Y-15714968D02*
X6571793Y-15724491D01*
X6571793Y-15724491D02*
X6581317Y-15743539D01*
X6581317Y-15743539D02*
X6590841Y-15781634D01*
X6590841Y-15781634D02*
X6590841Y-15829253D01*
X6590841Y-15829253D02*
X6581317Y-15867348D01*
X6581317Y-15867348D02*
X6571793Y-15886396D01*
X6571793Y-15886396D02*
X6562269Y-15895920D01*
X6562269Y-15895920D02*
X6543222Y-15905444D01*
X6543222Y-15905444D02*
X6524174Y-15905444D01*
X6524174Y-15905444D02*
X6505126Y-15895920D01*
X6505126Y-15895920D02*
X6495603Y-15886396D01*
X6495603Y-15886396D02*
X6486079Y-15867348D01*
X6486079Y-15867348D02*
X6476555Y-15829253D01*
X6476555Y-15829253D02*
X6476555Y-15781634D01*
X6476555Y-15781634D02*
X6486079Y-15743539D01*
X6486079Y-15743539D02*
X6495603Y-15724491D01*
X6495603Y-15724491D02*
X6505126Y-15714968D01*
X6505126Y-15714968D02*
X6524174Y-15705444D01*
X6676555Y-15886396D02*
X6686079Y-15895920D01*
X6686079Y-15895920D02*
X6676555Y-15905444D01*
X6676555Y-15905444D02*
X6667031Y-15895920D01*
X6667031Y-15895920D02*
X6676555Y-15886396D01*
X6676555Y-15886396D02*
X6676555Y-15905444D01*
X6876555Y-15905444D02*
X6762269Y-15905444D01*
X6819412Y-15905444D02*
X6819412Y-15705444D01*
X6819412Y-15705444D02*
X6800365Y-15734015D01*
X6800365Y-15734015D02*
X6781317Y-15753063D01*
X6781317Y-15753063D02*
X6762269Y-15762587D01*
X7067031Y-15905444D02*
X6952746Y-15905444D01*
X7009888Y-15905444D02*
X7009888Y-15705444D01*
X7009888Y-15705444D02*
X6990841Y-15734015D01*
X6990841Y-15734015D02*
X6971793Y-15753063D01*
X6971793Y-15753063D02*
X6952746Y-15762587D01*
X7181317Y-15791158D02*
X7162269Y-15781634D01*
X7162269Y-15781634D02*
X7152746Y-15772110D01*
X7152746Y-15772110D02*
X7143222Y-15753063D01*
X7143222Y-15753063D02*
X7143222Y-15743539D01*
X7143222Y-15743539D02*
X7152746Y-15724491D01*
X7152746Y-15724491D02*
X7162269Y-15714968D01*
X7162269Y-15714968D02*
X7181317Y-15705444D01*
X7181317Y-15705444D02*
X7219412Y-15705444D01*
X7219412Y-15705444D02*
X7238460Y-15714968D01*
X7238460Y-15714968D02*
X7247984Y-15724491D01*
X7247984Y-15724491D02*
X7257507Y-15743539D01*
X7257507Y-15743539D02*
X7257507Y-15753063D01*
X7257507Y-15753063D02*
X7247984Y-15772110D01*
X7247984Y-15772110D02*
X7238460Y-15781634D01*
X7238460Y-15781634D02*
X7219412Y-15791158D01*
X7219412Y-15791158D02*
X7181317Y-15791158D01*
X7181317Y-15791158D02*
X7162269Y-15800682D01*
X7162269Y-15800682D02*
X7152746Y-15810206D01*
X7152746Y-15810206D02*
X7143222Y-15829253D01*
X7143222Y-15829253D02*
X7143222Y-15867348D01*
X7143222Y-15867348D02*
X7152746Y-15886396D01*
X7152746Y-15886396D02*
X7162269Y-15895920D01*
X7162269Y-15895920D02*
X7181317Y-15905444D01*
X7181317Y-15905444D02*
X7219412Y-15905444D01*
X7219412Y-15905444D02*
X7238460Y-15895920D01*
X7238460Y-15895920D02*
X7247984Y-15886396D01*
X7247984Y-15886396D02*
X7257507Y-15867348D01*
X7257507Y-15867348D02*
X7257507Y-15829253D01*
X7257507Y-15829253D02*
X7247984Y-15810206D01*
X7247984Y-15810206D02*
X7238460Y-15800682D01*
X7238460Y-15800682D02*
X7219412Y-15791158D01*
X7447984Y-15905444D02*
X7333698Y-15905444D01*
X7390841Y-15905444D02*
X7390841Y-15705444D01*
X7390841Y-15705444D02*
X7371793Y-15734015D01*
X7371793Y-15734015D02*
X7352746Y-15753063D01*
X7352746Y-15753063D02*
X7333698Y-15762587D01*
X7524174Y-15705444D02*
X7524174Y-15743539D01*
X7600365Y-15705444D02*
X7600365Y-15743539D01*
X7895603Y-15981634D02*
X7886079Y-15972110D01*
X7886079Y-15972110D02*
X7867031Y-15943539D01*
X7867031Y-15943539D02*
X7857508Y-15924491D01*
X7857508Y-15924491D02*
X7847984Y-15895920D01*
X7847984Y-15895920D02*
X7838460Y-15848301D01*
X7838460Y-15848301D02*
X7838460Y-15810206D01*
X7838460Y-15810206D02*
X7847984Y-15762587D01*
X7847984Y-15762587D02*
X7857508Y-15734015D01*
X7857508Y-15734015D02*
X7867031Y-15714968D01*
X7867031Y-15714968D02*
X7886079Y-15686396D01*
X7886079Y-15686396D02*
X7895603Y-15676872D01*
X7952746Y-15705444D02*
X8076555Y-15705444D01*
X8076555Y-15705444D02*
X8009888Y-15781634D01*
X8009888Y-15781634D02*
X8038460Y-15781634D01*
X8038460Y-15781634D02*
X8057508Y-15791158D01*
X8057508Y-15791158D02*
X8067031Y-15800682D01*
X8067031Y-15800682D02*
X8076555Y-15819729D01*
X8076555Y-15819729D02*
X8076555Y-15867348D01*
X8076555Y-15867348D02*
X8067031Y-15886396D01*
X8067031Y-15886396D02*
X8057508Y-15895920D01*
X8057508Y-15895920D02*
X8038460Y-15905444D01*
X8038460Y-15905444D02*
X7981317Y-15905444D01*
X7981317Y-15905444D02*
X7962269Y-15895920D01*
X7962269Y-15895920D02*
X7952746Y-15886396D01*
X8314650Y-15905444D02*
X8314650Y-15705444D01*
X8400365Y-15905444D02*
X8400365Y-15800682D01*
X8400365Y-15800682D02*
X8390841Y-15781634D01*
X8390841Y-15781634D02*
X8371793Y-15772110D01*
X8371793Y-15772110D02*
X8343222Y-15772110D01*
X8343222Y-15772110D02*
X8324174Y-15781634D01*
X8324174Y-15781634D02*
X8314650Y-15791158D01*
X8524174Y-15905444D02*
X8505127Y-15895920D01*
X8505127Y-15895920D02*
X8495603Y-15886396D01*
X8495603Y-15886396D02*
X8486079Y-15867348D01*
X8486079Y-15867348D02*
X8486079Y-15810206D01*
X8486079Y-15810206D02*
X8495603Y-15791158D01*
X8495603Y-15791158D02*
X8505127Y-15781634D01*
X8505127Y-15781634D02*
X8524174Y-15772110D01*
X8524174Y-15772110D02*
X8552746Y-15772110D01*
X8552746Y-15772110D02*
X8571793Y-15781634D01*
X8571793Y-15781634D02*
X8581317Y-15791158D01*
X8581317Y-15791158D02*
X8590841Y-15810206D01*
X8590841Y-15810206D02*
X8590841Y-15867348D01*
X8590841Y-15867348D02*
X8581317Y-15886396D01*
X8581317Y-15886396D02*
X8571793Y-15895920D01*
X8571793Y-15895920D02*
X8552746Y-15905444D01*
X8552746Y-15905444D02*
X8524174Y-15905444D01*
X8705127Y-15905444D02*
X8686079Y-15895920D01*
X8686079Y-15895920D02*
X8676555Y-15876872D01*
X8676555Y-15876872D02*
X8676555Y-15705444D01*
X8857508Y-15895920D02*
X8838460Y-15905444D01*
X8838460Y-15905444D02*
X8800365Y-15905444D01*
X8800365Y-15905444D02*
X8781317Y-15895920D01*
X8781317Y-15895920D02*
X8771793Y-15876872D01*
X8771793Y-15876872D02*
X8771793Y-15800682D01*
X8771793Y-15800682D02*
X8781317Y-15781634D01*
X8781317Y-15781634D02*
X8800365Y-15772110D01*
X8800365Y-15772110D02*
X8838460Y-15772110D01*
X8838460Y-15772110D02*
X8857508Y-15781634D01*
X8857508Y-15781634D02*
X8867032Y-15800682D01*
X8867032Y-15800682D02*
X8867032Y-15819729D01*
X8867032Y-15819729D02*
X8771793Y-15838777D01*
X8943222Y-15895920D02*
X8962270Y-15905444D01*
X8962270Y-15905444D02*
X9000365Y-15905444D01*
X9000365Y-15905444D02*
X9019413Y-15895920D01*
X9019413Y-15895920D02*
X9028936Y-15876872D01*
X9028936Y-15876872D02*
X9028936Y-15867348D01*
X9028936Y-15867348D02*
X9019413Y-15848301D01*
X9019413Y-15848301D02*
X9000365Y-15838777D01*
X9000365Y-15838777D02*
X8971793Y-15838777D01*
X8971793Y-15838777D02*
X8952746Y-15829253D01*
X8952746Y-15829253D02*
X8943222Y-15810206D01*
X8943222Y-15810206D02*
X8943222Y-15800682D01*
X8943222Y-15800682D02*
X8952746Y-15781634D01*
X8952746Y-15781634D02*
X8971793Y-15772110D01*
X8971793Y-15772110D02*
X9000365Y-15772110D01*
X9000365Y-15772110D02*
X9019413Y-15781634D01*
X9095603Y-15981634D02*
X9105127Y-15972110D01*
X9105127Y-15972110D02*
X9124174Y-15943539D01*
X9124174Y-15943539D02*
X9133698Y-15924491D01*
X9133698Y-15924491D02*
X9143222Y-15895920D01*
X9143222Y-15895920D02*
X9152746Y-15848301D01*
X9152746Y-15848301D02*
X9152746Y-15810206D01*
X9152746Y-15810206D02*
X9143222Y-15762587D01*
X9143222Y-15762587D02*
X9133698Y-15734015D01*
X9133698Y-15734015D02*
X9124174Y-15714968D01*
X9124174Y-15714968D02*
X9105127Y-15686396D01*
X9105127Y-15686396D02*
X9095603Y-15676872D01*
X9457508Y-15981634D02*
X9447984Y-15972110D01*
X9447984Y-15972110D02*
X9428936Y-15943539D01*
X9428936Y-15943539D02*
X9419413Y-15924491D01*
X9419413Y-15924491D02*
X9409889Y-15895920D01*
X9409889Y-15895920D02*
X9400365Y-15848301D01*
X9400365Y-15848301D02*
X9400365Y-15810206D01*
X9400365Y-15810206D02*
X9409889Y-15762587D01*
X9409889Y-15762587D02*
X9419413Y-15734015D01*
X9419413Y-15734015D02*
X9428936Y-15714968D01*
X9428936Y-15714968D02*
X9447984Y-15686396D01*
X9447984Y-15686396D02*
X9457508Y-15676872D01*
X9533698Y-15772110D02*
X9533698Y-15905444D01*
X9533698Y-15791158D02*
X9543222Y-15781634D01*
X9543222Y-15781634D02*
X9562270Y-15772110D01*
X9562270Y-15772110D02*
X9590841Y-15772110D01*
X9590841Y-15772110D02*
X9609889Y-15781634D01*
X9609889Y-15781634D02*
X9619413Y-15800682D01*
X9619413Y-15800682D02*
X9619413Y-15905444D01*
X9743222Y-15905444D02*
X9724174Y-15895920D01*
X9724174Y-15895920D02*
X9714651Y-15886396D01*
X9714651Y-15886396D02*
X9705127Y-15867348D01*
X9705127Y-15867348D02*
X9705127Y-15810206D01*
X9705127Y-15810206D02*
X9714651Y-15791158D01*
X9714651Y-15791158D02*
X9724174Y-15781634D01*
X9724174Y-15781634D02*
X9743222Y-15772110D01*
X9743222Y-15772110D02*
X9771794Y-15772110D01*
X9771794Y-15772110D02*
X9790841Y-15781634D01*
X9790841Y-15781634D02*
X9800365Y-15791158D01*
X9800365Y-15791158D02*
X9809889Y-15810206D01*
X9809889Y-15810206D02*
X9809889Y-15867348D01*
X9809889Y-15867348D02*
X9800365Y-15886396D01*
X9800365Y-15886396D02*
X9790841Y-15895920D01*
X9790841Y-15895920D02*
X9771794Y-15905444D01*
X9771794Y-15905444D02*
X9743222Y-15905444D01*
X9867032Y-15772110D02*
X9943222Y-15772110D01*
X9895603Y-15705444D02*
X9895603Y-15876872D01*
X9895603Y-15876872D02*
X9905127Y-15895920D01*
X9905127Y-15895920D02*
X9924174Y-15905444D01*
X9924174Y-15905444D02*
X9943222Y-15905444D01*
X10162270Y-15772110D02*
X10162270Y-15972110D01*
X10162270Y-15781634D02*
X10181317Y-15772110D01*
X10181317Y-15772110D02*
X10219413Y-15772110D01*
X10219413Y-15772110D02*
X10238460Y-15781634D01*
X10238460Y-15781634D02*
X10247984Y-15791158D01*
X10247984Y-15791158D02*
X10257508Y-15810206D01*
X10257508Y-15810206D02*
X10257508Y-15867348D01*
X10257508Y-15867348D02*
X10247984Y-15886396D01*
X10247984Y-15886396D02*
X10238460Y-15895920D01*
X10238460Y-15895920D02*
X10219413Y-15905444D01*
X10219413Y-15905444D02*
X10181317Y-15905444D01*
X10181317Y-15905444D02*
X10162270Y-15895920D01*
X10371794Y-15905444D02*
X10352746Y-15895920D01*
X10352746Y-15895920D02*
X10343222Y-15876872D01*
X10343222Y-15876872D02*
X10343222Y-15705444D01*
X10533698Y-15905444D02*
X10533698Y-15800682D01*
X10533698Y-15800682D02*
X10524175Y-15781634D01*
X10524175Y-15781634D02*
X10505127Y-15772110D01*
X10505127Y-15772110D02*
X10467032Y-15772110D01*
X10467032Y-15772110D02*
X10447984Y-15781634D01*
X10533698Y-15895920D02*
X10514651Y-15905444D01*
X10514651Y-15905444D02*
X10467032Y-15905444D01*
X10467032Y-15905444D02*
X10447984Y-15895920D01*
X10447984Y-15895920D02*
X10438460Y-15876872D01*
X10438460Y-15876872D02*
X10438460Y-15857825D01*
X10438460Y-15857825D02*
X10447984Y-15838777D01*
X10447984Y-15838777D02*
X10467032Y-15829253D01*
X10467032Y-15829253D02*
X10514651Y-15829253D01*
X10514651Y-15829253D02*
X10533698Y-15819729D01*
X10600365Y-15772110D02*
X10676555Y-15772110D01*
X10628936Y-15705444D02*
X10628936Y-15876872D01*
X10628936Y-15876872D02*
X10638460Y-15895920D01*
X10638460Y-15895920D02*
X10657508Y-15905444D01*
X10657508Y-15905444D02*
X10676555Y-15905444D01*
X10819413Y-15895920D02*
X10800365Y-15905444D01*
X10800365Y-15905444D02*
X10762270Y-15905444D01*
X10762270Y-15905444D02*
X10743222Y-15895920D01*
X10743222Y-15895920D02*
X10733698Y-15876872D01*
X10733698Y-15876872D02*
X10733698Y-15800682D01*
X10733698Y-15800682D02*
X10743222Y-15781634D01*
X10743222Y-15781634D02*
X10762270Y-15772110D01*
X10762270Y-15772110D02*
X10800365Y-15772110D01*
X10800365Y-15772110D02*
X10819413Y-15781634D01*
X10819413Y-15781634D02*
X10828936Y-15800682D01*
X10828936Y-15800682D02*
X10828936Y-15819729D01*
X10828936Y-15819729D02*
X10733698Y-15838777D01*
X11000365Y-15905444D02*
X11000365Y-15705444D01*
X11000365Y-15895920D02*
X10981317Y-15905444D01*
X10981317Y-15905444D02*
X10943222Y-15905444D01*
X10943222Y-15905444D02*
X10924175Y-15895920D01*
X10924175Y-15895920D02*
X10914651Y-15886396D01*
X10914651Y-15886396D02*
X10905127Y-15867348D01*
X10905127Y-15867348D02*
X10905127Y-15810206D01*
X10905127Y-15810206D02*
X10914651Y-15791158D01*
X10914651Y-15791158D02*
X10924175Y-15781634D01*
X10924175Y-15781634D02*
X10943222Y-15772110D01*
X10943222Y-15772110D02*
X10981317Y-15772110D01*
X10981317Y-15772110D02*
X11000365Y-15781634D01*
X11076556Y-15981634D02*
X11086079Y-15972110D01*
X11086079Y-15972110D02*
X11105127Y-15943539D01*
X11105127Y-15943539D02*
X11114651Y-15924491D01*
X11114651Y-15924491D02*
X11124175Y-15895920D01*
X11124175Y-15895920D02*
X11133698Y-15848301D01*
X11133698Y-15848301D02*
X11133698Y-15810206D01*
X11133698Y-15810206D02*
X11124175Y-15762587D01*
X11124175Y-15762587D02*
X11114651Y-15734015D01*
X11114651Y-15734015D02*
X11105127Y-15714968D01*
X11105127Y-15714968D02*
X11086079Y-15686396D01*
X11086079Y-15686396D02*
X11076556Y-15676872D01*
M02*
