%TF.GenerationSoftware,KiCad,Pcbnew,7.0.10-7.0.10~ubuntu22.04.1*%
%TF.CreationDate,2024-02-01T11:01:03+07:00*%
%TF.ProjectId,BFMC,42464d43-2e6b-4696-9361-645f70636258,rev?*%
%TF.SameCoordinates,Original*%
%TF.FileFunction,Soldermask,Bot*%
%TF.FilePolarity,Negative*%
%FSLAX46Y46*%
G04 Gerber Fmt 4.6, Leading zero omitted, Abs format (unit mm)*
G04 Created by KiCad (PCBNEW 7.0.10-7.0.10~ubuntu22.04.1) date 2024-02-01 11:01:03*
%MOMM*%
%LPD*%
G01*
G04 APERTURE LIST*
G04 Aperture macros list*
%AMRoundRect*
0 Rectangle with rounded corners*
0 $1 Rounding radius*
0 $2 $3 $4 $5 $6 $7 $8 $9 X,Y pos of 4 corners*
0 Add a 4 corners polygon primitive as box body*
4,1,4,$2,$3,$4,$5,$6,$7,$8,$9,$2,$3,0*
0 Add four circle primitives for the rounded corners*
1,1,$1+$1,$2,$3*
1,1,$1+$1,$4,$5*
1,1,$1+$1,$6,$7*
1,1,$1+$1,$8,$9*
0 Add four rect primitives between the rounded corners*
20,1,$1+$1,$2,$3,$4,$5,0*
20,1,$1+$1,$4,$5,$6,$7,0*
20,1,$1+$1,$6,$7,$8,$9,0*
20,1,$1+$1,$8,$9,$2,$3,0*%
G04 Aperture macros list end*
%ADD10C,2.000000*%
%ADD11RoundRect,0.050800X1.350000X-1.350000X1.350000X1.350000X-1.350000X1.350000X-1.350000X-1.350000X0*%
%ADD12C,2.801600*%
%ADD13C,3.101600*%
%ADD14RoundRect,0.102000X0.765000X-0.765000X0.765000X0.765000X-0.765000X0.765000X-0.765000X-0.765000X0*%
%ADD15C,1.734000*%
%ADD16RoundRect,0.050800X-0.850000X-0.850000X0.850000X-0.850000X0.850000X0.850000X-0.850000X0.850000X0*%
%ADD17O,1.801600X1.801600*%
%ADD18RoundRect,0.102000X-0.762000X-0.762000X0.762000X-0.762000X0.762000X0.762000X-0.762000X0.762000X0*%
%ADD19C,1.728000*%
%ADD20C,6.404000*%
%ADD21RoundRect,0.262900X0.325400X0.262900X-0.325400X0.262900X-0.325400X-0.262900X0.325400X-0.262900X0*%
%ADD22RoundRect,0.262900X-0.262900X0.325400X-0.262900X-0.325400X0.262900X-0.325400X0.262900X0.325400X0*%
%ADD23RoundRect,0.050800X1.500000X-0.700000X1.500000X0.700000X-1.500000X0.700000X-1.500000X-0.700000X0*%
%ADD24RoundRect,0.050800X1.500000X-0.750000X1.500000X0.750000X-1.500000X0.750000X-1.500000X-0.750000X0*%
%ADD25RoundRect,0.262900X0.275400X0.262900X-0.275400X0.262900X-0.275400X-0.262900X0.275400X-0.262900X0*%
%ADD26RoundRect,0.262900X0.262900X-0.325400X0.262900X0.325400X-0.262900X0.325400X-0.262900X-0.325400X0*%
%ADD27RoundRect,0.262900X-0.275400X-0.262900X0.275400X-0.262900X0.275400X0.262900X-0.275400X0.262900X0*%
%ADD28RoundRect,0.265875X-1.084925X-0.584925X1.084925X-0.584925X1.084925X0.584925X-1.084925X0.584925X0*%
%ADD29RoundRect,0.050800X-0.750000X1.041400X-0.750000X-1.041400X0.750000X-1.041400X0.750000X1.041400X0*%
%ADD30RoundRect,0.050800X-0.750000X1.045000X-0.750000X-1.045000X0.750000X-1.045000X0.750000X1.045000X0*%
%ADD31RoundRect,0.050800X-1.500000X0.700000X-1.500000X-0.700000X1.500000X-0.700000X1.500000X0.700000X0*%
%ADD32RoundRect,0.050800X-1.500000X0.750000X-1.500000X-0.750000X1.500000X-0.750000X1.500000X0.750000X0*%
%ADD33RoundRect,0.050800X-1.300000X1.300000X-1.300000X-1.300000X1.300000X-1.300000X1.300000X1.300000X0*%
%ADD34C,2.701600*%
%ADD35RoundRect,0.262900X0.262900X-0.275400X0.262900X0.275400X-0.262900X0.275400X-0.262900X-0.275400X0*%
%ADD36RoundRect,0.050800X-1.041400X-0.750000X1.041400X-0.750000X1.041400X0.750000X-1.041400X0.750000X0*%
%ADD37RoundRect,0.050800X-1.045000X-0.750000X1.045000X-0.750000X1.045000X0.750000X-1.045000X0.750000X0*%
%ADD38RoundRect,0.265875X-0.584925X1.084925X-0.584925X-1.084925X0.584925X-1.084925X0.584925X1.084925X0*%
%ADD39RoundRect,0.050800X0.660400X-0.279400X0.660400X0.279400X-0.660400X0.279400X-0.660400X-0.279400X0*%
%ADD40RoundRect,0.050800X-0.700000X-1.500000X0.700000X-1.500000X0.700000X1.500000X-0.700000X1.500000X0*%
%ADD41RoundRect,0.050800X-0.750000X-1.500000X0.750000X-1.500000X0.750000X1.500000X-0.750000X1.500000X0*%
%ADD42RoundRect,0.269538X-1.481262X0.431262X-1.481262X-0.431262X1.481262X-0.431262X1.481262X0.431262X0*%
%ADD43RoundRect,0.262900X-0.262900X0.275400X-0.262900X-0.275400X0.262900X-0.275400X0.262900X0.275400X0*%
%ADD44RoundRect,0.269538X0.431262X1.481262X-0.431262X1.481262X-0.431262X-1.481262X0.431262X-1.481262X0*%
%ADD45RoundRect,0.050800X0.700000X1.500000X-0.700000X1.500000X-0.700000X-1.500000X0.700000X-1.500000X0*%
%ADD46RoundRect,0.050800X0.750000X1.500000X-0.750000X1.500000X-0.750000X-1.500000X0.750000X-1.500000X0*%
%ADD47RoundRect,0.050800X-0.700000X0.500000X-0.700000X-0.500000X0.700000X-0.500000X0.700000X0.500000X0*%
%ADD48RoundRect,0.050800X0.750000X-1.041400X0.750000X1.041400X-0.750000X1.041400X-0.750000X-1.041400X0*%
%ADD49RoundRect,0.050800X0.750000X-1.045000X0.750000X1.045000X-0.750000X1.045000X-0.750000X-1.045000X0*%
%ADD50RoundRect,0.050800X0.700000X-0.500000X0.700000X0.500000X-0.700000X0.500000X-0.700000X-0.500000X0*%
%ADD51RoundRect,0.050800X-0.660400X0.279400X-0.660400X-0.279400X0.660400X-0.279400X0.660400X0.279400X0*%
%ADD52RoundRect,0.050800X1.000000X-1.000000X1.000000X1.000000X-1.000000X1.000000X-1.000000X-1.000000X0*%
%ADD53C,2.101600*%
%ADD54RoundRect,0.262900X-0.325400X-0.262900X0.325400X-0.262900X0.325400X0.262900X-0.325400X0.262900X0*%
G04 APERTURE END LIST*
D10*
X142000000Y-57000000D02*
X147000000Y-57000000D01*
X147000000Y-97000000D01*
X142000000Y-97000000D01*
X142000000Y-57000000D01*
X74000000Y-51000000D02*
X104000000Y-51000000D01*
X104000000Y-56000000D01*
X74000000Y-56000000D01*
X74000000Y-51000000D01*
D11*
%TO.C,J18*%
X51587400Y-141097000D03*
D12*
X51587400Y-137597000D03*
X51587400Y-134097000D03*
X51587400Y-130597000D03*
X51587400Y-127097000D03*
X51587400Y-123597000D03*
X51587400Y-120097000D03*
X51587400Y-116597000D03*
X51587400Y-113097000D03*
%TD*%
D13*
%TO.C,U1*%
X87111600Y-138455400D03*
X139181600Y-105435400D03*
X88381600Y-90195400D03*
D14*
X90921600Y-146075400D03*
D15*
X90921600Y-143535400D03*
X93461600Y-146075400D03*
X93461600Y-143535400D03*
X96001600Y-146075400D03*
X96001600Y-143535400D03*
X98541600Y-146075400D03*
X98541600Y-143535400D03*
X101081600Y-146075400D03*
X101081600Y-143535400D03*
X103621600Y-146075400D03*
X103621600Y-143535400D03*
X106161600Y-146075400D03*
X106161600Y-143535400D03*
X108701600Y-146075400D03*
X108701600Y-143535400D03*
X111241600Y-146075400D03*
X111241600Y-143535400D03*
X113781600Y-146075400D03*
X113781600Y-143535400D03*
X116321600Y-146075400D03*
X116321600Y-143535400D03*
X118861600Y-146075400D03*
X118861600Y-143535400D03*
X121401600Y-146075400D03*
X121401600Y-143535400D03*
X123941600Y-146075400D03*
X123941600Y-143535400D03*
X126481600Y-146075400D03*
X126481600Y-143535400D03*
X129021600Y-146075400D03*
X129021600Y-143535400D03*
X131561600Y-146075400D03*
X131561600Y-143535400D03*
X134101600Y-146075400D03*
X134101600Y-143535400D03*
X136641600Y-146075400D03*
X136641600Y-143535400D03*
D14*
X90921600Y-85115400D03*
D15*
X90921600Y-82575400D03*
X93461600Y-85115400D03*
X93461600Y-82575400D03*
X96001600Y-85115400D03*
X96001600Y-82575400D03*
X98541600Y-85115400D03*
X98541600Y-82575400D03*
X101081600Y-85115400D03*
X101081600Y-82575400D03*
X103621600Y-85115400D03*
X103621600Y-82575400D03*
X106161600Y-85115400D03*
X106161600Y-82575400D03*
X108701600Y-85115400D03*
X108701600Y-82575400D03*
X111241600Y-85115400D03*
X111241600Y-82575400D03*
X113781600Y-85115400D03*
X113781600Y-82575400D03*
X116321600Y-85115400D03*
X116321600Y-82575400D03*
X118861600Y-85115400D03*
X118861600Y-82575400D03*
X121401600Y-85115400D03*
X121401600Y-82575400D03*
X123941600Y-85115400D03*
X123941600Y-82575400D03*
X126481600Y-85115400D03*
X126481600Y-82575400D03*
X129021600Y-85115400D03*
X129021600Y-82575400D03*
X131561600Y-85115400D03*
X131561600Y-82575400D03*
X134101600Y-85115400D03*
X134101600Y-82575400D03*
X136641600Y-85115400D03*
X136641600Y-82575400D03*
%TD*%
D16*
%TO.C,J6*%
X66929000Y-42113200D03*
D17*
X66929000Y-44653200D03*
X66929000Y-47193200D03*
%TD*%
D16*
%TO.C,J5*%
X66929000Y-33426400D03*
D17*
X66929000Y-35966400D03*
X66929000Y-38506400D03*
%TD*%
D18*
%TO.C,U2*%
X67633400Y-24634600D03*
D19*
X67633400Y-22094600D03*
X70173400Y-24634600D03*
X70173400Y-22094600D03*
X72713400Y-24634600D03*
X72713400Y-22094600D03*
X75253400Y-24634600D03*
X75253400Y-22094600D03*
X77793400Y-24634600D03*
X77793400Y-22094600D03*
X80333400Y-24634600D03*
X80333400Y-22094600D03*
X82873400Y-24634600D03*
X82873400Y-22094600D03*
X85413400Y-24634600D03*
X85413400Y-22094600D03*
X87953400Y-24634600D03*
X87953400Y-22094600D03*
X90493400Y-24634600D03*
X90493400Y-22094600D03*
X93033400Y-24634600D03*
X93033400Y-22094600D03*
X95573400Y-24634600D03*
X95573400Y-22094600D03*
X98113400Y-24634600D03*
X98113400Y-22094600D03*
X100653400Y-24634600D03*
X100653400Y-22094600D03*
X103193400Y-24634600D03*
X103193400Y-22094600D03*
X105733400Y-24634600D03*
X105733400Y-22094600D03*
X108273400Y-24634600D03*
X108273400Y-22094600D03*
X110813400Y-24634600D03*
X110813400Y-22094600D03*
X113353400Y-24634600D03*
X113353400Y-22094600D03*
X115893400Y-24634600D03*
X115893400Y-22094600D03*
X121993400Y-30757600D03*
X121993400Y-28217600D03*
X119453400Y-30757600D03*
X119453400Y-28217600D03*
D20*
X62763400Y-23364600D03*
X120763400Y-23364600D03*
X120763400Y-72364600D03*
X62763400Y-72364600D03*
%TD*%
D21*
%TO.C,C28*%
X57504500Y-30454600D03*
X55779500Y-30454600D03*
%TD*%
D22*
%TO.C,C7*%
X104368600Y-90430350D03*
X104368600Y-92155350D03*
%TD*%
D23*
%TO.C,J13*%
X45006600Y-97120000D03*
X45006600Y-83220000D03*
D24*
X52806600Y-86360000D03*
X52806600Y-88900000D03*
X52806600Y-91440000D03*
X52806600Y-93980000D03*
%TD*%
D25*
%TO.C,R16*%
X87426800Y-114579400D03*
X85601800Y-114579400D03*
%TD*%
D26*
%TO.C,C37*%
X57562000Y-105612100D03*
X57562000Y-103887100D03*
%TD*%
D21*
%TO.C,C35*%
X57504500Y-83185000D03*
X55779500Y-83185000D03*
%TD*%
D23*
%TO.C,J11*%
X45006600Y-63321066D03*
X45006600Y-49421066D03*
D24*
X52806600Y-52561066D03*
X52806600Y-55101066D03*
X52806600Y-57641066D03*
X52806600Y-60181066D03*
%TD*%
D22*
%TO.C,C8*%
X123101950Y-90430350D03*
X123101950Y-92155350D03*
%TD*%
%TO.C,C21*%
X64065000Y-44653200D03*
X64065000Y-46378200D03*
%TD*%
D27*
%TO.C,R10*%
X110116450Y-96577150D03*
X111941450Y-96577150D03*
%TD*%
D21*
%TO.C,C16*%
X128233950Y-137541000D03*
X126508950Y-137541000D03*
%TD*%
D28*
%TO.C,C1*%
X130754200Y-55803800D03*
X134354200Y-55803800D03*
%TD*%
D25*
%TO.C,R14*%
X87426800Y-108635800D03*
X85601800Y-108635800D03*
%TD*%
D29*
%TO.C,D1*%
X125552200Y-60067400D03*
D30*
X125552200Y-55803800D03*
%TD*%
D31*
%TO.C,J7*%
X93499800Y-69641800D03*
X93499800Y-78541800D03*
D32*
X85699800Y-75361800D03*
X85699800Y-72821800D03*
%TD*%
D21*
%TO.C,C29*%
X57504500Y-47320200D03*
X55779500Y-47320200D03*
%TD*%
D33*
%TO.C,J2*%
X140980200Y-35966400D03*
D34*
X140980200Y-41046400D03*
%TD*%
D22*
%TO.C,C18*%
X64065000Y-35966400D03*
X64065000Y-37691400D03*
%TD*%
%TO.C,C6*%
X106400600Y-90430350D03*
X106400600Y-92155350D03*
%TD*%
D35*
%TO.C,R12*%
X82550200Y-77186800D03*
X82550200Y-75361800D03*
%TD*%
D31*
%TO.C,J17*%
X95226800Y-116606400D03*
X95226800Y-125506400D03*
D32*
X87426800Y-122326400D03*
X87426800Y-119786400D03*
%TD*%
D21*
%TO.C,C27*%
X108025100Y-46073400D03*
X106300100Y-46073400D03*
%TD*%
D36*
%TO.C,D2*%
X135657800Y-25857200D03*
D37*
X131394200Y-25857200D03*
%TD*%
D38*
%TO.C,C2*%
X131394200Y-44097800D03*
X131394200Y-47697800D03*
%TD*%
D22*
%TO.C,C9*%
X121011000Y-90430350D03*
X121011000Y-92155350D03*
%TD*%
D26*
%TO.C,C12*%
X106400600Y-96577150D03*
X106400600Y-94852150D03*
%TD*%
D27*
%TO.C,R6*%
X125200400Y-90430350D03*
X127025400Y-90430350D03*
%TD*%
D26*
%TO.C,C13*%
X104368600Y-96577150D03*
X104368600Y-94852150D03*
%TD*%
D21*
%TO.C,C32*%
X57504500Y-64211200D03*
X55779500Y-64211200D03*
%TD*%
D39*
%TO.C,Q3*%
X110149000Y-94456250D03*
X110149000Y-92551250D03*
X111941450Y-93503750D03*
%TD*%
D40*
%TO.C,J8*%
X90774600Y-33805200D03*
X99674600Y-33805200D03*
D41*
X96494600Y-41605200D03*
X93954600Y-41605200D03*
%TD*%
D27*
%TO.C,R7*%
X108324000Y-90430350D03*
X110149000Y-90430350D03*
%TD*%
D23*
%TO.C,J16*%
X72589100Y-125506400D03*
X72589100Y-116606400D03*
D24*
X80389100Y-119786400D03*
X80389100Y-122326400D03*
%TD*%
D42*
%TO.C,F2*%
X131394200Y-35966400D03*
X131394200Y-40416400D03*
%TD*%
D22*
%TO.C,C40*%
X56692800Y-127097000D03*
X56692800Y-128822000D03*
%TD*%
D25*
%TO.C,R15*%
X80389100Y-114579400D03*
X78564100Y-114579400D03*
%TD*%
D21*
%TO.C,C17*%
X128233950Y-139471400D03*
X126508950Y-139471400D03*
%TD*%
%TO.C,C38*%
X67283500Y-134543800D03*
X65558500Y-134543800D03*
%TD*%
D43*
%TO.C,R11*%
X82550200Y-70996800D03*
X82550200Y-72821800D03*
%TD*%
D22*
%TO.C,C20*%
X62058400Y-35966400D03*
X62058400Y-37691400D03*
%TD*%
D21*
%TO.C,C25*%
X108025100Y-48029200D03*
X106300100Y-48029200D03*
%TD*%
D25*
%TO.C,R13*%
X80389100Y-108635800D03*
X78564100Y-108635800D03*
%TD*%
D44*
%TO.C,F1*%
X135204200Y-61391800D03*
X130754200Y-61391800D03*
%TD*%
D26*
%TO.C,C10*%
X135966200Y-133578600D03*
X135966200Y-131853600D03*
%TD*%
D23*
%TO.C,J14*%
X45006600Y-109199600D03*
X45006600Y-100299600D03*
D24*
X52806600Y-103479600D03*
X52806600Y-106019600D03*
%TD*%
D45*
%TO.C,J3*%
X84129800Y-149925800D03*
X75229800Y-149925800D03*
D46*
X78409800Y-142125800D03*
X80949800Y-142125800D03*
%TD*%
D23*
%TO.C,J10*%
X45006600Y-46421600D03*
X45006600Y-32521600D03*
D24*
X52806600Y-35661600D03*
X52806600Y-38201600D03*
X52806600Y-40741600D03*
X52806600Y-43281600D03*
%TD*%
D21*
%TO.C,C31*%
X57504500Y-49326800D03*
X55779500Y-49326800D03*
%TD*%
D26*
%TO.C,C15*%
X121011000Y-96577150D03*
X121011000Y-94852150D03*
%TD*%
%TO.C,C11*%
X137972800Y-133578600D03*
X137972800Y-131853600D03*
%TD*%
D45*
%TO.C,J1*%
X138384200Y-74462400D03*
X129484200Y-74462400D03*
D46*
X132664200Y-66662400D03*
X135204200Y-66662400D03*
%TD*%
D26*
%TO.C,C39*%
X59613800Y-105612100D03*
X59613800Y-103887100D03*
%TD*%
D25*
%TO.C,R17*%
X121181500Y-139471400D03*
X119356500Y-139471400D03*
%TD*%
D23*
%TO.C,J12*%
X45006600Y-80220532D03*
X45006600Y-66320532D03*
D24*
X52806600Y-69460532D03*
X52806600Y-72000532D03*
X52806600Y-74540532D03*
X52806600Y-77080532D03*
%TD*%
D47*
%TO.C,Q4*%
X78564100Y-110672800D03*
X78564100Y-112572800D03*
X76364100Y-111622800D03*
%TD*%
D21*
%TO.C,C34*%
X57504500Y-66268600D03*
X55779500Y-66268600D03*
%TD*%
D38*
%TO.C,C4*%
X125552200Y-44097800D03*
X125552200Y-47697800D03*
%TD*%
D27*
%TO.C,R8*%
X128233950Y-131470400D03*
X130058950Y-131470400D03*
%TD*%
D26*
%TO.C,C14*%
X123101950Y-96577150D03*
X123101950Y-94852150D03*
%TD*%
D21*
%TO.C,C24*%
X96092100Y-48029200D03*
X94367100Y-48029200D03*
%TD*%
D48*
%TO.C,D3*%
X102489000Y-131283200D03*
D49*
X102489000Y-135546800D03*
%TD*%
D47*
%TO.C,Q5*%
X85601800Y-110672800D03*
X85601800Y-112572800D03*
X83401800Y-111622800D03*
%TD*%
D50*
%TO.C,Q6*%
X119356500Y-137464800D03*
X119356500Y-135564800D03*
X121556500Y-136514800D03*
%TD*%
D39*
%TO.C,Q2*%
X127025400Y-94456250D03*
X127025400Y-92551250D03*
X128817850Y-93503750D03*
%TD*%
D21*
%TO.C,C30*%
X57504500Y-32385000D03*
X55779500Y-32385000D03*
%TD*%
D51*
%TO.C,Q1*%
X131851400Y-133578600D03*
X131851400Y-135483600D03*
X130058950Y-134531100D03*
%TD*%
D52*
%TO.C,BZ1*%
X111506000Y-137591800D03*
D53*
X111506000Y-129991800D03*
%TD*%
D21*
%TO.C,C33*%
X57504500Y-81203800D03*
X55779500Y-81203800D03*
%TD*%
%TO.C,C26*%
X96087100Y-46073400D03*
X94362100Y-46073400D03*
%TD*%
D40*
%TO.C,J9*%
X102712600Y-33805200D03*
X111612600Y-33805200D03*
D41*
X108432600Y-41605200D03*
X105892600Y-41605200D03*
%TD*%
D25*
%TO.C,R5*%
X133676400Y-137541000D03*
X131851400Y-137541000D03*
%TD*%
D54*
%TO.C,C22*%
X85116500Y-65379600D03*
X86841500Y-65379600D03*
%TD*%
D27*
%TO.C,R9*%
X126981900Y-96577150D03*
X128806900Y-96577150D03*
%TD*%
D40*
%TO.C,J4*%
X124338950Y-120419200D03*
X133238950Y-120419200D03*
D41*
X130058950Y-128219200D03*
X127518950Y-128219200D03*
%TD*%
D21*
%TO.C,C36*%
X67284600Y-136525000D03*
X65559600Y-136525000D03*
%TD*%
D45*
%TO.C,J15*%
X70799800Y-149925800D03*
X61899800Y-149925800D03*
D46*
X65079800Y-142125800D03*
X67619800Y-142125800D03*
%TD*%
D38*
%TO.C,C3*%
X139166600Y-51006600D03*
X139166600Y-54606600D03*
%TD*%
D22*
%TO.C,C41*%
X54686200Y-127097000D03*
X54686200Y-128822000D03*
%TD*%
%TO.C,C19*%
X62058400Y-44653200D03*
X62058400Y-46378200D03*
%TD*%
D54*
%TO.C,C23*%
X85115400Y-67335400D03*
X86840400Y-67335400D03*
%TD*%
%TO.C,C5*%
X78409800Y-138506200D03*
X80134800Y-138506200D03*
%TD*%
D25*
%TO.C,R3*%
X80234800Y-136525000D03*
X78409800Y-136525000D03*
%TD*%
M02*
