%TF.GenerationSoftware,KiCad,Pcbnew,7.0.10-7.0.10~ubuntu22.04.1*%
%TF.CreationDate,2024-02-01T23:34:11+07:00*%
%TF.ProjectId,BFMC,42464d43-2e6b-4696-9361-645f70636258,rev?*%
%TF.SameCoordinates,Original*%
%TF.FileFunction,Legend,Bot*%
%TF.FilePolarity,Positive*%
%FSLAX46Y46*%
G04 Gerber Fmt 4.6, Leading zero omitted, Abs format (unit mm)*
G04 Created by KiCad (PCBNEW 7.0.10-7.0.10~ubuntu22.04.1) date 2024-02-01 23:34:11*
%MOMM*%
%LPD*%
G01*
G04 APERTURE LIST*
%ADD10C,0.150000*%
%ADD11C,0.100000*%
%ADD12C,0.120000*%
%ADD13C,0.127000*%
%ADD14C,0.200000*%
%ADD15C,0.152400*%
%ADD16C,0.177800*%
%ADD17C,0.180000*%
G04 APERTURE END LIST*
D10*
X132214857Y-87627619D02*
X132548190Y-87151428D01*
X132786285Y-87627619D02*
X132786285Y-86627619D01*
X132786285Y-86627619D02*
X132405333Y-86627619D01*
X132405333Y-86627619D02*
X132310095Y-86675238D01*
X132310095Y-86675238D02*
X132262476Y-86722857D01*
X132262476Y-86722857D02*
X132214857Y-86818095D01*
X132214857Y-86818095D02*
X132214857Y-86960952D01*
X132214857Y-86960952D02*
X132262476Y-87056190D01*
X132262476Y-87056190D02*
X132310095Y-87103809D01*
X132310095Y-87103809D02*
X132405333Y-87151428D01*
X132405333Y-87151428D02*
X132786285Y-87151428D01*
X131262476Y-87627619D02*
X131833904Y-87627619D01*
X131548190Y-87627619D02*
X131548190Y-86627619D01*
X131548190Y-86627619D02*
X131643428Y-86770476D01*
X131643428Y-86770476D02*
X131738666Y-86865714D01*
X131738666Y-86865714D02*
X131833904Y-86913333D01*
X130881523Y-86722857D02*
X130833904Y-86675238D01*
X130833904Y-86675238D02*
X130738666Y-86627619D01*
X130738666Y-86627619D02*
X130500571Y-86627619D01*
X130500571Y-86627619D02*
X130405333Y-86675238D01*
X130405333Y-86675238D02*
X130357714Y-86722857D01*
X130357714Y-86722857D02*
X130310095Y-86818095D01*
X130310095Y-86818095D02*
X130310095Y-86913333D01*
X130310095Y-86913333D02*
X130357714Y-87056190D01*
X130357714Y-87056190D02*
X130929142Y-87627619D01*
X130929142Y-87627619D02*
X130310095Y-87627619D01*
X129141457Y-87627619D02*
X129474790Y-87151428D01*
X129712885Y-87627619D02*
X129712885Y-86627619D01*
X129712885Y-86627619D02*
X129331933Y-86627619D01*
X129331933Y-86627619D02*
X129236695Y-86675238D01*
X129236695Y-86675238D02*
X129189076Y-86722857D01*
X129189076Y-86722857D02*
X129141457Y-86818095D01*
X129141457Y-86818095D02*
X129141457Y-86960952D01*
X129141457Y-86960952D02*
X129189076Y-87056190D01*
X129189076Y-87056190D02*
X129236695Y-87103809D01*
X129236695Y-87103809D02*
X129331933Y-87151428D01*
X129331933Y-87151428D02*
X129712885Y-87151428D01*
X128189076Y-87627619D02*
X128760504Y-87627619D01*
X128474790Y-87627619D02*
X128474790Y-86627619D01*
X128474790Y-86627619D02*
X128570028Y-86770476D01*
X128570028Y-86770476D02*
X128665266Y-86865714D01*
X128665266Y-86865714D02*
X128760504Y-86913333D01*
X127236695Y-87627619D02*
X127808123Y-87627619D01*
X127522409Y-87627619D02*
X127522409Y-86627619D01*
X127522409Y-86627619D02*
X127617647Y-86770476D01*
X127617647Y-86770476D02*
X127712885Y-86865714D01*
X127712885Y-86865714D02*
X127808123Y-86913333D01*
X60536057Y-30890380D02*
X60583676Y-30938000D01*
X60583676Y-30938000D02*
X60726533Y-30985619D01*
X60726533Y-30985619D02*
X60821771Y-30985619D01*
X60821771Y-30985619D02*
X60964628Y-30938000D01*
X60964628Y-30938000D02*
X61059866Y-30842761D01*
X61059866Y-30842761D02*
X61107485Y-30747523D01*
X61107485Y-30747523D02*
X61155104Y-30557047D01*
X61155104Y-30557047D02*
X61155104Y-30414190D01*
X61155104Y-30414190D02*
X61107485Y-30223714D01*
X61107485Y-30223714D02*
X61059866Y-30128476D01*
X61059866Y-30128476D02*
X60964628Y-30033238D01*
X60964628Y-30033238D02*
X60821771Y-29985619D01*
X60821771Y-29985619D02*
X60726533Y-29985619D01*
X60726533Y-29985619D02*
X60583676Y-30033238D01*
X60583676Y-30033238D02*
X60536057Y-30080857D01*
X60155104Y-30080857D02*
X60107485Y-30033238D01*
X60107485Y-30033238D02*
X60012247Y-29985619D01*
X60012247Y-29985619D02*
X59774152Y-29985619D01*
X59774152Y-29985619D02*
X59678914Y-30033238D01*
X59678914Y-30033238D02*
X59631295Y-30080857D01*
X59631295Y-30080857D02*
X59583676Y-30176095D01*
X59583676Y-30176095D02*
X59583676Y-30271333D01*
X59583676Y-30271333D02*
X59631295Y-30414190D01*
X59631295Y-30414190D02*
X60202723Y-30985619D01*
X60202723Y-30985619D02*
X59583676Y-30985619D01*
X59012247Y-30414190D02*
X59107485Y-30366571D01*
X59107485Y-30366571D02*
X59155104Y-30318952D01*
X59155104Y-30318952D02*
X59202723Y-30223714D01*
X59202723Y-30223714D02*
X59202723Y-30176095D01*
X59202723Y-30176095D02*
X59155104Y-30080857D01*
X59155104Y-30080857D02*
X59107485Y-30033238D01*
X59107485Y-30033238D02*
X59012247Y-29985619D01*
X59012247Y-29985619D02*
X58821771Y-29985619D01*
X58821771Y-29985619D02*
X58726533Y-30033238D01*
X58726533Y-30033238D02*
X58678914Y-30080857D01*
X58678914Y-30080857D02*
X58631295Y-30176095D01*
X58631295Y-30176095D02*
X58631295Y-30223714D01*
X58631295Y-30223714D02*
X58678914Y-30318952D01*
X58678914Y-30318952D02*
X58726533Y-30366571D01*
X58726533Y-30366571D02*
X58821771Y-30414190D01*
X58821771Y-30414190D02*
X59012247Y-30414190D01*
X59012247Y-30414190D02*
X59107485Y-30461809D01*
X59107485Y-30461809D02*
X59155104Y-30509428D01*
X59155104Y-30509428D02*
X59202723Y-30604666D01*
X59202723Y-30604666D02*
X59202723Y-30795142D01*
X59202723Y-30795142D02*
X59155104Y-30890380D01*
X59155104Y-30890380D02*
X59107485Y-30938000D01*
X59107485Y-30938000D02*
X59012247Y-30985619D01*
X59012247Y-30985619D02*
X58821771Y-30985619D01*
X58821771Y-30985619D02*
X58726533Y-30938000D01*
X58726533Y-30938000D02*
X58678914Y-30890380D01*
X58678914Y-30890380D02*
X58631295Y-30795142D01*
X58631295Y-30795142D02*
X58631295Y-30604666D01*
X58631295Y-30604666D02*
X58678914Y-30509428D01*
X58678914Y-30509428D02*
X58726533Y-30461809D01*
X58726533Y-30461809D02*
X58821771Y-30414190D01*
X104306666Y-89183380D02*
X104354285Y-89231000D01*
X104354285Y-89231000D02*
X104497142Y-89278619D01*
X104497142Y-89278619D02*
X104592380Y-89278619D01*
X104592380Y-89278619D02*
X104735237Y-89231000D01*
X104735237Y-89231000D02*
X104830475Y-89135761D01*
X104830475Y-89135761D02*
X104878094Y-89040523D01*
X104878094Y-89040523D02*
X104925713Y-88850047D01*
X104925713Y-88850047D02*
X104925713Y-88707190D01*
X104925713Y-88707190D02*
X104878094Y-88516714D01*
X104878094Y-88516714D02*
X104830475Y-88421476D01*
X104830475Y-88421476D02*
X104735237Y-88326238D01*
X104735237Y-88326238D02*
X104592380Y-88278619D01*
X104592380Y-88278619D02*
X104497142Y-88278619D01*
X104497142Y-88278619D02*
X104354285Y-88326238D01*
X104354285Y-88326238D02*
X104306666Y-88373857D01*
X103973332Y-88278619D02*
X103306666Y-88278619D01*
X103306666Y-88278619D02*
X103735237Y-89278619D01*
D11*
X56714923Y-89652819D02*
X56714923Y-90367104D01*
X56714923Y-90367104D02*
X56762542Y-90509961D01*
X56762542Y-90509961D02*
X56857780Y-90605200D01*
X56857780Y-90605200D02*
X57000637Y-90652819D01*
X57000637Y-90652819D02*
X57095875Y-90652819D01*
X55714923Y-90652819D02*
X56286351Y-90652819D01*
X56000637Y-90652819D02*
X56000637Y-89652819D01*
X56000637Y-89652819D02*
X56095875Y-89795676D01*
X56095875Y-89795676D02*
X56191113Y-89890914D01*
X56191113Y-89890914D02*
X56286351Y-89938533D01*
X55381589Y-89652819D02*
X54762542Y-89652819D01*
X54762542Y-89652819D02*
X55095875Y-90033771D01*
X55095875Y-90033771D02*
X54953018Y-90033771D01*
X54953018Y-90033771D02*
X54857780Y-90081390D01*
X54857780Y-90081390D02*
X54810161Y-90129009D01*
X54810161Y-90129009D02*
X54762542Y-90224247D01*
X54762542Y-90224247D02*
X54762542Y-90462342D01*
X54762542Y-90462342D02*
X54810161Y-90557580D01*
X54810161Y-90557580D02*
X54857780Y-90605200D01*
X54857780Y-90605200D02*
X54953018Y-90652819D01*
X54953018Y-90652819D02*
X55238732Y-90652819D01*
X55238732Y-90652819D02*
X55333970Y-90605200D01*
X55333970Y-90605200D02*
X55381589Y-90557580D01*
D10*
X90457257Y-115034219D02*
X90790590Y-114558028D01*
X91028685Y-115034219D02*
X91028685Y-114034219D01*
X91028685Y-114034219D02*
X90647733Y-114034219D01*
X90647733Y-114034219D02*
X90552495Y-114081838D01*
X90552495Y-114081838D02*
X90504876Y-114129457D01*
X90504876Y-114129457D02*
X90457257Y-114224695D01*
X90457257Y-114224695D02*
X90457257Y-114367552D01*
X90457257Y-114367552D02*
X90504876Y-114462790D01*
X90504876Y-114462790D02*
X90552495Y-114510409D01*
X90552495Y-114510409D02*
X90647733Y-114558028D01*
X90647733Y-114558028D02*
X91028685Y-114558028D01*
X89504876Y-115034219D02*
X90076304Y-115034219D01*
X89790590Y-115034219D02*
X89790590Y-114034219D01*
X89790590Y-114034219D02*
X89885828Y-114177076D01*
X89885828Y-114177076D02*
X89981066Y-114272314D01*
X89981066Y-114272314D02*
X90076304Y-114319933D01*
X88933447Y-114462790D02*
X89028685Y-114415171D01*
X89028685Y-114415171D02*
X89076304Y-114367552D01*
X89076304Y-114367552D02*
X89123923Y-114272314D01*
X89123923Y-114272314D02*
X89123923Y-114224695D01*
X89123923Y-114224695D02*
X89076304Y-114129457D01*
X89076304Y-114129457D02*
X89028685Y-114081838D01*
X89028685Y-114081838D02*
X88933447Y-114034219D01*
X88933447Y-114034219D02*
X88742971Y-114034219D01*
X88742971Y-114034219D02*
X88647733Y-114081838D01*
X88647733Y-114081838D02*
X88600114Y-114129457D01*
X88600114Y-114129457D02*
X88552495Y-114224695D01*
X88552495Y-114224695D02*
X88552495Y-114272314D01*
X88552495Y-114272314D02*
X88600114Y-114367552D01*
X88600114Y-114367552D02*
X88647733Y-114415171D01*
X88647733Y-114415171D02*
X88742971Y-114462790D01*
X88742971Y-114462790D02*
X88933447Y-114462790D01*
X88933447Y-114462790D02*
X89028685Y-114510409D01*
X89028685Y-114510409D02*
X89076304Y-114558028D01*
X89076304Y-114558028D02*
X89123923Y-114653266D01*
X89123923Y-114653266D02*
X89123923Y-114843742D01*
X89123923Y-114843742D02*
X89076304Y-114938980D01*
X89076304Y-114938980D02*
X89028685Y-114986600D01*
X89028685Y-114986600D02*
X88933447Y-115034219D01*
X88933447Y-115034219D02*
X88742971Y-115034219D01*
X88742971Y-115034219D02*
X88647733Y-114986600D01*
X88647733Y-114986600D02*
X88600114Y-114938980D01*
X88600114Y-114938980D02*
X88552495Y-114843742D01*
X88552495Y-114843742D02*
X88552495Y-114653266D01*
X88552495Y-114653266D02*
X88600114Y-114558028D01*
X88600114Y-114558028D02*
X88647733Y-114510409D01*
X88647733Y-114510409D02*
X88742971Y-114462790D01*
X57843657Y-102569180D02*
X57891276Y-102616800D01*
X57891276Y-102616800D02*
X58034133Y-102664419D01*
X58034133Y-102664419D02*
X58129371Y-102664419D01*
X58129371Y-102664419D02*
X58272228Y-102616800D01*
X58272228Y-102616800D02*
X58367466Y-102521561D01*
X58367466Y-102521561D02*
X58415085Y-102426323D01*
X58415085Y-102426323D02*
X58462704Y-102235847D01*
X58462704Y-102235847D02*
X58462704Y-102092990D01*
X58462704Y-102092990D02*
X58415085Y-101902514D01*
X58415085Y-101902514D02*
X58367466Y-101807276D01*
X58367466Y-101807276D02*
X58272228Y-101712038D01*
X58272228Y-101712038D02*
X58129371Y-101664419D01*
X58129371Y-101664419D02*
X58034133Y-101664419D01*
X58034133Y-101664419D02*
X57891276Y-101712038D01*
X57891276Y-101712038D02*
X57843657Y-101759657D01*
X57510323Y-101664419D02*
X56891276Y-101664419D01*
X56891276Y-101664419D02*
X57224609Y-102045371D01*
X57224609Y-102045371D02*
X57081752Y-102045371D01*
X57081752Y-102045371D02*
X56986514Y-102092990D01*
X56986514Y-102092990D02*
X56938895Y-102140609D01*
X56938895Y-102140609D02*
X56891276Y-102235847D01*
X56891276Y-102235847D02*
X56891276Y-102473942D01*
X56891276Y-102473942D02*
X56938895Y-102569180D01*
X56938895Y-102569180D02*
X56986514Y-102616800D01*
X56986514Y-102616800D02*
X57081752Y-102664419D01*
X57081752Y-102664419D02*
X57367466Y-102664419D01*
X57367466Y-102664419D02*
X57462704Y-102616800D01*
X57462704Y-102616800D02*
X57510323Y-102569180D01*
X56557942Y-101664419D02*
X55891276Y-101664419D01*
X55891276Y-101664419D02*
X56319847Y-102664419D01*
X60383657Y-83646180D02*
X60431276Y-83693800D01*
X60431276Y-83693800D02*
X60574133Y-83741419D01*
X60574133Y-83741419D02*
X60669371Y-83741419D01*
X60669371Y-83741419D02*
X60812228Y-83693800D01*
X60812228Y-83693800D02*
X60907466Y-83598561D01*
X60907466Y-83598561D02*
X60955085Y-83503323D01*
X60955085Y-83503323D02*
X61002704Y-83312847D01*
X61002704Y-83312847D02*
X61002704Y-83169990D01*
X61002704Y-83169990D02*
X60955085Y-82979514D01*
X60955085Y-82979514D02*
X60907466Y-82884276D01*
X60907466Y-82884276D02*
X60812228Y-82789038D01*
X60812228Y-82789038D02*
X60669371Y-82741419D01*
X60669371Y-82741419D02*
X60574133Y-82741419D01*
X60574133Y-82741419D02*
X60431276Y-82789038D01*
X60431276Y-82789038D02*
X60383657Y-82836657D01*
X60050323Y-82741419D02*
X59431276Y-82741419D01*
X59431276Y-82741419D02*
X59764609Y-83122371D01*
X59764609Y-83122371D02*
X59621752Y-83122371D01*
X59621752Y-83122371D02*
X59526514Y-83169990D01*
X59526514Y-83169990D02*
X59478895Y-83217609D01*
X59478895Y-83217609D02*
X59431276Y-83312847D01*
X59431276Y-83312847D02*
X59431276Y-83550942D01*
X59431276Y-83550942D02*
X59478895Y-83646180D01*
X59478895Y-83646180D02*
X59526514Y-83693800D01*
X59526514Y-83693800D02*
X59621752Y-83741419D01*
X59621752Y-83741419D02*
X59907466Y-83741419D01*
X59907466Y-83741419D02*
X60002704Y-83693800D01*
X60002704Y-83693800D02*
X60050323Y-83646180D01*
X58526514Y-82741419D02*
X59002704Y-82741419D01*
X59002704Y-82741419D02*
X59050323Y-83217609D01*
X59050323Y-83217609D02*
X59002704Y-83169990D01*
X59002704Y-83169990D02*
X58907466Y-83122371D01*
X58907466Y-83122371D02*
X58669371Y-83122371D01*
X58669371Y-83122371D02*
X58574133Y-83169990D01*
X58574133Y-83169990D02*
X58526514Y-83217609D01*
X58526514Y-83217609D02*
X58478895Y-83312847D01*
X58478895Y-83312847D02*
X58478895Y-83550942D01*
X58478895Y-83550942D02*
X58526514Y-83646180D01*
X58526514Y-83646180D02*
X58574133Y-83693800D01*
X58574133Y-83693800D02*
X58669371Y-83741419D01*
X58669371Y-83741419D02*
X58907466Y-83741419D01*
X58907466Y-83741419D02*
X59002704Y-83693800D01*
X59002704Y-83693800D02*
X59050323Y-83646180D01*
D11*
X57756323Y-55820019D02*
X57756323Y-56534304D01*
X57756323Y-56534304D02*
X57803942Y-56677161D01*
X57803942Y-56677161D02*
X57899180Y-56772400D01*
X57899180Y-56772400D02*
X58042037Y-56820019D01*
X58042037Y-56820019D02*
X58137275Y-56820019D01*
X56756323Y-56820019D02*
X57327751Y-56820019D01*
X57042037Y-56820019D02*
X57042037Y-55820019D01*
X57042037Y-55820019D02*
X57137275Y-55962876D01*
X57137275Y-55962876D02*
X57232513Y-56058114D01*
X57232513Y-56058114D02*
X57327751Y-56105733D01*
X55803942Y-56820019D02*
X56375370Y-56820019D01*
X56089656Y-56820019D02*
X56089656Y-55820019D01*
X56089656Y-55820019D02*
X56184894Y-55962876D01*
X56184894Y-55962876D02*
X56280132Y-56058114D01*
X56280132Y-56058114D02*
X56375370Y-56105733D01*
D10*
X123255066Y-89107180D02*
X123302685Y-89154800D01*
X123302685Y-89154800D02*
X123445542Y-89202419D01*
X123445542Y-89202419D02*
X123540780Y-89202419D01*
X123540780Y-89202419D02*
X123683637Y-89154800D01*
X123683637Y-89154800D02*
X123778875Y-89059561D01*
X123778875Y-89059561D02*
X123826494Y-88964323D01*
X123826494Y-88964323D02*
X123874113Y-88773847D01*
X123874113Y-88773847D02*
X123874113Y-88630990D01*
X123874113Y-88630990D02*
X123826494Y-88440514D01*
X123826494Y-88440514D02*
X123778875Y-88345276D01*
X123778875Y-88345276D02*
X123683637Y-88250038D01*
X123683637Y-88250038D02*
X123540780Y-88202419D01*
X123540780Y-88202419D02*
X123445542Y-88202419D01*
X123445542Y-88202419D02*
X123302685Y-88250038D01*
X123302685Y-88250038D02*
X123255066Y-88297657D01*
X122683637Y-88630990D02*
X122778875Y-88583371D01*
X122778875Y-88583371D02*
X122826494Y-88535752D01*
X122826494Y-88535752D02*
X122874113Y-88440514D01*
X122874113Y-88440514D02*
X122874113Y-88392895D01*
X122874113Y-88392895D02*
X122826494Y-88297657D01*
X122826494Y-88297657D02*
X122778875Y-88250038D01*
X122778875Y-88250038D02*
X122683637Y-88202419D01*
X122683637Y-88202419D02*
X122493161Y-88202419D01*
X122493161Y-88202419D02*
X122397923Y-88250038D01*
X122397923Y-88250038D02*
X122350304Y-88297657D01*
X122350304Y-88297657D02*
X122302685Y-88392895D01*
X122302685Y-88392895D02*
X122302685Y-88440514D01*
X122302685Y-88440514D02*
X122350304Y-88535752D01*
X122350304Y-88535752D02*
X122397923Y-88583371D01*
X122397923Y-88583371D02*
X122493161Y-88630990D01*
X122493161Y-88630990D02*
X122683637Y-88630990D01*
X122683637Y-88630990D02*
X122778875Y-88678609D01*
X122778875Y-88678609D02*
X122826494Y-88726228D01*
X122826494Y-88726228D02*
X122874113Y-88821466D01*
X122874113Y-88821466D02*
X122874113Y-89011942D01*
X122874113Y-89011942D02*
X122826494Y-89107180D01*
X122826494Y-89107180D02*
X122778875Y-89154800D01*
X122778875Y-89154800D02*
X122683637Y-89202419D01*
X122683637Y-89202419D02*
X122493161Y-89202419D01*
X122493161Y-89202419D02*
X122397923Y-89154800D01*
X122397923Y-89154800D02*
X122350304Y-89107180D01*
X122350304Y-89107180D02*
X122302685Y-89011942D01*
X122302685Y-89011942D02*
X122302685Y-88821466D01*
X122302685Y-88821466D02*
X122350304Y-88726228D01*
X122350304Y-88726228D02*
X122397923Y-88678609D01*
X122397923Y-88678609D02*
X122493161Y-88630990D01*
X64752457Y-43310980D02*
X64800076Y-43358600D01*
X64800076Y-43358600D02*
X64942933Y-43406219D01*
X64942933Y-43406219D02*
X65038171Y-43406219D01*
X65038171Y-43406219D02*
X65181028Y-43358600D01*
X65181028Y-43358600D02*
X65276266Y-43263361D01*
X65276266Y-43263361D02*
X65323885Y-43168123D01*
X65323885Y-43168123D02*
X65371504Y-42977647D01*
X65371504Y-42977647D02*
X65371504Y-42834790D01*
X65371504Y-42834790D02*
X65323885Y-42644314D01*
X65323885Y-42644314D02*
X65276266Y-42549076D01*
X65276266Y-42549076D02*
X65181028Y-42453838D01*
X65181028Y-42453838D02*
X65038171Y-42406219D01*
X65038171Y-42406219D02*
X64942933Y-42406219D01*
X64942933Y-42406219D02*
X64800076Y-42453838D01*
X64800076Y-42453838D02*
X64752457Y-42501457D01*
X64371504Y-42501457D02*
X64323885Y-42453838D01*
X64323885Y-42453838D02*
X64228647Y-42406219D01*
X64228647Y-42406219D02*
X63990552Y-42406219D01*
X63990552Y-42406219D02*
X63895314Y-42453838D01*
X63895314Y-42453838D02*
X63847695Y-42501457D01*
X63847695Y-42501457D02*
X63800076Y-42596695D01*
X63800076Y-42596695D02*
X63800076Y-42691933D01*
X63800076Y-42691933D02*
X63847695Y-42834790D01*
X63847695Y-42834790D02*
X64419123Y-43406219D01*
X64419123Y-43406219D02*
X63800076Y-43406219D01*
X62847695Y-43406219D02*
X63419123Y-43406219D01*
X63133409Y-43406219D02*
X63133409Y-42406219D01*
X63133409Y-42406219D02*
X63228647Y-42549076D01*
X63228647Y-42549076D02*
X63323885Y-42644314D01*
X63323885Y-42644314D02*
X63419123Y-42691933D01*
X115019057Y-97076419D02*
X115352390Y-96600228D01*
X115590485Y-97076419D02*
X115590485Y-96076419D01*
X115590485Y-96076419D02*
X115209533Y-96076419D01*
X115209533Y-96076419D02*
X115114295Y-96124038D01*
X115114295Y-96124038D02*
X115066676Y-96171657D01*
X115066676Y-96171657D02*
X115019057Y-96266895D01*
X115019057Y-96266895D02*
X115019057Y-96409752D01*
X115019057Y-96409752D02*
X115066676Y-96504990D01*
X115066676Y-96504990D02*
X115114295Y-96552609D01*
X115114295Y-96552609D02*
X115209533Y-96600228D01*
X115209533Y-96600228D02*
X115590485Y-96600228D01*
X114066676Y-97076419D02*
X114638104Y-97076419D01*
X114352390Y-97076419D02*
X114352390Y-96076419D01*
X114352390Y-96076419D02*
X114447628Y-96219276D01*
X114447628Y-96219276D02*
X114542866Y-96314514D01*
X114542866Y-96314514D02*
X114638104Y-96362133D01*
X113447628Y-96076419D02*
X113352390Y-96076419D01*
X113352390Y-96076419D02*
X113257152Y-96124038D01*
X113257152Y-96124038D02*
X113209533Y-96171657D01*
X113209533Y-96171657D02*
X113161914Y-96266895D01*
X113161914Y-96266895D02*
X113114295Y-96457371D01*
X113114295Y-96457371D02*
X113114295Y-96695466D01*
X113114295Y-96695466D02*
X113161914Y-96885942D01*
X113161914Y-96885942D02*
X113209533Y-96981180D01*
X113209533Y-96981180D02*
X113257152Y-97028800D01*
X113257152Y-97028800D02*
X113352390Y-97076419D01*
X113352390Y-97076419D02*
X113447628Y-97076419D01*
X113447628Y-97076419D02*
X113542866Y-97028800D01*
X113542866Y-97028800D02*
X113590485Y-96981180D01*
X113590485Y-96981180D02*
X113638104Y-96885942D01*
X113638104Y-96885942D02*
X113685723Y-96695466D01*
X113685723Y-96695466D02*
X113685723Y-96457371D01*
X113685723Y-96457371D02*
X113638104Y-96266895D01*
X113638104Y-96266895D02*
X113590485Y-96171657D01*
X113590485Y-96171657D02*
X113542866Y-96124038D01*
X113542866Y-96124038D02*
X113447628Y-96076419D01*
X124950457Y-137824380D02*
X124998076Y-137872000D01*
X124998076Y-137872000D02*
X125140933Y-137919619D01*
X125140933Y-137919619D02*
X125236171Y-137919619D01*
X125236171Y-137919619D02*
X125379028Y-137872000D01*
X125379028Y-137872000D02*
X125474266Y-137776761D01*
X125474266Y-137776761D02*
X125521885Y-137681523D01*
X125521885Y-137681523D02*
X125569504Y-137491047D01*
X125569504Y-137491047D02*
X125569504Y-137348190D01*
X125569504Y-137348190D02*
X125521885Y-137157714D01*
X125521885Y-137157714D02*
X125474266Y-137062476D01*
X125474266Y-137062476D02*
X125379028Y-136967238D01*
X125379028Y-136967238D02*
X125236171Y-136919619D01*
X125236171Y-136919619D02*
X125140933Y-136919619D01*
X125140933Y-136919619D02*
X124998076Y-136967238D01*
X124998076Y-136967238D02*
X124950457Y-137014857D01*
X123998076Y-137919619D02*
X124569504Y-137919619D01*
X124283790Y-137919619D02*
X124283790Y-136919619D01*
X124283790Y-136919619D02*
X124379028Y-137062476D01*
X124379028Y-137062476D02*
X124474266Y-137157714D01*
X124474266Y-137157714D02*
X124569504Y-137205333D01*
X123140933Y-136919619D02*
X123331409Y-136919619D01*
X123331409Y-136919619D02*
X123426647Y-136967238D01*
X123426647Y-136967238D02*
X123474266Y-137014857D01*
X123474266Y-137014857D02*
X123569504Y-137157714D01*
X123569504Y-137157714D02*
X123617123Y-137348190D01*
X123617123Y-137348190D02*
X123617123Y-137729142D01*
X123617123Y-137729142D02*
X123569504Y-137824380D01*
X123569504Y-137824380D02*
X123521885Y-137872000D01*
X123521885Y-137872000D02*
X123426647Y-137919619D01*
X123426647Y-137919619D02*
X123236171Y-137919619D01*
X123236171Y-137919619D02*
X123140933Y-137872000D01*
X123140933Y-137872000D02*
X123093314Y-137824380D01*
X123093314Y-137824380D02*
X123045695Y-137729142D01*
X123045695Y-137729142D02*
X123045695Y-137491047D01*
X123045695Y-137491047D02*
X123093314Y-137395809D01*
X123093314Y-137395809D02*
X123140933Y-137348190D01*
X123140933Y-137348190D02*
X123236171Y-137300571D01*
X123236171Y-137300571D02*
X123426647Y-137300571D01*
X123426647Y-137300571D02*
X123521885Y-137348190D01*
X123521885Y-137348190D02*
X123569504Y-137395809D01*
X123569504Y-137395809D02*
X123617123Y-137491047D01*
X129808266Y-53674180D02*
X129855885Y-53721800D01*
X129855885Y-53721800D02*
X129998742Y-53769419D01*
X129998742Y-53769419D02*
X130093980Y-53769419D01*
X130093980Y-53769419D02*
X130236837Y-53721800D01*
X130236837Y-53721800D02*
X130332075Y-53626561D01*
X130332075Y-53626561D02*
X130379694Y-53531323D01*
X130379694Y-53531323D02*
X130427313Y-53340847D01*
X130427313Y-53340847D02*
X130427313Y-53197990D01*
X130427313Y-53197990D02*
X130379694Y-53007514D01*
X130379694Y-53007514D02*
X130332075Y-52912276D01*
X130332075Y-52912276D02*
X130236837Y-52817038D01*
X130236837Y-52817038D02*
X130093980Y-52769419D01*
X130093980Y-52769419D02*
X129998742Y-52769419D01*
X129998742Y-52769419D02*
X129855885Y-52817038D01*
X129855885Y-52817038D02*
X129808266Y-52864657D01*
X128855885Y-53769419D02*
X129427313Y-53769419D01*
X129141599Y-53769419D02*
X129141599Y-52769419D01*
X129141599Y-52769419D02*
X129236837Y-52912276D01*
X129236837Y-52912276D02*
X129332075Y-53007514D01*
X129332075Y-53007514D02*
X129427313Y-53055133D01*
X87157157Y-107660619D02*
X87490490Y-107184428D01*
X87728585Y-107660619D02*
X87728585Y-106660619D01*
X87728585Y-106660619D02*
X87347633Y-106660619D01*
X87347633Y-106660619D02*
X87252395Y-106708238D01*
X87252395Y-106708238D02*
X87204776Y-106755857D01*
X87204776Y-106755857D02*
X87157157Y-106851095D01*
X87157157Y-106851095D02*
X87157157Y-106993952D01*
X87157157Y-106993952D02*
X87204776Y-107089190D01*
X87204776Y-107089190D02*
X87252395Y-107136809D01*
X87252395Y-107136809D02*
X87347633Y-107184428D01*
X87347633Y-107184428D02*
X87728585Y-107184428D01*
X86204776Y-107660619D02*
X86776204Y-107660619D01*
X86490490Y-107660619D02*
X86490490Y-106660619D01*
X86490490Y-106660619D02*
X86585728Y-106803476D01*
X86585728Y-106803476D02*
X86680966Y-106898714D01*
X86680966Y-106898714D02*
X86776204Y-106946333D01*
X85347633Y-106660619D02*
X85538109Y-106660619D01*
X85538109Y-106660619D02*
X85633347Y-106708238D01*
X85633347Y-106708238D02*
X85680966Y-106755857D01*
X85680966Y-106755857D02*
X85776204Y-106898714D01*
X85776204Y-106898714D02*
X85823823Y-107089190D01*
X85823823Y-107089190D02*
X85823823Y-107470142D01*
X85823823Y-107470142D02*
X85776204Y-107565380D01*
X85776204Y-107565380D02*
X85728585Y-107613000D01*
X85728585Y-107613000D02*
X85633347Y-107660619D01*
X85633347Y-107660619D02*
X85442871Y-107660619D01*
X85442871Y-107660619D02*
X85347633Y-107613000D01*
X85347633Y-107613000D02*
X85300014Y-107565380D01*
X85300014Y-107565380D02*
X85252395Y-107470142D01*
X85252395Y-107470142D02*
X85252395Y-107232047D01*
X85252395Y-107232047D02*
X85300014Y-107136809D01*
X85300014Y-107136809D02*
X85347633Y-107089190D01*
X85347633Y-107089190D02*
X85442871Y-107041571D01*
X85442871Y-107041571D02*
X85633347Y-107041571D01*
X85633347Y-107041571D02*
X85728585Y-107089190D01*
X85728585Y-107089190D02*
X85776204Y-107136809D01*
X85776204Y-107136809D02*
X85823823Y-107232047D01*
X123745777Y-54204467D02*
X123745777Y-53417065D01*
X123745777Y-53417065D02*
X123558300Y-53417065D01*
X123558300Y-53417065D02*
X123445814Y-53454560D01*
X123445814Y-53454560D02*
X123370824Y-53529551D01*
X123370824Y-53529551D02*
X123333328Y-53604542D01*
X123333328Y-53604542D02*
X123295833Y-53754523D01*
X123295833Y-53754523D02*
X123295833Y-53867009D01*
X123295833Y-53867009D02*
X123333328Y-54016990D01*
X123333328Y-54016990D02*
X123370824Y-54091981D01*
X123370824Y-54091981D02*
X123445814Y-54166972D01*
X123445814Y-54166972D02*
X123558300Y-54204467D01*
X123558300Y-54204467D02*
X123745777Y-54204467D01*
X122545926Y-54204467D02*
X122995870Y-54204467D01*
X122770898Y-54204467D02*
X122770898Y-53417065D01*
X122770898Y-53417065D02*
X122845889Y-53529551D01*
X122845889Y-53529551D02*
X122920880Y-53604542D01*
X122920880Y-53604542D02*
X122995870Y-53642037D01*
D11*
X96453133Y-73539219D02*
X96453133Y-74253504D01*
X96453133Y-74253504D02*
X96500752Y-74396361D01*
X96500752Y-74396361D02*
X96595990Y-74491600D01*
X96595990Y-74491600D02*
X96738847Y-74539219D01*
X96738847Y-74539219D02*
X96834085Y-74539219D01*
X96072180Y-73539219D02*
X95405514Y-73539219D01*
X95405514Y-73539219D02*
X95834085Y-74539219D01*
D10*
X60434457Y-47654380D02*
X60482076Y-47702000D01*
X60482076Y-47702000D02*
X60624933Y-47749619D01*
X60624933Y-47749619D02*
X60720171Y-47749619D01*
X60720171Y-47749619D02*
X60863028Y-47702000D01*
X60863028Y-47702000D02*
X60958266Y-47606761D01*
X60958266Y-47606761D02*
X61005885Y-47511523D01*
X61005885Y-47511523D02*
X61053504Y-47321047D01*
X61053504Y-47321047D02*
X61053504Y-47178190D01*
X61053504Y-47178190D02*
X61005885Y-46987714D01*
X61005885Y-46987714D02*
X60958266Y-46892476D01*
X60958266Y-46892476D02*
X60863028Y-46797238D01*
X60863028Y-46797238D02*
X60720171Y-46749619D01*
X60720171Y-46749619D02*
X60624933Y-46749619D01*
X60624933Y-46749619D02*
X60482076Y-46797238D01*
X60482076Y-46797238D02*
X60434457Y-46844857D01*
X60053504Y-46844857D02*
X60005885Y-46797238D01*
X60005885Y-46797238D02*
X59910647Y-46749619D01*
X59910647Y-46749619D02*
X59672552Y-46749619D01*
X59672552Y-46749619D02*
X59577314Y-46797238D01*
X59577314Y-46797238D02*
X59529695Y-46844857D01*
X59529695Y-46844857D02*
X59482076Y-46940095D01*
X59482076Y-46940095D02*
X59482076Y-47035333D01*
X59482076Y-47035333D02*
X59529695Y-47178190D01*
X59529695Y-47178190D02*
X60101123Y-47749619D01*
X60101123Y-47749619D02*
X59482076Y-47749619D01*
X59005885Y-47749619D02*
X58815409Y-47749619D01*
X58815409Y-47749619D02*
X58720171Y-47702000D01*
X58720171Y-47702000D02*
X58672552Y-47654380D01*
X58672552Y-47654380D02*
X58577314Y-47511523D01*
X58577314Y-47511523D02*
X58529695Y-47321047D01*
X58529695Y-47321047D02*
X58529695Y-46940095D01*
X58529695Y-46940095D02*
X58577314Y-46844857D01*
X58577314Y-46844857D02*
X58624933Y-46797238D01*
X58624933Y-46797238D02*
X58720171Y-46749619D01*
X58720171Y-46749619D02*
X58910647Y-46749619D01*
X58910647Y-46749619D02*
X59005885Y-46797238D01*
X59005885Y-46797238D02*
X59053504Y-46844857D01*
X59053504Y-46844857D02*
X59101123Y-46940095D01*
X59101123Y-46940095D02*
X59101123Y-47178190D01*
X59101123Y-47178190D02*
X59053504Y-47273428D01*
X59053504Y-47273428D02*
X59005885Y-47321047D01*
X59005885Y-47321047D02*
X58910647Y-47368666D01*
X58910647Y-47368666D02*
X58720171Y-47368666D01*
X58720171Y-47368666D02*
X58624933Y-47321047D01*
X58624933Y-47321047D02*
X58577314Y-47273428D01*
X58577314Y-47273428D02*
X58529695Y-47178190D01*
X135867733Y-31509619D02*
X135867733Y-32223904D01*
X135867733Y-32223904D02*
X135915352Y-32366761D01*
X135915352Y-32366761D02*
X136010590Y-32462000D01*
X136010590Y-32462000D02*
X136153447Y-32509619D01*
X136153447Y-32509619D02*
X136248685Y-32509619D01*
X135439161Y-31604857D02*
X135391542Y-31557238D01*
X135391542Y-31557238D02*
X135296304Y-31509619D01*
X135296304Y-31509619D02*
X135058209Y-31509619D01*
X135058209Y-31509619D02*
X134962971Y-31557238D01*
X134962971Y-31557238D02*
X134915352Y-31604857D01*
X134915352Y-31604857D02*
X134867733Y-31700095D01*
X134867733Y-31700095D02*
X134867733Y-31795333D01*
X134867733Y-31795333D02*
X134915352Y-31938190D01*
X134915352Y-31938190D02*
X135486780Y-32509619D01*
X135486780Y-32509619D02*
X134867733Y-32509619D01*
X64828657Y-34547980D02*
X64876276Y-34595600D01*
X64876276Y-34595600D02*
X65019133Y-34643219D01*
X65019133Y-34643219D02*
X65114371Y-34643219D01*
X65114371Y-34643219D02*
X65257228Y-34595600D01*
X65257228Y-34595600D02*
X65352466Y-34500361D01*
X65352466Y-34500361D02*
X65400085Y-34405123D01*
X65400085Y-34405123D02*
X65447704Y-34214647D01*
X65447704Y-34214647D02*
X65447704Y-34071790D01*
X65447704Y-34071790D02*
X65400085Y-33881314D01*
X65400085Y-33881314D02*
X65352466Y-33786076D01*
X65352466Y-33786076D02*
X65257228Y-33690838D01*
X65257228Y-33690838D02*
X65114371Y-33643219D01*
X65114371Y-33643219D02*
X65019133Y-33643219D01*
X65019133Y-33643219D02*
X64876276Y-33690838D01*
X64876276Y-33690838D02*
X64828657Y-33738457D01*
X63876276Y-34643219D02*
X64447704Y-34643219D01*
X64161990Y-34643219D02*
X64161990Y-33643219D01*
X64161990Y-33643219D02*
X64257228Y-33786076D01*
X64257228Y-33786076D02*
X64352466Y-33881314D01*
X64352466Y-33881314D02*
X64447704Y-33928933D01*
X63304847Y-34071790D02*
X63400085Y-34024171D01*
X63400085Y-34024171D02*
X63447704Y-33976552D01*
X63447704Y-33976552D02*
X63495323Y-33881314D01*
X63495323Y-33881314D02*
X63495323Y-33833695D01*
X63495323Y-33833695D02*
X63447704Y-33738457D01*
X63447704Y-33738457D02*
X63400085Y-33690838D01*
X63400085Y-33690838D02*
X63304847Y-33643219D01*
X63304847Y-33643219D02*
X63114371Y-33643219D01*
X63114371Y-33643219D02*
X63019133Y-33690838D01*
X63019133Y-33690838D02*
X62971514Y-33738457D01*
X62971514Y-33738457D02*
X62923895Y-33833695D01*
X62923895Y-33833695D02*
X62923895Y-33881314D01*
X62923895Y-33881314D02*
X62971514Y-33976552D01*
X62971514Y-33976552D02*
X63019133Y-34024171D01*
X63019133Y-34024171D02*
X63114371Y-34071790D01*
X63114371Y-34071790D02*
X63304847Y-34071790D01*
X63304847Y-34071790D02*
X63400085Y-34119409D01*
X63400085Y-34119409D02*
X63447704Y-34167028D01*
X63447704Y-34167028D02*
X63495323Y-34262266D01*
X63495323Y-34262266D02*
X63495323Y-34452742D01*
X63495323Y-34452742D02*
X63447704Y-34547980D01*
X63447704Y-34547980D02*
X63400085Y-34595600D01*
X63400085Y-34595600D02*
X63304847Y-34643219D01*
X63304847Y-34643219D02*
X63114371Y-34643219D01*
X63114371Y-34643219D02*
X63019133Y-34595600D01*
X63019133Y-34595600D02*
X62971514Y-34547980D01*
X62971514Y-34547980D02*
X62923895Y-34452742D01*
X62923895Y-34452742D02*
X62923895Y-34262266D01*
X62923895Y-34262266D02*
X62971514Y-34167028D01*
X62971514Y-34167028D02*
X63019133Y-34119409D01*
X63019133Y-34119409D02*
X63114371Y-34071790D01*
X106465666Y-89208780D02*
X106513285Y-89256400D01*
X106513285Y-89256400D02*
X106656142Y-89304019D01*
X106656142Y-89304019D02*
X106751380Y-89304019D01*
X106751380Y-89304019D02*
X106894237Y-89256400D01*
X106894237Y-89256400D02*
X106989475Y-89161161D01*
X106989475Y-89161161D02*
X107037094Y-89065923D01*
X107037094Y-89065923D02*
X107084713Y-88875447D01*
X107084713Y-88875447D02*
X107084713Y-88732590D01*
X107084713Y-88732590D02*
X107037094Y-88542114D01*
X107037094Y-88542114D02*
X106989475Y-88446876D01*
X106989475Y-88446876D02*
X106894237Y-88351638D01*
X106894237Y-88351638D02*
X106751380Y-88304019D01*
X106751380Y-88304019D02*
X106656142Y-88304019D01*
X106656142Y-88304019D02*
X106513285Y-88351638D01*
X106513285Y-88351638D02*
X106465666Y-88399257D01*
X105608523Y-88304019D02*
X105798999Y-88304019D01*
X105798999Y-88304019D02*
X105894237Y-88351638D01*
X105894237Y-88351638D02*
X105941856Y-88399257D01*
X105941856Y-88399257D02*
X106037094Y-88542114D01*
X106037094Y-88542114D02*
X106084713Y-88732590D01*
X106084713Y-88732590D02*
X106084713Y-89113542D01*
X106084713Y-89113542D02*
X106037094Y-89208780D01*
X106037094Y-89208780D02*
X105989475Y-89256400D01*
X105989475Y-89256400D02*
X105894237Y-89304019D01*
X105894237Y-89304019D02*
X105703761Y-89304019D01*
X105703761Y-89304019D02*
X105608523Y-89256400D01*
X105608523Y-89256400D02*
X105560904Y-89208780D01*
X105560904Y-89208780D02*
X105513285Y-89113542D01*
X105513285Y-89113542D02*
X105513285Y-88875447D01*
X105513285Y-88875447D02*
X105560904Y-88780209D01*
X105560904Y-88780209D02*
X105608523Y-88732590D01*
X105608523Y-88732590D02*
X105703761Y-88684971D01*
X105703761Y-88684971D02*
X105894237Y-88684971D01*
X105894237Y-88684971D02*
X105989475Y-88732590D01*
X105989475Y-88732590D02*
X106037094Y-88780209D01*
X106037094Y-88780209D02*
X106084713Y-88875447D01*
X81033857Y-75384819D02*
X81367190Y-74908628D01*
X81605285Y-75384819D02*
X81605285Y-74384819D01*
X81605285Y-74384819D02*
X81224333Y-74384819D01*
X81224333Y-74384819D02*
X81129095Y-74432438D01*
X81129095Y-74432438D02*
X81081476Y-74480057D01*
X81081476Y-74480057D02*
X81033857Y-74575295D01*
X81033857Y-74575295D02*
X81033857Y-74718152D01*
X81033857Y-74718152D02*
X81081476Y-74813390D01*
X81081476Y-74813390D02*
X81129095Y-74861009D01*
X81129095Y-74861009D02*
X81224333Y-74908628D01*
X81224333Y-74908628D02*
X81605285Y-74908628D01*
X80081476Y-75384819D02*
X80652904Y-75384819D01*
X80367190Y-75384819D02*
X80367190Y-74384819D01*
X80367190Y-74384819D02*
X80462428Y-74527676D01*
X80462428Y-74527676D02*
X80557666Y-74622914D01*
X80557666Y-74622914D02*
X80652904Y-74670533D01*
X79224333Y-74718152D02*
X79224333Y-75384819D01*
X79462428Y-74337200D02*
X79700523Y-75051485D01*
X79700523Y-75051485D02*
X79081476Y-75051485D01*
D11*
X99132923Y-116221219D02*
X99132923Y-116935504D01*
X99132923Y-116935504D02*
X99180542Y-117078361D01*
X99180542Y-117078361D02*
X99275780Y-117173600D01*
X99275780Y-117173600D02*
X99418637Y-117221219D01*
X99418637Y-117221219D02*
X99513875Y-117221219D01*
X98132923Y-117221219D02*
X98704351Y-117221219D01*
X98418637Y-117221219D02*
X98418637Y-116221219D01*
X98418637Y-116221219D02*
X98513875Y-116364076D01*
X98513875Y-116364076D02*
X98609113Y-116459314D01*
X98609113Y-116459314D02*
X98704351Y-116506933D01*
X97799589Y-116221219D02*
X97132923Y-116221219D01*
X97132923Y-116221219D02*
X97561494Y-117221219D01*
D10*
X111234457Y-46485980D02*
X111282076Y-46533600D01*
X111282076Y-46533600D02*
X111424933Y-46581219D01*
X111424933Y-46581219D02*
X111520171Y-46581219D01*
X111520171Y-46581219D02*
X111663028Y-46533600D01*
X111663028Y-46533600D02*
X111758266Y-46438361D01*
X111758266Y-46438361D02*
X111805885Y-46343123D01*
X111805885Y-46343123D02*
X111853504Y-46152647D01*
X111853504Y-46152647D02*
X111853504Y-46009790D01*
X111853504Y-46009790D02*
X111805885Y-45819314D01*
X111805885Y-45819314D02*
X111758266Y-45724076D01*
X111758266Y-45724076D02*
X111663028Y-45628838D01*
X111663028Y-45628838D02*
X111520171Y-45581219D01*
X111520171Y-45581219D02*
X111424933Y-45581219D01*
X111424933Y-45581219D02*
X111282076Y-45628838D01*
X111282076Y-45628838D02*
X111234457Y-45676457D01*
X110853504Y-45676457D02*
X110805885Y-45628838D01*
X110805885Y-45628838D02*
X110710647Y-45581219D01*
X110710647Y-45581219D02*
X110472552Y-45581219D01*
X110472552Y-45581219D02*
X110377314Y-45628838D01*
X110377314Y-45628838D02*
X110329695Y-45676457D01*
X110329695Y-45676457D02*
X110282076Y-45771695D01*
X110282076Y-45771695D02*
X110282076Y-45866933D01*
X110282076Y-45866933D02*
X110329695Y-46009790D01*
X110329695Y-46009790D02*
X110901123Y-46581219D01*
X110901123Y-46581219D02*
X110282076Y-46581219D01*
X109948742Y-45581219D02*
X109282076Y-45581219D01*
X109282076Y-45581219D02*
X109710647Y-46581219D01*
X130679977Y-23851467D02*
X130679977Y-23064065D01*
X130679977Y-23064065D02*
X130492500Y-23064065D01*
X130492500Y-23064065D02*
X130380014Y-23101560D01*
X130380014Y-23101560D02*
X130305024Y-23176551D01*
X130305024Y-23176551D02*
X130267528Y-23251542D01*
X130267528Y-23251542D02*
X130230033Y-23401523D01*
X130230033Y-23401523D02*
X130230033Y-23514009D01*
X130230033Y-23514009D02*
X130267528Y-23663990D01*
X130267528Y-23663990D02*
X130305024Y-23738981D01*
X130305024Y-23738981D02*
X130380014Y-23813972D01*
X130380014Y-23813972D02*
X130492500Y-23851467D01*
X130492500Y-23851467D02*
X130679977Y-23851467D01*
X129930070Y-23139056D02*
X129892575Y-23101560D01*
X129892575Y-23101560D02*
X129817584Y-23064065D01*
X129817584Y-23064065D02*
X129630108Y-23064065D01*
X129630108Y-23064065D02*
X129555117Y-23101560D01*
X129555117Y-23101560D02*
X129517622Y-23139056D01*
X129517622Y-23139056D02*
X129480126Y-23214046D01*
X129480126Y-23214046D02*
X129480126Y-23289037D01*
X129480126Y-23289037D02*
X129517622Y-23401523D01*
X129517622Y-23401523D02*
X129967566Y-23851467D01*
X129967566Y-23851467D02*
X129480126Y-23851467D01*
X128614466Y-44098380D02*
X128662085Y-44146000D01*
X128662085Y-44146000D02*
X128804942Y-44193619D01*
X128804942Y-44193619D02*
X128900180Y-44193619D01*
X128900180Y-44193619D02*
X129043037Y-44146000D01*
X129043037Y-44146000D02*
X129138275Y-44050761D01*
X129138275Y-44050761D02*
X129185894Y-43955523D01*
X129185894Y-43955523D02*
X129233513Y-43765047D01*
X129233513Y-43765047D02*
X129233513Y-43622190D01*
X129233513Y-43622190D02*
X129185894Y-43431714D01*
X129185894Y-43431714D02*
X129138275Y-43336476D01*
X129138275Y-43336476D02*
X129043037Y-43241238D01*
X129043037Y-43241238D02*
X128900180Y-43193619D01*
X128900180Y-43193619D02*
X128804942Y-43193619D01*
X128804942Y-43193619D02*
X128662085Y-43241238D01*
X128662085Y-43241238D02*
X128614466Y-43288857D01*
X128233513Y-43288857D02*
X128185894Y-43241238D01*
X128185894Y-43241238D02*
X128090656Y-43193619D01*
X128090656Y-43193619D02*
X127852561Y-43193619D01*
X127852561Y-43193619D02*
X127757323Y-43241238D01*
X127757323Y-43241238D02*
X127709704Y-43288857D01*
X127709704Y-43288857D02*
X127662085Y-43384095D01*
X127662085Y-43384095D02*
X127662085Y-43479333D01*
X127662085Y-43479333D02*
X127709704Y-43622190D01*
X127709704Y-43622190D02*
X128281132Y-44193619D01*
X128281132Y-44193619D02*
X127662085Y-44193619D01*
X121172266Y-89132580D02*
X121219885Y-89180200D01*
X121219885Y-89180200D02*
X121362742Y-89227819D01*
X121362742Y-89227819D02*
X121457980Y-89227819D01*
X121457980Y-89227819D02*
X121600837Y-89180200D01*
X121600837Y-89180200D02*
X121696075Y-89084961D01*
X121696075Y-89084961D02*
X121743694Y-88989723D01*
X121743694Y-88989723D02*
X121791313Y-88799247D01*
X121791313Y-88799247D02*
X121791313Y-88656390D01*
X121791313Y-88656390D02*
X121743694Y-88465914D01*
X121743694Y-88465914D02*
X121696075Y-88370676D01*
X121696075Y-88370676D02*
X121600837Y-88275438D01*
X121600837Y-88275438D02*
X121457980Y-88227819D01*
X121457980Y-88227819D02*
X121362742Y-88227819D01*
X121362742Y-88227819D02*
X121219885Y-88275438D01*
X121219885Y-88275438D02*
X121172266Y-88323057D01*
X120696075Y-89227819D02*
X120505599Y-89227819D01*
X120505599Y-89227819D02*
X120410361Y-89180200D01*
X120410361Y-89180200D02*
X120362742Y-89132580D01*
X120362742Y-89132580D02*
X120267504Y-88989723D01*
X120267504Y-88989723D02*
X120219885Y-88799247D01*
X120219885Y-88799247D02*
X120219885Y-88418295D01*
X120219885Y-88418295D02*
X120267504Y-88323057D01*
X120267504Y-88323057D02*
X120315123Y-88275438D01*
X120315123Y-88275438D02*
X120410361Y-88227819D01*
X120410361Y-88227819D02*
X120600837Y-88227819D01*
X120600837Y-88227819D02*
X120696075Y-88275438D01*
X120696075Y-88275438D02*
X120743694Y-88323057D01*
X120743694Y-88323057D02*
X120791313Y-88418295D01*
X120791313Y-88418295D02*
X120791313Y-88656390D01*
X120791313Y-88656390D02*
X120743694Y-88751628D01*
X120743694Y-88751628D02*
X120696075Y-88799247D01*
X120696075Y-88799247D02*
X120600837Y-88846866D01*
X120600837Y-88846866D02*
X120410361Y-88846866D01*
X120410361Y-88846866D02*
X120315123Y-88799247D01*
X120315123Y-88799247D02*
X120267504Y-88751628D01*
X120267504Y-88751628D02*
X120219885Y-88656390D01*
X106941857Y-98886180D02*
X106989476Y-98933800D01*
X106989476Y-98933800D02*
X107132333Y-98981419D01*
X107132333Y-98981419D02*
X107227571Y-98981419D01*
X107227571Y-98981419D02*
X107370428Y-98933800D01*
X107370428Y-98933800D02*
X107465666Y-98838561D01*
X107465666Y-98838561D02*
X107513285Y-98743323D01*
X107513285Y-98743323D02*
X107560904Y-98552847D01*
X107560904Y-98552847D02*
X107560904Y-98409990D01*
X107560904Y-98409990D02*
X107513285Y-98219514D01*
X107513285Y-98219514D02*
X107465666Y-98124276D01*
X107465666Y-98124276D02*
X107370428Y-98029038D01*
X107370428Y-98029038D02*
X107227571Y-97981419D01*
X107227571Y-97981419D02*
X107132333Y-97981419D01*
X107132333Y-97981419D02*
X106989476Y-98029038D01*
X106989476Y-98029038D02*
X106941857Y-98076657D01*
X105989476Y-98981419D02*
X106560904Y-98981419D01*
X106275190Y-98981419D02*
X106275190Y-97981419D01*
X106275190Y-97981419D02*
X106370428Y-98124276D01*
X106370428Y-98124276D02*
X106465666Y-98219514D01*
X106465666Y-98219514D02*
X106560904Y-98267133D01*
X105608523Y-98076657D02*
X105560904Y-98029038D01*
X105560904Y-98029038D02*
X105465666Y-97981419D01*
X105465666Y-97981419D02*
X105227571Y-97981419D01*
X105227571Y-97981419D02*
X105132333Y-98029038D01*
X105132333Y-98029038D02*
X105084714Y-98076657D01*
X105084714Y-98076657D02*
X105037095Y-98171895D01*
X105037095Y-98171895D02*
X105037095Y-98267133D01*
X105037095Y-98267133D02*
X105084714Y-98409990D01*
X105084714Y-98409990D02*
X105656142Y-98981419D01*
X105656142Y-98981419D02*
X105037095Y-98981419D01*
X126226866Y-89126219D02*
X126560199Y-88650028D01*
X126798294Y-89126219D02*
X126798294Y-88126219D01*
X126798294Y-88126219D02*
X126417342Y-88126219D01*
X126417342Y-88126219D02*
X126322104Y-88173838D01*
X126322104Y-88173838D02*
X126274485Y-88221457D01*
X126274485Y-88221457D02*
X126226866Y-88316695D01*
X126226866Y-88316695D02*
X126226866Y-88459552D01*
X126226866Y-88459552D02*
X126274485Y-88554790D01*
X126274485Y-88554790D02*
X126322104Y-88602409D01*
X126322104Y-88602409D02*
X126417342Y-88650028D01*
X126417342Y-88650028D02*
X126798294Y-88650028D01*
X125369723Y-88126219D02*
X125560199Y-88126219D01*
X125560199Y-88126219D02*
X125655437Y-88173838D01*
X125655437Y-88173838D02*
X125703056Y-88221457D01*
X125703056Y-88221457D02*
X125798294Y-88364314D01*
X125798294Y-88364314D02*
X125845913Y-88554790D01*
X125845913Y-88554790D02*
X125845913Y-88935742D01*
X125845913Y-88935742D02*
X125798294Y-89030980D01*
X125798294Y-89030980D02*
X125750675Y-89078600D01*
X125750675Y-89078600D02*
X125655437Y-89126219D01*
X125655437Y-89126219D02*
X125464961Y-89126219D01*
X125464961Y-89126219D02*
X125369723Y-89078600D01*
X125369723Y-89078600D02*
X125322104Y-89030980D01*
X125322104Y-89030980D02*
X125274485Y-88935742D01*
X125274485Y-88935742D02*
X125274485Y-88697647D01*
X125274485Y-88697647D02*
X125322104Y-88602409D01*
X125322104Y-88602409D02*
X125369723Y-88554790D01*
X125369723Y-88554790D02*
X125464961Y-88507171D01*
X125464961Y-88507171D02*
X125655437Y-88507171D01*
X125655437Y-88507171D02*
X125750675Y-88554790D01*
X125750675Y-88554790D02*
X125798294Y-88602409D01*
X125798294Y-88602409D02*
X125845913Y-88697647D01*
X102852457Y-94339580D02*
X102900076Y-94387200D01*
X102900076Y-94387200D02*
X103042933Y-94434819D01*
X103042933Y-94434819D02*
X103138171Y-94434819D01*
X103138171Y-94434819D02*
X103281028Y-94387200D01*
X103281028Y-94387200D02*
X103376266Y-94291961D01*
X103376266Y-94291961D02*
X103423885Y-94196723D01*
X103423885Y-94196723D02*
X103471504Y-94006247D01*
X103471504Y-94006247D02*
X103471504Y-93863390D01*
X103471504Y-93863390D02*
X103423885Y-93672914D01*
X103423885Y-93672914D02*
X103376266Y-93577676D01*
X103376266Y-93577676D02*
X103281028Y-93482438D01*
X103281028Y-93482438D02*
X103138171Y-93434819D01*
X103138171Y-93434819D02*
X103042933Y-93434819D01*
X103042933Y-93434819D02*
X102900076Y-93482438D01*
X102900076Y-93482438D02*
X102852457Y-93530057D01*
X101900076Y-94434819D02*
X102471504Y-94434819D01*
X102185790Y-94434819D02*
X102185790Y-93434819D01*
X102185790Y-93434819D02*
X102281028Y-93577676D01*
X102281028Y-93577676D02*
X102376266Y-93672914D01*
X102376266Y-93672914D02*
X102471504Y-93720533D01*
X101566742Y-93434819D02*
X100947695Y-93434819D01*
X100947695Y-93434819D02*
X101281028Y-93815771D01*
X101281028Y-93815771D02*
X101138171Y-93815771D01*
X101138171Y-93815771D02*
X101042933Y-93863390D01*
X101042933Y-93863390D02*
X100995314Y-93911009D01*
X100995314Y-93911009D02*
X100947695Y-94006247D01*
X100947695Y-94006247D02*
X100947695Y-94244342D01*
X100947695Y-94244342D02*
X100995314Y-94339580D01*
X100995314Y-94339580D02*
X101042933Y-94387200D01*
X101042933Y-94387200D02*
X101138171Y-94434819D01*
X101138171Y-94434819D02*
X101423885Y-94434819D01*
X101423885Y-94434819D02*
X101519123Y-94387200D01*
X101519123Y-94387200D02*
X101566742Y-94339580D01*
X60586857Y-64545380D02*
X60634476Y-64593000D01*
X60634476Y-64593000D02*
X60777333Y-64640619D01*
X60777333Y-64640619D02*
X60872571Y-64640619D01*
X60872571Y-64640619D02*
X61015428Y-64593000D01*
X61015428Y-64593000D02*
X61110666Y-64497761D01*
X61110666Y-64497761D02*
X61158285Y-64402523D01*
X61158285Y-64402523D02*
X61205904Y-64212047D01*
X61205904Y-64212047D02*
X61205904Y-64069190D01*
X61205904Y-64069190D02*
X61158285Y-63878714D01*
X61158285Y-63878714D02*
X61110666Y-63783476D01*
X61110666Y-63783476D02*
X61015428Y-63688238D01*
X61015428Y-63688238D02*
X60872571Y-63640619D01*
X60872571Y-63640619D02*
X60777333Y-63640619D01*
X60777333Y-63640619D02*
X60634476Y-63688238D01*
X60634476Y-63688238D02*
X60586857Y-63735857D01*
X60253523Y-63640619D02*
X59634476Y-63640619D01*
X59634476Y-63640619D02*
X59967809Y-64021571D01*
X59967809Y-64021571D02*
X59824952Y-64021571D01*
X59824952Y-64021571D02*
X59729714Y-64069190D01*
X59729714Y-64069190D02*
X59682095Y-64116809D01*
X59682095Y-64116809D02*
X59634476Y-64212047D01*
X59634476Y-64212047D02*
X59634476Y-64450142D01*
X59634476Y-64450142D02*
X59682095Y-64545380D01*
X59682095Y-64545380D02*
X59729714Y-64593000D01*
X59729714Y-64593000D02*
X59824952Y-64640619D01*
X59824952Y-64640619D02*
X60110666Y-64640619D01*
X60110666Y-64640619D02*
X60205904Y-64593000D01*
X60205904Y-64593000D02*
X60253523Y-64545380D01*
X59253523Y-63735857D02*
X59205904Y-63688238D01*
X59205904Y-63688238D02*
X59110666Y-63640619D01*
X59110666Y-63640619D02*
X58872571Y-63640619D01*
X58872571Y-63640619D02*
X58777333Y-63688238D01*
X58777333Y-63688238D02*
X58729714Y-63735857D01*
X58729714Y-63735857D02*
X58682095Y-63831095D01*
X58682095Y-63831095D02*
X58682095Y-63926333D01*
X58682095Y-63926333D02*
X58729714Y-64069190D01*
X58729714Y-64069190D02*
X59301142Y-64640619D01*
X59301142Y-64640619D02*
X58682095Y-64640619D01*
X113353838Y-92599657D02*
X113449076Y-92552038D01*
X113449076Y-92552038D02*
X113544314Y-92456800D01*
X113544314Y-92456800D02*
X113687171Y-92313942D01*
X113687171Y-92313942D02*
X113782409Y-92266323D01*
X113782409Y-92266323D02*
X113877647Y-92266323D01*
X113830028Y-92504419D02*
X113925266Y-92456800D01*
X113925266Y-92456800D02*
X114020504Y-92361561D01*
X114020504Y-92361561D02*
X114068123Y-92171085D01*
X114068123Y-92171085D02*
X114068123Y-91837752D01*
X114068123Y-91837752D02*
X114020504Y-91647276D01*
X114020504Y-91647276D02*
X113925266Y-91552038D01*
X113925266Y-91552038D02*
X113830028Y-91504419D01*
X113830028Y-91504419D02*
X113639552Y-91504419D01*
X113639552Y-91504419D02*
X113544314Y-91552038D01*
X113544314Y-91552038D02*
X113449076Y-91647276D01*
X113449076Y-91647276D02*
X113401457Y-91837752D01*
X113401457Y-91837752D02*
X113401457Y-92171085D01*
X113401457Y-92171085D02*
X113449076Y-92361561D01*
X113449076Y-92361561D02*
X113544314Y-92456800D01*
X113544314Y-92456800D02*
X113639552Y-92504419D01*
X113639552Y-92504419D02*
X113830028Y-92504419D01*
X113068123Y-91504419D02*
X112449076Y-91504419D01*
X112449076Y-91504419D02*
X112782409Y-91885371D01*
X112782409Y-91885371D02*
X112639552Y-91885371D01*
X112639552Y-91885371D02*
X112544314Y-91932990D01*
X112544314Y-91932990D02*
X112496695Y-91980609D01*
X112496695Y-91980609D02*
X112449076Y-92075847D01*
X112449076Y-92075847D02*
X112449076Y-92313942D01*
X112449076Y-92313942D02*
X112496695Y-92409180D01*
X112496695Y-92409180D02*
X112544314Y-92456800D01*
X112544314Y-92456800D02*
X112639552Y-92504419D01*
X112639552Y-92504419D02*
X112925266Y-92504419D01*
X112925266Y-92504419D02*
X113020504Y-92456800D01*
X113020504Y-92456800D02*
X113068123Y-92409180D01*
D11*
X95547933Y-30642619D02*
X95547933Y-31356904D01*
X95547933Y-31356904D02*
X95595552Y-31499761D01*
X95595552Y-31499761D02*
X95690790Y-31595000D01*
X95690790Y-31595000D02*
X95833647Y-31642619D01*
X95833647Y-31642619D02*
X95928885Y-31642619D01*
X94928885Y-31071190D02*
X95024123Y-31023571D01*
X95024123Y-31023571D02*
X95071742Y-30975952D01*
X95071742Y-30975952D02*
X95119361Y-30880714D01*
X95119361Y-30880714D02*
X95119361Y-30833095D01*
X95119361Y-30833095D02*
X95071742Y-30737857D01*
X95071742Y-30737857D02*
X95024123Y-30690238D01*
X95024123Y-30690238D02*
X94928885Y-30642619D01*
X94928885Y-30642619D02*
X94738409Y-30642619D01*
X94738409Y-30642619D02*
X94643171Y-30690238D01*
X94643171Y-30690238D02*
X94595552Y-30737857D01*
X94595552Y-30737857D02*
X94547933Y-30833095D01*
X94547933Y-30833095D02*
X94547933Y-30880714D01*
X94547933Y-30880714D02*
X94595552Y-30975952D01*
X94595552Y-30975952D02*
X94643171Y-31023571D01*
X94643171Y-31023571D02*
X94738409Y-31071190D01*
X94738409Y-31071190D02*
X94928885Y-31071190D01*
X94928885Y-31071190D02*
X95024123Y-31118809D01*
X95024123Y-31118809D02*
X95071742Y-31166428D01*
X95071742Y-31166428D02*
X95119361Y-31261666D01*
X95119361Y-31261666D02*
X95119361Y-31452142D01*
X95119361Y-31452142D02*
X95071742Y-31547380D01*
X95071742Y-31547380D02*
X95024123Y-31595000D01*
X95024123Y-31595000D02*
X94928885Y-31642619D01*
X94928885Y-31642619D02*
X94738409Y-31642619D01*
X94738409Y-31642619D02*
X94643171Y-31595000D01*
X94643171Y-31595000D02*
X94595552Y-31547380D01*
X94595552Y-31547380D02*
X94547933Y-31452142D01*
X94547933Y-31452142D02*
X94547933Y-31261666D01*
X94547933Y-31261666D02*
X94595552Y-31166428D01*
X94595552Y-31166428D02*
X94643171Y-31118809D01*
X94643171Y-31118809D02*
X94738409Y-31071190D01*
D10*
X109403166Y-89304019D02*
X109736499Y-88827828D01*
X109974594Y-89304019D02*
X109974594Y-88304019D01*
X109974594Y-88304019D02*
X109593642Y-88304019D01*
X109593642Y-88304019D02*
X109498404Y-88351638D01*
X109498404Y-88351638D02*
X109450785Y-88399257D01*
X109450785Y-88399257D02*
X109403166Y-88494495D01*
X109403166Y-88494495D02*
X109403166Y-88637352D01*
X109403166Y-88637352D02*
X109450785Y-88732590D01*
X109450785Y-88732590D02*
X109498404Y-88780209D01*
X109498404Y-88780209D02*
X109593642Y-88827828D01*
X109593642Y-88827828D02*
X109974594Y-88827828D01*
X109069832Y-88304019D02*
X108403166Y-88304019D01*
X108403166Y-88304019D02*
X108831737Y-89304019D01*
D11*
X84070723Y-117846819D02*
X84070723Y-118561104D01*
X84070723Y-118561104D02*
X84118342Y-118703961D01*
X84118342Y-118703961D02*
X84213580Y-118799200D01*
X84213580Y-118799200D02*
X84356437Y-118846819D01*
X84356437Y-118846819D02*
X84451675Y-118846819D01*
X83070723Y-118846819D02*
X83642151Y-118846819D01*
X83356437Y-118846819D02*
X83356437Y-117846819D01*
X83356437Y-117846819D02*
X83451675Y-117989676D01*
X83451675Y-117989676D02*
X83546913Y-118084914D01*
X83546913Y-118084914D02*
X83642151Y-118132533D01*
X82213580Y-117846819D02*
X82404056Y-117846819D01*
X82404056Y-117846819D02*
X82499294Y-117894438D01*
X82499294Y-117894438D02*
X82546913Y-117942057D01*
X82546913Y-117942057D02*
X82642151Y-118084914D01*
X82642151Y-118084914D02*
X82689770Y-118275390D01*
X82689770Y-118275390D02*
X82689770Y-118656342D01*
X82689770Y-118656342D02*
X82642151Y-118751580D01*
X82642151Y-118751580D02*
X82594532Y-118799200D01*
X82594532Y-118799200D02*
X82499294Y-118846819D01*
X82499294Y-118846819D02*
X82308818Y-118846819D01*
X82308818Y-118846819D02*
X82213580Y-118799200D01*
X82213580Y-118799200D02*
X82165961Y-118751580D01*
X82165961Y-118751580D02*
X82118342Y-118656342D01*
X82118342Y-118656342D02*
X82118342Y-118418247D01*
X82118342Y-118418247D02*
X82165961Y-118323009D01*
X82165961Y-118323009D02*
X82213580Y-118275390D01*
X82213580Y-118275390D02*
X82308818Y-118227771D01*
X82308818Y-118227771D02*
X82499294Y-118227771D01*
X82499294Y-118227771D02*
X82594532Y-118275390D01*
X82594532Y-118275390D02*
X82642151Y-118323009D01*
X82642151Y-118323009D02*
X82689770Y-118418247D01*
D10*
X130330533Y-34221009D02*
X130663866Y-34221009D01*
X130663866Y-34744819D02*
X130663866Y-33744819D01*
X130663866Y-33744819D02*
X130187676Y-33744819D01*
X129854342Y-33840057D02*
X129806723Y-33792438D01*
X129806723Y-33792438D02*
X129711485Y-33744819D01*
X129711485Y-33744819D02*
X129473390Y-33744819D01*
X129473390Y-33744819D02*
X129378152Y-33792438D01*
X129378152Y-33792438D02*
X129330533Y-33840057D01*
X129330533Y-33840057D02*
X129282914Y-33935295D01*
X129282914Y-33935295D02*
X129282914Y-34030533D01*
X129282914Y-34030533D02*
X129330533Y-34173390D01*
X129330533Y-34173390D02*
X129901961Y-34744819D01*
X129901961Y-34744819D02*
X129282914Y-34744819D01*
X58097657Y-125581580D02*
X58145276Y-125629200D01*
X58145276Y-125629200D02*
X58288133Y-125676819D01*
X58288133Y-125676819D02*
X58383371Y-125676819D01*
X58383371Y-125676819D02*
X58526228Y-125629200D01*
X58526228Y-125629200D02*
X58621466Y-125533961D01*
X58621466Y-125533961D02*
X58669085Y-125438723D01*
X58669085Y-125438723D02*
X58716704Y-125248247D01*
X58716704Y-125248247D02*
X58716704Y-125105390D01*
X58716704Y-125105390D02*
X58669085Y-124914914D01*
X58669085Y-124914914D02*
X58621466Y-124819676D01*
X58621466Y-124819676D02*
X58526228Y-124724438D01*
X58526228Y-124724438D02*
X58383371Y-124676819D01*
X58383371Y-124676819D02*
X58288133Y-124676819D01*
X58288133Y-124676819D02*
X58145276Y-124724438D01*
X58145276Y-124724438D02*
X58097657Y-124772057D01*
X57240514Y-125010152D02*
X57240514Y-125676819D01*
X57478609Y-124629200D02*
X57716704Y-125343485D01*
X57716704Y-125343485D02*
X57097657Y-125343485D01*
X56526228Y-124676819D02*
X56430990Y-124676819D01*
X56430990Y-124676819D02*
X56335752Y-124724438D01*
X56335752Y-124724438D02*
X56288133Y-124772057D01*
X56288133Y-124772057D02*
X56240514Y-124867295D01*
X56240514Y-124867295D02*
X56192895Y-125057771D01*
X56192895Y-125057771D02*
X56192895Y-125295866D01*
X56192895Y-125295866D02*
X56240514Y-125486342D01*
X56240514Y-125486342D02*
X56288133Y-125581580D01*
X56288133Y-125581580D02*
X56335752Y-125629200D01*
X56335752Y-125629200D02*
X56430990Y-125676819D01*
X56430990Y-125676819D02*
X56526228Y-125676819D01*
X56526228Y-125676819D02*
X56621466Y-125629200D01*
X56621466Y-125629200D02*
X56669085Y-125581580D01*
X56669085Y-125581580D02*
X56716704Y-125486342D01*
X56716704Y-125486342D02*
X56764323Y-125295866D01*
X56764323Y-125295866D02*
X56764323Y-125057771D01*
X56764323Y-125057771D02*
X56716704Y-124867295D01*
X56716704Y-124867295D02*
X56669085Y-124772057D01*
X56669085Y-124772057D02*
X56621466Y-124724438D01*
X56621466Y-124724438D02*
X56526228Y-124676819D01*
X83472257Y-115085019D02*
X83805590Y-114608828D01*
X84043685Y-115085019D02*
X84043685Y-114085019D01*
X84043685Y-114085019D02*
X83662733Y-114085019D01*
X83662733Y-114085019D02*
X83567495Y-114132638D01*
X83567495Y-114132638D02*
X83519876Y-114180257D01*
X83519876Y-114180257D02*
X83472257Y-114275495D01*
X83472257Y-114275495D02*
X83472257Y-114418352D01*
X83472257Y-114418352D02*
X83519876Y-114513590D01*
X83519876Y-114513590D02*
X83567495Y-114561209D01*
X83567495Y-114561209D02*
X83662733Y-114608828D01*
X83662733Y-114608828D02*
X84043685Y-114608828D01*
X82519876Y-115085019D02*
X83091304Y-115085019D01*
X82805590Y-115085019D02*
X82805590Y-114085019D01*
X82805590Y-114085019D02*
X82900828Y-114227876D01*
X82900828Y-114227876D02*
X82996066Y-114323114D01*
X82996066Y-114323114D02*
X83091304Y-114370733D01*
X82186542Y-114085019D02*
X81519876Y-114085019D01*
X81519876Y-114085019D02*
X81948447Y-115085019D01*
X124899657Y-139703980D02*
X124947276Y-139751600D01*
X124947276Y-139751600D02*
X125090133Y-139799219D01*
X125090133Y-139799219D02*
X125185371Y-139799219D01*
X125185371Y-139799219D02*
X125328228Y-139751600D01*
X125328228Y-139751600D02*
X125423466Y-139656361D01*
X125423466Y-139656361D02*
X125471085Y-139561123D01*
X125471085Y-139561123D02*
X125518704Y-139370647D01*
X125518704Y-139370647D02*
X125518704Y-139227790D01*
X125518704Y-139227790D02*
X125471085Y-139037314D01*
X125471085Y-139037314D02*
X125423466Y-138942076D01*
X125423466Y-138942076D02*
X125328228Y-138846838D01*
X125328228Y-138846838D02*
X125185371Y-138799219D01*
X125185371Y-138799219D02*
X125090133Y-138799219D01*
X125090133Y-138799219D02*
X124947276Y-138846838D01*
X124947276Y-138846838D02*
X124899657Y-138894457D01*
X123947276Y-139799219D02*
X124518704Y-139799219D01*
X124232990Y-139799219D02*
X124232990Y-138799219D01*
X124232990Y-138799219D02*
X124328228Y-138942076D01*
X124328228Y-138942076D02*
X124423466Y-139037314D01*
X124423466Y-139037314D02*
X124518704Y-139084933D01*
X123613942Y-138799219D02*
X122947276Y-138799219D01*
X122947276Y-138799219D02*
X123375847Y-139799219D01*
X63711057Y-134979580D02*
X63758676Y-135027200D01*
X63758676Y-135027200D02*
X63901533Y-135074819D01*
X63901533Y-135074819D02*
X63996771Y-135074819D01*
X63996771Y-135074819D02*
X64139628Y-135027200D01*
X64139628Y-135027200D02*
X64234866Y-134931961D01*
X64234866Y-134931961D02*
X64282485Y-134836723D01*
X64282485Y-134836723D02*
X64330104Y-134646247D01*
X64330104Y-134646247D02*
X64330104Y-134503390D01*
X64330104Y-134503390D02*
X64282485Y-134312914D01*
X64282485Y-134312914D02*
X64234866Y-134217676D01*
X64234866Y-134217676D02*
X64139628Y-134122438D01*
X64139628Y-134122438D02*
X63996771Y-134074819D01*
X63996771Y-134074819D02*
X63901533Y-134074819D01*
X63901533Y-134074819D02*
X63758676Y-134122438D01*
X63758676Y-134122438D02*
X63711057Y-134170057D01*
X63377723Y-134074819D02*
X62758676Y-134074819D01*
X62758676Y-134074819D02*
X63092009Y-134455771D01*
X63092009Y-134455771D02*
X62949152Y-134455771D01*
X62949152Y-134455771D02*
X62853914Y-134503390D01*
X62853914Y-134503390D02*
X62806295Y-134551009D01*
X62806295Y-134551009D02*
X62758676Y-134646247D01*
X62758676Y-134646247D02*
X62758676Y-134884342D01*
X62758676Y-134884342D02*
X62806295Y-134979580D01*
X62806295Y-134979580D02*
X62853914Y-135027200D01*
X62853914Y-135027200D02*
X62949152Y-135074819D01*
X62949152Y-135074819D02*
X63234866Y-135074819D01*
X63234866Y-135074819D02*
X63330104Y-135027200D01*
X63330104Y-135027200D02*
X63377723Y-134979580D01*
X62187247Y-134503390D02*
X62282485Y-134455771D01*
X62282485Y-134455771D02*
X62330104Y-134408152D01*
X62330104Y-134408152D02*
X62377723Y-134312914D01*
X62377723Y-134312914D02*
X62377723Y-134265295D01*
X62377723Y-134265295D02*
X62330104Y-134170057D01*
X62330104Y-134170057D02*
X62282485Y-134122438D01*
X62282485Y-134122438D02*
X62187247Y-134074819D01*
X62187247Y-134074819D02*
X61996771Y-134074819D01*
X61996771Y-134074819D02*
X61901533Y-134122438D01*
X61901533Y-134122438D02*
X61853914Y-134170057D01*
X61853914Y-134170057D02*
X61806295Y-134265295D01*
X61806295Y-134265295D02*
X61806295Y-134312914D01*
X61806295Y-134312914D02*
X61853914Y-134408152D01*
X61853914Y-134408152D02*
X61901533Y-134455771D01*
X61901533Y-134455771D02*
X61996771Y-134503390D01*
X61996771Y-134503390D02*
X62187247Y-134503390D01*
X62187247Y-134503390D02*
X62282485Y-134551009D01*
X62282485Y-134551009D02*
X62330104Y-134598628D01*
X62330104Y-134598628D02*
X62377723Y-134693866D01*
X62377723Y-134693866D02*
X62377723Y-134884342D01*
X62377723Y-134884342D02*
X62330104Y-134979580D01*
X62330104Y-134979580D02*
X62282485Y-135027200D01*
X62282485Y-135027200D02*
X62187247Y-135074819D01*
X62187247Y-135074819D02*
X61996771Y-135074819D01*
X61996771Y-135074819D02*
X61901533Y-135027200D01*
X61901533Y-135027200D02*
X61853914Y-134979580D01*
X61853914Y-134979580D02*
X61806295Y-134884342D01*
X61806295Y-134884342D02*
X61806295Y-134693866D01*
X61806295Y-134693866D02*
X61853914Y-134598628D01*
X61853914Y-134598628D02*
X61901533Y-134551009D01*
X61901533Y-134551009D02*
X61996771Y-134503390D01*
X80932257Y-71193819D02*
X81265590Y-70717628D01*
X81503685Y-71193819D02*
X81503685Y-70193819D01*
X81503685Y-70193819D02*
X81122733Y-70193819D01*
X81122733Y-70193819D02*
X81027495Y-70241438D01*
X81027495Y-70241438D02*
X80979876Y-70289057D01*
X80979876Y-70289057D02*
X80932257Y-70384295D01*
X80932257Y-70384295D02*
X80932257Y-70527152D01*
X80932257Y-70527152D02*
X80979876Y-70622390D01*
X80979876Y-70622390D02*
X81027495Y-70670009D01*
X81027495Y-70670009D02*
X81122733Y-70717628D01*
X81122733Y-70717628D02*
X81503685Y-70717628D01*
X79979876Y-71193819D02*
X80551304Y-71193819D01*
X80265590Y-71193819D02*
X80265590Y-70193819D01*
X80265590Y-70193819D02*
X80360828Y-70336676D01*
X80360828Y-70336676D02*
X80456066Y-70431914D01*
X80456066Y-70431914D02*
X80551304Y-70479533D01*
X79646542Y-70193819D02*
X79027495Y-70193819D01*
X79027495Y-70193819D02*
X79360828Y-70574771D01*
X79360828Y-70574771D02*
X79217971Y-70574771D01*
X79217971Y-70574771D02*
X79122733Y-70622390D01*
X79122733Y-70622390D02*
X79075114Y-70670009D01*
X79075114Y-70670009D02*
X79027495Y-70765247D01*
X79027495Y-70765247D02*
X79027495Y-71003342D01*
X79027495Y-71003342D02*
X79075114Y-71098580D01*
X79075114Y-71098580D02*
X79122733Y-71146200D01*
X79122733Y-71146200D02*
X79217971Y-71193819D01*
X79217971Y-71193819D02*
X79503685Y-71193819D01*
X79503685Y-71193819D02*
X79598923Y-71146200D01*
X79598923Y-71146200D02*
X79646542Y-71098580D01*
X61856857Y-34547980D02*
X61904476Y-34595600D01*
X61904476Y-34595600D02*
X62047333Y-34643219D01*
X62047333Y-34643219D02*
X62142571Y-34643219D01*
X62142571Y-34643219D02*
X62285428Y-34595600D01*
X62285428Y-34595600D02*
X62380666Y-34500361D01*
X62380666Y-34500361D02*
X62428285Y-34405123D01*
X62428285Y-34405123D02*
X62475904Y-34214647D01*
X62475904Y-34214647D02*
X62475904Y-34071790D01*
X62475904Y-34071790D02*
X62428285Y-33881314D01*
X62428285Y-33881314D02*
X62380666Y-33786076D01*
X62380666Y-33786076D02*
X62285428Y-33690838D01*
X62285428Y-33690838D02*
X62142571Y-33643219D01*
X62142571Y-33643219D02*
X62047333Y-33643219D01*
X62047333Y-33643219D02*
X61904476Y-33690838D01*
X61904476Y-33690838D02*
X61856857Y-33738457D01*
X61475904Y-33738457D02*
X61428285Y-33690838D01*
X61428285Y-33690838D02*
X61333047Y-33643219D01*
X61333047Y-33643219D02*
X61094952Y-33643219D01*
X61094952Y-33643219D02*
X60999714Y-33690838D01*
X60999714Y-33690838D02*
X60952095Y-33738457D01*
X60952095Y-33738457D02*
X60904476Y-33833695D01*
X60904476Y-33833695D02*
X60904476Y-33928933D01*
X60904476Y-33928933D02*
X60952095Y-34071790D01*
X60952095Y-34071790D02*
X61523523Y-34643219D01*
X61523523Y-34643219D02*
X60904476Y-34643219D01*
X60285428Y-33643219D02*
X60190190Y-33643219D01*
X60190190Y-33643219D02*
X60094952Y-33690838D01*
X60094952Y-33690838D02*
X60047333Y-33738457D01*
X60047333Y-33738457D02*
X59999714Y-33833695D01*
X59999714Y-33833695D02*
X59952095Y-34024171D01*
X59952095Y-34024171D02*
X59952095Y-34262266D01*
X59952095Y-34262266D02*
X59999714Y-34452742D01*
X59999714Y-34452742D02*
X60047333Y-34547980D01*
X60047333Y-34547980D02*
X60094952Y-34595600D01*
X60094952Y-34595600D02*
X60190190Y-34643219D01*
X60190190Y-34643219D02*
X60285428Y-34643219D01*
X60285428Y-34643219D02*
X60380666Y-34595600D01*
X60380666Y-34595600D02*
X60428285Y-34547980D01*
X60428285Y-34547980D02*
X60475904Y-34452742D01*
X60475904Y-34452742D02*
X60523523Y-34262266D01*
X60523523Y-34262266D02*
X60523523Y-34024171D01*
X60523523Y-34024171D02*
X60475904Y-33833695D01*
X60475904Y-33833695D02*
X60428285Y-33738457D01*
X60428285Y-33738457D02*
X60380666Y-33690838D01*
X60380666Y-33690838D02*
X60285428Y-33643219D01*
X111386857Y-48416380D02*
X111434476Y-48464000D01*
X111434476Y-48464000D02*
X111577333Y-48511619D01*
X111577333Y-48511619D02*
X111672571Y-48511619D01*
X111672571Y-48511619D02*
X111815428Y-48464000D01*
X111815428Y-48464000D02*
X111910666Y-48368761D01*
X111910666Y-48368761D02*
X111958285Y-48273523D01*
X111958285Y-48273523D02*
X112005904Y-48083047D01*
X112005904Y-48083047D02*
X112005904Y-47940190D01*
X112005904Y-47940190D02*
X111958285Y-47749714D01*
X111958285Y-47749714D02*
X111910666Y-47654476D01*
X111910666Y-47654476D02*
X111815428Y-47559238D01*
X111815428Y-47559238D02*
X111672571Y-47511619D01*
X111672571Y-47511619D02*
X111577333Y-47511619D01*
X111577333Y-47511619D02*
X111434476Y-47559238D01*
X111434476Y-47559238D02*
X111386857Y-47606857D01*
X111005904Y-47606857D02*
X110958285Y-47559238D01*
X110958285Y-47559238D02*
X110863047Y-47511619D01*
X110863047Y-47511619D02*
X110624952Y-47511619D01*
X110624952Y-47511619D02*
X110529714Y-47559238D01*
X110529714Y-47559238D02*
X110482095Y-47606857D01*
X110482095Y-47606857D02*
X110434476Y-47702095D01*
X110434476Y-47702095D02*
X110434476Y-47797333D01*
X110434476Y-47797333D02*
X110482095Y-47940190D01*
X110482095Y-47940190D02*
X111053523Y-48511619D01*
X111053523Y-48511619D02*
X110434476Y-48511619D01*
X109529714Y-47511619D02*
X110005904Y-47511619D01*
X110005904Y-47511619D02*
X110053523Y-47987809D01*
X110053523Y-47987809D02*
X110005904Y-47940190D01*
X110005904Y-47940190D02*
X109910666Y-47892571D01*
X109910666Y-47892571D02*
X109672571Y-47892571D01*
X109672571Y-47892571D02*
X109577333Y-47940190D01*
X109577333Y-47940190D02*
X109529714Y-47987809D01*
X109529714Y-47987809D02*
X109482095Y-48083047D01*
X109482095Y-48083047D02*
X109482095Y-48321142D01*
X109482095Y-48321142D02*
X109529714Y-48416380D01*
X109529714Y-48416380D02*
X109577333Y-48464000D01*
X109577333Y-48464000D02*
X109672571Y-48511619D01*
X109672571Y-48511619D02*
X109910666Y-48511619D01*
X109910666Y-48511619D02*
X110005904Y-48464000D01*
X110005904Y-48464000D02*
X110053523Y-48416380D01*
X80119457Y-107660619D02*
X80452790Y-107184428D01*
X80690885Y-107660619D02*
X80690885Y-106660619D01*
X80690885Y-106660619D02*
X80309933Y-106660619D01*
X80309933Y-106660619D02*
X80214695Y-106708238D01*
X80214695Y-106708238D02*
X80167076Y-106755857D01*
X80167076Y-106755857D02*
X80119457Y-106851095D01*
X80119457Y-106851095D02*
X80119457Y-106993952D01*
X80119457Y-106993952D02*
X80167076Y-107089190D01*
X80167076Y-107089190D02*
X80214695Y-107136809D01*
X80214695Y-107136809D02*
X80309933Y-107184428D01*
X80309933Y-107184428D02*
X80690885Y-107184428D01*
X79167076Y-107660619D02*
X79738504Y-107660619D01*
X79452790Y-107660619D02*
X79452790Y-106660619D01*
X79452790Y-106660619D02*
X79548028Y-106803476D01*
X79548028Y-106803476D02*
X79643266Y-106898714D01*
X79643266Y-106898714D02*
X79738504Y-106946333D01*
X78262314Y-106660619D02*
X78738504Y-106660619D01*
X78738504Y-106660619D02*
X78786123Y-107136809D01*
X78786123Y-107136809D02*
X78738504Y-107089190D01*
X78738504Y-107089190D02*
X78643266Y-107041571D01*
X78643266Y-107041571D02*
X78405171Y-107041571D01*
X78405171Y-107041571D02*
X78309933Y-107089190D01*
X78309933Y-107089190D02*
X78262314Y-107136809D01*
X78262314Y-107136809D02*
X78214695Y-107232047D01*
X78214695Y-107232047D02*
X78214695Y-107470142D01*
X78214695Y-107470142D02*
X78262314Y-107565380D01*
X78262314Y-107565380D02*
X78309933Y-107613000D01*
X78309933Y-107613000D02*
X78405171Y-107660619D01*
X78405171Y-107660619D02*
X78643266Y-107660619D01*
X78643266Y-107660619D02*
X78738504Y-107613000D01*
X78738504Y-107613000D02*
X78786123Y-107565380D01*
X129136733Y-60078209D02*
X129470066Y-60078209D01*
X129470066Y-60602019D02*
X129470066Y-59602019D01*
X129470066Y-59602019D02*
X128993876Y-59602019D01*
X128089114Y-60602019D02*
X128660542Y-60602019D01*
X128374828Y-60602019D02*
X128374828Y-59602019D01*
X128374828Y-59602019D02*
X128470066Y-59744876D01*
X128470066Y-59744876D02*
X128565304Y-59840114D01*
X128565304Y-59840114D02*
X128660542Y-59887733D01*
X136126457Y-130813980D02*
X136174076Y-130861600D01*
X136174076Y-130861600D02*
X136316933Y-130909219D01*
X136316933Y-130909219D02*
X136412171Y-130909219D01*
X136412171Y-130909219D02*
X136555028Y-130861600D01*
X136555028Y-130861600D02*
X136650266Y-130766361D01*
X136650266Y-130766361D02*
X136697885Y-130671123D01*
X136697885Y-130671123D02*
X136745504Y-130480647D01*
X136745504Y-130480647D02*
X136745504Y-130337790D01*
X136745504Y-130337790D02*
X136697885Y-130147314D01*
X136697885Y-130147314D02*
X136650266Y-130052076D01*
X136650266Y-130052076D02*
X136555028Y-129956838D01*
X136555028Y-129956838D02*
X136412171Y-129909219D01*
X136412171Y-129909219D02*
X136316933Y-129909219D01*
X136316933Y-129909219D02*
X136174076Y-129956838D01*
X136174076Y-129956838D02*
X136126457Y-130004457D01*
X135174076Y-130909219D02*
X135745504Y-130909219D01*
X135459790Y-130909219D02*
X135459790Y-129909219D01*
X135459790Y-129909219D02*
X135555028Y-130052076D01*
X135555028Y-130052076D02*
X135650266Y-130147314D01*
X135650266Y-130147314D02*
X135745504Y-130194933D01*
X134555028Y-129909219D02*
X134459790Y-129909219D01*
X134459790Y-129909219D02*
X134364552Y-129956838D01*
X134364552Y-129956838D02*
X134316933Y-130004457D01*
X134316933Y-130004457D02*
X134269314Y-130099695D01*
X134269314Y-130099695D02*
X134221695Y-130290171D01*
X134221695Y-130290171D02*
X134221695Y-130528266D01*
X134221695Y-130528266D02*
X134269314Y-130718742D01*
X134269314Y-130718742D02*
X134316933Y-130813980D01*
X134316933Y-130813980D02*
X134364552Y-130861600D01*
X134364552Y-130861600D02*
X134459790Y-130909219D01*
X134459790Y-130909219D02*
X134555028Y-130909219D01*
X134555028Y-130909219D02*
X134650266Y-130861600D01*
X134650266Y-130861600D02*
X134697885Y-130813980D01*
X134697885Y-130813980D02*
X134745504Y-130718742D01*
X134745504Y-130718742D02*
X134793123Y-130528266D01*
X134793123Y-130528266D02*
X134793123Y-130290171D01*
X134793123Y-130290171D02*
X134745504Y-130099695D01*
X134745504Y-130099695D02*
X134697885Y-130004457D01*
X134697885Y-130004457D02*
X134650266Y-129956838D01*
X134650266Y-129956838D02*
X134555028Y-129909219D01*
D11*
X52676323Y-99431819D02*
X52676323Y-100146104D01*
X52676323Y-100146104D02*
X52723942Y-100288961D01*
X52723942Y-100288961D02*
X52819180Y-100384200D01*
X52819180Y-100384200D02*
X52962037Y-100431819D01*
X52962037Y-100431819D02*
X53057275Y-100431819D01*
X51676323Y-100431819D02*
X52247751Y-100431819D01*
X51962037Y-100431819D02*
X51962037Y-99431819D01*
X51962037Y-99431819D02*
X52057275Y-99574676D01*
X52057275Y-99574676D02*
X52152513Y-99669914D01*
X52152513Y-99669914D02*
X52247751Y-99717533D01*
X50819180Y-99765152D02*
X50819180Y-100431819D01*
X51057275Y-99384200D02*
X51295370Y-100098485D01*
X51295370Y-100098485D02*
X50676323Y-100098485D01*
X74831533Y-143729419D02*
X74831533Y-144443704D01*
X74831533Y-144443704D02*
X74879152Y-144586561D01*
X74879152Y-144586561D02*
X74974390Y-144681800D01*
X74974390Y-144681800D02*
X75117247Y-144729419D01*
X75117247Y-144729419D02*
X75212485Y-144729419D01*
X74450580Y-143729419D02*
X73831533Y-143729419D01*
X73831533Y-143729419D02*
X74164866Y-144110371D01*
X74164866Y-144110371D02*
X74022009Y-144110371D01*
X74022009Y-144110371D02*
X73926771Y-144157990D01*
X73926771Y-144157990D02*
X73879152Y-144205609D01*
X73879152Y-144205609D02*
X73831533Y-144300847D01*
X73831533Y-144300847D02*
X73831533Y-144538942D01*
X73831533Y-144538942D02*
X73879152Y-144634180D01*
X73879152Y-144634180D02*
X73926771Y-144681800D01*
X73926771Y-144681800D02*
X74022009Y-144729419D01*
X74022009Y-144729419D02*
X74307723Y-144729419D01*
X74307723Y-144729419D02*
X74402961Y-144681800D01*
X74402961Y-144681800D02*
X74450580Y-144634180D01*
X56968923Y-38939019D02*
X56968923Y-39653304D01*
X56968923Y-39653304D02*
X57016542Y-39796161D01*
X57016542Y-39796161D02*
X57111780Y-39891400D01*
X57111780Y-39891400D02*
X57254637Y-39939019D01*
X57254637Y-39939019D02*
X57349875Y-39939019D01*
X55968923Y-39939019D02*
X56540351Y-39939019D01*
X56254637Y-39939019D02*
X56254637Y-38939019D01*
X56254637Y-38939019D02*
X56349875Y-39081876D01*
X56349875Y-39081876D02*
X56445113Y-39177114D01*
X56445113Y-39177114D02*
X56540351Y-39224733D01*
X55349875Y-38939019D02*
X55254637Y-38939019D01*
X55254637Y-38939019D02*
X55159399Y-38986638D01*
X55159399Y-38986638D02*
X55111780Y-39034257D01*
X55111780Y-39034257D02*
X55064161Y-39129495D01*
X55064161Y-39129495D02*
X55016542Y-39319971D01*
X55016542Y-39319971D02*
X55016542Y-39558066D01*
X55016542Y-39558066D02*
X55064161Y-39748542D01*
X55064161Y-39748542D02*
X55111780Y-39843780D01*
X55111780Y-39843780D02*
X55159399Y-39891400D01*
X55159399Y-39891400D02*
X55254637Y-39939019D01*
X55254637Y-39939019D02*
X55349875Y-39939019D01*
X55349875Y-39939019D02*
X55445113Y-39891400D01*
X55445113Y-39891400D02*
X55492732Y-39843780D01*
X55492732Y-39843780D02*
X55540351Y-39748542D01*
X55540351Y-39748542D02*
X55587970Y-39558066D01*
X55587970Y-39558066D02*
X55587970Y-39319971D01*
X55587970Y-39319971D02*
X55540351Y-39129495D01*
X55540351Y-39129495D02*
X55492732Y-39034257D01*
X55492732Y-39034257D02*
X55445113Y-38986638D01*
X55445113Y-38986638D02*
X55349875Y-38939019D01*
D10*
X60358257Y-49711780D02*
X60405876Y-49759400D01*
X60405876Y-49759400D02*
X60548733Y-49807019D01*
X60548733Y-49807019D02*
X60643971Y-49807019D01*
X60643971Y-49807019D02*
X60786828Y-49759400D01*
X60786828Y-49759400D02*
X60882066Y-49664161D01*
X60882066Y-49664161D02*
X60929685Y-49568923D01*
X60929685Y-49568923D02*
X60977304Y-49378447D01*
X60977304Y-49378447D02*
X60977304Y-49235590D01*
X60977304Y-49235590D02*
X60929685Y-49045114D01*
X60929685Y-49045114D02*
X60882066Y-48949876D01*
X60882066Y-48949876D02*
X60786828Y-48854638D01*
X60786828Y-48854638D02*
X60643971Y-48807019D01*
X60643971Y-48807019D02*
X60548733Y-48807019D01*
X60548733Y-48807019D02*
X60405876Y-48854638D01*
X60405876Y-48854638D02*
X60358257Y-48902257D01*
X60024923Y-48807019D02*
X59405876Y-48807019D01*
X59405876Y-48807019D02*
X59739209Y-49187971D01*
X59739209Y-49187971D02*
X59596352Y-49187971D01*
X59596352Y-49187971D02*
X59501114Y-49235590D01*
X59501114Y-49235590D02*
X59453495Y-49283209D01*
X59453495Y-49283209D02*
X59405876Y-49378447D01*
X59405876Y-49378447D02*
X59405876Y-49616542D01*
X59405876Y-49616542D02*
X59453495Y-49711780D01*
X59453495Y-49711780D02*
X59501114Y-49759400D01*
X59501114Y-49759400D02*
X59596352Y-49807019D01*
X59596352Y-49807019D02*
X59882066Y-49807019D01*
X59882066Y-49807019D02*
X59977304Y-49759400D01*
X59977304Y-49759400D02*
X60024923Y-49711780D01*
X58453495Y-49807019D02*
X59024923Y-49807019D01*
X58739209Y-49807019D02*
X58739209Y-48807019D01*
X58739209Y-48807019D02*
X58834447Y-48949876D01*
X58834447Y-48949876D02*
X58929685Y-49045114D01*
X58929685Y-49045114D02*
X59024923Y-49092733D01*
X119362457Y-95482580D02*
X119410076Y-95530200D01*
X119410076Y-95530200D02*
X119552933Y-95577819D01*
X119552933Y-95577819D02*
X119648171Y-95577819D01*
X119648171Y-95577819D02*
X119791028Y-95530200D01*
X119791028Y-95530200D02*
X119886266Y-95434961D01*
X119886266Y-95434961D02*
X119933885Y-95339723D01*
X119933885Y-95339723D02*
X119981504Y-95149247D01*
X119981504Y-95149247D02*
X119981504Y-95006390D01*
X119981504Y-95006390D02*
X119933885Y-94815914D01*
X119933885Y-94815914D02*
X119886266Y-94720676D01*
X119886266Y-94720676D02*
X119791028Y-94625438D01*
X119791028Y-94625438D02*
X119648171Y-94577819D01*
X119648171Y-94577819D02*
X119552933Y-94577819D01*
X119552933Y-94577819D02*
X119410076Y-94625438D01*
X119410076Y-94625438D02*
X119362457Y-94673057D01*
X118410076Y-95577819D02*
X118981504Y-95577819D01*
X118695790Y-95577819D02*
X118695790Y-94577819D01*
X118695790Y-94577819D02*
X118791028Y-94720676D01*
X118791028Y-94720676D02*
X118886266Y-94815914D01*
X118886266Y-94815914D02*
X118981504Y-94863533D01*
X117505314Y-94577819D02*
X117981504Y-94577819D01*
X117981504Y-94577819D02*
X118029123Y-95054009D01*
X118029123Y-95054009D02*
X117981504Y-95006390D01*
X117981504Y-95006390D02*
X117886266Y-94958771D01*
X117886266Y-94958771D02*
X117648171Y-94958771D01*
X117648171Y-94958771D02*
X117552933Y-95006390D01*
X117552933Y-95006390D02*
X117505314Y-95054009D01*
X117505314Y-95054009D02*
X117457695Y-95149247D01*
X117457695Y-95149247D02*
X117457695Y-95387342D01*
X117457695Y-95387342D02*
X117505314Y-95482580D01*
X117505314Y-95482580D02*
X117552933Y-95530200D01*
X117552933Y-95530200D02*
X117648171Y-95577819D01*
X117648171Y-95577819D02*
X117886266Y-95577819D01*
X117886266Y-95577819D02*
X117981504Y-95530200D01*
X117981504Y-95530200D02*
X118029123Y-95482580D01*
X139047457Y-130813980D02*
X139095076Y-130861600D01*
X139095076Y-130861600D02*
X139237933Y-130909219D01*
X139237933Y-130909219D02*
X139333171Y-130909219D01*
X139333171Y-130909219D02*
X139476028Y-130861600D01*
X139476028Y-130861600D02*
X139571266Y-130766361D01*
X139571266Y-130766361D02*
X139618885Y-130671123D01*
X139618885Y-130671123D02*
X139666504Y-130480647D01*
X139666504Y-130480647D02*
X139666504Y-130337790D01*
X139666504Y-130337790D02*
X139618885Y-130147314D01*
X139618885Y-130147314D02*
X139571266Y-130052076D01*
X139571266Y-130052076D02*
X139476028Y-129956838D01*
X139476028Y-129956838D02*
X139333171Y-129909219D01*
X139333171Y-129909219D02*
X139237933Y-129909219D01*
X139237933Y-129909219D02*
X139095076Y-129956838D01*
X139095076Y-129956838D02*
X139047457Y-130004457D01*
X138095076Y-130909219D02*
X138666504Y-130909219D01*
X138380790Y-130909219D02*
X138380790Y-129909219D01*
X138380790Y-129909219D02*
X138476028Y-130052076D01*
X138476028Y-130052076D02*
X138571266Y-130147314D01*
X138571266Y-130147314D02*
X138666504Y-130194933D01*
X137142695Y-130909219D02*
X137714123Y-130909219D01*
X137428409Y-130909219D02*
X137428409Y-129909219D01*
X137428409Y-129909219D02*
X137523647Y-130052076D01*
X137523647Y-130052076D02*
X137618885Y-130147314D01*
X137618885Y-130147314D02*
X137714123Y-130194933D01*
D11*
X127968333Y-70399619D02*
X127968333Y-71113904D01*
X127968333Y-71113904D02*
X128015952Y-71256761D01*
X128015952Y-71256761D02*
X128111190Y-71352000D01*
X128111190Y-71352000D02*
X128254047Y-71399619D01*
X128254047Y-71399619D02*
X128349285Y-71399619D01*
X126968333Y-71399619D02*
X127539761Y-71399619D01*
X127254047Y-71399619D02*
X127254047Y-70399619D01*
X127254047Y-70399619D02*
X127349285Y-70542476D01*
X127349285Y-70542476D02*
X127444523Y-70637714D01*
X127444523Y-70637714D02*
X127539761Y-70685333D01*
D10*
X60358257Y-107979380D02*
X60405876Y-108027000D01*
X60405876Y-108027000D02*
X60548733Y-108074619D01*
X60548733Y-108074619D02*
X60643971Y-108074619D01*
X60643971Y-108074619D02*
X60786828Y-108027000D01*
X60786828Y-108027000D02*
X60882066Y-107931761D01*
X60882066Y-107931761D02*
X60929685Y-107836523D01*
X60929685Y-107836523D02*
X60977304Y-107646047D01*
X60977304Y-107646047D02*
X60977304Y-107503190D01*
X60977304Y-107503190D02*
X60929685Y-107312714D01*
X60929685Y-107312714D02*
X60882066Y-107217476D01*
X60882066Y-107217476D02*
X60786828Y-107122238D01*
X60786828Y-107122238D02*
X60643971Y-107074619D01*
X60643971Y-107074619D02*
X60548733Y-107074619D01*
X60548733Y-107074619D02*
X60405876Y-107122238D01*
X60405876Y-107122238D02*
X60358257Y-107169857D01*
X60024923Y-107074619D02*
X59405876Y-107074619D01*
X59405876Y-107074619D02*
X59739209Y-107455571D01*
X59739209Y-107455571D02*
X59596352Y-107455571D01*
X59596352Y-107455571D02*
X59501114Y-107503190D01*
X59501114Y-107503190D02*
X59453495Y-107550809D01*
X59453495Y-107550809D02*
X59405876Y-107646047D01*
X59405876Y-107646047D02*
X59405876Y-107884142D01*
X59405876Y-107884142D02*
X59453495Y-107979380D01*
X59453495Y-107979380D02*
X59501114Y-108027000D01*
X59501114Y-108027000D02*
X59596352Y-108074619D01*
X59596352Y-108074619D02*
X59882066Y-108074619D01*
X59882066Y-108074619D02*
X59977304Y-108027000D01*
X59977304Y-108027000D02*
X60024923Y-107979380D01*
X58929685Y-108074619D02*
X58739209Y-108074619D01*
X58739209Y-108074619D02*
X58643971Y-108027000D01*
X58643971Y-108027000D02*
X58596352Y-107979380D01*
X58596352Y-107979380D02*
X58501114Y-107836523D01*
X58501114Y-107836523D02*
X58453495Y-107646047D01*
X58453495Y-107646047D02*
X58453495Y-107265095D01*
X58453495Y-107265095D02*
X58501114Y-107169857D01*
X58501114Y-107169857D02*
X58548733Y-107122238D01*
X58548733Y-107122238D02*
X58643971Y-107074619D01*
X58643971Y-107074619D02*
X58834447Y-107074619D01*
X58834447Y-107074619D02*
X58929685Y-107122238D01*
X58929685Y-107122238D02*
X58977304Y-107169857D01*
X58977304Y-107169857D02*
X59024923Y-107265095D01*
X59024923Y-107265095D02*
X59024923Y-107503190D01*
X59024923Y-107503190D02*
X58977304Y-107598428D01*
X58977304Y-107598428D02*
X58929685Y-107646047D01*
X58929685Y-107646047D02*
X58834447Y-107693666D01*
X58834447Y-107693666D02*
X58643971Y-107693666D01*
X58643971Y-107693666D02*
X58548733Y-107646047D01*
X58548733Y-107646047D02*
X58501114Y-107598428D01*
X58501114Y-107598428D02*
X58453495Y-107503190D01*
X117508257Y-139900819D02*
X117841590Y-139424628D01*
X118079685Y-139900819D02*
X118079685Y-138900819D01*
X118079685Y-138900819D02*
X117698733Y-138900819D01*
X117698733Y-138900819D02*
X117603495Y-138948438D01*
X117603495Y-138948438D02*
X117555876Y-138996057D01*
X117555876Y-138996057D02*
X117508257Y-139091295D01*
X117508257Y-139091295D02*
X117508257Y-139234152D01*
X117508257Y-139234152D02*
X117555876Y-139329390D01*
X117555876Y-139329390D02*
X117603495Y-139377009D01*
X117603495Y-139377009D02*
X117698733Y-139424628D01*
X117698733Y-139424628D02*
X118079685Y-139424628D01*
X116555876Y-139900819D02*
X117127304Y-139900819D01*
X116841590Y-139900819D02*
X116841590Y-138900819D01*
X116841590Y-138900819D02*
X116936828Y-139043676D01*
X116936828Y-139043676D02*
X117032066Y-139138914D01*
X117032066Y-139138914D02*
X117127304Y-139186533D01*
X116079685Y-139900819D02*
X115889209Y-139900819D01*
X115889209Y-139900819D02*
X115793971Y-139853200D01*
X115793971Y-139853200D02*
X115746352Y-139805580D01*
X115746352Y-139805580D02*
X115651114Y-139662723D01*
X115651114Y-139662723D02*
X115603495Y-139472247D01*
X115603495Y-139472247D02*
X115603495Y-139091295D01*
X115603495Y-139091295D02*
X115651114Y-138996057D01*
X115651114Y-138996057D02*
X115698733Y-138948438D01*
X115698733Y-138948438D02*
X115793971Y-138900819D01*
X115793971Y-138900819D02*
X115984447Y-138900819D01*
X115984447Y-138900819D02*
X116079685Y-138948438D01*
X116079685Y-138948438D02*
X116127304Y-138996057D01*
X116127304Y-138996057D02*
X116174923Y-139091295D01*
X116174923Y-139091295D02*
X116174923Y-139329390D01*
X116174923Y-139329390D02*
X116127304Y-139424628D01*
X116127304Y-139424628D02*
X116079685Y-139472247D01*
X116079685Y-139472247D02*
X115984447Y-139519866D01*
X115984447Y-139519866D02*
X115793971Y-139519866D01*
X115793971Y-139519866D02*
X115698733Y-139472247D01*
X115698733Y-139472247D02*
X115651114Y-139424628D01*
X115651114Y-139424628D02*
X115603495Y-139329390D01*
D11*
X56943523Y-72634819D02*
X56943523Y-73349104D01*
X56943523Y-73349104D02*
X56991142Y-73491961D01*
X56991142Y-73491961D02*
X57086380Y-73587200D01*
X57086380Y-73587200D02*
X57229237Y-73634819D01*
X57229237Y-73634819D02*
X57324475Y-73634819D01*
X55943523Y-73634819D02*
X56514951Y-73634819D01*
X56229237Y-73634819D02*
X56229237Y-72634819D01*
X56229237Y-72634819D02*
X56324475Y-72777676D01*
X56324475Y-72777676D02*
X56419713Y-72872914D01*
X56419713Y-72872914D02*
X56514951Y-72920533D01*
X55562570Y-72730057D02*
X55514951Y-72682438D01*
X55514951Y-72682438D02*
X55419713Y-72634819D01*
X55419713Y-72634819D02*
X55181618Y-72634819D01*
X55181618Y-72634819D02*
X55086380Y-72682438D01*
X55086380Y-72682438D02*
X55038761Y-72730057D01*
X55038761Y-72730057D02*
X54991142Y-72825295D01*
X54991142Y-72825295D02*
X54991142Y-72920533D01*
X54991142Y-72920533D02*
X55038761Y-73063390D01*
X55038761Y-73063390D02*
X55610189Y-73634819D01*
X55610189Y-73634819D02*
X54991142Y-73634819D01*
D10*
X80638701Y-111116630D02*
X80734003Y-111068979D01*
X80734003Y-111068979D02*
X80829305Y-110973678D01*
X80829305Y-110973678D02*
X80972258Y-110830725D01*
X80972258Y-110830725D02*
X81067559Y-110783074D01*
X81067559Y-110783074D02*
X81162861Y-110783074D01*
X81115210Y-111021328D02*
X81210512Y-110973678D01*
X81210512Y-110973678D02*
X81305814Y-110878376D01*
X81305814Y-110878376D02*
X81353465Y-110687772D01*
X81353465Y-110687772D02*
X81353465Y-110354216D01*
X81353465Y-110354216D02*
X81305814Y-110163612D01*
X81305814Y-110163612D02*
X81210512Y-110068310D01*
X81210512Y-110068310D02*
X81115210Y-110020659D01*
X81115210Y-110020659D02*
X80924607Y-110020659D01*
X80924607Y-110020659D02*
X80829305Y-110068310D01*
X80829305Y-110068310D02*
X80734003Y-110163612D01*
X80734003Y-110163612D02*
X80686352Y-110354216D01*
X80686352Y-110354216D02*
X80686352Y-110687772D01*
X80686352Y-110687772D02*
X80734003Y-110878376D01*
X80734003Y-110878376D02*
X80829305Y-110973678D01*
X80829305Y-110973678D02*
X80924607Y-111021328D01*
X80924607Y-111021328D02*
X81115210Y-111021328D01*
X79828636Y-110354216D02*
X79828636Y-111021328D01*
X80066890Y-109973009D02*
X80305145Y-110687772D01*
X80305145Y-110687772D02*
X79685683Y-110687772D01*
X60764657Y-66678980D02*
X60812276Y-66726600D01*
X60812276Y-66726600D02*
X60955133Y-66774219D01*
X60955133Y-66774219D02*
X61050371Y-66774219D01*
X61050371Y-66774219D02*
X61193228Y-66726600D01*
X61193228Y-66726600D02*
X61288466Y-66631361D01*
X61288466Y-66631361D02*
X61336085Y-66536123D01*
X61336085Y-66536123D02*
X61383704Y-66345647D01*
X61383704Y-66345647D02*
X61383704Y-66202790D01*
X61383704Y-66202790D02*
X61336085Y-66012314D01*
X61336085Y-66012314D02*
X61288466Y-65917076D01*
X61288466Y-65917076D02*
X61193228Y-65821838D01*
X61193228Y-65821838D02*
X61050371Y-65774219D01*
X61050371Y-65774219D02*
X60955133Y-65774219D01*
X60955133Y-65774219D02*
X60812276Y-65821838D01*
X60812276Y-65821838D02*
X60764657Y-65869457D01*
X60431323Y-65774219D02*
X59812276Y-65774219D01*
X59812276Y-65774219D02*
X60145609Y-66155171D01*
X60145609Y-66155171D02*
X60002752Y-66155171D01*
X60002752Y-66155171D02*
X59907514Y-66202790D01*
X59907514Y-66202790D02*
X59859895Y-66250409D01*
X59859895Y-66250409D02*
X59812276Y-66345647D01*
X59812276Y-66345647D02*
X59812276Y-66583742D01*
X59812276Y-66583742D02*
X59859895Y-66678980D01*
X59859895Y-66678980D02*
X59907514Y-66726600D01*
X59907514Y-66726600D02*
X60002752Y-66774219D01*
X60002752Y-66774219D02*
X60288466Y-66774219D01*
X60288466Y-66774219D02*
X60383704Y-66726600D01*
X60383704Y-66726600D02*
X60431323Y-66678980D01*
X58955133Y-66107552D02*
X58955133Y-66774219D01*
X59193228Y-65726600D02*
X59431323Y-66440885D01*
X59431323Y-66440885D02*
X58812276Y-66440885D01*
X122366066Y-44276180D02*
X122413685Y-44323800D01*
X122413685Y-44323800D02*
X122556542Y-44371419D01*
X122556542Y-44371419D02*
X122651780Y-44371419D01*
X122651780Y-44371419D02*
X122794637Y-44323800D01*
X122794637Y-44323800D02*
X122889875Y-44228561D01*
X122889875Y-44228561D02*
X122937494Y-44133323D01*
X122937494Y-44133323D02*
X122985113Y-43942847D01*
X122985113Y-43942847D02*
X122985113Y-43799990D01*
X122985113Y-43799990D02*
X122937494Y-43609514D01*
X122937494Y-43609514D02*
X122889875Y-43514276D01*
X122889875Y-43514276D02*
X122794637Y-43419038D01*
X122794637Y-43419038D02*
X122651780Y-43371419D01*
X122651780Y-43371419D02*
X122556542Y-43371419D01*
X122556542Y-43371419D02*
X122413685Y-43419038D01*
X122413685Y-43419038D02*
X122366066Y-43466657D01*
X121508923Y-43704752D02*
X121508923Y-44371419D01*
X121747018Y-43323800D02*
X121985113Y-44038085D01*
X121985113Y-44038085D02*
X121366066Y-44038085D01*
X126480866Y-131823619D02*
X126814199Y-131347428D01*
X127052294Y-131823619D02*
X127052294Y-130823619D01*
X127052294Y-130823619D02*
X126671342Y-130823619D01*
X126671342Y-130823619D02*
X126576104Y-130871238D01*
X126576104Y-130871238D02*
X126528485Y-130918857D01*
X126528485Y-130918857D02*
X126480866Y-131014095D01*
X126480866Y-131014095D02*
X126480866Y-131156952D01*
X126480866Y-131156952D02*
X126528485Y-131252190D01*
X126528485Y-131252190D02*
X126576104Y-131299809D01*
X126576104Y-131299809D02*
X126671342Y-131347428D01*
X126671342Y-131347428D02*
X127052294Y-131347428D01*
X125909437Y-131252190D02*
X126004675Y-131204571D01*
X126004675Y-131204571D02*
X126052294Y-131156952D01*
X126052294Y-131156952D02*
X126099913Y-131061714D01*
X126099913Y-131061714D02*
X126099913Y-131014095D01*
X126099913Y-131014095D02*
X126052294Y-130918857D01*
X126052294Y-130918857D02*
X126004675Y-130871238D01*
X126004675Y-130871238D02*
X125909437Y-130823619D01*
X125909437Y-130823619D02*
X125718961Y-130823619D01*
X125718961Y-130823619D02*
X125623723Y-130871238D01*
X125623723Y-130871238D02*
X125576104Y-130918857D01*
X125576104Y-130918857D02*
X125528485Y-131014095D01*
X125528485Y-131014095D02*
X125528485Y-131061714D01*
X125528485Y-131061714D02*
X125576104Y-131156952D01*
X125576104Y-131156952D02*
X125623723Y-131204571D01*
X125623723Y-131204571D02*
X125718961Y-131252190D01*
X125718961Y-131252190D02*
X125909437Y-131252190D01*
X125909437Y-131252190D02*
X126004675Y-131299809D01*
X126004675Y-131299809D02*
X126052294Y-131347428D01*
X126052294Y-131347428D02*
X126099913Y-131442666D01*
X126099913Y-131442666D02*
X126099913Y-131633142D01*
X126099913Y-131633142D02*
X126052294Y-131728380D01*
X126052294Y-131728380D02*
X126004675Y-131776000D01*
X126004675Y-131776000D02*
X125909437Y-131823619D01*
X125909437Y-131823619D02*
X125718961Y-131823619D01*
X125718961Y-131823619D02*
X125623723Y-131776000D01*
X125623723Y-131776000D02*
X125576104Y-131728380D01*
X125576104Y-131728380D02*
X125528485Y-131633142D01*
X125528485Y-131633142D02*
X125528485Y-131442666D01*
X125528485Y-131442666D02*
X125576104Y-131347428D01*
X125576104Y-131347428D02*
X125623723Y-131299809D01*
X125623723Y-131299809D02*
X125718961Y-131252190D01*
X124137657Y-98682980D02*
X124185276Y-98730600D01*
X124185276Y-98730600D02*
X124328133Y-98778219D01*
X124328133Y-98778219D02*
X124423371Y-98778219D01*
X124423371Y-98778219D02*
X124566228Y-98730600D01*
X124566228Y-98730600D02*
X124661466Y-98635361D01*
X124661466Y-98635361D02*
X124709085Y-98540123D01*
X124709085Y-98540123D02*
X124756704Y-98349647D01*
X124756704Y-98349647D02*
X124756704Y-98206790D01*
X124756704Y-98206790D02*
X124709085Y-98016314D01*
X124709085Y-98016314D02*
X124661466Y-97921076D01*
X124661466Y-97921076D02*
X124566228Y-97825838D01*
X124566228Y-97825838D02*
X124423371Y-97778219D01*
X124423371Y-97778219D02*
X124328133Y-97778219D01*
X124328133Y-97778219D02*
X124185276Y-97825838D01*
X124185276Y-97825838D02*
X124137657Y-97873457D01*
X123185276Y-98778219D02*
X123756704Y-98778219D01*
X123470990Y-98778219D02*
X123470990Y-97778219D01*
X123470990Y-97778219D02*
X123566228Y-97921076D01*
X123566228Y-97921076D02*
X123661466Y-98016314D01*
X123661466Y-98016314D02*
X123756704Y-98063933D01*
X122328133Y-98111552D02*
X122328133Y-98778219D01*
X122566228Y-97730600D02*
X122804323Y-98444885D01*
X122804323Y-98444885D02*
X122185276Y-98444885D01*
X99398057Y-48390980D02*
X99445676Y-48438600D01*
X99445676Y-48438600D02*
X99588533Y-48486219D01*
X99588533Y-48486219D02*
X99683771Y-48486219D01*
X99683771Y-48486219D02*
X99826628Y-48438600D01*
X99826628Y-48438600D02*
X99921866Y-48343361D01*
X99921866Y-48343361D02*
X99969485Y-48248123D01*
X99969485Y-48248123D02*
X100017104Y-48057647D01*
X100017104Y-48057647D02*
X100017104Y-47914790D01*
X100017104Y-47914790D02*
X99969485Y-47724314D01*
X99969485Y-47724314D02*
X99921866Y-47629076D01*
X99921866Y-47629076D02*
X99826628Y-47533838D01*
X99826628Y-47533838D02*
X99683771Y-47486219D01*
X99683771Y-47486219D02*
X99588533Y-47486219D01*
X99588533Y-47486219D02*
X99445676Y-47533838D01*
X99445676Y-47533838D02*
X99398057Y-47581457D01*
X99017104Y-47581457D02*
X98969485Y-47533838D01*
X98969485Y-47533838D02*
X98874247Y-47486219D01*
X98874247Y-47486219D02*
X98636152Y-47486219D01*
X98636152Y-47486219D02*
X98540914Y-47533838D01*
X98540914Y-47533838D02*
X98493295Y-47581457D01*
X98493295Y-47581457D02*
X98445676Y-47676695D01*
X98445676Y-47676695D02*
X98445676Y-47771933D01*
X98445676Y-47771933D02*
X98493295Y-47914790D01*
X98493295Y-47914790D02*
X99064723Y-48486219D01*
X99064723Y-48486219D02*
X98445676Y-48486219D01*
X97588533Y-47819552D02*
X97588533Y-48486219D01*
X97826628Y-47438600D02*
X98064723Y-48152885D01*
X98064723Y-48152885D02*
X97445676Y-48152885D01*
X102181177Y-129540867D02*
X102181177Y-128753465D01*
X102181177Y-128753465D02*
X101993700Y-128753465D01*
X101993700Y-128753465D02*
X101881214Y-128790960D01*
X101881214Y-128790960D02*
X101806224Y-128865951D01*
X101806224Y-128865951D02*
X101768728Y-128940942D01*
X101768728Y-128940942D02*
X101731233Y-129090923D01*
X101731233Y-129090923D02*
X101731233Y-129203409D01*
X101731233Y-129203409D02*
X101768728Y-129353390D01*
X101768728Y-129353390D02*
X101806224Y-129428381D01*
X101806224Y-129428381D02*
X101881214Y-129503372D01*
X101881214Y-129503372D02*
X101993700Y-129540867D01*
X101993700Y-129540867D02*
X102181177Y-129540867D01*
X101468766Y-128753465D02*
X100981326Y-128753465D01*
X100981326Y-128753465D02*
X101243794Y-129053428D01*
X101243794Y-129053428D02*
X101131308Y-129053428D01*
X101131308Y-129053428D02*
X101056317Y-129090923D01*
X101056317Y-129090923D02*
X101018822Y-129128418D01*
X101018822Y-129128418D02*
X100981326Y-129203409D01*
X100981326Y-129203409D02*
X100981326Y-129390886D01*
X100981326Y-129390886D02*
X101018822Y-129465876D01*
X101018822Y-129465876D02*
X101056317Y-129503372D01*
X101056317Y-129503372D02*
X101131308Y-129540867D01*
X101131308Y-129540867D02*
X101356280Y-129540867D01*
X101356280Y-129540867D02*
X101431270Y-129503372D01*
X101431270Y-129503372D02*
X101468766Y-129465876D01*
X87725301Y-111345230D02*
X87820603Y-111297579D01*
X87820603Y-111297579D02*
X87915905Y-111202278D01*
X87915905Y-111202278D02*
X88058858Y-111059325D01*
X88058858Y-111059325D02*
X88154159Y-111011674D01*
X88154159Y-111011674D02*
X88249461Y-111011674D01*
X88201810Y-111249928D02*
X88297112Y-111202278D01*
X88297112Y-111202278D02*
X88392414Y-111106976D01*
X88392414Y-111106976D02*
X88440065Y-110916372D01*
X88440065Y-110916372D02*
X88440065Y-110582816D01*
X88440065Y-110582816D02*
X88392414Y-110392212D01*
X88392414Y-110392212D02*
X88297112Y-110296910D01*
X88297112Y-110296910D02*
X88201810Y-110249259D01*
X88201810Y-110249259D02*
X88011207Y-110249259D01*
X88011207Y-110249259D02*
X87915905Y-110296910D01*
X87915905Y-110296910D02*
X87820603Y-110392212D01*
X87820603Y-110392212D02*
X87772952Y-110582816D01*
X87772952Y-110582816D02*
X87772952Y-110916372D01*
X87772952Y-110916372D02*
X87820603Y-111106976D01*
X87820603Y-111106976D02*
X87915905Y-111202278D01*
X87915905Y-111202278D02*
X88011207Y-111249928D01*
X88011207Y-111249928D02*
X88201810Y-111249928D01*
X86867585Y-110249259D02*
X87344094Y-110249259D01*
X87344094Y-110249259D02*
X87391745Y-110725768D01*
X87391745Y-110725768D02*
X87344094Y-110678118D01*
X87344094Y-110678118D02*
X87248792Y-110630467D01*
X87248792Y-110630467D02*
X87010538Y-110630467D01*
X87010538Y-110630467D02*
X86915236Y-110678118D01*
X86915236Y-110678118D02*
X86867585Y-110725768D01*
X86867585Y-110725768D02*
X86819934Y-110821070D01*
X86819934Y-110821070D02*
X86819934Y-111059325D01*
X86819934Y-111059325D02*
X86867585Y-111154627D01*
X86867585Y-111154627D02*
X86915236Y-111202278D01*
X86915236Y-111202278D02*
X87010538Y-111249928D01*
X87010538Y-111249928D02*
X87248792Y-111249928D01*
X87248792Y-111249928D02*
X87344094Y-111202278D01*
X87344094Y-111202278D02*
X87391745Y-111154627D01*
X118713301Y-134789430D02*
X118808603Y-134741779D01*
X118808603Y-134741779D02*
X118903905Y-134646478D01*
X118903905Y-134646478D02*
X119046858Y-134503525D01*
X119046858Y-134503525D02*
X119142159Y-134455874D01*
X119142159Y-134455874D02*
X119237461Y-134455874D01*
X119189810Y-134694128D02*
X119285112Y-134646478D01*
X119285112Y-134646478D02*
X119380414Y-134551176D01*
X119380414Y-134551176D02*
X119428065Y-134360572D01*
X119428065Y-134360572D02*
X119428065Y-134027016D01*
X119428065Y-134027016D02*
X119380414Y-133836412D01*
X119380414Y-133836412D02*
X119285112Y-133741110D01*
X119285112Y-133741110D02*
X119189810Y-133693459D01*
X119189810Y-133693459D02*
X118999207Y-133693459D01*
X118999207Y-133693459D02*
X118903905Y-133741110D01*
X118903905Y-133741110D02*
X118808603Y-133836412D01*
X118808603Y-133836412D02*
X118760952Y-134027016D01*
X118760952Y-134027016D02*
X118760952Y-134360572D01*
X118760952Y-134360572D02*
X118808603Y-134551176D01*
X118808603Y-134551176D02*
X118903905Y-134646478D01*
X118903905Y-134646478D02*
X118999207Y-134694128D01*
X118999207Y-134694128D02*
X119189810Y-134694128D01*
X117903236Y-133693459D02*
X118093839Y-133693459D01*
X118093839Y-133693459D02*
X118189141Y-133741110D01*
X118189141Y-133741110D02*
X118236792Y-133788761D01*
X118236792Y-133788761D02*
X118332094Y-133931714D01*
X118332094Y-133931714D02*
X118379745Y-134122318D01*
X118379745Y-134122318D02*
X118379745Y-134503525D01*
X118379745Y-134503525D02*
X118332094Y-134598827D01*
X118332094Y-134598827D02*
X118284443Y-134646478D01*
X118284443Y-134646478D02*
X118189141Y-134694128D01*
X118189141Y-134694128D02*
X117998538Y-134694128D01*
X117998538Y-134694128D02*
X117903236Y-134646478D01*
X117903236Y-134646478D02*
X117855585Y-134598827D01*
X117855585Y-134598827D02*
X117807934Y-134503525D01*
X117807934Y-134503525D02*
X117807934Y-134265270D01*
X117807934Y-134265270D02*
X117855585Y-134169968D01*
X117855585Y-134169968D02*
X117903236Y-134122318D01*
X117903236Y-134122318D02*
X117998538Y-134074667D01*
X117998538Y-134074667D02*
X118189141Y-134074667D01*
X118189141Y-134074667D02*
X118284443Y-134122318D01*
X118284443Y-134122318D02*
X118332094Y-134169968D01*
X118332094Y-134169968D02*
X118379745Y-134265270D01*
X130651238Y-92650457D02*
X130746476Y-92602838D01*
X130746476Y-92602838D02*
X130841714Y-92507600D01*
X130841714Y-92507600D02*
X130984571Y-92364742D01*
X130984571Y-92364742D02*
X131079809Y-92317123D01*
X131079809Y-92317123D02*
X131175047Y-92317123D01*
X131127428Y-92555219D02*
X131222666Y-92507600D01*
X131222666Y-92507600D02*
X131317904Y-92412361D01*
X131317904Y-92412361D02*
X131365523Y-92221885D01*
X131365523Y-92221885D02*
X131365523Y-91888552D01*
X131365523Y-91888552D02*
X131317904Y-91698076D01*
X131317904Y-91698076D02*
X131222666Y-91602838D01*
X131222666Y-91602838D02*
X131127428Y-91555219D01*
X131127428Y-91555219D02*
X130936952Y-91555219D01*
X130936952Y-91555219D02*
X130841714Y-91602838D01*
X130841714Y-91602838D02*
X130746476Y-91698076D01*
X130746476Y-91698076D02*
X130698857Y-91888552D01*
X130698857Y-91888552D02*
X130698857Y-92221885D01*
X130698857Y-92221885D02*
X130746476Y-92412361D01*
X130746476Y-92412361D02*
X130841714Y-92507600D01*
X130841714Y-92507600D02*
X130936952Y-92555219D01*
X130936952Y-92555219D02*
X131127428Y-92555219D01*
X130317904Y-91650457D02*
X130270285Y-91602838D01*
X130270285Y-91602838D02*
X130175047Y-91555219D01*
X130175047Y-91555219D02*
X129936952Y-91555219D01*
X129936952Y-91555219D02*
X129841714Y-91602838D01*
X129841714Y-91602838D02*
X129794095Y-91650457D01*
X129794095Y-91650457D02*
X129746476Y-91745695D01*
X129746476Y-91745695D02*
X129746476Y-91840933D01*
X129746476Y-91840933D02*
X129794095Y-91983790D01*
X129794095Y-91983790D02*
X130365523Y-92555219D01*
X130365523Y-92555219D02*
X129746476Y-92555219D01*
X60485257Y-32820780D02*
X60532876Y-32868400D01*
X60532876Y-32868400D02*
X60675733Y-32916019D01*
X60675733Y-32916019D02*
X60770971Y-32916019D01*
X60770971Y-32916019D02*
X60913828Y-32868400D01*
X60913828Y-32868400D02*
X61009066Y-32773161D01*
X61009066Y-32773161D02*
X61056685Y-32677923D01*
X61056685Y-32677923D02*
X61104304Y-32487447D01*
X61104304Y-32487447D02*
X61104304Y-32344590D01*
X61104304Y-32344590D02*
X61056685Y-32154114D01*
X61056685Y-32154114D02*
X61009066Y-32058876D01*
X61009066Y-32058876D02*
X60913828Y-31963638D01*
X60913828Y-31963638D02*
X60770971Y-31916019D01*
X60770971Y-31916019D02*
X60675733Y-31916019D01*
X60675733Y-31916019D02*
X60532876Y-31963638D01*
X60532876Y-31963638D02*
X60485257Y-32011257D01*
X60151923Y-31916019D02*
X59532876Y-31916019D01*
X59532876Y-31916019D02*
X59866209Y-32296971D01*
X59866209Y-32296971D02*
X59723352Y-32296971D01*
X59723352Y-32296971D02*
X59628114Y-32344590D01*
X59628114Y-32344590D02*
X59580495Y-32392209D01*
X59580495Y-32392209D02*
X59532876Y-32487447D01*
X59532876Y-32487447D02*
X59532876Y-32725542D01*
X59532876Y-32725542D02*
X59580495Y-32820780D01*
X59580495Y-32820780D02*
X59628114Y-32868400D01*
X59628114Y-32868400D02*
X59723352Y-32916019D01*
X59723352Y-32916019D02*
X60009066Y-32916019D01*
X60009066Y-32916019D02*
X60104304Y-32868400D01*
X60104304Y-32868400D02*
X60151923Y-32820780D01*
X58913828Y-31916019D02*
X58818590Y-31916019D01*
X58818590Y-31916019D02*
X58723352Y-31963638D01*
X58723352Y-31963638D02*
X58675733Y-32011257D01*
X58675733Y-32011257D02*
X58628114Y-32106495D01*
X58628114Y-32106495D02*
X58580495Y-32296971D01*
X58580495Y-32296971D02*
X58580495Y-32535066D01*
X58580495Y-32535066D02*
X58628114Y-32725542D01*
X58628114Y-32725542D02*
X58675733Y-32820780D01*
X58675733Y-32820780D02*
X58723352Y-32868400D01*
X58723352Y-32868400D02*
X58818590Y-32916019D01*
X58818590Y-32916019D02*
X58913828Y-32916019D01*
X58913828Y-32916019D02*
X59009066Y-32868400D01*
X59009066Y-32868400D02*
X59056685Y-32820780D01*
X59056685Y-32820780D02*
X59104304Y-32725542D01*
X59104304Y-32725542D02*
X59151923Y-32535066D01*
X59151923Y-32535066D02*
X59151923Y-32296971D01*
X59151923Y-32296971D02*
X59104304Y-32106495D01*
X59104304Y-32106495D02*
X59056685Y-32011257D01*
X59056685Y-32011257D02*
X59009066Y-31963638D01*
X59009066Y-31963638D02*
X58913828Y-31916019D01*
X128644638Y-133569857D02*
X128739876Y-133522238D01*
X128739876Y-133522238D02*
X128835114Y-133427000D01*
X128835114Y-133427000D02*
X128977971Y-133284142D01*
X128977971Y-133284142D02*
X129073209Y-133236523D01*
X129073209Y-133236523D02*
X129168447Y-133236523D01*
X129120828Y-133474619D02*
X129216066Y-133427000D01*
X129216066Y-133427000D02*
X129311304Y-133331761D01*
X129311304Y-133331761D02*
X129358923Y-133141285D01*
X129358923Y-133141285D02*
X129358923Y-132807952D01*
X129358923Y-132807952D02*
X129311304Y-132617476D01*
X129311304Y-132617476D02*
X129216066Y-132522238D01*
X129216066Y-132522238D02*
X129120828Y-132474619D01*
X129120828Y-132474619D02*
X128930352Y-132474619D01*
X128930352Y-132474619D02*
X128835114Y-132522238D01*
X128835114Y-132522238D02*
X128739876Y-132617476D01*
X128739876Y-132617476D02*
X128692257Y-132807952D01*
X128692257Y-132807952D02*
X128692257Y-133141285D01*
X128692257Y-133141285D02*
X128739876Y-133331761D01*
X128739876Y-133331761D02*
X128835114Y-133427000D01*
X128835114Y-133427000D02*
X128930352Y-133474619D01*
X128930352Y-133474619D02*
X129120828Y-133474619D01*
X127739876Y-133474619D02*
X128311304Y-133474619D01*
X128025590Y-133474619D02*
X128025590Y-132474619D01*
X128025590Y-132474619D02*
X128120828Y-132617476D01*
X128120828Y-132617476D02*
X128216066Y-132712714D01*
X128216066Y-132712714D02*
X128311304Y-132760333D01*
X106722752Y-128226409D02*
X106579895Y-128274028D01*
X106579895Y-128274028D02*
X106532276Y-128321647D01*
X106532276Y-128321647D02*
X106484657Y-128416885D01*
X106484657Y-128416885D02*
X106484657Y-128559742D01*
X106484657Y-128559742D02*
X106532276Y-128654980D01*
X106532276Y-128654980D02*
X106579895Y-128702600D01*
X106579895Y-128702600D02*
X106675133Y-128750219D01*
X106675133Y-128750219D02*
X107056085Y-128750219D01*
X107056085Y-128750219D02*
X107056085Y-127750219D01*
X107056085Y-127750219D02*
X106722752Y-127750219D01*
X106722752Y-127750219D02*
X106627514Y-127797838D01*
X106627514Y-127797838D02*
X106579895Y-127845457D01*
X106579895Y-127845457D02*
X106532276Y-127940695D01*
X106532276Y-127940695D02*
X106532276Y-128035933D01*
X106532276Y-128035933D02*
X106579895Y-128131171D01*
X106579895Y-128131171D02*
X106627514Y-128178790D01*
X106627514Y-128178790D02*
X106722752Y-128226409D01*
X106722752Y-128226409D02*
X107056085Y-128226409D01*
X106151323Y-127750219D02*
X105484657Y-127750219D01*
X105484657Y-127750219D02*
X106151323Y-128750219D01*
X106151323Y-128750219D02*
X105484657Y-128750219D01*
X104579895Y-128750219D02*
X105151323Y-128750219D01*
X104865609Y-128750219D02*
X104865609Y-127750219D01*
X104865609Y-127750219D02*
X104960847Y-127893076D01*
X104960847Y-127893076D02*
X105056085Y-127988314D01*
X105056085Y-127988314D02*
X105151323Y-128035933D01*
X114119866Y-137220848D02*
X114119866Y-137982753D01*
X114500819Y-137601800D02*
X113738914Y-137601800D01*
X60434457Y-81563380D02*
X60482076Y-81611000D01*
X60482076Y-81611000D02*
X60624933Y-81658619D01*
X60624933Y-81658619D02*
X60720171Y-81658619D01*
X60720171Y-81658619D02*
X60863028Y-81611000D01*
X60863028Y-81611000D02*
X60958266Y-81515761D01*
X60958266Y-81515761D02*
X61005885Y-81420523D01*
X61005885Y-81420523D02*
X61053504Y-81230047D01*
X61053504Y-81230047D02*
X61053504Y-81087190D01*
X61053504Y-81087190D02*
X61005885Y-80896714D01*
X61005885Y-80896714D02*
X60958266Y-80801476D01*
X60958266Y-80801476D02*
X60863028Y-80706238D01*
X60863028Y-80706238D02*
X60720171Y-80658619D01*
X60720171Y-80658619D02*
X60624933Y-80658619D01*
X60624933Y-80658619D02*
X60482076Y-80706238D01*
X60482076Y-80706238D02*
X60434457Y-80753857D01*
X60101123Y-80658619D02*
X59482076Y-80658619D01*
X59482076Y-80658619D02*
X59815409Y-81039571D01*
X59815409Y-81039571D02*
X59672552Y-81039571D01*
X59672552Y-81039571D02*
X59577314Y-81087190D01*
X59577314Y-81087190D02*
X59529695Y-81134809D01*
X59529695Y-81134809D02*
X59482076Y-81230047D01*
X59482076Y-81230047D02*
X59482076Y-81468142D01*
X59482076Y-81468142D02*
X59529695Y-81563380D01*
X59529695Y-81563380D02*
X59577314Y-81611000D01*
X59577314Y-81611000D02*
X59672552Y-81658619D01*
X59672552Y-81658619D02*
X59958266Y-81658619D01*
X59958266Y-81658619D02*
X60053504Y-81611000D01*
X60053504Y-81611000D02*
X60101123Y-81563380D01*
X59148742Y-80658619D02*
X58529695Y-80658619D01*
X58529695Y-80658619D02*
X58863028Y-81039571D01*
X58863028Y-81039571D02*
X58720171Y-81039571D01*
X58720171Y-81039571D02*
X58624933Y-81087190D01*
X58624933Y-81087190D02*
X58577314Y-81134809D01*
X58577314Y-81134809D02*
X58529695Y-81230047D01*
X58529695Y-81230047D02*
X58529695Y-81468142D01*
X58529695Y-81468142D02*
X58577314Y-81563380D01*
X58577314Y-81563380D02*
X58624933Y-81611000D01*
X58624933Y-81611000D02*
X58720171Y-81658619D01*
X58720171Y-81658619D02*
X59005885Y-81658619D01*
X59005885Y-81658619D02*
X59101123Y-81611000D01*
X59101123Y-81611000D02*
X59148742Y-81563380D01*
X99321857Y-46460580D02*
X99369476Y-46508200D01*
X99369476Y-46508200D02*
X99512333Y-46555819D01*
X99512333Y-46555819D02*
X99607571Y-46555819D01*
X99607571Y-46555819D02*
X99750428Y-46508200D01*
X99750428Y-46508200D02*
X99845666Y-46412961D01*
X99845666Y-46412961D02*
X99893285Y-46317723D01*
X99893285Y-46317723D02*
X99940904Y-46127247D01*
X99940904Y-46127247D02*
X99940904Y-45984390D01*
X99940904Y-45984390D02*
X99893285Y-45793914D01*
X99893285Y-45793914D02*
X99845666Y-45698676D01*
X99845666Y-45698676D02*
X99750428Y-45603438D01*
X99750428Y-45603438D02*
X99607571Y-45555819D01*
X99607571Y-45555819D02*
X99512333Y-45555819D01*
X99512333Y-45555819D02*
X99369476Y-45603438D01*
X99369476Y-45603438D02*
X99321857Y-45651057D01*
X98940904Y-45651057D02*
X98893285Y-45603438D01*
X98893285Y-45603438D02*
X98798047Y-45555819D01*
X98798047Y-45555819D02*
X98559952Y-45555819D01*
X98559952Y-45555819D02*
X98464714Y-45603438D01*
X98464714Y-45603438D02*
X98417095Y-45651057D01*
X98417095Y-45651057D02*
X98369476Y-45746295D01*
X98369476Y-45746295D02*
X98369476Y-45841533D01*
X98369476Y-45841533D02*
X98417095Y-45984390D01*
X98417095Y-45984390D02*
X98988523Y-46555819D01*
X98988523Y-46555819D02*
X98369476Y-46555819D01*
X97512333Y-45555819D02*
X97702809Y-45555819D01*
X97702809Y-45555819D02*
X97798047Y-45603438D01*
X97798047Y-45603438D02*
X97845666Y-45651057D01*
X97845666Y-45651057D02*
X97940904Y-45793914D01*
X97940904Y-45793914D02*
X97988523Y-45984390D01*
X97988523Y-45984390D02*
X97988523Y-46365342D01*
X97988523Y-46365342D02*
X97940904Y-46460580D01*
X97940904Y-46460580D02*
X97893285Y-46508200D01*
X97893285Y-46508200D02*
X97798047Y-46555819D01*
X97798047Y-46555819D02*
X97607571Y-46555819D01*
X97607571Y-46555819D02*
X97512333Y-46508200D01*
X97512333Y-46508200D02*
X97464714Y-46460580D01*
X97464714Y-46460580D02*
X97417095Y-46365342D01*
X97417095Y-46365342D02*
X97417095Y-46127247D01*
X97417095Y-46127247D02*
X97464714Y-46032009D01*
X97464714Y-46032009D02*
X97512333Y-45984390D01*
X97512333Y-45984390D02*
X97607571Y-45936771D01*
X97607571Y-45936771D02*
X97798047Y-45936771D01*
X97798047Y-45936771D02*
X97893285Y-45984390D01*
X97893285Y-45984390D02*
X97940904Y-46032009D01*
X97940904Y-46032009D02*
X97988523Y-46127247D01*
D11*
X107485933Y-30642619D02*
X107485933Y-31356904D01*
X107485933Y-31356904D02*
X107533552Y-31499761D01*
X107533552Y-31499761D02*
X107628790Y-31595000D01*
X107628790Y-31595000D02*
X107771647Y-31642619D01*
X107771647Y-31642619D02*
X107866885Y-31642619D01*
X106962123Y-31642619D02*
X106771647Y-31642619D01*
X106771647Y-31642619D02*
X106676409Y-31595000D01*
X106676409Y-31595000D02*
X106628790Y-31547380D01*
X106628790Y-31547380D02*
X106533552Y-31404523D01*
X106533552Y-31404523D02*
X106485933Y-31214047D01*
X106485933Y-31214047D02*
X106485933Y-30833095D01*
X106485933Y-30833095D02*
X106533552Y-30737857D01*
X106533552Y-30737857D02*
X106581171Y-30690238D01*
X106581171Y-30690238D02*
X106676409Y-30642619D01*
X106676409Y-30642619D02*
X106866885Y-30642619D01*
X106866885Y-30642619D02*
X106962123Y-30690238D01*
X106962123Y-30690238D02*
X107009742Y-30737857D01*
X107009742Y-30737857D02*
X107057361Y-30833095D01*
X107057361Y-30833095D02*
X107057361Y-31071190D01*
X107057361Y-31071190D02*
X107009742Y-31166428D01*
X107009742Y-31166428D02*
X106962123Y-31214047D01*
X106962123Y-31214047D02*
X106866885Y-31261666D01*
X106866885Y-31261666D02*
X106676409Y-31261666D01*
X106676409Y-31261666D02*
X106581171Y-31214047D01*
X106581171Y-31214047D02*
X106533552Y-31166428D01*
X106533552Y-31166428D02*
X106485933Y-31071190D01*
D10*
X130290866Y-137995819D02*
X130624199Y-137519628D01*
X130862294Y-137995819D02*
X130862294Y-136995819D01*
X130862294Y-136995819D02*
X130481342Y-136995819D01*
X130481342Y-136995819D02*
X130386104Y-137043438D01*
X130386104Y-137043438D02*
X130338485Y-137091057D01*
X130338485Y-137091057D02*
X130290866Y-137186295D01*
X130290866Y-137186295D02*
X130290866Y-137329152D01*
X130290866Y-137329152D02*
X130338485Y-137424390D01*
X130338485Y-137424390D02*
X130386104Y-137472009D01*
X130386104Y-137472009D02*
X130481342Y-137519628D01*
X130481342Y-137519628D02*
X130862294Y-137519628D01*
X129386104Y-136995819D02*
X129862294Y-136995819D01*
X129862294Y-136995819D02*
X129909913Y-137472009D01*
X129909913Y-137472009D02*
X129862294Y-137424390D01*
X129862294Y-137424390D02*
X129767056Y-137376771D01*
X129767056Y-137376771D02*
X129528961Y-137376771D01*
X129528961Y-137376771D02*
X129433723Y-137424390D01*
X129433723Y-137424390D02*
X129386104Y-137472009D01*
X129386104Y-137472009D02*
X129338485Y-137567247D01*
X129338485Y-137567247D02*
X129338485Y-137805342D01*
X129338485Y-137805342D02*
X129386104Y-137900580D01*
X129386104Y-137900580D02*
X129433723Y-137948200D01*
X129433723Y-137948200D02*
X129528961Y-137995819D01*
X129528961Y-137995819D02*
X129767056Y-137995819D01*
X129767056Y-137995819D02*
X129862294Y-137948200D01*
X129862294Y-137948200D02*
X129909913Y-137900580D01*
X90457257Y-65739180D02*
X90504876Y-65786800D01*
X90504876Y-65786800D02*
X90647733Y-65834419D01*
X90647733Y-65834419D02*
X90742971Y-65834419D01*
X90742971Y-65834419D02*
X90885828Y-65786800D01*
X90885828Y-65786800D02*
X90981066Y-65691561D01*
X90981066Y-65691561D02*
X91028685Y-65596323D01*
X91028685Y-65596323D02*
X91076304Y-65405847D01*
X91076304Y-65405847D02*
X91076304Y-65262990D01*
X91076304Y-65262990D02*
X91028685Y-65072514D01*
X91028685Y-65072514D02*
X90981066Y-64977276D01*
X90981066Y-64977276D02*
X90885828Y-64882038D01*
X90885828Y-64882038D02*
X90742971Y-64834419D01*
X90742971Y-64834419D02*
X90647733Y-64834419D01*
X90647733Y-64834419D02*
X90504876Y-64882038D01*
X90504876Y-64882038D02*
X90457257Y-64929657D01*
X90076304Y-64929657D02*
X90028685Y-64882038D01*
X90028685Y-64882038D02*
X89933447Y-64834419D01*
X89933447Y-64834419D02*
X89695352Y-64834419D01*
X89695352Y-64834419D02*
X89600114Y-64882038D01*
X89600114Y-64882038D02*
X89552495Y-64929657D01*
X89552495Y-64929657D02*
X89504876Y-65024895D01*
X89504876Y-65024895D02*
X89504876Y-65120133D01*
X89504876Y-65120133D02*
X89552495Y-65262990D01*
X89552495Y-65262990D02*
X90123923Y-65834419D01*
X90123923Y-65834419D02*
X89504876Y-65834419D01*
X89123923Y-64929657D02*
X89076304Y-64882038D01*
X89076304Y-64882038D02*
X88981066Y-64834419D01*
X88981066Y-64834419D02*
X88742971Y-64834419D01*
X88742971Y-64834419D02*
X88647733Y-64882038D01*
X88647733Y-64882038D02*
X88600114Y-64929657D01*
X88600114Y-64929657D02*
X88552495Y-65024895D01*
X88552495Y-65024895D02*
X88552495Y-65120133D01*
X88552495Y-65120133D02*
X88600114Y-65262990D01*
X88600114Y-65262990D02*
X89171542Y-65834419D01*
X89171542Y-65834419D02*
X88552495Y-65834419D01*
X130900466Y-97051019D02*
X131233799Y-96574828D01*
X131471894Y-97051019D02*
X131471894Y-96051019D01*
X131471894Y-96051019D02*
X131090942Y-96051019D01*
X131090942Y-96051019D02*
X130995704Y-96098638D01*
X130995704Y-96098638D02*
X130948085Y-96146257D01*
X130948085Y-96146257D02*
X130900466Y-96241495D01*
X130900466Y-96241495D02*
X130900466Y-96384352D01*
X130900466Y-96384352D02*
X130948085Y-96479590D01*
X130948085Y-96479590D02*
X130995704Y-96527209D01*
X130995704Y-96527209D02*
X131090942Y-96574828D01*
X131090942Y-96574828D02*
X131471894Y-96574828D01*
X130424275Y-97051019D02*
X130233799Y-97051019D01*
X130233799Y-97051019D02*
X130138561Y-97003400D01*
X130138561Y-97003400D02*
X130090942Y-96955780D01*
X130090942Y-96955780D02*
X129995704Y-96812923D01*
X129995704Y-96812923D02*
X129948085Y-96622447D01*
X129948085Y-96622447D02*
X129948085Y-96241495D01*
X129948085Y-96241495D02*
X129995704Y-96146257D01*
X129995704Y-96146257D02*
X130043323Y-96098638D01*
X130043323Y-96098638D02*
X130138561Y-96051019D01*
X130138561Y-96051019D02*
X130329037Y-96051019D01*
X130329037Y-96051019D02*
X130424275Y-96098638D01*
X130424275Y-96098638D02*
X130471894Y-96146257D01*
X130471894Y-96146257D02*
X130519513Y-96241495D01*
X130519513Y-96241495D02*
X130519513Y-96479590D01*
X130519513Y-96479590D02*
X130471894Y-96574828D01*
X130471894Y-96574828D02*
X130424275Y-96622447D01*
X130424275Y-96622447D02*
X130329037Y-96670066D01*
X130329037Y-96670066D02*
X130138561Y-96670066D01*
X130138561Y-96670066D02*
X130043323Y-96622447D01*
X130043323Y-96622447D02*
X129995704Y-96574828D01*
X129995704Y-96574828D02*
X129948085Y-96479590D01*
D11*
X129112283Y-117256619D02*
X129112283Y-117970904D01*
X129112283Y-117970904D02*
X129159902Y-118113761D01*
X129159902Y-118113761D02*
X129255140Y-118209000D01*
X129255140Y-118209000D02*
X129397997Y-118256619D01*
X129397997Y-118256619D02*
X129493235Y-118256619D01*
X128207521Y-117589952D02*
X128207521Y-118256619D01*
X128445616Y-117209000D02*
X128683711Y-117923285D01*
X128683711Y-117923285D02*
X128064664Y-117923285D01*
D10*
X63584057Y-136833780D02*
X63631676Y-136881400D01*
X63631676Y-136881400D02*
X63774533Y-136929019D01*
X63774533Y-136929019D02*
X63869771Y-136929019D01*
X63869771Y-136929019D02*
X64012628Y-136881400D01*
X64012628Y-136881400D02*
X64107866Y-136786161D01*
X64107866Y-136786161D02*
X64155485Y-136690923D01*
X64155485Y-136690923D02*
X64203104Y-136500447D01*
X64203104Y-136500447D02*
X64203104Y-136357590D01*
X64203104Y-136357590D02*
X64155485Y-136167114D01*
X64155485Y-136167114D02*
X64107866Y-136071876D01*
X64107866Y-136071876D02*
X64012628Y-135976638D01*
X64012628Y-135976638D02*
X63869771Y-135929019D01*
X63869771Y-135929019D02*
X63774533Y-135929019D01*
X63774533Y-135929019D02*
X63631676Y-135976638D01*
X63631676Y-135976638D02*
X63584057Y-136024257D01*
X63250723Y-135929019D02*
X62631676Y-135929019D01*
X62631676Y-135929019D02*
X62965009Y-136309971D01*
X62965009Y-136309971D02*
X62822152Y-136309971D01*
X62822152Y-136309971D02*
X62726914Y-136357590D01*
X62726914Y-136357590D02*
X62679295Y-136405209D01*
X62679295Y-136405209D02*
X62631676Y-136500447D01*
X62631676Y-136500447D02*
X62631676Y-136738542D01*
X62631676Y-136738542D02*
X62679295Y-136833780D01*
X62679295Y-136833780D02*
X62726914Y-136881400D01*
X62726914Y-136881400D02*
X62822152Y-136929019D01*
X62822152Y-136929019D02*
X63107866Y-136929019D01*
X63107866Y-136929019D02*
X63203104Y-136881400D01*
X63203104Y-136881400D02*
X63250723Y-136833780D01*
X61774533Y-135929019D02*
X61965009Y-135929019D01*
X61965009Y-135929019D02*
X62060247Y-135976638D01*
X62060247Y-135976638D02*
X62107866Y-136024257D01*
X62107866Y-136024257D02*
X62203104Y-136167114D01*
X62203104Y-136167114D02*
X62250723Y-136357590D01*
X62250723Y-136357590D02*
X62250723Y-136738542D01*
X62250723Y-136738542D02*
X62203104Y-136833780D01*
X62203104Y-136833780D02*
X62155485Y-136881400D01*
X62155485Y-136881400D02*
X62060247Y-136929019D01*
X62060247Y-136929019D02*
X61869771Y-136929019D01*
X61869771Y-136929019D02*
X61774533Y-136881400D01*
X61774533Y-136881400D02*
X61726914Y-136833780D01*
X61726914Y-136833780D02*
X61679295Y-136738542D01*
X61679295Y-136738542D02*
X61679295Y-136500447D01*
X61679295Y-136500447D02*
X61726914Y-136405209D01*
X61726914Y-136405209D02*
X61774533Y-136357590D01*
X61774533Y-136357590D02*
X61869771Y-136309971D01*
X61869771Y-136309971D02*
X62060247Y-136309971D01*
X62060247Y-136309971D02*
X62155485Y-136357590D01*
X62155485Y-136357590D02*
X62203104Y-136405209D01*
X62203104Y-136405209D02*
X62250723Y-136500447D01*
D11*
X61667923Y-143348419D02*
X61667923Y-144062704D01*
X61667923Y-144062704D02*
X61715542Y-144205561D01*
X61715542Y-144205561D02*
X61810780Y-144300800D01*
X61810780Y-144300800D02*
X61953637Y-144348419D01*
X61953637Y-144348419D02*
X62048875Y-144348419D01*
X60667923Y-144348419D02*
X61239351Y-144348419D01*
X60953637Y-144348419D02*
X60953637Y-143348419D01*
X60953637Y-143348419D02*
X61048875Y-143491276D01*
X61048875Y-143491276D02*
X61144113Y-143586514D01*
X61144113Y-143586514D02*
X61239351Y-143634133D01*
X59763161Y-143348419D02*
X60239351Y-143348419D01*
X60239351Y-143348419D02*
X60286970Y-143824609D01*
X60286970Y-143824609D02*
X60239351Y-143776990D01*
X60239351Y-143776990D02*
X60144113Y-143729371D01*
X60144113Y-143729371D02*
X59906018Y-143729371D01*
X59906018Y-143729371D02*
X59810780Y-143776990D01*
X59810780Y-143776990D02*
X59763161Y-143824609D01*
X59763161Y-143824609D02*
X59715542Y-143919847D01*
X59715542Y-143919847D02*
X59715542Y-144157942D01*
X59715542Y-144157942D02*
X59763161Y-144253180D01*
X59763161Y-144253180D02*
X59810780Y-144300800D01*
X59810780Y-144300800D02*
X59906018Y-144348419D01*
X59906018Y-144348419D02*
X60144113Y-144348419D01*
X60144113Y-144348419D02*
X60239351Y-144300800D01*
X60239351Y-144300800D02*
X60286970Y-144253180D01*
D10*
X136132866Y-51057980D02*
X136180485Y-51105600D01*
X136180485Y-51105600D02*
X136323342Y-51153219D01*
X136323342Y-51153219D02*
X136418580Y-51153219D01*
X136418580Y-51153219D02*
X136561437Y-51105600D01*
X136561437Y-51105600D02*
X136656675Y-51010361D01*
X136656675Y-51010361D02*
X136704294Y-50915123D01*
X136704294Y-50915123D02*
X136751913Y-50724647D01*
X136751913Y-50724647D02*
X136751913Y-50581790D01*
X136751913Y-50581790D02*
X136704294Y-50391314D01*
X136704294Y-50391314D02*
X136656675Y-50296076D01*
X136656675Y-50296076D02*
X136561437Y-50200838D01*
X136561437Y-50200838D02*
X136418580Y-50153219D01*
X136418580Y-50153219D02*
X136323342Y-50153219D01*
X136323342Y-50153219D02*
X136180485Y-50200838D01*
X136180485Y-50200838D02*
X136132866Y-50248457D01*
X135799532Y-50153219D02*
X135180485Y-50153219D01*
X135180485Y-50153219D02*
X135513818Y-50534171D01*
X135513818Y-50534171D02*
X135370961Y-50534171D01*
X135370961Y-50534171D02*
X135275723Y-50581790D01*
X135275723Y-50581790D02*
X135228104Y-50629409D01*
X135228104Y-50629409D02*
X135180485Y-50724647D01*
X135180485Y-50724647D02*
X135180485Y-50962742D01*
X135180485Y-50962742D02*
X135228104Y-51057980D01*
X135228104Y-51057980D02*
X135275723Y-51105600D01*
X135275723Y-51105600D02*
X135370961Y-51153219D01*
X135370961Y-51153219D02*
X135656675Y-51153219D01*
X135656675Y-51153219D02*
X135751913Y-51105600D01*
X135751913Y-51105600D02*
X135799532Y-51057980D01*
X55125857Y-125556180D02*
X55173476Y-125603800D01*
X55173476Y-125603800D02*
X55316333Y-125651419D01*
X55316333Y-125651419D02*
X55411571Y-125651419D01*
X55411571Y-125651419D02*
X55554428Y-125603800D01*
X55554428Y-125603800D02*
X55649666Y-125508561D01*
X55649666Y-125508561D02*
X55697285Y-125413323D01*
X55697285Y-125413323D02*
X55744904Y-125222847D01*
X55744904Y-125222847D02*
X55744904Y-125079990D01*
X55744904Y-125079990D02*
X55697285Y-124889514D01*
X55697285Y-124889514D02*
X55649666Y-124794276D01*
X55649666Y-124794276D02*
X55554428Y-124699038D01*
X55554428Y-124699038D02*
X55411571Y-124651419D01*
X55411571Y-124651419D02*
X55316333Y-124651419D01*
X55316333Y-124651419D02*
X55173476Y-124699038D01*
X55173476Y-124699038D02*
X55125857Y-124746657D01*
X54268714Y-124984752D02*
X54268714Y-125651419D01*
X54506809Y-124603800D02*
X54744904Y-125318085D01*
X54744904Y-125318085D02*
X54125857Y-125318085D01*
X53221095Y-125651419D02*
X53792523Y-125651419D01*
X53506809Y-125651419D02*
X53506809Y-124651419D01*
X53506809Y-124651419D02*
X53602047Y-124794276D01*
X53602047Y-124794276D02*
X53697285Y-124889514D01*
X53697285Y-124889514D02*
X53792523Y-124937133D01*
X61831457Y-43310980D02*
X61879076Y-43358600D01*
X61879076Y-43358600D02*
X62021933Y-43406219D01*
X62021933Y-43406219D02*
X62117171Y-43406219D01*
X62117171Y-43406219D02*
X62260028Y-43358600D01*
X62260028Y-43358600D02*
X62355266Y-43263361D01*
X62355266Y-43263361D02*
X62402885Y-43168123D01*
X62402885Y-43168123D02*
X62450504Y-42977647D01*
X62450504Y-42977647D02*
X62450504Y-42834790D01*
X62450504Y-42834790D02*
X62402885Y-42644314D01*
X62402885Y-42644314D02*
X62355266Y-42549076D01*
X62355266Y-42549076D02*
X62260028Y-42453838D01*
X62260028Y-42453838D02*
X62117171Y-42406219D01*
X62117171Y-42406219D02*
X62021933Y-42406219D01*
X62021933Y-42406219D02*
X61879076Y-42453838D01*
X61879076Y-42453838D02*
X61831457Y-42501457D01*
X60879076Y-43406219D02*
X61450504Y-43406219D01*
X61164790Y-43406219D02*
X61164790Y-42406219D01*
X61164790Y-42406219D02*
X61260028Y-42549076D01*
X61260028Y-42549076D02*
X61355266Y-42644314D01*
X61355266Y-42644314D02*
X61450504Y-42691933D01*
X60402885Y-43406219D02*
X60212409Y-43406219D01*
X60212409Y-43406219D02*
X60117171Y-43358600D01*
X60117171Y-43358600D02*
X60069552Y-43310980D01*
X60069552Y-43310980D02*
X59974314Y-43168123D01*
X59974314Y-43168123D02*
X59926695Y-42977647D01*
X59926695Y-42977647D02*
X59926695Y-42596695D01*
X59926695Y-42596695D02*
X59974314Y-42501457D01*
X59974314Y-42501457D02*
X60021933Y-42453838D01*
X60021933Y-42453838D02*
X60117171Y-42406219D01*
X60117171Y-42406219D02*
X60307647Y-42406219D01*
X60307647Y-42406219D02*
X60402885Y-42453838D01*
X60402885Y-42453838D02*
X60450504Y-42501457D01*
X60450504Y-42501457D02*
X60498123Y-42596695D01*
X60498123Y-42596695D02*
X60498123Y-42834790D01*
X60498123Y-42834790D02*
X60450504Y-42930028D01*
X60450504Y-42930028D02*
X60402885Y-42977647D01*
X60402885Y-42977647D02*
X60307647Y-43025266D01*
X60307647Y-43025266D02*
X60117171Y-43025266D01*
X60117171Y-43025266D02*
X60021933Y-42977647D01*
X60021933Y-42977647D02*
X59974314Y-42930028D01*
X59974314Y-42930028D02*
X59926695Y-42834790D01*
X90304857Y-67720380D02*
X90352476Y-67768000D01*
X90352476Y-67768000D02*
X90495333Y-67815619D01*
X90495333Y-67815619D02*
X90590571Y-67815619D01*
X90590571Y-67815619D02*
X90733428Y-67768000D01*
X90733428Y-67768000D02*
X90828666Y-67672761D01*
X90828666Y-67672761D02*
X90876285Y-67577523D01*
X90876285Y-67577523D02*
X90923904Y-67387047D01*
X90923904Y-67387047D02*
X90923904Y-67244190D01*
X90923904Y-67244190D02*
X90876285Y-67053714D01*
X90876285Y-67053714D02*
X90828666Y-66958476D01*
X90828666Y-66958476D02*
X90733428Y-66863238D01*
X90733428Y-66863238D02*
X90590571Y-66815619D01*
X90590571Y-66815619D02*
X90495333Y-66815619D01*
X90495333Y-66815619D02*
X90352476Y-66863238D01*
X90352476Y-66863238D02*
X90304857Y-66910857D01*
X89923904Y-66910857D02*
X89876285Y-66863238D01*
X89876285Y-66863238D02*
X89781047Y-66815619D01*
X89781047Y-66815619D02*
X89542952Y-66815619D01*
X89542952Y-66815619D02*
X89447714Y-66863238D01*
X89447714Y-66863238D02*
X89400095Y-66910857D01*
X89400095Y-66910857D02*
X89352476Y-67006095D01*
X89352476Y-67006095D02*
X89352476Y-67101333D01*
X89352476Y-67101333D02*
X89400095Y-67244190D01*
X89400095Y-67244190D02*
X89971523Y-67815619D01*
X89971523Y-67815619D02*
X89352476Y-67815619D01*
X89019142Y-66815619D02*
X88400095Y-66815619D01*
X88400095Y-66815619D02*
X88733428Y-67196571D01*
X88733428Y-67196571D02*
X88590571Y-67196571D01*
X88590571Y-67196571D02*
X88495333Y-67244190D01*
X88495333Y-67244190D02*
X88447714Y-67291809D01*
X88447714Y-67291809D02*
X88400095Y-67387047D01*
X88400095Y-67387047D02*
X88400095Y-67625142D01*
X88400095Y-67625142D02*
X88447714Y-67720380D01*
X88447714Y-67720380D02*
X88495333Y-67768000D01*
X88495333Y-67768000D02*
X88590571Y-67815619D01*
X88590571Y-67815619D02*
X88876285Y-67815619D01*
X88876285Y-67815619D02*
X88971523Y-67768000D01*
X88971523Y-67768000D02*
X89019142Y-67720380D01*
X76595266Y-138891180D02*
X76642885Y-138938800D01*
X76642885Y-138938800D02*
X76785742Y-138986419D01*
X76785742Y-138986419D02*
X76880980Y-138986419D01*
X76880980Y-138986419D02*
X77023837Y-138938800D01*
X77023837Y-138938800D02*
X77119075Y-138843561D01*
X77119075Y-138843561D02*
X77166694Y-138748323D01*
X77166694Y-138748323D02*
X77214313Y-138557847D01*
X77214313Y-138557847D02*
X77214313Y-138414990D01*
X77214313Y-138414990D02*
X77166694Y-138224514D01*
X77166694Y-138224514D02*
X77119075Y-138129276D01*
X77119075Y-138129276D02*
X77023837Y-138034038D01*
X77023837Y-138034038D02*
X76880980Y-137986419D01*
X76880980Y-137986419D02*
X76785742Y-137986419D01*
X76785742Y-137986419D02*
X76642885Y-138034038D01*
X76642885Y-138034038D02*
X76595266Y-138081657D01*
X75690504Y-137986419D02*
X76166694Y-137986419D01*
X76166694Y-137986419D02*
X76214313Y-138462609D01*
X76214313Y-138462609D02*
X76166694Y-138414990D01*
X76166694Y-138414990D02*
X76071456Y-138367371D01*
X76071456Y-138367371D02*
X75833361Y-138367371D01*
X75833361Y-138367371D02*
X75738123Y-138414990D01*
X75738123Y-138414990D02*
X75690504Y-138462609D01*
X75690504Y-138462609D02*
X75642885Y-138557847D01*
X75642885Y-138557847D02*
X75642885Y-138795942D01*
X75642885Y-138795942D02*
X75690504Y-138891180D01*
X75690504Y-138891180D02*
X75738123Y-138938800D01*
X75738123Y-138938800D02*
X75833361Y-138986419D01*
X75833361Y-138986419D02*
X76071456Y-138986419D01*
X76071456Y-138986419D02*
X76166694Y-138938800D01*
X76166694Y-138938800D02*
X76214313Y-138891180D01*
X76569866Y-136954419D02*
X76903199Y-136478228D01*
X77141294Y-136954419D02*
X77141294Y-135954419D01*
X77141294Y-135954419D02*
X76760342Y-135954419D01*
X76760342Y-135954419D02*
X76665104Y-136002038D01*
X76665104Y-136002038D02*
X76617485Y-136049657D01*
X76617485Y-136049657D02*
X76569866Y-136144895D01*
X76569866Y-136144895D02*
X76569866Y-136287752D01*
X76569866Y-136287752D02*
X76617485Y-136382990D01*
X76617485Y-136382990D02*
X76665104Y-136430609D01*
X76665104Y-136430609D02*
X76760342Y-136478228D01*
X76760342Y-136478228D02*
X77141294Y-136478228D01*
X76236532Y-135954419D02*
X75617485Y-135954419D01*
X75617485Y-135954419D02*
X75950818Y-136335371D01*
X75950818Y-136335371D02*
X75807961Y-136335371D01*
X75807961Y-136335371D02*
X75712723Y-136382990D01*
X75712723Y-136382990D02*
X75665104Y-136430609D01*
X75665104Y-136430609D02*
X75617485Y-136525847D01*
X75617485Y-136525847D02*
X75617485Y-136763942D01*
X75617485Y-136763942D02*
X75665104Y-136859180D01*
X75665104Y-136859180D02*
X75712723Y-136906800D01*
X75712723Y-136906800D02*
X75807961Y-136954419D01*
X75807961Y-136954419D02*
X76093675Y-136954419D01*
X76093675Y-136954419D02*
X76188913Y-136906800D01*
X76188913Y-136906800D02*
X76236532Y-136859180D01*
D12*
%TO.C,R12*%
X131586500Y-89772574D02*
X131586500Y-89263126D01*
X130541500Y-89772574D02*
X130541500Y-89263126D01*
%TO.C,R11*%
X128611100Y-89263126D02*
X128611100Y-89772574D01*
X129656100Y-89263126D02*
X129656100Y-89772574D01*
%TO.C,C28*%
X56788267Y-30964600D02*
X56495733Y-30964600D01*
X56788267Y-29944600D02*
X56495733Y-29944600D01*
%TO.C,C7*%
X104878600Y-91146583D02*
X104878600Y-91439117D01*
X103858600Y-91146583D02*
X103858600Y-91439117D01*
D11*
%TO.C,J13*%
X43406600Y-97920000D02*
X43406600Y-82420000D01*
X48906600Y-97920000D02*
X43406600Y-97920000D01*
X48906600Y-97920000D02*
X48906600Y-96520000D01*
X51206600Y-96520000D02*
X48906600Y-96520000D01*
X51206600Y-96520000D02*
X51206600Y-83820000D01*
X51206600Y-83820000D02*
X48906600Y-83820000D01*
X48906600Y-82420000D02*
X48906600Y-83820000D01*
X48906600Y-82420000D02*
X43406600Y-82420000D01*
D12*
%TO.C,R18*%
X86769024Y-115101900D02*
X86259576Y-115101900D01*
X86769024Y-114056900D02*
X86259576Y-114056900D01*
%TO.C,C37*%
X57052000Y-104895867D02*
X57052000Y-104603333D01*
X58072000Y-104895867D02*
X58072000Y-104603333D01*
%TO.C,C35*%
X56788267Y-83695000D02*
X56495733Y-83695000D01*
X56788267Y-82675000D02*
X56495733Y-82675000D01*
D11*
%TO.C,J11*%
X43406600Y-64121066D02*
X43406600Y-48621066D01*
X48906600Y-64121066D02*
X43406600Y-64121066D01*
X48906600Y-64121066D02*
X48906600Y-62721066D01*
X51206600Y-62721066D02*
X48906600Y-62721066D01*
X51206600Y-62721066D02*
X51206600Y-50021066D01*
X51206600Y-50021066D02*
X48906600Y-50021066D01*
X48906600Y-48621066D02*
X48906600Y-50021066D01*
X48906600Y-48621066D02*
X43406600Y-48621066D01*
D12*
%TO.C,C8*%
X123611950Y-91146583D02*
X123611950Y-91439117D01*
X122591950Y-91146583D02*
X122591950Y-91439117D01*
%TO.C,C21*%
X64575000Y-45369433D02*
X64575000Y-45661967D01*
X63555000Y-45369433D02*
X63555000Y-45661967D01*
%TO.C,R10*%
X110774226Y-96054650D02*
X111283674Y-96054650D01*
X110774226Y-97099650D02*
X111283674Y-97099650D01*
%TO.C,C16*%
X127517717Y-137031000D02*
X127225183Y-137031000D01*
X127517717Y-138051000D02*
X127225183Y-138051000D01*
%TO.C,C1*%
X129554200Y-57363800D02*
X130054200Y-57363800D01*
X129804200Y-57613800D02*
X129804200Y-57113800D01*
X130294200Y-54608237D02*
X130294200Y-54743800D01*
X130294200Y-54608237D02*
X131358637Y-53543800D01*
X130294200Y-56999363D02*
X130294200Y-56863800D01*
X130294200Y-56999363D02*
X131358637Y-58063800D01*
X131358637Y-53543800D02*
X134814200Y-53543800D01*
X131358637Y-58063800D02*
X134814200Y-58063800D01*
X134814200Y-53543800D02*
X134814200Y-54743800D01*
X134814200Y-58063800D02*
X134814200Y-56863800D01*
%TO.C,R16*%
X86769024Y-109158300D02*
X86259576Y-109158300D01*
X86769024Y-108113300D02*
X86259576Y-108113300D01*
D13*
%TO.C,D1*%
X126832200Y-55768800D02*
X126622200Y-55768800D01*
X126832200Y-55768800D02*
X126832200Y-60098800D01*
X124272200Y-55768800D02*
X124482200Y-55768800D01*
X126832200Y-60098800D02*
X126622200Y-60098800D01*
X124482200Y-60098800D02*
X124272200Y-60098800D01*
X124272200Y-60098800D02*
X124272200Y-55768800D01*
D14*
X125652200Y-53933800D02*
G75*
G03*
X125452200Y-53933800I-100000J0D01*
G01*
X125452200Y-53933800D02*
G75*
G03*
X125652200Y-53933800I100000J0D01*
G01*
D11*
%TO.C,J7*%
X95099800Y-68841800D02*
X95099800Y-79341800D01*
X89599800Y-68841800D02*
X95099800Y-68841800D01*
X89599800Y-68841800D02*
X89599800Y-70241800D01*
X87299800Y-70241800D02*
X89599800Y-70241800D01*
X87299800Y-70241800D02*
X87299800Y-77941800D01*
X87299800Y-77941800D02*
X89599800Y-77941800D01*
X89599800Y-79341800D02*
X89599800Y-77941800D01*
X89599800Y-79341800D02*
X95099800Y-79341800D01*
D12*
%TO.C,C29*%
X56788267Y-47830200D02*
X56495733Y-47830200D01*
X56788267Y-46810200D02*
X56495733Y-46810200D01*
%TO.C,J2*%
X146780200Y-33126400D02*
X146780200Y-33626400D01*
X146040200Y-33126400D02*
X146780200Y-33126400D01*
X146540200Y-33366400D02*
X146540200Y-43646400D01*
X145980200Y-33366400D02*
X145980200Y-43646400D01*
X143480200Y-33366400D02*
X143480200Y-43646400D01*
X137280200Y-33366400D02*
X137280200Y-43646400D01*
X135420200Y-33366400D02*
X146540200Y-33366400D01*
X135420200Y-33366400D02*
X135420200Y-43646400D01*
X139216200Y-37195400D02*
X139431200Y-36979400D01*
X141801200Y-39690400D02*
X141908200Y-39583400D01*
X142063200Y-39899400D02*
X142144200Y-39818400D01*
X139216200Y-42275400D02*
X139606200Y-41884400D01*
X139451200Y-42510400D02*
X139801200Y-42160400D01*
X135420200Y-43646400D02*
X146540200Y-43646400D01*
X141868374Y-34444756D02*
G75*
G03*
X139491201Y-34445401I-1188174J-1521644D01*
G01*
X142610535Y-35999669D02*
G75*
G03*
X142516199Y-35369400I-1930311J33274D01*
G01*
X142515739Y-36562803D02*
G75*
G03*
X142610200Y-35966400I-1835572J596408D01*
G01*
X139465592Y-34466084D02*
G75*
G03*
X139465201Y-37466399I1214606J-1500316D01*
G01*
X139492026Y-37488044D02*
G75*
G03*
X141869199Y-37487399I1188174J1521644D01*
G01*
X142610200Y-41046400D02*
G75*
G03*
X138750200Y-41046400I-1930000J0D01*
G01*
X138750200Y-41046400D02*
G75*
G03*
X142610200Y-41046400I1930000J0D01*
G01*
%TO.C,C18*%
X64575000Y-36682633D02*
X64575000Y-36975167D01*
X63555000Y-36682633D02*
X63555000Y-36975167D01*
%TO.C,C6*%
X106910600Y-91146583D02*
X106910600Y-91439117D01*
X105890600Y-91146583D02*
X105890600Y-91439117D01*
%TO.C,R14*%
X82027700Y-76529024D02*
X82027700Y-76019576D01*
X83072700Y-76529024D02*
X83072700Y-76019576D01*
D11*
%TO.C,J17*%
X96826800Y-115806400D02*
X96826800Y-126306400D01*
X91326800Y-115806400D02*
X96826800Y-115806400D01*
X91326800Y-115806400D02*
X91326800Y-117206400D01*
X89026800Y-117206400D02*
X91326800Y-117206400D01*
X89026800Y-117206400D02*
X89026800Y-124906400D01*
X89026800Y-124906400D02*
X91326800Y-124906400D01*
X91326800Y-126306400D02*
X91326800Y-124906400D01*
X91326800Y-126306400D02*
X96826800Y-126306400D01*
D12*
%TO.C,C27*%
X107308867Y-46583400D02*
X107016333Y-46583400D01*
X107308867Y-45563400D02*
X107016333Y-45563400D01*
D13*
%TO.C,D2*%
X131359200Y-24577200D02*
X131359200Y-24787200D01*
X131359200Y-24577200D02*
X135689200Y-24577200D01*
X131359200Y-27137200D02*
X131359200Y-26927200D01*
X135689200Y-24577200D02*
X135689200Y-24787200D01*
X135689200Y-26927200D02*
X135689200Y-27137200D01*
X135689200Y-27137200D02*
X131359200Y-27137200D01*
D14*
X129624200Y-25857200D02*
G75*
G03*
X129424200Y-25857200I-100000J0D01*
G01*
X129424200Y-25857200D02*
G75*
G03*
X129624200Y-25857200I100000J0D01*
G01*
D12*
%TO.C,C2*%
X129834200Y-42897800D02*
X129834200Y-43397800D01*
X129584200Y-43147800D02*
X130084200Y-43147800D01*
X132589763Y-43637800D02*
X132454200Y-43637800D01*
X132589763Y-43637800D02*
X133654200Y-44702237D01*
X130198637Y-43637800D02*
X130334200Y-43637800D01*
X130198637Y-43637800D02*
X129134200Y-44702237D01*
X133654200Y-44702237D02*
X133654200Y-48157800D01*
X129134200Y-44702237D02*
X129134200Y-48157800D01*
X133654200Y-48157800D02*
X132454200Y-48157800D01*
X129134200Y-48157800D02*
X130334200Y-48157800D01*
%TO.C,C9*%
X121521000Y-91146583D02*
X121521000Y-91439117D01*
X120501000Y-91146583D02*
X120501000Y-91439117D01*
%TO.C,C12*%
X105890600Y-95860917D02*
X105890600Y-95568383D01*
X106910600Y-95860917D02*
X106910600Y-95568383D01*
%TO.C,R6*%
X125858176Y-89907850D02*
X126367624Y-89907850D01*
X125858176Y-90952850D02*
X126367624Y-90952850D01*
%TO.C,C13*%
X103858600Y-95860917D02*
X103858600Y-95568383D01*
X104878600Y-95860917D02*
X104878600Y-95568383D01*
%TO.C,C32*%
X56788267Y-64721200D02*
X56495733Y-64721200D01*
X56788267Y-63701200D02*
X56495733Y-63701200D01*
D15*
%TO.C,Q3*%
X111919700Y-95129350D02*
X110268700Y-95129350D01*
X111919700Y-94115890D02*
X111919700Y-95129350D01*
X110268700Y-93844110D02*
X110268700Y-93163390D01*
X110268700Y-91878150D02*
X111919700Y-91878150D01*
X111919700Y-91878150D02*
X111919700Y-92891610D01*
D16*
X109900400Y-95535750D02*
G75*
G03*
X109748000Y-95535750I-76200J0D01*
G01*
X109748000Y-95535750D02*
G75*
G03*
X109900400Y-95535750I76200J0D01*
G01*
D11*
%TO.C,J8*%
X89974600Y-32205200D02*
X100474600Y-32205200D01*
X89974600Y-37705200D02*
X89974600Y-32205200D01*
X89974600Y-37705200D02*
X91374600Y-37705200D01*
X91374600Y-40005200D02*
X91374600Y-37705200D01*
X91374600Y-40005200D02*
X99074600Y-40005200D01*
X99074600Y-40005200D02*
X99074600Y-37705200D01*
X100474600Y-37705200D02*
X99074600Y-37705200D01*
X100474600Y-37705200D02*
X100474600Y-32205200D01*
D12*
%TO.C,R7*%
X108981776Y-89907850D02*
X109491224Y-89907850D01*
X108981776Y-90952850D02*
X109491224Y-90952850D01*
D11*
%TO.C,J16*%
X70989100Y-126306400D02*
X70989100Y-115806400D01*
X76489100Y-126306400D02*
X70989100Y-126306400D01*
X76489100Y-126306400D02*
X76489100Y-124906400D01*
X78789100Y-124906400D02*
X76489100Y-124906400D01*
X78789100Y-124906400D02*
X78789100Y-117206400D01*
X78789100Y-117206400D02*
X76489100Y-117206400D01*
X76489100Y-115806400D02*
X76489100Y-117206400D01*
X76489100Y-115806400D02*
X70989100Y-115806400D01*
D12*
%TO.C,F2*%
X133104200Y-36805148D02*
X133104200Y-39577652D01*
X129684200Y-36805148D02*
X129684200Y-39577652D01*
%TO.C,C40*%
X57202800Y-127813233D02*
X57202800Y-128105767D01*
X56182800Y-127813233D02*
X56182800Y-128105767D01*
%TO.C,R17*%
X79731324Y-115101900D02*
X79221876Y-115101900D01*
X79731324Y-114056900D02*
X79221876Y-114056900D01*
%TO.C,C17*%
X127517717Y-139981400D02*
X127225183Y-139981400D01*
X127517717Y-138961400D02*
X127225183Y-138961400D01*
%TO.C,C38*%
X66567267Y-135053800D02*
X66274733Y-135053800D01*
X66567267Y-134033800D02*
X66274733Y-134033800D01*
%TO.C,R13*%
X83072700Y-71654576D02*
X83072700Y-72164024D01*
X82027700Y-71654576D02*
X82027700Y-72164024D01*
%TO.C,C20*%
X62568400Y-36682633D02*
X62568400Y-36975167D01*
X61548400Y-36682633D02*
X61548400Y-36975167D01*
%TO.C,C25*%
X107308867Y-48539200D02*
X107016333Y-48539200D01*
X107308867Y-47519200D02*
X107016333Y-47519200D01*
%TO.C,R15*%
X79731324Y-109158300D02*
X79221876Y-109158300D01*
X79731324Y-108113300D02*
X79221876Y-108113300D01*
%TO.C,F1*%
X134365452Y-63101800D02*
X131592948Y-63101800D01*
X134365452Y-59681800D02*
X131592948Y-59681800D01*
%TO.C,C10*%
X135456200Y-132862367D02*
X135456200Y-132569833D01*
X136476200Y-132862367D02*
X136476200Y-132569833D01*
D11*
%TO.C,J14*%
X43406600Y-109999600D02*
X43406600Y-99499600D01*
X48906600Y-109999600D02*
X43406600Y-109999600D01*
X48906600Y-109999600D02*
X48906600Y-108599600D01*
X51206600Y-108599600D02*
X48906600Y-108599600D01*
X51206600Y-108599600D02*
X51206600Y-100899600D01*
X51206600Y-100899600D02*
X48906600Y-100899600D01*
X48906600Y-99499600D02*
X48906600Y-100899600D01*
X48906600Y-99499600D02*
X43406600Y-99499600D01*
%TO.C,J3*%
X84929800Y-151525800D02*
X74429800Y-151525800D01*
X84929800Y-146025800D02*
X84929800Y-151525800D01*
X84929800Y-146025800D02*
X83529800Y-146025800D01*
X83529800Y-143725800D02*
X83529800Y-146025800D01*
X83529800Y-143725800D02*
X75829800Y-143725800D01*
X75829800Y-143725800D02*
X75829800Y-146025800D01*
X74429800Y-146025800D02*
X75829800Y-146025800D01*
X74429800Y-146025800D02*
X74429800Y-151525800D01*
%TO.C,J10*%
X43406600Y-47221600D02*
X43406600Y-31721600D01*
X48906600Y-47221600D02*
X43406600Y-47221600D01*
X48906600Y-47221600D02*
X48906600Y-45821600D01*
X51206600Y-45821600D02*
X48906600Y-45821600D01*
X51206600Y-45821600D02*
X51206600Y-33121600D01*
X51206600Y-33121600D02*
X48906600Y-33121600D01*
X48906600Y-31721600D02*
X48906600Y-33121600D01*
X48906600Y-31721600D02*
X43406600Y-31721600D01*
D12*
%TO.C,C31*%
X56788267Y-49836800D02*
X56495733Y-49836800D01*
X56788267Y-48816800D02*
X56495733Y-48816800D01*
%TO.C,C15*%
X120501000Y-95860917D02*
X120501000Y-95568383D01*
X121521000Y-95860917D02*
X121521000Y-95568383D01*
%TO.C,C11*%
X137462800Y-132862367D02*
X137462800Y-132569833D01*
X138482800Y-132862367D02*
X138482800Y-132569833D01*
D11*
%TO.C,J1*%
X139184200Y-76062400D02*
X128684200Y-76062400D01*
X139184200Y-70562400D02*
X139184200Y-76062400D01*
X139184200Y-70562400D02*
X137784200Y-70562400D01*
X137784200Y-68262400D02*
X137784200Y-70562400D01*
X137784200Y-68262400D02*
X130084200Y-68262400D01*
X130084200Y-68262400D02*
X130084200Y-70562400D01*
X128684200Y-70562400D02*
X130084200Y-70562400D01*
X128684200Y-70562400D02*
X128684200Y-76062400D01*
D12*
%TO.C,C39*%
X59103800Y-104895867D02*
X59103800Y-104603333D01*
X60123800Y-104895867D02*
X60123800Y-104603333D01*
%TO.C,R19*%
X120523724Y-139993900D02*
X120014276Y-139993900D01*
X120523724Y-138948900D02*
X120014276Y-138948900D01*
D11*
%TO.C,J12*%
X43406600Y-81020532D02*
X43406600Y-65520532D01*
X48906600Y-81020532D02*
X43406600Y-81020532D01*
X48906600Y-81020532D02*
X48906600Y-79620532D01*
X51206600Y-79620532D02*
X48906600Y-79620532D01*
X51206600Y-79620532D02*
X51206600Y-66920532D01*
X51206600Y-66920532D02*
X48906600Y-66920532D01*
X48906600Y-65520532D02*
X48906600Y-66920532D01*
X48906600Y-65520532D02*
X43406600Y-65520532D01*
D15*
%TO.C,Q4*%
X78124500Y-110200400D02*
X76803700Y-110200400D01*
X76803700Y-110200400D02*
X76803700Y-113045200D01*
X78124500Y-113045200D02*
X78124500Y-110200400D01*
X76803700Y-113045200D02*
X78124500Y-113045200D01*
D17*
X79062700Y-109819400D02*
G75*
G03*
X78862700Y-109819400I-100000J0D01*
G01*
X78862700Y-109819400D02*
G75*
G03*
X79062700Y-109819400I100000J0D01*
G01*
D12*
%TO.C,C34*%
X56788267Y-66778600D02*
X56495733Y-66778600D01*
X56788267Y-65758600D02*
X56495733Y-65758600D01*
%TO.C,C4*%
X123992200Y-42897800D02*
X123992200Y-43397800D01*
X123742200Y-43147800D02*
X124242200Y-43147800D01*
X126747763Y-43637800D02*
X126612200Y-43637800D01*
X126747763Y-43637800D02*
X127812200Y-44702237D01*
X124356637Y-43637800D02*
X124492200Y-43637800D01*
X124356637Y-43637800D02*
X123292200Y-44702237D01*
X127812200Y-44702237D02*
X127812200Y-48157800D01*
X123292200Y-44702237D02*
X123292200Y-48157800D01*
X127812200Y-48157800D02*
X126612200Y-48157800D01*
X123292200Y-48157800D02*
X124492200Y-48157800D01*
%TO.C,R8*%
X128891726Y-130947900D02*
X129401174Y-130947900D01*
X128891726Y-131992900D02*
X129401174Y-131992900D01*
%TO.C,C14*%
X122591950Y-95860917D02*
X122591950Y-95568383D01*
X123611950Y-95860917D02*
X123611950Y-95568383D01*
%TO.C,C24*%
X95375867Y-48539200D02*
X95083333Y-48539200D01*
X95375867Y-47519200D02*
X95083333Y-47519200D01*
D13*
%TO.C,D3*%
X101209000Y-135581800D02*
X101419000Y-135581800D01*
X101209000Y-135581800D02*
X101209000Y-131251800D01*
X103769000Y-135581800D02*
X103559000Y-135581800D01*
X101209000Y-131251800D02*
X101419000Y-131251800D01*
X103559000Y-131251800D02*
X103769000Y-131251800D01*
X103769000Y-131251800D02*
X103769000Y-135581800D01*
D14*
X102589000Y-137416800D02*
G75*
G03*
X102389000Y-137416800I-100000J0D01*
G01*
X102389000Y-137416800D02*
G75*
G03*
X102589000Y-137416800I100000J0D01*
G01*
D15*
%TO.C,Q5*%
X85162200Y-110200400D02*
X83841400Y-110200400D01*
X83841400Y-110200400D02*
X83841400Y-113045200D01*
X85162200Y-113045200D02*
X85162200Y-110200400D01*
X83841400Y-113045200D02*
X85162200Y-113045200D01*
D17*
X86100400Y-109819400D02*
G75*
G03*
X85900400Y-109819400I-100000J0D01*
G01*
X85900400Y-109819400D02*
G75*
G03*
X86100400Y-109819400I100000J0D01*
G01*
D15*
%TO.C,Q6*%
X119796100Y-137937200D02*
X121116900Y-137937200D01*
X121116900Y-137937200D02*
X121116900Y-135092400D01*
X119796100Y-135092400D02*
X119796100Y-137937200D01*
X121116900Y-135092400D02*
X119796100Y-135092400D01*
D17*
X119057900Y-138318200D02*
G75*
G03*
X118857900Y-138318200I-100000J0D01*
G01*
X118857900Y-138318200D02*
G75*
G03*
X119057900Y-138318200I100000J0D01*
G01*
D15*
%TO.C,Q2*%
X128796100Y-95129350D02*
X127145100Y-95129350D01*
X128796100Y-94115890D02*
X128796100Y-95129350D01*
X127145100Y-93844110D02*
X127145100Y-93163390D01*
X127145100Y-91878150D02*
X128796100Y-91878150D01*
X128796100Y-91878150D02*
X128796100Y-92891610D01*
D16*
X126776800Y-95535750D02*
G75*
G03*
X126624400Y-95535750I-76200J0D01*
G01*
X126624400Y-95535750D02*
G75*
G03*
X126776800Y-95535750I76200J0D01*
G01*
D12*
%TO.C,C30*%
X56788267Y-32895000D02*
X56495733Y-32895000D01*
X56788267Y-31875000D02*
X56495733Y-31875000D01*
D15*
%TO.C,Q1*%
X130080700Y-132905500D02*
X131731700Y-132905500D01*
X130080700Y-133918960D02*
X130080700Y-132905500D01*
X131731700Y-134190740D02*
X131731700Y-134871460D01*
X131731700Y-136156700D02*
X130080700Y-136156700D01*
X130080700Y-136156700D02*
X130080700Y-135143240D01*
D16*
X132252400Y-132499100D02*
G75*
G03*
X132100000Y-132499100I-76200J0D01*
G01*
X132100000Y-132499100D02*
G75*
G03*
X132252400Y-132499100I76200J0D01*
G01*
D12*
%TO.C,BZ1*%
X117606000Y-133791800D02*
G75*
G03*
X105406000Y-133791800I-6100000J0D01*
G01*
X105406000Y-133791800D02*
G75*
G03*
X117606000Y-133791800I6100000J0D01*
G01*
%TO.C,C33*%
X56788267Y-81713800D02*
X56495733Y-81713800D01*
X56788267Y-80693800D02*
X56495733Y-80693800D01*
%TO.C,C26*%
X95370867Y-46583400D02*
X95078333Y-46583400D01*
X95370867Y-45563400D02*
X95078333Y-45563400D01*
D11*
%TO.C,J9*%
X101912600Y-32205200D02*
X112412600Y-32205200D01*
X101912600Y-37705200D02*
X101912600Y-32205200D01*
X101912600Y-37705200D02*
X103312600Y-37705200D01*
X103312600Y-40005200D02*
X103312600Y-37705200D01*
X103312600Y-40005200D02*
X111012600Y-40005200D01*
X111012600Y-40005200D02*
X111012600Y-37705200D01*
X112412600Y-37705200D02*
X111012600Y-37705200D01*
X112412600Y-37705200D02*
X112412600Y-32205200D01*
D12*
%TO.C,R5*%
X133018624Y-138063500D02*
X132509176Y-138063500D01*
X133018624Y-137018500D02*
X132509176Y-137018500D01*
%TO.C,C22*%
X85832733Y-64869600D02*
X86125267Y-64869600D01*
X85832733Y-65889600D02*
X86125267Y-65889600D01*
%TO.C,R9*%
X127639676Y-96054650D02*
X128149124Y-96054650D01*
X127639676Y-97099650D02*
X128149124Y-97099650D01*
D11*
%TO.C,J4*%
X123538950Y-118819200D02*
X134038950Y-118819200D01*
X123538950Y-124319200D02*
X123538950Y-118819200D01*
X123538950Y-124319200D02*
X124938950Y-124319200D01*
X124938950Y-126619200D02*
X124938950Y-124319200D01*
X124938950Y-126619200D02*
X132638950Y-126619200D01*
X132638950Y-126619200D02*
X132638950Y-124319200D01*
X134038950Y-124319200D02*
X132638950Y-124319200D01*
X134038950Y-124319200D02*
X134038950Y-118819200D01*
D12*
%TO.C,C36*%
X66568367Y-137035000D02*
X66275833Y-137035000D01*
X66568367Y-136015000D02*
X66275833Y-136015000D01*
D11*
%TO.C,J15*%
X71599800Y-151525800D02*
X61099800Y-151525800D01*
X71599800Y-146025800D02*
X71599800Y-151525800D01*
X71599800Y-146025800D02*
X70199800Y-146025800D01*
X70199800Y-143725800D02*
X70199800Y-146025800D01*
X70199800Y-143725800D02*
X62499800Y-143725800D01*
X62499800Y-143725800D02*
X62499800Y-146025800D01*
X61099800Y-146025800D02*
X62499800Y-146025800D01*
X61099800Y-146025800D02*
X61099800Y-151525800D01*
D12*
%TO.C,C3*%
X137606600Y-49806600D02*
X137606600Y-50306600D01*
X137356600Y-50056600D02*
X137856600Y-50056600D01*
X140362163Y-50546600D02*
X140226600Y-50546600D01*
X140362163Y-50546600D02*
X141426600Y-51611037D01*
X137971037Y-50546600D02*
X138106600Y-50546600D01*
X137971037Y-50546600D02*
X136906600Y-51611037D01*
X141426600Y-51611037D02*
X141426600Y-55066600D01*
X136906600Y-51611037D02*
X136906600Y-55066600D01*
X141426600Y-55066600D02*
X140226600Y-55066600D01*
X136906600Y-55066600D02*
X138106600Y-55066600D01*
%TO.C,C41*%
X55196200Y-127813233D02*
X55196200Y-128105767D01*
X54176200Y-127813233D02*
X54176200Y-128105767D01*
%TO.C,C19*%
X62568400Y-45369433D02*
X62568400Y-45661967D01*
X61548400Y-45369433D02*
X61548400Y-45661967D01*
%TO.C,C23*%
X85831633Y-66825400D02*
X86124167Y-66825400D01*
X85831633Y-67845400D02*
X86124167Y-67845400D01*
%TO.C,C5*%
X79126033Y-137996200D02*
X79418567Y-137996200D01*
X79126033Y-139016200D02*
X79418567Y-139016200D01*
%TO.C,R3*%
X79577024Y-137047500D02*
X79067576Y-137047500D01*
X79577024Y-136002500D02*
X79067576Y-136002500D01*
%TD*%
M02*
